<?xml version="1.0" encoding="UTF-8" standalone="no"?><svg xmlns="http://www.w3.org/2000/svg" xmlns:xlink="http://www.w3.org/1999/xlink" contentStyleType="text/css" height="348px" preserveAspectRatio="none" style="width:786px;height:348px;background:#FFFFFF;" version="1.1" viewBox="0 0 786 348" width="786px" zoomAndPan="magnify"><defs/><g><!--class CompilerInstance--><g id="elem_CompilerInstance"><rect codeLine="1" fill="#F1F1F1" height="334.8018" id="CompilerInstance" rx="2.5" ry="2.5" style="stroke:#181818;stroke-width:0.5;" width="440" x="166.5" y="7"/><ellipse cx="327.75" cy="23" fill="#ADD1B2" rx="11" ry="11" style="stroke:#181818;stroke-width:1.0;"/><path d="M326.3281,28.3594 Q324.4688,28.3594 323.375,26.9688 Q322.2813,25.5781 322.2813,22.5938 Q322.2813,20.0625 323.4453,18.4063 Q324.6094,16.75 326.5938,16.75 Q328.0625,16.75 328.5313,16.875 Q329,17.0781 329,17.0781 Q329,17.0781 329,17.0078 Q329,16.9375 329.6094,16.0156 L330.6563,19.6719 L329.3281,20.0781 Q328.8594,18.5313 328.1953,17.8672 Q327.5313,17.2031 326.4688,17.2031 Q326.0781,17.2031 325.3125,18.7344 Q324.5469,20.2656 324.5469,22.5156 Q324.5469,24.9844 325.2109,26.375 Q325.875,27.7656 326.4063,27.7656 Q327.4688,27.7656 328.2266,27 Q328.9844,26.2344 329.3281,24.5781 L330.6563,25.1719 Q330.3281,26.5781 329.4297,27.4688 Q328.5313,28.3594 326.3281,28.3594 Z " fill="#000000"/><text fill="#000000" font-family="sans-serif" font-size="14" lengthAdjust="spacing" textLength="109" x="348.25" y="29.4839">CompilerInstance</text><line style="stroke:#181818;stroke-width:0.5;" x1="167.5" x2="605.5" y1="39" y2="39"/><rect fill="none" height="6" style="stroke:#C82930;stroke-width:1.0;" width="6" x="174.5" y="51.0601"/><text fill="#000000" font-family="sans-serif" font-size="14" lengthAdjust="spacing" textLength="304" x="186.5" y="59.0439">Invocation: std::shared_ptr&lt;CompilerInvocation&gt;</text><rect fill="none" height="6" style="stroke:#C82930;stroke-width:1.0;" width="6" x="174.5" y="70.1802"/><text fill="#000000" font-family="sans-serif" font-size="14" lengthAdjust="spacing" textLength="329" x="186.5" y="78.1641">Diagnostics: IntrusiveRefCntPtr&lt;DiagnosticsEngine&gt;</text><rect fill="none" height="6" style="stroke:#C82930;stroke-width:1.0;" width="6" x="174.5" y="89.3003"/><text fill="#000000" font-family="sans-serif" font-size="14" lengthAdjust="spacing" textLength="246" x="186.5" y="97.2842">Target: IntrusiveRefCntPtr&lt;TargetInfo&gt;</text><rect fill="none" height="6" style="stroke:#C82930;stroke-width:1.0;" width="6" x="174.5" y="108.4204"/><text fill="#000000" font-family="sans-serif" font-size="14" lengthAdjust="spacing" textLength="269" x="186.5" y="116.4043">AuxTarget: IntrusiveRefCntPtr&lt;TargetInfo&gt;</text><rect fill="none" height="6" style="stroke:#C82930;stroke-width:1.0;" width="6" x="174.5" y="127.5405"/><text fill="#000000" font-family="sans-serif" font-size="14" lengthAdjust="spacing" textLength="309" x="186.5" y="135.5244">SourceMgr: IntrusiveRefCntPtr&lt;SourceManager&gt;</text><rect fill="none" height="6" style="stroke:#C82930;stroke-width:1.0;" width="6" x="174.5" y="146.6606"/><text fill="#000000" font-family="sans-serif" font-size="14" lengthAdjust="spacing" textLength="374" x="186.5" y="154.6445">ModuleCache: IntrusiveRefCntPtr&lt;InMemoryModuleCache&gt;</text><rect fill="none" height="6" style="stroke:#C82930;stroke-width:1.0;" width="6" x="174.5" y="165.7808"/><text fill="#000000" font-family="sans-serif" font-size="14" lengthAdjust="spacing" textLength="223" x="186.5" y="173.7646">PP: std::shared_ptr&lt;Preprocessor&gt;</text><rect fill="none" height="6" style="stroke:#C82930;stroke-width:1.0;" width="6" x="174.5" y="184.9009"/><text fill="#000000" font-family="sans-serif" font-size="14" lengthAdjust="spacing" textLength="262" x="186.5" y="192.8848">Context: IntrusiveRefCntPtr&lt;ASTContext&gt;</text><rect fill="none" height="6" style="stroke:#C82930;stroke-width:1.0;" width="6" x="174.5" y="204.021"/><text fill="#000000" font-family="sans-serif" font-size="14" lengthAdjust="spacing" textLength="379" x="186.5" y="212.0049">ExternalSemaSrc: IntrusiveRefCntPtr&lt;ExternalSemaSource&gt;</text><rect fill="none" height="6" style="stroke:#C82930;stroke-width:1.0;" width="6" x="174.5" y="223.1411"/><text fill="#000000" font-family="sans-serif" font-size="14" lengthAdjust="spacing" textLength="276" x="186.5" y="231.125">Consumer: std::unique_ptr&lt;ASTConsumer&gt;</text><rect fill="none" height="6" style="stroke:#C82930;stroke-width:1.0;" width="6" x="174.5" y="242.2612"/><text fill="#000000" font-family="sans-serif" font-size="14" lengthAdjust="spacing" textLength="414" x="186.5" y="250.2451">CompletionConsumer: std::unique_ptr&lt;CodeCompleteConsumer&gt;</text><rect fill="none" height="6" style="stroke:#C82930;stroke-width:1.0;" width="6" x="174.5" y="261.3813"/><text fill="#000000" font-family="sans-serif" font-size="14" lengthAdjust="spacing" textLength="216" x="186.5" y="269.3652">TheSema: std::unique_ptr&lt;Sema&gt;</text><rect fill="none" height="6" style="stroke:#C82930;stroke-width:1.0;" width="6" x="174.5" y="280.5015"/><text fill="#000000" font-family="sans-serif" font-size="14" lengthAdjust="spacing" textLength="361" x="186.5" y="288.4854">FrontendTimerGroup: std::unique_ptr&lt;llvm::TimerGroup&gt;</text><rect fill="none" height="6" style="stroke:#C82930;stroke-width:1.0;" width="6" x="174.5" y="299.6216"/><text fill="#000000" font-family="sans-serif" font-size="14" lengthAdjust="spacing" textLength="281" x="186.5" y="307.6055">FrontendTimer: std::unique_ptr&lt;llvm::Timer&gt;</text><rect fill="none" height="6" style="stroke:#C82930;stroke-width:1.0;" width="6" x="174.5" y="318.7417"/><text fill="#000000" font-family="sans-serif" font-size="14" lengthAdjust="spacing" textLength="312" x="186.5" y="326.7256">TheASTReader: IntrusiveRefCntPtr&lt;ASTReader&gt;</text><line style="stroke:#181818;stroke-width:0.5;" x1="167.5" x2="605.5" y1="333.8018" y2="333.8018"/></g><path d="M641.5,23.5 L641.5,33.3772 L490.5,52.5601 L641.5,41.3772 L641.5,51.2544 A0,0 0 0 0 641.5,51.2544 L759.5,51.2544 A0,0 0 0 0 759.5,51.2544 L759.5,33.5 L749.5,23.5 L641.5,23.5 A0,0 0 0 0 641.5,23.5 " fill="#FEFFDD" style="stroke:#181818;stroke-width:0.5;"/><path d="M749.5,23.5 L749.5,33.5 L759.5,33.5 L749.5,23.5 " fill="#FEFFDD" style="stroke:#181818;stroke-width:0.5;"/><text fill="#000000" font-family="sans-serif" font-size="13" lengthAdjust="spacing" textLength="97" x="647.5" y="43.3979">管理各种Options</text><path d="M641.5,61.2544 L641.5,71.1316 L432.5,90.8003 L641.5,79.1316 L641.5,89.0088 A0,0 0 0 0 641.5,89.0088 L766.5,89.0088 A0,0 0 0 0 766.5,89.0088 L766.5,71.2544 L756.5,61.2544 L641.5,61.2544 A0,0 0 0 0 641.5,61.2544 " fill="#FEFFDD" style="stroke:#181818;stroke-width:0.5;"/><path d="M756.5,61.2544 L756.5,71.2544 L766.5,71.2544 L756.5,61.2544 " fill="#FEFFDD" style="stroke:#181818;stroke-width:0.5;"/><text fill="#000000" font-family="sans-serif" font-size="13" lengthAdjust="spacing" textLength="104" x="647.5" y="81.1523">管理目标平台信息</text><path d="M641.5,99.0088 L641.5,108.886 L495.5,129.0405 L641.5,116.886 L641.5,126.7632 A0,0 0 0 0 641.5,126.7632 L727.5,126.7632 A0,0 0 0 0 727.5,126.7632 L727.5,109.0088 L717.5,99.0088 L641.5,99.0088 A0,0 0 0 0 641.5,99.0088 " fill="#FEFFDD" style="stroke:#181818;stroke-width:0.5;"/><path d="M717.5,99.0088 L717.5,109.0088 L727.5,109.0088 L717.5,99.0088 " fill="#FEFFDD" style="stroke:#181818;stroke-width:0.5;"/><text fill="#000000" font-family="sans-serif" font-size="13" lengthAdjust="spacing" textLength="65" x="647.5" y="118.9067">文件管理类</text><path d="M641.5,136.7632 L641.5,146.6404 L409.5,167.2808 L641.5,154.6404 L641.5,164.5176 A0,0 0 0 0 641.5,164.5176 L740.5,164.5176 A0,0 0 0 0 740.5,164.5176 L740.5,146.7632 L730.5,136.7632 L641.5,136.7632 A0,0 0 0 0 641.5,136.7632 " fill="#FEFFDD" style="stroke:#181818;stroke-width:0.5;"/><path d="M730.5,136.7632 L730.5,146.7632 L740.5,146.7632 L730.5,136.7632 " fill="#FEFFDD" style="stroke:#181818;stroke-width:0.5;"/><text fill="#000000" font-family="sans-serif" font-size="13" lengthAdjust="spacing" textLength="78" x="647.5" y="156.6611">预处理器对象</text><path d="M641.5,174.5176 L641.5,184.3948 L565.5,205.521 L641.5,192.3948 L641.5,202.272 A0,0 0 0 0 641.5,202.272 L753.5,202.272 A0,0 0 0 0 753.5,202.272 L753.5,184.5176 L743.5,174.5176 L641.5,174.5176 A0,0 0 0 0 641.5,174.5176 " fill="#FEFFDD" style="stroke:#181818;stroke-width:0.5;"/><path d="M743.5,174.5176 L743.5,184.5176 L753.5,184.5176 L743.5,174.5176 " fill="#FEFFDD" style="stroke:#181818;stroke-width:0.5;"/><text fill="#000000" font-family="sans-serif" font-size="13" lengthAdjust="spacing" textLength="91" x="647.5" y="194.4155">外部语法源信息</text><path d="M641.5,212.272 L641.5,222.1492 L600.5,243.7612 L641.5,230.1492 L641.5,240.0264 A0,0 0 0 0 641.5,240.0264 L714.5,240.0264 A0,0 0 0 0 714.5,240.0264 L714.5,222.272 L704.5,212.272 L641.5,212.272 A0,0 0 0 0 641.5,212.272 " fill="#FEFFDD" style="stroke:#181818;stroke-width:0.5;"/><path d="M704.5,212.272 L704.5,222.272 L714.5,222.272 L704.5,212.272 " fill="#FEFFDD" style="stroke:#181818;stroke-width:0.5;"/><text fill="#000000" font-family="sans-serif" font-size="13" lengthAdjust="spacing" textLength="52" x="647.5" y="232.1699">代码补全</text><path d="M641.5,250.0264 L641.5,259.9036 L547.5,282.0015 L641.5,267.9036 L641.5,277.7808 A0,0 0 0 0 641.5,277.7808 L779.5,277.7808 A0,0 0 0 0 779.5,277.7808 L779.5,260.0264 L769.5,250.0264 L641.5,250.0264 A0,0 0 0 0 641.5,250.0264 " fill="#FEFFDD" style="stroke:#181818;stroke-width:0.5;"/><path d="M769.5,250.0264 L769.5,260.0264 L779.5,260.0264 L769.5,250.0264 " fill="#FEFFDD" style="stroke:#181818;stroke-width:0.5;"/><text fill="#000000" font-family="sans-serif" font-size="13" lengthAdjust="spacing" textLength="117" x="647.5" y="269.9243">前端性能分析时间组</text><path d="M641.5,287.7808 L641.5,297.658 L498.5,320.2417 L641.5,305.658 L641.5,315.5352 A0,0 0 0 0 641.5,315.5352 L740.5,315.5352 A0,0 0 0 0 740.5,315.5352 L740.5,297.7808 L730.5,287.7808 L641.5,287.7808 A0,0 0 0 0 641.5,287.7808 " fill="#FEFFDD" style="stroke:#181818;stroke-width:0.5;"/><path d="M730.5,287.7808 L730.5,297.7808 L740.5,297.7808 L730.5,287.7808 " fill="#FEFFDD" style="stroke:#181818;stroke-width:0.5;"/><text fill="#000000" font-family="sans-serif" font-size="13" lengthAdjust="spacing" textLength="78" x="647.5" y="307.6787">语法树读操作</text><path d="M6,42.5 L6,70.2544 A0,0 0 0 0 6,70.2544 L105,70.2544 A0,0 0 0 0 105,70.2544 L105,60.5 L170.5,71.6802 L105,52.5 L105,52.5 L95,42.5 L6,42.5 A0,0 0 0 0 6,42.5 " fill="#FEFFDD" style="stroke:#181818;stroke-width:0.5;"/><path d="M95,42.5 L95,52.5 L105,52.5 L95,42.5 " fill="#FEFFDD" style="stroke:#181818;stroke-width:0.5;"/><text fill="#000000" font-family="sans-serif" font-size="13" lengthAdjust="spacing" textLength="78" x="12" y="62.3979">诊断引擎对象</text><path d="M6,80.2544 L6,108.0088 A0,0 0 0 0 6,108.0088 L105,108.0088 A0,0 0 0 0 105,108.0088 L105,98.2544 L170.5,109.9204 L105,90.2544 L105,90.2544 L95,80.2544 L6,80.2544 A0,0 0 0 0 6,80.2544 " fill="#FEFFDD" style="stroke:#181818;stroke-width:0.5;"/><path d="M95,80.2544 L95,90.2544 L105,90.2544 L95,80.2544 " fill="#FEFFDD" style="stroke:#181818;stroke-width:0.5;"/><text fill="#000000" font-family="sans-serif" font-size="13" lengthAdjust="spacing" textLength="78" x="12" y="100.1523">辅助平台信息</text><path d="M6,118.0088 L6,145.7632 A0,0 0 0 0 6,145.7632 L95,145.7632 A0,0 0 0 0 95,145.7632 L95,136.0088 L170.5,148.1606 L95,128.0088 L95,128.0088 L85,118.0088 L6,118.0088 A0,0 0 0 0 6,118.0088 " fill="#FEFFDD" style="stroke:#181818;stroke-width:0.5;"/><path d="M85,118.0088 L85,128.0088 L95,128.0088 L85,118.0088 " fill="#FEFFDD" style="stroke:#181818;stroke-width:0.5;"/><text fill="#000000" font-family="sans-serif" font-size="13" lengthAdjust="spacing" textLength="68" x="12" y="137.9067">Module缓存</text><path d="M6,155.7632 L6,183.5176 A0,0 0 0 0 6,183.5176 L131,183.5176 A0,0 0 0 0 131,183.5176 L131,173.7632 L170.5,186.4009 L131,165.7632 L131,165.7632 L121,155.7632 L6,155.7632 A0,0 0 0 0 6,155.7632 " fill="#FEFFDD" style="stroke:#181818;stroke-width:0.5;"/><path d="M121,155.7632 L121,165.7632 L131,165.7632 L121,155.7632 " fill="#FEFFDD" style="stroke:#181818;stroke-width:0.5;"/><text fill="#000000" font-family="sans-serif" font-size="13" lengthAdjust="spacing" textLength="104" x="12" y="175.6611">语法树上下文对象</text><path d="M6,193.5176 L6,221.272 A0,0 0 0 0 6,221.272 L118,221.272 A0,0 0 0 0 118,221.272 L118,211.5176 L170.5,224.6411 L118,203.5176 L118,203.5176 L108,193.5176 L6,193.5176 A0,0 0 0 0 6,193.5176 " fill="#FEFFDD" style="stroke:#181818;stroke-width:0.5;"/><path d="M108,193.5176 L108,203.5176 L118,203.5176 L108,193.5176 " fill="#FEFFDD" style="stroke:#181818;stroke-width:0.5;"/><text fill="#000000" font-family="sans-serif" font-size="13" lengthAdjust="spacing" textLength="91" x="12" y="213.4155">语法树的消费者</text><path d="M6,231.272 L6,259.0264 A0,0 0 0 0 6,259.0264 L66,259.0264 A0,0 0 0 0 66,259.0264 L66,249.272 L170.5,262.8813 L66,241.272 L66,241.272 L56,231.272 L6,231.272 A0,0 0 0 0 6,231.272 " fill="#FEFFDD" style="stroke:#181818;stroke-width:0.5;"/><path d="M56,231.272 L56,241.272 L66,241.272 L56,231.272 " fill="#FEFFDD" style="stroke:#181818;stroke-width:0.5;"/><text fill="#000000" font-family="sans-serif" font-size="13" lengthAdjust="spacing" textLength="39" x="12" y="251.1699">语法树</text><path d="M6,269.0264 L6,296.7808 A0,0 0 0 0 6,296.7808 L118,296.7808 A0,0 0 0 0 118,296.7808 L118,287.0264 L170.5,282.0015 L118,279.0264 L118,279.0264 L108,269.0264 L6,269.0264 A0,0 0 0 0 6,269.0264 " fill="#FEFFDD" style="stroke:#181818;stroke-width:0.5;"/><path d="M108,269.0264 L108,279.0264 L118,279.0264 L108,269.0264 " fill="#FEFFDD" style="stroke:#181818;stroke-width:0.5;"/><text fill="#000000" font-family="sans-serif" font-size="13" lengthAdjust="spacing" textLength="91" x="12" y="288.9243">性能分析时钟类</text><!--SRC=[bLHjRz9G6Fr-VqN_W7-WCIGBJiC78XbyDqrvW2RbtdhR4emnsJBO9WP5oPXlKT2POGp3PGiPikcVeI_y2rjweOmMKlgfwNFEUSvpdtigoeAgSd5IL2GPQ0Ahce15u9uZpddk9N29Y88c4SnpgfRbURKWKCW-KJHwt-VCC37EOpsGX3mcgYQ9Aiybi4PrLIh13kJYM4ivp8NwDivB668UBoFGF6YX5A-Km3d2i5jwUHDuckXKX6IUXi9PLS127YXZ94bMbo4kY0K8vIHm4eg4Fbl0CMOg5Joi50M54X5KbT3PCSK9rg0SFi1MEiFAJ7Ixh075Wfo6ef2cOYZf3cOwKcpUITMBG9al7KjFTPZwylfCYtDiKP71NUTgLfnaWU5WYPufWDi-o76_Cin3wew6ind9uJsYH5U2S5ak5NdUHuHHrx9yFywCEo1aWQuwQQyQGoyG9XfmLCeND8xa0gdWUV-k8-kyOpKEZ4R5Egi_LjnFAdACSQw4foD3ReNCGW2GtQ-PhPvnSsmsNnlzeNtHMP9POyUxvioAzUdSR1yQmqlZpU_nluwvru_iPnucPF-j6hMVQqJMk9bd39cjm_5em6nTZ2BxMCWIyjwjcwRHUn_TGog59jygncd5tSs7RkY1hkxF8kVif6TU7fljj-FhslZwbJFEffjPYYioJbkJ_IxJ_TFOS3-pZFd6h8yLSt1aNmtjtMfqLy5ie_7ekzNUipi_Z6etiXyMSjzET0l1x2FZPTtwrJTtp-pzM-FemFpIC4y6avChQrI9xEYEB5hMUlSrU0lNnMhXd-7FQFT7PhC-llti2o7q7m00]--></g></svg>