<?xml version="1.0" encoding="UTF-8" standalone="no"?><svg xmlns="http://www.w3.org/2000/svg" xmlns:xlink="http://www.w3.org/1999/xlink" contentStyleType="text/css" height="367px" preserveAspectRatio="none" style="width:938px;height:367px;background:#FFFFFF;" version="1.1" viewBox="0 0 938 367" width="938px" zoomAndPan="magnify"><defs/><g><!--class Parser--><g id="elem_Parser"><rect codeLine="1" fill="#F1F1F1" height="353.9219" id="Parser" rx="2.5" ry="2.5" style="stroke:#181818;stroke-width:0.5;" width="254" x="309" y="7"/><ellipse cx="410.75" cy="23" fill="#ADD1B2" rx="11" ry="11" style="stroke:#181818;stroke-width:1.0;"/><path d="M409.3281,28.3594 Q407.4688,28.3594 406.375,26.9688 Q405.2813,25.5781 405.2813,22.5938 Q405.2813,20.0625 406.4453,18.4063 Q407.6094,16.75 409.5938,16.75 Q411.0625,16.75 411.5313,16.875 Q412,17.0781 412,17.0781 Q412,17.0781 412,17.0078 Q412,16.9375 412.6094,16.0156 L413.6563,19.6719 L412.3281,20.0781 Q411.8594,18.5313 411.1953,17.8672 Q410.5313,17.2031 409.4688,17.2031 Q409.0781,17.2031 408.3125,18.7344 Q407.5469,20.2656 407.5469,22.5156 Q407.5469,24.9844 408.2109,26.375 Q408.875,27.7656 409.4063,27.7656 Q410.4688,27.7656 411.2266,27 Q411.9844,26.2344 412.3281,24.5781 L413.6563,25.1719 Q413.3281,26.5781 412.4297,27.4688 Q411.5313,28.3594 409.3281,28.3594 Z " fill="#000000"/><text fill="#000000" font-family="sans-serif" font-size="14" lengthAdjust="spacing" textLength="42" x="431.25" y="29.4839">Parser</text><line style="stroke:#181818;stroke-width:0.5;" x1="310" x2="562" y1="39" y2="39"/><rect fill="none" height="6" style="stroke:#C82930;stroke-width:1.0;" width="6" x="317" y="51.0601"/><text fill="#000000" font-family="sans-serif" font-size="14" lengthAdjust="spacing" textLength="120" x="329" y="59.0439">PP: Preprocessor&amp;</text><rect fill="none" height="6" style="stroke:#C82930;stroke-width:1.0;" width="6" x="317" y="70.1802"/><text fill="#000000" font-family="sans-serif" font-size="14" lengthAdjust="spacing" textLength="72" x="329" y="78.1641">Tok: Token</text><rect fill="none" height="6" style="stroke:#C82930;stroke-width:1.0;" width="6" x="317" y="89.3003"/><text fill="#000000" font-family="sans-serif" font-size="14" lengthAdjust="spacing" textLength="214" x="329" y="97.2842">PrevTokLocation: SourceLocation</text><rect fill="none" height="6" style="stroke:#C82930;stroke-width:1.0;" width="6" x="317" y="108.4204"/><text fill="#000000" font-family="sans-serif" font-size="14" lengthAdjust="spacing" textLength="90" x="329" y="116.4043">Actions: Sema</text><rect fill="none" height="6" style="stroke:#C82930;stroke-width:1.0;" width="6" x="317" y="127.5405"/><text fill="#000000" font-family="sans-serif" font-size="14" lengthAdjust="spacing" textLength="161" x="329" y="135.5244">Diags: DiagnosticsEngine</text><rect fill="none" height="6" style="stroke:#C82930;stroke-width:1.0;" width="6" x="317" y="146.6606"/><text fill="#000000" font-family="sans-serif" font-size="14" lengthAdjust="spacing" textLength="179" x="329" y="154.6445">AttrFactory: AttributeFactory</text><rect fill="none" height="6" style="stroke:#C82930;stroke-width:1.0;" width="6" x="317" y="165.7808"/><text fill="#000000" font-family="sans-serif" font-size="14" lengthAdjust="spacing" textLength="228" x="329" y="173.7646">TemplateParameterDepthRAII: class</text><rect fill="none" height="6" style="stroke:#C82930;stroke-width:1.0;" width="6" x="317" y="184.9009"/><text fill="#000000" font-family="sans-serif" font-size="14" lengthAdjust="spacing" textLength="160" x="329" y="192.8848">SkipFunctionBodies: bool</text><line style="stroke:#181818;stroke-width:0.5;" x1="310" x2="562" y1="199.9609" y2="199.9609"/><ellipse cx="320" cy="215.021" fill="#84BE84" rx="3" ry="3" style="stroke:#038048;stroke-width:1.0;"/><text fill="#000000" font-family="sans-serif" font-size="14" lengthAdjust="spacing" textLength="59" x="329" y="220.0049">Initialize()</text><ellipse cx="320" cy="234.1411" fill="#84BE84" rx="3" ry="3" style="stroke:#038048;stroke-width:1.0;"/><text fill="#000000" font-family="sans-serif" font-size="14" lengthAdjust="spacing" textLength="162" x="329" y="239.125">ParseFirstTopLevelDecl()</text><ellipse cx="320" cy="253.2612" fill="#84BE84" rx="3" ry="3" style="stroke:#038048;stroke-width:1.0;"/><text fill="#000000" font-family="sans-serif" font-size="14" lengthAdjust="spacing" textLength="134" x="329" y="258.2451">ParseTopLevelDecl()</text><ellipse cx="320" cy="272.3813" fill="#84BE84" rx="3" ry="3" style="stroke:#038048;stroke-width:1.0;"/><text fill="#000000" font-family="sans-serif" font-size="14" lengthAdjust="spacing" textLength="110" x="329" y="277.3652">ConsumeToken()</text><rect fill="#F24D5C" height="6" style="stroke:#C82930;stroke-width:1.0;" width="6" x="317" y="288.5015"/><text fill="#000000" font-family="sans-serif" font-size="14" lengthAdjust="spacing" textLength="145" x="329" y="296.4854">GetLookAheadToken()</text><ellipse cx="320" cy="310.6216" fill="#84BE84" rx="3" ry="3" style="stroke:#038048;stroke-width:1.0;"/><text fill="#000000" font-family="sans-serif" font-size="14" lengthAdjust="spacing" textLength="52" x="329" y="315.6055">Parse*()</text><ellipse cx="320" cy="329.7417" fill="#84BE84" rx="3" ry="3" style="stroke:#038048;stroke-width:1.0;"/><text fill="#000000" font-family="sans-serif" font-size="14" lengthAdjust="spacing" textLength="75" x="329" y="334.7256">Conusme*()</text><ellipse cx="320" cy="348.8618" fill="#84BE84" rx="3" ry="3" style="stroke:#038048;stroke-width:1.0;"/><text fill="#000000" font-family="sans-serif" font-size="14" lengthAdjust="spacing" textLength="59" x="329" y="353.8457">Handle*()</text></g><path d="M6,24 L6,51.7544 A0,0 0 0 0 6,51.7544 L105,51.7544 A0,0 0 0 0 105,51.7544 L105,42 L313,52.5601 L105,34 L105,34 L95,24 L6,24 A0,0 0 0 0 6,24 " fill="#FEFFDD" style="stroke:#181818;stroke-width:0.5;"/><path d="M95,24 L95,34 L105,34 L95,24 " fill="#FEFFDD" style="stroke:#181818;stroke-width:0.5;"/><text fill="#000000" font-family="sans-serif" font-size="13" lengthAdjust="spacing" textLength="78" x="12" y="43.8979">预处理器对象</text><path d="M6,61.7544 L6,89.5088 A0,0 0 0 0 6,89.5088 L159,89.5088 A0,0 0 0 0 159,89.5088 L159,79.7544 L313,90.8003 L159,71.7544 L159,71.7544 L149,61.7544 L6,61.7544 A0,0 0 0 0 6,61.7544 " fill="#FEFFDD" style="stroke:#181818;stroke-width:0.5;"/><path d="M149,61.7544 L149,71.7544 L159,71.7544 L149,61.7544 " fill="#FEFFDD" style="stroke:#181818;stroke-width:0.5;"/><text fill="#000000" font-family="sans-serif" font-size="13" lengthAdjust="spacing" textLength="132" x="12" y="81.6523">上一个Token的location</text><path d="M6,99.5088 L6,127.2632 A0,0 0 0 0 6,127.2632 L79,127.2632 A0,0 0 0 0 79,127.2632 L79,117.5088 L313,129.0405 L79,109.5088 L79,109.5088 L69,99.5088 L6,99.5088 A0,0 0 0 0 6,99.5088 " fill="#FEFFDD" style="stroke:#181818;stroke-width:0.5;"/><path d="M69,99.5088 L69,109.5088 L79,109.5088 L69,99.5088 " fill="#FEFFDD" style="stroke:#181818;stroke-width:0.5;"/><text fill="#000000" font-family="sans-serif" font-size="13" lengthAdjust="spacing" textLength="52" x="12" y="119.4067">调试引擎</text><path d="M6,137.2632 L6,165.0176 A0,0 0 0 0 6,165.0176 L131,165.0176 A0,0 0 0 0 131,165.0176 L131,155.2632 L313,167.2808 L131,147.2632 L131,147.2632 L121,137.2632 L6,137.2632 A0,0 0 0 0 6,137.2632 " fill="#FEFFDD" style="stroke:#181818;stroke-width:0.5;"/><path d="M121,137.2632 L121,147.2632 L131,147.2632 L121,137.2632 " fill="#FEFFDD" style="stroke:#181818;stroke-width:0.5;"/><text fill="#000000" font-family="sans-serif" font-size="13" lengthAdjust="spacing" textLength="104" x="12" y="157.1611">模板参数深度信息</text><path d="M6,175.0176 L6,202.772 A0,0 0 0 0 6,202.772 L130,202.772 A0,0 0 0 0 130,202.772 L130,193.0176 L313,213.521 L130,185.0176 L130,185.0176 L120,175.0176 L6,175.0176 A0,0 0 0 0 6,175.0176 " fill="#FEFFDD" style="stroke:#181818;stroke-width:0.5;"/><path d="M120,175.0176 L120,185.0176 L130,185.0176 L120,175.0176 " fill="#FEFFDD" style="stroke:#181818;stroke-width:0.5;"/><text fill="#000000" font-family="sans-serif" font-size="13" lengthAdjust="spacing" textLength="103" x="12" y="194.9155">初始化Parser对象</text><path d="M6,212.772 L6,258.2808 A0,0 0 0 0 6,258.2808 L274,258.2808 A0,0 0 0 0 274,258.2808 L274,239.5264 L313,251.7612 L274,231.5264 L274,222.772 L264,212.772 L6,212.772 A0,0 0 0 0 6,212.772 " fill="#FEFFDD" style="stroke:#181818;stroke-width:0.5;"/><path d="M264,212.772 L264,222.772 L274,222.772 L264,212.772 " fill="#FEFFDD" style="stroke:#181818;stroke-width:0.5;"/><text fill="#000000" font-family="sans-serif" font-size="13" lengthAdjust="spacing" textLength="247" x="12" y="232.6699">循环解析最上面的一个声明，直到到达文件</text><text fill="#000000" font-family="sans-serif" font-size="13" lengthAdjust="spacing" textLength="39" x="12" y="250.4243">结束处</text><path d="M6,268.2808 L6,296.0352 A0,0 0 0 0 6,296.0352 L120,296.0352 A0,0 0 0 0 120,296.0352 L120,286.2808 L313,290.0015 L120,278.2808 L120,278.2808 L110,268.2808 L6,268.2808 A0,0 0 0 0 6,268.2808 " fill="#FEFFDD" style="stroke:#181818;stroke-width:0.5;"/><path d="M110,268.2808 L110,278.2808 L120,278.2808 L110,268.2808 " fill="#FEFFDD" style="stroke:#181818;stroke-width:0.5;"/><text fill="#000000" font-family="sans-serif" font-size="13" lengthAdjust="spacing" textLength="93" x="12" y="288.1787">向前看N个token</text><path d="M6,306.0352 L6,333.7896 A0,0 0 0 0 6,333.7896 L241,333.7896 A0,0 0 0 0 241,333.7896 L241,324.0352 L313,328.2417 L241,316.0352 L241,316.0352 L231,306.0352 L6,306.0352 A0,0 0 0 0 6,306.0352 " fill="#FEFFDD" style="stroke:#181818;stroke-width:0.5;"/><path d="M231,306.0352 L231,316.0352 L241,316.0352 L231,306.0352 " fill="#FEFFDD" style="stroke:#181818;stroke-width:0.5;"/><text fill="#000000" font-family="sans-serif" font-size="13" lengthAdjust="spacing" textLength="214" x="12" y="325.9331">表示一系列处理各种不同token的函数</text><path d="M598.5,15 L598.5,24.8772 L401,71.6802 L598.5,32.8772 L598.5,42.7544 A0,0 0 0 0 598.5,42.7544 L680.5,42.7544 A0,0 0 0 0 680.5,42.7544 L680.5,25 L670.5,15 L598.5,15 A0,0 0 0 0 598.5,15 " fill="#FEFFDD" style="stroke:#181818;stroke-width:0.5;"/><path d="M670.5,15 L670.5,25 L680.5,25 L670.5,15 " fill="#FEFFDD" style="stroke:#181818;stroke-width:0.5;"/><text fill="#000000" font-family="sans-serif" font-size="13" lengthAdjust="spacing" textLength="61" x="604.5" y="34.8979">Token对象</text><path d="M598.5,52.7544 L598.5,62.6316 L419,109.9204 L598.5,70.6316 L598.5,80.5088 A0,0 0 0 0 598.5,80.5088 L710.5,80.5088 A0,0 0 0 0 710.5,80.5088 L710.5,62.7544 L700.5,52.7544 L598.5,52.7544 A0,0 0 0 0 598.5,52.7544 " fill="#FEFFDD" style="stroke:#181818;stroke-width:0.5;"/><path d="M700.5,52.7544 L700.5,62.7544 L710.5,62.7544 L700.5,52.7544 " fill="#FEFFDD" style="stroke:#181818;stroke-width:0.5;"/><text fill="#000000" font-family="sans-serif" font-size="13" lengthAdjust="spacing" textLength="91" x="604.5" y="72.6523">语义分析的操作</text><path d="M598.5,90.5088 L598.5,100.386 L508,148.1606 L598.5,108.386 L598.5,118.2632 A0,0 0 0 0 598.5,118.2632 L744.5,118.2632 A0,0 0 0 0 744.5,118.2632 L744.5,100.5088 L734.5,90.5088 L598.5,90.5088 A0,0 0 0 0 598.5,90.5088 " fill="#FEFFDD" style="stroke:#181818;stroke-width:0.5;"/><path d="M734.5,90.5088 L734.5,100.5088 L744.5,100.5088 L734.5,90.5088 " fill="#FEFFDD" style="stroke:#181818;stroke-width:0.5;"/><text fill="#000000" font-family="sans-serif" font-size="13" lengthAdjust="spacing" textLength="26" x="604.5" y="110.4067">解析</text><text fill="#000000" font-family="sans-serif" font-size="13" lengthAdjust="spacing" text-decoration="underline" textLength="47" x="630.5" y="110.4067">attribute</text><text fill="#000000" font-family="sans-serif" font-size="13" lengthAdjust="spacing" textLength="52" x="677.5" y="110.4067">语句相关</text><path d="M598.5,128.2632 L598.5,147.0176 L489,186.4009 L598.5,155.0176 L598.5,173.772 A0,0 0 0 0 598.5,173.772 L814.5,173.772 A0,0 0 0 0 814.5,173.772 L814.5,138.2632 L804.5,128.2632 L598.5,128.2632 A0,0 0 0 0 598.5,128.2632 " fill="#FEFFDD" style="stroke:#181818;stroke-width:0.5;"/><path d="M804.5,128.2632 L804.5,138.2632 L814.5,138.2632 L804.5,128.2632 " fill="#FEFFDD" style="stroke:#181818;stroke-width:0.5;"/><text fill="#000000" font-family="sans-serif" font-size="13" lengthAdjust="spacing" textLength="195" x="604.5" y="148.1611">是否跳过对函数体的分析，多用在</text><text fill="#000000" font-family="sans-serif" font-size="13" lengthAdjust="spacing" textLength="160" x="604.5" y="165.9155">查找索引时的场合,提高性能</text><path d="M598.5,183.772 L598.5,193.6492 L491,232.6411 L598.5,201.6492 L598.5,211.5264 A0,0 0 0 0 598.5,211.5264 L879.5,211.5264 A0,0 0 0 0 879.5,211.5264 L879.5,193.772 L869.5,183.772 L598.5,183.772 A0,0 0 0 0 598.5,183.772 " fill="#FEFFDD" style="stroke:#181818;stroke-width:0.5;"/><path d="M869.5,183.772 L869.5,193.772 L879.5,193.772 L869.5,183.772 " fill="#FEFFDD" style="stroke:#181818;stroke-width:0.5;"/><text fill="#000000" font-family="sans-serif" font-size="13" lengthAdjust="spacing" textLength="260" x="604.5" y="203.6699">解析第一个顶层声明，一般是翻译单元的声明</text><path d="M598.5,221.5264 L598.5,231.4036 L439,270.8813 L598.5,239.4036 L598.5,249.2808 A0,0 0 0 0 598.5,249.2808 L716.5,249.2808 A0,0 0 0 0 716.5,249.2808 L716.5,231.5264 L706.5,221.5264 L598.5,221.5264 A0,0 0 0 0 598.5,221.5264 " fill="#FEFFDD" style="stroke:#181818;stroke-width:0.5;"/><path d="M706.5,221.5264 L706.5,231.5264 L716.5,231.5264 L706.5,221.5264 " fill="#FEFFDD" style="stroke:#181818;stroke-width:0.5;"/><text fill="#000000" font-family="sans-serif" font-size="13" lengthAdjust="spacing" textLength="97" x="604.5" y="241.4243">消费并处理token</text><path d="M598.5,259.2808 L598.5,269.158 L381,309.1216 L598.5,277.158 L598.5,287.0352 A0,0 0 0 0 598.5,287.0352 L931.5,287.0352 A0,0 0 0 0 931.5,287.0352 L931.5,269.2808 L921.5,259.2808 L598.5,259.2808 A0,0 0 0 0 598.5,259.2808 " fill="#FEFFDD" style="stroke:#181818;stroke-width:0.5;"/><path d="M921.5,259.2808 L921.5,269.2808 L931.5,269.2808 L921.5,259.2808 " fill="#FEFFDD" style="stroke:#181818;stroke-width:0.5;"/><text fill="#000000" font-family="sans-serif" font-size="13" lengthAdjust="spacing" textLength="312" x="604.5" y="279.1787">表示一系列解析各种不同类型语句、声明、类型的函数</text><path d="M598.5,297.0352 L598.5,315.7896 L388,347.3618 L598.5,323.7896 L598.5,342.5439 A0,0 0 0 0 598.5,342.5439 L931.5,342.5439 A0,0 0 0 0 931.5,342.5439 L931.5,307.0352 L921.5,297.0352 L598.5,297.0352 A0,0 0 0 0 598.5,297.0352 " fill="#FEFFDD" style="stroke:#181818;stroke-width:0.5;"/><path d="M921.5,297.0352 L921.5,307.0352 L931.5,307.0352 L921.5,297.0352 " fill="#FEFFDD" style="stroke:#181818;stroke-width:0.5;"/><text fill="#000000" font-family="sans-serif" font-size="13" lengthAdjust="spacing" textLength="312" x="604.5" y="316.9331">表示一系列处理预定义、注释、宏等和预处理阶段相关</text><text fill="#000000" font-family="sans-serif" font-size="13" lengthAdjust="spacing" textLength="39" x="604.5" y="334.6875">的函数</text><!--SRC=[ZLHjJzfG5Fv-VqK_BNlp3_3DpRcPc8LClvDQhjfOMj8MasrPuWiAA4WTGvc21jyWJWM2Gn2H7xFUs_9fVs6tlLLGsBg6bDxpzZpdt7CE9x2AmdXPMO7oPy2GPyZhzJ1U6GPbYOEA8ibFg7XIclCmv0L5nqo6y-GuBd6ioakYXvcGGZ87xyxKQ9YplXMYX06MYaPuTeO8h3zHKbIUKzw8Cxm87GTLbKTPJfNaZnx6El1J8HKw4eS830G5LeM4D1k0AfH7O52T_J0yDkPXE2iTQZOnnmT7Gw9Du9Navo41dP8amTQ-61DvbMS5_XDy-enAx1gCyhAYJah1SJWFXH782G-qWnIlINgX0BGBuyY6ta9rN9BcXcSXw-zLq2ZFUrn3Ig1xViUAVi4-VW6Yf496WDCg8qqxr-FnUBsWSn16Hs53MqNVYwZKC2jv04K_OvbJ7vcVcNtWH0W0cyH0ypw8XxSAzFgQNb_GwwTs26CdBDnfN62TcmTcwLnln51q5Uzfn1sd4dehwqB2RX5WbfVDKXhTf75gmnMjspR0B1mIB9-FlUiUdu-GGCbZOxUELgeks7_lBe2BUPnhe-GIJfVnLGLTd-ZjF5uikP7hxqI0CoMadPXNLRCT8VU28YqIKs-bI8LegNxVnD7HZl6jYB95WFUFSUpMk3omYh5TiuoorqYBliH9hVCZWnSAvdBB9QzkmmCKpQ72EeflKTt_jT7WyN2ARPoTqIxfv6keieGEopYpGL8WGZDwHf8rsaspj8aIQRIoRD6t3TnQyV780NHxQcoKA2JE4horJkw0XAFOzwZ6xYMAbidFlBt5Mn6zMGD6CuLp-sHotDBi7MU0Qr7pie4QDJfogYtyD-c-qGT8sqInX95TVqyu3WenkDJM6Z3pHUFeccHdL9iekaqJHrhOA2JqUW9fSQFIH7lhjBj_BIpI2f0FAhSARJUM2-UUFVG8qLarFOYgimO61kxBfBlH1WQsbjd53baFX3Ak5ZkHDIk9YwHn7aDVu_UhhfEfuOkVplJsO_y1]--></g></svg>