<?xml version="1.0" encoding="UTF-8" standalone="no"?><svg xmlns="http://www.w3.org/2000/svg" xmlns:xlink="http://www.w3.org/1999/xlink" contentStyleType="text/css" height="444px" preserveAspectRatio="none" style="width:1068px;height:444px;background:#FFFFFF;" version="1.1" viewBox="0 0 1068 444" width="1068px" zoomAndPan="magnify"><defs/><g><!--class Preprocessor--><g id="elem_Preprocessor"><rect codeLine="1" fill="#F1F1F1" height="430.4023" id="Preprocessor" rx="2.5" ry="2.5" style="stroke:#181818;stroke-width:0.5;" width="332" x="244.5" y="7"/><ellipse cx="363.75" cy="23" fill="#ADD1B2" rx="11" ry="11" style="stroke:#181818;stroke-width:1.0;"/><path d="M362.3281,28.3594 Q360.4688,28.3594 359.375,26.9688 Q358.2813,25.5781 358.2813,22.5938 Q358.2813,20.0625 359.4453,18.4063 Q360.6094,16.75 362.5938,16.75 Q364.0625,16.75 364.5313,16.875 Q365,17.0781 365,17.0781 Q365,17.0781 365,17.0078 Q365,16.9375 365.6094,16.0156 L366.6563,19.6719 L365.3281,20.0781 Q364.8594,18.5313 364.1953,17.8672 Q363.5313,17.2031 362.4688,17.2031 Q362.0781,17.2031 361.3125,18.7344 Q360.5469,20.2656 360.5469,22.5156 Q360.5469,24.9844 361.2109,26.375 Q361.875,27.7656 362.4063,27.7656 Q363.4688,27.7656 364.2266,27 Q364.9844,26.2344 365.3281,24.5781 L366.6563,25.1719 Q366.3281,26.5781 365.4297,27.4688 Q364.5313,28.3594 362.3281,28.3594 Z " fill="#000000"/><text fill="#000000" font-family="sans-serif" font-size="14" lengthAdjust="spacing" textLength="85" x="384.25" y="29.4839">Preprocessor</text><line style="stroke:#181818;stroke-width:0.5;" x1="245.5" x2="575.5" y1="39" y2="39"/><rect fill="none" height="6" style="stroke:#C82930;stroke-width:1.0;" width="6" x="252.5" y="51.0601"/><text fill="#000000" font-family="sans-serif" font-size="14" lengthAdjust="spacing" textLength="306" x="264.5" y="59.0439">PPOpts : std::shared_ptr&lt;PreprocessorOptions&gt;</text><rect fill="none" height="6" style="stroke:#C82930;stroke-width:1.0;" width="6" x="252.5" y="70.1802"/><text fill="#000000" font-family="sans-serif" font-size="14" lengthAdjust="spacing" textLength="287" x="264.5" y="78.1641">Diags : DiagnosticsEngineDiagnosticsEngine*</text><rect fill="none" height="6" style="stroke:#C82930;stroke-width:1.0;" width="6" x="252.5" y="89.3003"/><text fill="#000000" font-family="sans-serif" font-size="14" lengthAdjust="spacing" textLength="155" x="264.5" y="97.2842">LangOpts : LangOptions</text><rect fill="none" height="6" style="stroke:#C82930;stroke-width:1.0;" width="6" x="252.5" y="108.4204"/><text fill="#000000" font-family="sans-serif" font-size="14" lengthAdjust="spacing" textLength="147" x="264.5" y="116.4043">FileMgr : FileManager&amp;</text><rect fill="none" height="6" style="stroke:#C82930;stroke-width:1.0;" width="6" x="252.5" y="127.5405"/><text fill="#000000" font-family="sans-serif" font-size="14" lengthAdjust="spacing" textLength="191" x="264.5" y="135.5244">SourceMgr : SourceManager&amp;</text><rect fill="none" height="6" style="stroke:#C82930;stroke-width:1.0;" width="6" x="252.5" y="146.6606"/><text fill="#000000" font-family="sans-serif" font-size="14" lengthAdjust="spacing" textLength="221" x="264.5" y="154.6445">PCMCache : MemoryBufferCache&amp;</text><rect fill="none" height="6" style="stroke:#C82930;stroke-width:1.0;" width="6" x="252.5" y="165.7808"/><text fill="#000000" font-family="sans-serif" font-size="14" lengthAdjust="spacing" textLength="294" x="264.5" y="173.7646">ExternalSource : ExternalPreprocessorSource*</text><rect fill="none" height="6" style="stroke:#C82930;stroke-width:1.0;" width="6" x="252.5" y="184.9009"/><text fill="#000000" font-family="sans-serif" font-size="14" lengthAdjust="spacing" textLength="181" x="264.5" y="192.8848">TUKind : TranslationUnitKind</text><rect fill="none" height="6" style="stroke:#C82930;stroke-width:1.0;" width="6" x="252.5" y="204.021"/><text fill="#000000" font-family="sans-serif" font-size="14" lengthAdjust="spacing" textLength="216" x="264.5" y="212.0049">CurLexer : std::unique_ptr&lt;Lexer&gt;</text><rect fill="none" height="6" style="stroke:#C82930;stroke-width:1.0;" width="6" x="252.5" y="223.1411"/><text fill="#000000" font-family="sans-serif" font-size="14" lengthAdjust="spacing" textLength="208" x="264.5" y="231.125">CurPPLexer : PreprocessorLexer</text><rect fill="none" height="6" style="stroke:#C82930;stroke-width:1.0;" width="6" x="252.5" y="242.2612"/><text fill="#000000" font-family="sans-serif" font-size="14" lengthAdjust="spacing" textLength="159" x="264.5" y="250.2451">Identifiers: IdentifierTable</text><rect fill="none" height="6" style="stroke:#C82930;stroke-width:1.0;" width="6" x="252.5" y="261.3813"/><text fill="#000000" font-family="sans-serif" font-size="14" lengthAdjust="spacing" textLength="163" x="264.5" y="269.3652">BuiltinInfo: Builtin::Context</text><rect fill="none" height="6" style="stroke:#C82930;stroke-width:1.0;" width="6" x="252.5" y="280.5015"/><text fill="#000000" font-family="sans-serif" font-size="14" lengthAdjust="spacing" textLength="116" x="264.5" y="288.4854">MacroState : class</text><rect fill="none" height="6" style="stroke:#C82930;stroke-width:1.0;" width="6" x="252.5" y="299.6216"/><text fill="#000000" font-family="sans-serif" font-size="14" lengthAdjust="spacing" textLength="146" x="264.5" y="307.6055">IncludeStackInfo: struct</text><line style="stroke:#181818;stroke-width:0.5;" x1="245.5" x2="575.5" y1="314.6816" y2="314.6816"/><ellipse cx="255.5" cy="329.7417" fill="#84BE84" rx="3" ry="3" style="stroke:#038048;stroke-width:1.0;"/><text fill="#000000" font-family="sans-serif" font-size="14" lengthAdjust="spacing" textLength="59" x="264.5" y="334.7256">Initialize()</text><ellipse cx="255.5" cy="348.8618" fill="#84BE84" rx="3" ry="3" style="stroke:#038048;stroke-width:1.0;"/><text fill="#000000" font-family="sans-serif" font-size="14" lengthAdjust="spacing" textLength="142" x="264.5" y="353.8457">EnterMainSourceFile()</text><ellipse cx="255.5" cy="367.9819" fill="#84BE84" rx="3" ry="3" style="stroke:#038048;stroke-width:1.0;"/><text fill="#000000" font-family="sans-serif" font-size="14" lengthAdjust="spacing" textLength="32" x="264.5" y="372.9658">Lex()</text><ellipse cx="255.5" cy="387.1021" fill="#84BE84" rx="3" ry="3" style="stroke:#038048;stroke-width:1.0;"/><text fill="#000000" font-family="sans-serif" font-size="14" lengthAdjust="spacing" textLength="117" x="264.5" y="392.0859">LexNonComment()</text><ellipse cx="255.5" cy="406.2222" fill="#84BE84" rx="3" ry="3" style="stroke:#038048;stroke-width:1.0;"/><text fill="#000000" font-family="sans-serif" font-size="14" lengthAdjust="spacing" textLength="151" x="264.5" y="411.2061">LexUnexpandedToken()</text><ellipse cx="255.5" cy="425.3423" fill="#84BE84" rx="3" ry="3" style="stroke:#038048;stroke-width:1.0;"/><text fill="#000000" font-family="sans-serif" font-size="14" lengthAdjust="spacing" textLength="82" x="264.5" y="430.3262">LookAhead()</text></g><path d="M6,33 L6,60.7544 A0,0 0 0 0 6,60.7544 L118,60.7544 A0,0 0 0 0 118,60.7544 L118,51 L248.5,52.5601 L118,43 L118,43 L108,33 L6,33 A0,0 0 0 0 6,33 " fill="#FEFFDD" style="stroke:#181818;stroke-width:0.5;"/><path d="M108,33 L108,43 L118,43 L108,33 " fill="#FEFFDD" style="stroke:#181818;stroke-width:0.5;"/><text fill="#000000" font-family="sans-serif" font-size="13" lengthAdjust="spacing" textLength="91" x="12" y="52.8979">预处理器的选项</text><path d="M6,70.7544 L6,98.5088 A0,0 0 0 0 6,98.5088 L131,98.5088 A0,0 0 0 0 131,98.5088 L131,88.7544 L248.5,90.8003 L131,80.7544 L131,80.7544 L121,70.7544 L6,70.7544 A0,0 0 0 0 6,70.7544 " fill="#FEFFDD" style="stroke:#181818;stroke-width:0.5;"/><path d="M121,70.7544 L121,80.7544 L131,80.7544 L121,70.7544 " fill="#FEFFDD" style="stroke:#181818;stroke-width:0.5;"/><text fill="#000000" font-family="sans-serif" font-size="13" lengthAdjust="spacing" textLength="104" x="12" y="90.6523">要处理的语言选项</text><path d="M6,108.5088 L6,136.2632 A0,0 0 0 0 6,136.2632 L105,136.2632 A0,0 0 0 0 105,136.2632 L105,126.5088 L248.5,129.0405 L105,118.5088 L105,118.5088 L95,108.5088 L6,108.5088 A0,0 0 0 0 6,108.5088 " fill="#FEFFDD" style="stroke:#181818;stroke-width:0.5;"/><path d="M95,108.5088 L95,118.5088 L105,118.5088 L95,108.5088 " fill="#FEFFDD" style="stroke:#181818;stroke-width:0.5;"/><text fill="#000000" font-family="sans-serif" font-size="13" lengthAdjust="spacing" textLength="78" x="12" y="128.4067">源文件管理器</text><path d="M6,146.2632 L6,174.0176 A0,0 0 0 0 6,174.0176 L92,174.0176 A0,0 0 0 0 92,174.0176 L92,164.2632 L248.5,167.2808 L92,156.2632 L92,156.2632 L82,146.2632 L6,146.2632 A0,0 0 0 0 6,146.2632 " fill="#FEFFDD" style="stroke:#181818;stroke-width:0.5;"/><path d="M82,146.2632 L82,156.2632 L92,156.2632 L82,146.2632 " fill="#FEFFDD" style="stroke:#181818;stroke-width:0.5;"/><text fill="#000000" font-family="sans-serif" font-size="13" lengthAdjust="spacing" textLength="65" x="12" y="166.1611">外部输入源</text><path d="M6,184.0176 L6,211.772 A0,0 0 0 0 6,211.772 L144,211.772 A0,0 0 0 0 144,211.772 L144,202.0176 L248.5,205.521 L144,194.0176 L144,194.0176 L134,184.0176 L6,184.0176 A0,0 0 0 0 6,184.0176 " fill="#FEFFDD" style="stroke:#181818;stroke-width:0.5;"/><path d="M134,184.0176 L134,194.0176 L144,194.0176 L134,184.0176 " fill="#FEFFDD" style="stroke:#181818;stroke-width:0.5;"/><text fill="#000000" font-family="sans-serif" font-size="13" lengthAdjust="spacing" textLength="117" x="12" y="203.9155">当前词法分析器对象</text><path d="M6,221.772 L6,249.5264 A0,0 0 0 0 6,249.5264 L209,249.5264 A0,0 0 0 0 209,249.5264 L209,239.772 L248.5,243.7612 L209,231.772 L209,231.772 L199,221.772 L6,221.772 A0,0 0 0 0 6,221.772 " fill="#FEFFDD" style="stroke:#181818;stroke-width:0.5;"/><path d="M199,221.772 L199,231.772 L209,231.772 L199,221.772 " fill="#FEFFDD" style="stroke:#181818;stroke-width:0.5;"/><text fill="#000000" font-family="sans-serif" font-size="13" lengthAdjust="spacing" textLength="182" x="12" y="241.6699">标识符表，通过该表匹配关键字</text><path d="M6,259.5264 L6,287.2808 A0,0 0 0 0 6,287.2808 L144,287.2808 A0,0 0 0 0 144,287.2808 L144,277.5264 L248.5,282.0015 L144,269.5264 L144,269.5264 L134,259.5264 L6,259.5264 A0,0 0 0 0 6,259.5264 " fill="#FEFFDD" style="stroke:#181818;stroke-width:0.5;"/><path d="M134,259.5264 L134,269.5264 L144,269.5264 L134,259.5264 " fill="#FEFFDD" style="stroke:#181818;stroke-width:0.5;"/><text fill="#000000" font-family="sans-serif" font-size="13" lengthAdjust="spacing" textLength="117" x="12" y="279.4243">记录解析的宏的状态</text><path d="M6,297.2808 L6,325.0352 A0,0 0 0 0 6,325.0352 L92,325.0352 A0,0 0 0 0 92,325.0352 L92,315.2808 L248.5,328.2417 L92,307.2808 L92,307.2808 L82,297.2808 L6,297.2808 A0,0 0 0 0 6,297.2808 " fill="#FEFFDD" style="stroke:#181818;stroke-width:0.5;"/><path d="M82,297.2808 L82,307.2808 L92,307.2808 L82,297.2808 " fill="#FEFFDD" style="stroke:#181818;stroke-width:0.5;"/><text fill="#000000" font-family="sans-serif" font-size="13" lengthAdjust="spacing" textLength="65" x="12" y="317.1787">初始化操作</text><path d="M6,335.0352 L6,362.7896 A0,0 0 0 0 6,362.7896 L189,362.7896 A0,0 0 0 0 189,362.7896 L189,353.0352 L248.5,366.4819 L189,345.0352 L189,345.0352 L179,335.0352 L6,335.0352 A0,0 0 0 0 6,335.0352 " fill="#FEFFDD" style="stroke:#181818;stroke-width:0.5;"/><path d="M179,335.0352 L179,345.0352 L189,345.0352 L179,335.0352 " fill="#FEFFDD" style="stroke:#181818;stroke-width:0.5;"/><text fill="#000000" font-family="sans-serif" font-size="13" lengthAdjust="spacing" textLength="162" x="12" y="354.9331">对当前的token进行词法分析</text><path d="M6,372.7896 L6,400.5439 A0,0 0 0 0 6,400.5439 L131,400.5439 A0,0 0 0 0 131,400.5439 L131,390.7896 L248.5,404.7222 L131,382.7896 L131,382.7896 L121,372.7896 L6,372.7896 A0,0 0 0 0 6,372.7896 " fill="#FEFFDD" style="stroke:#181818;stroke-width:0.5;"/><path d="M121,372.7896 L121,382.7896 L131,382.7896 L121,372.7896 " fill="#FEFFDD" style="stroke:#181818;stroke-width:0.5;"/><text fill="#000000" font-family="sans-serif" font-size="13" lengthAdjust="spacing" textLength="104" x="12" y="392.6875">分析没有扩展的宏</text><path d="M611.5,33 L611.5,42.8772 L551.5,71.6802 L611.5,50.8772 L611.5,60.7544 A0,0 0 0 0 611.5,60.7544 L710.5,60.7544 A0,0 0 0 0 710.5,60.7544 L710.5,43 L700.5,33 L611.5,33 A0,0 0 0 0 611.5,33 " fill="#FEFFDD" style="stroke:#181818;stroke-width:0.5;"/><path d="M700.5,33 L700.5,43 L710.5,43 L700.5,33 " fill="#FEFFDD" style="stroke:#181818;stroke-width:0.5;"/><text fill="#000000" font-family="sans-serif" font-size="13" lengthAdjust="spacing" textLength="78" x="617.5" y="52.8979">调试引擎对象</text><path d="M611.5,70.7544 L611.5,80.6316 L411.5,109.9204 L611.5,88.6316 L611.5,98.5088 A0,0 0 0 0 611.5,98.5088 L697.5,98.5088 A0,0 0 0 0 697.5,98.5088 L697.5,80.7544 L687.5,70.7544 L611.5,70.7544 A0,0 0 0 0 611.5,70.7544 " fill="#FEFFDD" style="stroke:#181818;stroke-width:0.5;"/><path d="M687.5,70.7544 L687.5,80.7544 L697.5,80.7544 L687.5,70.7544 " fill="#FEFFDD" style="stroke:#181818;stroke-width:0.5;"/><text fill="#000000" font-family="sans-serif" font-size="13" lengthAdjust="spacing" textLength="65" x="617.5" y="90.6523">文件管理器</text><path d="M611.5,108.5088 L611.5,118.386 L485.5,148.1606 L611.5,126.386 L611.5,136.2632 A0,0 0 0 0 611.5,136.2632 L736.5,136.2632 A0,0 0 0 0 736.5,136.2632 L736.5,118.5088 L726.5,108.5088 L611.5,108.5088 A0,0 0 0 0 611.5,108.5088 " fill="#FEFFDD" style="stroke:#181818;stroke-width:0.5;"/><path d="M726.5,108.5088 L726.5,118.5088 L736.5,118.5088 L726.5,108.5088 " fill="#FEFFDD" style="stroke:#181818;stroke-width:0.5;"/><text fill="#000000" font-family="sans-serif" font-size="13" lengthAdjust="spacing" textLength="104" x="617.5" y="128.4067">预编译的文件缓存</text><path d="M611.5,146.2632 L611.5,156.1404 L445.5,186.4009 L611.5,164.1404 L611.5,174.0176 A0,0 0 0 0 611.5,174.0176 L723.5,174.0176 A0,0 0 0 0 723.5,174.0176 L723.5,156.2632 L713.5,146.2632 L611.5,146.2632 A0,0 0 0 0 611.5,146.2632 " fill="#FEFFDD" style="stroke:#181818;stroke-width:0.5;"/><path d="M713.5,146.2632 L713.5,156.2632 L723.5,156.2632 L713.5,146.2632 " fill="#FEFFDD" style="stroke:#181818;stroke-width:0.5;"/><text fill="#000000" font-family="sans-serif" font-size="13" lengthAdjust="spacing" textLength="91" x="617.5" y="166.1611">翻译单元的种类</text><path d="M611.5,184.0176 L611.5,193.8948 L472.5,224.6411 L611.5,201.8948 L611.5,211.772 A0,0 0 0 0 611.5,211.772 L775.5,211.772 A0,0 0 0 0 775.5,211.772 L775.5,194.0176 L765.5,184.0176 L611.5,184.0176 A0,0 0 0 0 611.5,184.0176 " fill="#FEFFDD" style="stroke:#181818;stroke-width:0.5;"/><path d="M765.5,184.0176 L765.5,194.0176 L775.5,194.0176 L765.5,184.0176 " fill="#FEFFDD" style="stroke:#181818;stroke-width:0.5;"/><text fill="#000000" font-family="sans-serif" font-size="13" lengthAdjust="spacing" textLength="143" x="617.5" y="203.9155">当前的预处理词法分析器</text><path d="M611.5,221.772 L611.5,231.6492 L427.5,262.8813 L611.5,239.6492 L611.5,249.5264 A0,0 0 0 0 611.5,249.5264 L723.5,249.5264 A0,0 0 0 0 723.5,249.5264 L723.5,231.772 L713.5,221.772 L611.5,221.772 A0,0 0 0 0 611.5,221.772 " fill="#FEFFDD" style="stroke:#181818;stroke-width:0.5;"/><path d="M713.5,221.772 L713.5,231.772 L723.5,231.772 L713.5,221.772 " fill="#FEFFDD" style="stroke:#181818;stroke-width:0.5;"/><text fill="#000000" font-family="sans-serif" font-size="13" lengthAdjust="spacing" textLength="91" x="617.5" y="241.6699">内建数据的信息</text><path d="M611.5,259.5264 L611.5,269.4036 L410.5,301.1216 L611.5,277.4036 L611.5,287.2808 A0,0 0 0 0 611.5,287.2808 L894.5,287.2808 A0,0 0 0 0 894.5,287.2808 L894.5,269.5264 L884.5,259.5264 L611.5,259.5264 A0,0 0 0 0 611.5,259.5264 " fill="#FEFFDD" style="stroke:#181818;stroke-width:0.5;"/><path d="M884.5,259.5264 L884.5,269.5264 L894.5,269.5264 L884.5,259.5264 " fill="#FEFFDD" style="stroke:#181818;stroke-width:0.5;"/><text fill="#000000" font-family="sans-serif" font-size="13" lengthAdjust="spacing" textLength="262" x="617.5" y="279.4243">include头文件的堆栈关系，多重包含时会用到</text><path d="M611.5,297.2808 L611.5,307.158 L406.5,347.3618 L611.5,315.158 L611.5,325.0352 A0,0 0 0 0 611.5,325.0352 L749.5,325.0352 A0,0 0 0 0 749.5,325.0352 L749.5,307.2808 L739.5,297.2808 L611.5,297.2808 A0,0 0 0 0 611.5,297.2808 " fill="#FEFFDD" style="stroke:#181818;stroke-width:0.5;"/><path d="M739.5,297.2808 L739.5,307.2808 L749.5,307.2808 L739.5,297.2808 " fill="#FEFFDD" style="stroke:#181818;stroke-width:0.5;"/><text fill="#000000" font-family="sans-serif" font-size="13" lengthAdjust="spacing" textLength="117" x="617.5" y="317.1787">进入要分析的主文件</text><path d="M611.5,335.0352 L611.5,344.9124 L381.5,385.6021 L611.5,352.9124 L611.5,362.7896 A0,0 0 0 0 611.5,362.7896 L749.5,362.7896 A0,0 0 0 0 749.5,362.7896 L749.5,345.0352 L739.5,335.0352 L611.5,335.0352 A0,0 0 0 0 611.5,335.0352 " fill="#FEFFDD" style="stroke:#181818;stroke-width:0.5;"/><path d="M739.5,335.0352 L739.5,345.0352 L749.5,345.0352 L739.5,335.0352 " fill="#FEFFDD" style="stroke:#181818;stroke-width:0.5;"/><text fill="#000000" font-family="sans-serif" font-size="13" lengthAdjust="spacing" textLength="117" x="617.5" y="354.9331">词法分析非注释语句</text><path d="M611.5,372.7896 L611.5,382.6667 L346.5,423.8423 L611.5,390.6667 L611.5,400.5439 A0,0 0 0 0 611.5,400.5439 L1061.5,400.5439 A0,0 0 0 0 1061.5,400.5439 L1061.5,382.7896 L1051.5,372.7896 L611.5,372.7896 A0,0 0 0 0 611.5,372.7896 " fill="#FEFFDD" style="stroke:#181818;stroke-width:0.5;"/><path d="M1051.5,372.7896 L1051.5,382.7896 L1061.5,382.7896 L1051.5,372.7896 " fill="#FEFFDD" style="stroke:#181818;stroke-width:0.5;"/><text fill="#000000" font-family="sans-serif" font-size="13" lengthAdjust="spacing" textLength="429" x="617.5" y="392.6875">向前继续看一个字符，对一些可能有歧义的匹配规则需要向前多看一个字符</text><!--SRC=[bLHVJzjM57-_do9FKxkfNy2QAgqPbL2RDLBXUVAScs1Xhjcr8x5DbO8W8McJaIeDRIcjI0TDzYSnZ0aH4igNoRMld_OLTgwl7Kn69oylkJv_V-UStpcQeLfMAalnAZKrR5ac_Gcbu7SdctsqQbif9MNPEKMnbbIASz-kslJBk2sOw2QnxagNhtMr83p4Fp4jMzUiELBG2VwNu7Ffy50bXJ1B-1JHfEw-Rk1CWO8gUAb4BM3wcTGzDejK2xNX-ve-cywaLMq9Wpg3LqpwmxrYFezf80jDvjPiJ8bgI7SmZ0JnygGo1Bkm-40dER1Se2gn35LWNIIwBQJI8bsa3_4Qfb7JYaJ_leY3fWNokrEpR3OoZASBPD9cFeU9hUTrJ2qbTVMne7vdO6bnhwWRjaxcITvKKk67egHDOkCrMvfaL8sQZstL5lLfOj1XSA8PnHm6ZROi_IsR5ZNfzSKyrAIhXluZldLRIkOW9iseEf7z4FE8L00vzlp696bpPGNGneIB1A-jgYI7SmlcCYPJZMakVxM4rHm8dY1Y0aW3v-sKcR_M4qMHH4J- -qrsiEarA-nrpzlTz4irlpD462OYV6K0gXUMReWGy1BnemtkjDcuxRP-PiwG7tTcl6zE7t4KyG_h4W1avqwVzqh_1qD8P-JkR4r6fzwW8oj9165AT-IUD_yxm2UoHmiXkkYDTxZp78e88urRhFyg4OxhEuFOmOw_qUCVMwny2C2I8P5RXBpB4O1WZJOhRm0KhzlmZaU9G4HBXjX5YzKQt6cu9srMhRZlcj2E6mVx2IXNUnZ64hIAM3OJDn6qsD8YTt-BEnNlZm-yq_jxNFTBk_mI98VmoUf3lznWvHF_nO3rNoO36rjtn2fbDZftsqTkOm2O9vSTTzr9XF3g8Y0-E68NRTxz1Gg486omBURmzDGjhIT3D7j5a2u5xE2la5aGTR_YxbUXLEza15rW1xl-LeFLowpvk_loT3BUzLxqMFKeMNUdTmcnwblMVSRgEswhCRdOIuRtXYk6-EKR8A_Ox63Gefbd8ua-sN48pX-GRaeWMzmu2CixzJY5aa6yTa9HtDz_-yuzwVbRJ-7oiEt3fE1cRY-ImTm_E-vUpQtzoexRSlG9uKKd6x7cSr7kgEkD-jxUiybPQNBs6t0P-2x6x0o5vFmDstRuneN8rUzEXZMHA-0-xswowcj_hoGw7uG2Pip4cKBw1m00]--></g></svg>