<?xml version="1.0" encoding="UTF-8" standalone="no"?><svg xmlns="http://www.w3.org/2000/svg" xmlns:xlink="http://www.w3.org/1999/xlink" contentStyleType="text/css" height="1393px" preserveAspectRatio="none" style="width:904px;height:1393px;background:#FFFFFF;" version="1.1" viewBox="0 0 904 1393" width="904px" zoomAndPan="magnify"><defs/><g><!--class program--><g id="elem_program"><rect codeLine="1" fill="#F1F1F1" height="277.4414" id="program" rx="2.5" ry="2.5" style="stroke:#181818;stroke-width:0.5;" width="314" x="283" y="653"/><ellipse cx="409.25" cy="669" fill="#ADD1B2" rx="11" ry="11" style="stroke:#181818;stroke-width:1.0;"/><path d="M407.8281,674.3594 Q405.9688,674.3594 404.875,672.9688 Q403.7813,671.5781 403.7813,668.5938 Q403.7813,666.0625 404.9453,664.4063 Q406.1094,662.75 408.0938,662.75 Q409.5625,662.75 410.0313,662.875 Q410.5,663.0781 410.5,663.0781 Q410.5,663.0781 410.5,663.0078 Q410.5,662.9375 411.1094,662.0156 L412.1563,665.6719 L410.8281,666.0781 Q410.3594,664.5313 409.6953,663.8672 Q409.0313,663.2031 407.9688,663.2031 Q407.5781,663.2031 406.8125,664.7344 Q406.0469,666.2656 406.0469,668.5156 Q406.0469,670.9844 406.7109,672.375 Q407.375,673.7656 407.9063,673.7656 Q408.9688,673.7656 409.7266,673 Q410.4844,672.2344 410.8281,670.5781 L412.1563,671.1719 Q411.8281,672.5781 410.9297,673.4688 Q410.0313,674.3594 407.8281,674.3594 Z " fill="#000000"/><text fill="#000000" font-family="sans-serif" font-size="14" lengthAdjust="spacing" textLength="53" x="429.75" y="675.4839">program</text><line style="stroke:#181818;stroke-width:0.5;" x1="284" x2="596" y1="685" y2="685"/><ellipse cx="294" cy="700.0601" fill="none" rx="3" ry="3" style="stroke:#038048;stroke-width:1.0;"/><text fill="#000000" font-family="sans-serif" font-size="14" lengthAdjust="spacing" textLength="147" x="303" y="705.0439">has_source: const bool</text><ellipse cx="294" cy="719.1802" fill="none" rx="3" ry="3" style="stroke:#038048;stroke-width:1.0;"/><text fill="#000000" font-family="sans-serif" font-size="14" lengthAdjust="spacing" textLength="276" x="303" y="724.1641">context: const intrusive_ref&lt;clover::context&gt;</text><rect fill="none" height="6" style="stroke:#C82930;stroke-width:1.0;" width="6" x="291" y="735.3003"/><text fill="#000000" font-family="sans-serif" font-size="14" lengthAdjust="spacing" textLength="281" x="303" y="743.2842">_devices: std::vector&lt;intrusive_ref&lt;device&gt;&gt;</text><rect fill="none" height="6" style="stroke:#C82930;stroke-width:1.0;" width="6" x="291" y="754.4204"/><text fill="#000000" font-family="sans-serif" font-size="14" lengthAdjust="spacing" textLength="288" x="303" y="762.4043">_builds: std::map&lt;const device *, struct build&gt;</text><rect fill="none" height="6" style="stroke:#C82930;stroke-width:1.0;" width="6" x="291" y="773.5405"/><text fill="#000000" font-family="sans-serif" font-size="14" lengthAdjust="spacing" textLength="121" x="303" y="781.5244">_source: std::string</text><rect fill="none" height="6" style="stroke:#C82930;stroke-width:1.0;" width="6" x="291" y="792.6606"/><text fill="#000000" font-family="sans-serif" font-size="14" lengthAdjust="spacing" textLength="209" x="303" y="800.6445">_kernel_ref_counter: ref_counter</text><line style="stroke:#181818;stroke-width:0.5;" x1="284" x2="596" y1="807.7207" y2="807.7207"/><ellipse cx="294" cy="822.7808" fill="#84BE84" rx="3" ry="3" style="stroke:#038048;stroke-width:1.0;"/><text fill="#000000" font-family="sans-serif" font-size="14" lengthAdjust="spacing" textLength="58" x="303" y="827.7646">compile()</text><ellipse cx="294" cy="841.9009" fill="#84BE84" rx="3" ry="3" style="stroke:#038048;stroke-width:1.0;"/><text fill="#000000" font-family="sans-serif" font-size="14" lengthAdjust="spacing" textLength="31" x="303" y="846.8848">link()</text><ellipse cx="294" cy="861.021" fill="#84BE84" rx="3" ry="3" style="stroke:#038048;stroke-width:1.0;"/><text fill="#000000" font-family="sans-serif" font-size="14" lengthAdjust="spacing" textLength="91" x="303" y="866.0049">source() const</text><ellipse cx="294" cy="880.1411" fill="#84BE84" rx="3" ry="3" style="stroke:#038048;stroke-width:1.0;"/><text fill="#000000" font-family="sans-serif" font-size="14" lengthAdjust="spacing" textLength="96" x="303" y="885.125">devices() const</text><ellipse cx="294" cy="899.2612" fill="#84BE84" rx="3" ry="3" style="stroke:#038048;stroke-width:1.0;"/><text fill="#000000" font-family="sans-serif" font-size="14" lengthAdjust="spacing" textLength="78" x="303" y="904.2451">build() const</text><ellipse cx="294" cy="918.3813" fill="#84BE84" rx="3" ry="3" style="stroke:#038048;stroke-width:1.0;"/><text fill="#000000" font-family="sans-serif" font-size="14" lengthAdjust="spacing" textLength="155" x="303" y="923.3652">kernel_ref_count() const</text></g><path d="M6,556 L6,583.7544 A0,0 0 0 0 6,583.7544 L248,583.7544 A0,0 0 0 0 248,583.7544 L248,574 L287,698.5601 L248,566 L248,566 L238,556 L6,556 A0,0 0 0 0 6,556 " fill="#FEFFDD" style="stroke:#181818;stroke-width:0.5;"/><path d="M238,556 L238,566 L248,566 L238,556 " fill="#FEFFDD" style="stroke:#181818;stroke-width:0.5;"/><text fill="#000000" font-family="sans-serif" font-size="13" lengthAdjust="spacing" textLength="221" x="12" y="575.8979">判断是通过源码还是中间语言进行编译</text><path d="M6,593.7544 L6,621.5088 A0,0 0 0 0 6,621.5088 L92,621.5088 A0,0 0 0 0 92,621.5088 L92,611.7544 L287,717.6802 L92,603.7544 L92,603.7544 L82,593.7544 L6,593.7544 A0,0 0 0 0 6,593.7544 " fill="#FEFFDD" style="stroke:#181818;stroke-width:0.5;"/><path d="M82,593.7544 L82,603.7544 L92,603.7544 L82,593.7544 " fill="#FEFFDD" style="stroke:#181818;stroke-width:0.5;"/><text fill="#000000" font-family="sans-serif" font-size="13" lengthAdjust="spacing" textLength="65" x="12" y="613.6523">上下文信息</text><path d="M6,631.5088 L6,659.2632 A0,0 0 0 0 6,659.2632 L79,659.2632 A0,0 0 0 0 79,659.2632 L79,649.5088 L287,736.8003 L79,641.5088 L79,641.5088 L69,631.5088 L6,631.5088 A0,0 0 0 0 6,631.5088 " fill="#FEFFDD" style="stroke:#181818;stroke-width:0.5;"/><path d="M69,631.5088 L69,641.5088 L79,641.5088 L69,631.5088 " fill="#FEFFDD" style="stroke:#181818;stroke-width:0.5;"/><text fill="#000000" font-family="sans-serif" font-size="13" lengthAdjust="spacing" textLength="52" x="12" y="651.4067">设备信息</text><path d="M6,669.2632 L6,714.772 A0,0 0 0 0 6,714.772 L157,714.772 A0,0 0 0 0 157,714.772 L157,696.0176 L287,755.9204 L157,688.0176 L157,679.2632 L147,669.2632 L6,669.2632 A0,0 0 0 0 6,669.2632 " fill="#FEFFDD" style="stroke:#181818;stroke-width:0.5;"/><path d="M147,669.2632 L147,679.2632 L157,679.2632 L147,669.2632 " fill="#FEFFDD" style="stroke:#181818;stroke-width:0.5;"/><text fill="#000000" font-family="sans-serif" font-size="13" lengthAdjust="spacing" textLength="104" x="12" y="689.1611">维护编译后的源码</text><text fill="#000000" font-family="sans-serif" font-size="13" lengthAdjust="spacing" textLength="130" x="12" y="706.9155">所有信息，包括二进制</text><path d="M6,724.772 L6,752.5264 A0,0 0 0 0 6,752.5264 L53,752.5264 A0,0 0 0 0 53,752.5264 L53,742.772 L287,775.0405 L53,734.772 L53,734.772 L43,724.772 L6,724.772 A0,0 0 0 0 6,724.772 " fill="#FEFFDD" style="stroke:#181818;stroke-width:0.5;"/><path d="M43,724.772 L43,734.772 L53,734.772 L43,724.772 " fill="#FEFFDD" style="stroke:#181818;stroke-width:0.5;"/><text fill="#000000" font-family="sans-serif" font-size="13" lengthAdjust="spacing" textLength="26" x="12" y="744.6699">源码</text><path d="M6,762.5264 L6,790.2808 A0,0 0 0 0 6,790.2808 L140,790.2808 A0,0 0 0 0 140,790.2808 L140,780.5264 L287,794.1606 L140,772.5264 L140,772.5264 L130,762.5264 L6,762.5264 A0,0 0 0 0 6,762.5264 " fill="#FEFFDD" style="stroke:#181818;stroke-width:0.5;"/><path d="M130,762.5264 L130,772.5264 L140,772.5264 L130,762.5264 " fill="#FEFFDD" style="stroke:#181818;stroke-width:0.5;"/><text fill="#000000" font-family="sans-serif" font-size="13" lengthAdjust="spacing" textLength="113" x="12" y="782.4243">对kernel的引用计数</text><path d="M6,800.2808 L6,828.0352 A0,0 0 0 0 6,828.0352 L79,828.0352 A0,0 0 0 0 79,828.0352 L79,818.2808 L287,821.2808 L79,810.2808 L79,810.2808 L69,800.2808 L6,800.2808 A0,0 0 0 0 6,800.2808 " fill="#FEFFDD" style="stroke:#181818;stroke-width:0.5;"/><path d="M69,800.2808 L69,810.2808 L79,810.2808 L69,800.2808 " fill="#FEFFDD" style="stroke:#181818;stroke-width:0.5;"/><text fill="#000000" font-family="sans-serif" font-size="13" lengthAdjust="spacing" textLength="52" x="12" y="820.1787">编译源码</text><path d="M6,838.0352 L6,865.7896 A0,0 0 0 0 6,865.7896 L53,865.7896 A0,0 0 0 0 53,865.7896 L53,856.0352 L287,840.4009 L53,848.0352 L53,848.0352 L43,838.0352 L6,838.0352 A0,0 0 0 0 6,838.0352 " fill="#FEFFDD" style="stroke:#181818;stroke-width:0.5;"/><path d="M43,838.0352 L43,848.0352 L53,848.0352 L43,838.0352 " fill="#FEFFDD" style="stroke:#181818;stroke-width:0.5;"/><text fill="#000000" font-family="sans-serif" font-size="13" lengthAdjust="spacing" textLength="26" x="12" y="857.9331">链接</text><path d="M6,875.7896 L6,903.5439 A0,0 0 0 0 6,903.5439 L79,903.5439 A0,0 0 0 0 79,903.5439 L79,893.7896 L287,859.521 L79,885.7896 L79,885.7896 L69,875.7896 L6,875.7896 A0,0 0 0 0 6,875.7896 " fill="#FEFFDD" style="stroke:#181818;stroke-width:0.5;"/><path d="M69,875.7896 L69,885.7896 L79,885.7896 L69,875.7896 " fill="#FEFFDD" style="stroke:#181818;stroke-width:0.5;"/><text fill="#000000" font-family="sans-serif" font-size="13" lengthAdjust="spacing" textLength="52" x="12" y="895.6875">获取源码</text><path d="M6,913.5439 L6,941.2983 A0,0 0 0 0 6,941.2983 L79,941.2983 A0,0 0 0 0 79,941.2983 L79,931.5439 L287,878.6411 L79,923.5439 L79,923.5439 L69,913.5439 L6,913.5439 A0,0 0 0 0 6,913.5439 " fill="#FEFFDD" style="stroke:#181818;stroke-width:0.5;"/><path d="M69,913.5439 L69,923.5439 L79,923.5439 L69,913.5439 " fill="#FEFFDD" style="stroke:#181818;stroke-width:0.5;"/><text fill="#000000" font-family="sans-serif" font-size="13" lengthAdjust="spacing" textLength="52" x="12" y="933.4419">获取设备</text><path d="M6,951.2983 L6,979.0527 A0,0 0 0 0 6,979.0527 L157,979.0527 A0,0 0 0 0 157,979.0527 L157,969.2983 L287,897.7612 L157,961.2983 L157,961.2983 L147,951.2983 L6,951.2983 A0,0 0 0 0 6,951.2983 " fill="#FEFFDD" style="stroke:#181818;stroke-width:0.5;"/><path d="M147,951.2983 L147,961.2983 L157,961.2983 L147,951.2983 " fill="#FEFFDD" style="stroke:#181818;stroke-width:0.5;"/><text fill="#000000" font-family="sans-serif" font-size="13" lengthAdjust="spacing" textLength="130" x="12" y="971.1963">获取编译后的程序信息</text><path d="M6,989.0527 L6,1016.8071 A0,0 0 0 0 6,1016.8071 L213,1016.8071 A0,0 0 0 0 213,1016.8071 L213,1007.0527 L287,916.8813 L213,999.0527 L213,999.0527 L203,989.0527 L6,989.0527 A0,0 0 0 0 6,989.0527 " fill="#FEFFDD" style="stroke:#181818;stroke-width:0.5;"/><path d="M203,989.0527 L203,999.0527 L213,999.0527 L203,989.0527 " fill="#FEFFDD" style="stroke:#181818;stroke-width:0.5;"/><text fill="#000000" font-family="sans-serif" font-size="13" lengthAdjust="spacing" textLength="186" x="12" y="1008.9507">获取program被kernel引用的次数</text><!--class kernel--><g id="elem_kernel"><rect codeLine="54" fill="#F1F1F1" height="334.8018" id="kernel" rx="2.5" ry="2.5" style="stroke:#181818;stroke-width:0.5;" width="461" x="436.5" y="74"/><ellipse cx="643.25" cy="90" fill="#ADD1B2" rx="11" ry="11" style="stroke:#181818;stroke-width:1.0;"/><path d="M641.8281,95.3594 Q639.9688,95.3594 638.875,93.9688 Q637.7813,92.5781 637.7813,89.5938 Q637.7813,87.0625 638.9453,85.4063 Q640.1094,83.75 642.0938,83.75 Q643.5625,83.75 644.0313,83.875 Q644.5,84.0781 644.5,84.0781 Q644.5,84.0781 644.5,84.0078 Q644.5,83.9375 645.1094,83.0156 L646.1563,86.6719 L644.8281,87.0781 Q644.3594,85.5313 643.6953,84.8672 Q643.0313,84.2031 641.9688,84.2031 Q641.5781,84.2031 640.8125,85.7344 Q640.0469,87.2656 640.0469,89.5156 Q640.0469,91.9844 640.7109,93.375 Q641.375,94.7656 641.9063,94.7656 Q642.9688,94.7656 643.7266,94 Q644.4844,93.2344 644.8281,91.5781 L646.1563,92.1719 Q645.8281,93.5781 644.9297,94.4688 Q644.0313,95.3594 641.8281,95.3594 Z " fill="#000000"/><text fill="#000000" font-family="sans-serif" font-size="14" lengthAdjust="spacing" textLength="39" x="663.75" y="96.4839">kernel</text><line style="stroke:#181818;stroke-width:0.5;" x1="437.5" x2="896.5" y1="106" y2="106"/><ellipse cx="447.5" cy="121.0601" fill="none" rx="3" ry="3" style="stroke:#038048;stroke-width:1.0;"/><text fill="#000000" font-family="sans-serif" font-size="14" lengthAdjust="spacing" textLength="292" x="456.5" y="126.0439">program: const intrusive_ref&lt;clover::program&gt;</text><rect fill="none" height="6" style="stroke:#C82930;stroke-width:1.0;" width="6" x="444.5" y="137.1802"/><text fill="#000000" font-family="sans-serif" font-size="14" lengthAdjust="spacing" textLength="289" x="456.5" y="145.1641">args: std::vector&lt;std::unique_ptr&lt;argument&gt;&gt;</text><rect fill="none" height="6" style="stroke:#C82930;stroke-width:1.0;" width="6" x="444.5" y="156.3003"/><text fill="#000000" font-family="sans-serif" font-size="14" lengthAdjust="spacing" textLength="435" x="456.5" y="164.2842">_constant_buffers: std::map&lt;device *, std::unique_ptr&lt;root_buffer&gt; &gt;</text><rect fill="none" height="6" style="stroke:#C82930;stroke-width:1.0;" width="6" x="444.5" y="175.4204"/><text fill="#000000" font-family="sans-serif" font-size="14" lengthAdjust="spacing" textLength="113" x="456.5" y="183.4043">_name: std::string</text><rect fill="none" height="6" style="stroke:#C82930;stroke-width:1.0;" width="6" x="444.5" y="194.5405"/><text fill="#000000" font-family="sans-serif" font-size="14" lengthAdjust="spacing" textLength="119" x="456.5" y="202.5244">exec: exec_context</text><rect fill="none" height="6" style="stroke:#C82930;stroke-width:1.0;" width="6" x="444.5" y="213.6606"/><text fill="#000000" font-family="sans-serif" font-size="14" lengthAdjust="spacing" textLength="189" x="456.5" y="221.6445">program_ref: const ref_holder</text><line style="stroke:#181818;stroke-width:0.5;" x1="437.5" x2="896.5" y1="228.7207" y2="228.7207"/><ellipse cx="447.5" cy="243.7808" fill="#84BE84" rx="3" ry="3" style="stroke:#038048;stroke-width:1.0;"/><text fill="#000000" font-family="sans-serif" font-size="14" lengthAdjust="spacing" textLength="52" x="456.5" y="248.7646">launch()</text><ellipse cx="447.5" cy="262.9009" fill="#84BE84" rx="3" ry="3" style="stroke:#038048;stroke-width:1.0;"/><text fill="#000000" font-family="sans-serif" font-size="14" lengthAdjust="spacing" textLength="115" x="456.5" y="267.8848">mem_local() const</text><ellipse cx="447.5" cy="282.021" fill="#84BE84" rx="3" ry="3" style="stroke:#038048;stroke-width:1.0;"/><text fill="#000000" font-family="sans-serif" font-size="14" lengthAdjust="spacing" textLength="129" x="456.5" y="287.0049">mem_private() const</text><ellipse cx="447.5" cy="301.1411" fill="#84BE84" rx="3" ry="3" style="stroke:#038048;stroke-width:1.0;"/><text fill="#000000" font-family="sans-serif" font-size="14" lengthAdjust="spacing" textLength="83" x="456.5" y="306.125">name() const</text><ellipse cx="447.5" cy="320.2612" fill="#84BE84" rx="3" ry="3" style="stroke:#038048;stroke-width:1.0;"/><text fill="#000000" font-family="sans-serif" font-size="14" lengthAdjust="spacing" textLength="166" x="456.5" y="325.2451">optimal_block_size() const</text><ellipse cx="447.5" cy="339.3813" fill="#84BE84" rx="3" ry="3" style="stroke:#038048;stroke-width:1.0;"/><text fill="#000000" font-family="sans-serif" font-size="14" lengthAdjust="spacing" textLength="174" x="456.5" y="344.3652">required_block_size() const</text><ellipse cx="447.5" cy="358.5015" fill="#84BE84" rx="3" ry="3" style="stroke:#038048;stroke-width:1.0;"/><text fill="#000000" font-family="sans-serif" font-size="14" lengthAdjust="spacing" textLength="38" x="456.5" y="363.4854">args()</text><ellipse cx="447.5" cy="377.6216" fill="#84BE84" rx="3" ry="3" style="stroke:#038048;stroke-width:1.0;"/><text fill="#000000" font-family="sans-serif" font-size="14" lengthAdjust="spacing" textLength="76" x="456.5" y="382.6055">args_infos()</text><ellipse cx="447.5" cy="396.7417" fill="#84BE84" rx="3" ry="3" style="stroke:#038048;stroke-width:1.0;"/><text fill="#000000" font-family="sans-serif" font-size="14" lengthAdjust="spacing" textLength="94" x="456.5" y="401.7256">module() const</text></g><path d="M73,6 L73,33.7544 A0,0 0 0 0 73,33.7544 L167,33.7544 A0,0 0 0 0 167,33.7544 L167,24 L440.5,119.5601 L167,16 L167,16 L157,6 L73,6 A0,0 0 0 0 73,6 " fill="#FEFFDD" style="stroke:#181818;stroke-width:0.5;"/><path d="M157,6 L157,16 L167,16 L157,6 " fill="#FEFFDD" style="stroke:#181818;stroke-width:0.5;"/><text fill="#000000" font-family="sans-serif" font-size="13" lengthAdjust="spacing" textLength="73" x="79" y="25.8979">program对象</text><path d="M73,43.7544 L73,71.5088 A0,0 0 0 0 73,71.5088 L198,71.5088 A0,0 0 0 0 198,71.5088 L198,61.7544 L440.5,138.6802 L198,53.7544 L198,53.7544 L188,43.7544 L73,43.7544 A0,0 0 0 0 73,43.7544 " fill="#FEFFDD" style="stroke:#181818;stroke-width:0.5;"/><path d="M188,43.7544 L188,53.7544 L198,53.7544 L188,43.7544 " fill="#FEFFDD" style="stroke:#181818;stroke-width:0.5;"/><text fill="#000000" font-family="sans-serif" font-size="13" lengthAdjust="spacing" textLength="104" x="79" y="63.6523">设置核函数的参数</text><path d="M73,81.5088 L73,109.2632 A0,0 0 0 0 73,109.2632 L159,109.2632 A0,0 0 0 0 159,109.2632 L159,99.5088 L440.5,157.8003 L159,91.5088 L159,91.5088 L149,81.5088 L73,81.5088 A0,0 0 0 0 73,81.5088 " fill="#FEFFDD" style="stroke:#181818;stroke-width:0.5;"/><path d="M149,81.5088 L149,91.5088 L159,91.5088 L149,81.5088 " fill="#FEFFDD" style="stroke:#181818;stroke-width:0.5;"/><text fill="#000000" font-family="sans-serif" font-size="13" lengthAdjust="spacing" textLength="65" x="79" y="101.4067">常量缓冲区</text><path d="M73,119.2632 L73,147.0176 A0,0 0 0 0 73,147.0176 L172,147.0176 A0,0 0 0 0 172,147.0176 L172,137.2632 L440.5,176.9204 L172,129.2632 L172,129.2632 L162,119.2632 L73,119.2632 A0,0 0 0 0 73,119.2632 " fill="#FEFFDD" style="stroke:#181818;stroke-width:0.5;"/><path d="M162,119.2632 L162,129.2632 L172,129.2632 L162,119.2632 " fill="#FEFFDD" style="stroke:#181818;stroke-width:0.5;"/><text fill="#000000" font-family="sans-serif" font-size="13" lengthAdjust="spacing" textLength="78" x="79" y="139.1611">核函数的名字</text><path d="M73,157.0176 L73,184.772 A0,0 0 0 0 73,184.772 L172,184.772 A0,0 0 0 0 172,184.772 L172,175.0176 L440.5,196.0405 L172,167.0176 L172,167.0176 L162,157.0176 L73,157.0176 A0,0 0 0 0 73,157.0176 " fill="#FEFFDD" style="stroke:#181818;stroke-width:0.5;"/><path d="M162,157.0176 L162,167.0176 L172,167.0176 L162,157.0176 " fill="#FEFFDD" style="stroke:#181818;stroke-width:0.5;"/><text fill="#000000" font-family="sans-serif" font-size="13" lengthAdjust="spacing" textLength="78" x="79" y="176.9155">核函数的名字</text><path d="M73,194.772 L73,222.5264 A0,0 0 0 0 73,222.5264 L146,222.5264 A0,0 0 0 0 146,222.5264 L146,212.772 L440.5,215.1606 L146,204.772 L146,204.772 L136,194.772 L73,194.772 A0,0 0 0 0 73,194.772 " fill="#FEFFDD" style="stroke:#181818;stroke-width:0.5;"/><path d="M136,194.772 L136,204.772 L146,204.772 L136,194.772 " fill="#FEFFDD" style="stroke:#181818;stroke-width:0.5;"/><text fill="#000000" font-family="sans-serif" font-size="13" lengthAdjust="spacing" textLength="52" x="79" y="214.6699">引用计数</text><path d="M73,232.5264 L73,260.2808 A0,0 0 0 0 73,260.2808 L237,260.2808 A0,0 0 0 0 237,260.2808 L237,250.5264 L440.5,261.4009 L237,242.5264 L237,242.5264 L227,232.5264 L73,232.5264 A0,0 0 0 0 73,232.5264 " fill="#FEFFDD" style="stroke:#181818;stroke-width:0.5;"/><path d="M227,232.5264 L227,242.5264 L237,242.5264 L227,232.5264 " fill="#FEFFDD" style="stroke:#181818;stroke-width:0.5;"/><text fill="#000000" font-family="sans-serif" font-size="13" lengthAdjust="spacing" textLength="143" x="79" y="252.4243">计算local memory的大小</text><path d="M73,270.2808 L73,298.0352 A0,0 0 0 0 73,298.0352 L247,298.0352 A0,0 0 0 0 247,298.0352 L247,288.2808 L440.5,280.521 L247,280.2808 L247,280.2808 L237,270.2808 L73,270.2808 A0,0 0 0 0 73,270.2808 " fill="#FEFFDD" style="stroke:#181818;stroke-width:0.5;"/><path d="M237,270.2808 L237,280.2808 L247,280.2808 L237,270.2808 " fill="#FEFFDD" style="stroke:#181818;stroke-width:0.5;"/><text fill="#000000" font-family="sans-serif" font-size="13" lengthAdjust="spacing" textLength="153" x="79" y="290.1787">计算private memory的大小</text><path d="M73,308.0352 L73,335.7896 A0,0 0 0 0 73,335.7896 L333,335.7896 A0,0 0 0 0 333,335.7896 L333,326.0352 L440.5,318.7612 L333,318.0352 L333,318.0352 L323,308.0352 L73,308.0352 A0,0 0 0 0 73,308.0352 " fill="#FEFFDD" style="stroke:#181818;stroke-width:0.5;"/><path d="M323,308.0352 L323,318.0352 L333,318.0352 L323,308.0352 " fill="#FEFFDD" style="stroke:#181818;stroke-width:0.5;"/><text fill="#000000" font-family="sans-serif" font-size="13" lengthAdjust="spacing" textLength="239" x="79" y="327.9331">获取硬件global size和group size的最大值</text><path d="M73,345.7896 L73,373.5439 A0,0 0 0 0 73,373.5439 L320,373.5439 A0,0 0 0 0 320,373.5439 L320,363.7896 L440.5,337.8813 L320,355.7896 L320,355.7896 L310,345.7896 L73,345.7896 A0,0 0 0 0 73,345.7896 " fill="#FEFFDD" style="stroke:#181818;stroke-width:0.5;"/><path d="M310,345.7896 L310,355.7896 L320,355.7896 L310,345.7896 " fill="#FEFFDD" style="stroke:#181818;stroke-width:0.5;"/><text fill="#000000" font-family="sans-serif" font-size="13" lengthAdjust="spacing" textLength="226" x="79" y="365.6875">用户程序设置的global size和group size</text><path d="M73,383.5439 L73,411.2983 A0,0 0 0 0 73,411.2983 L250,411.2983 A0,0 0 0 0 250,411.2983 L250,401.5439 L440.5,376.1216 L250,393.5439 L250,393.5439 L240,383.5439 L73,383.5439 A0,0 0 0 0 73,383.5439 " fill="#FEFFDD" style="stroke:#181818;stroke-width:0.5;"/><path d="M240,383.5439 L240,393.5439 L250,393.5439 L240,383.5439 " fill="#FEFFDD" style="stroke:#181818;stroke-width:0.5;"/><text fill="#000000" font-family="sans-serif" font-size="13" lengthAdjust="spacing" textLength="156" x="79" y="403.4419">获取核函数参数的具体信息</text><path d="M73,421.2983 L73,466.8071 A0,0 0 0 0 73,466.8071 L401,466.8071 A0,0 0 0 0 401,466.8071 L401,448.0527 L440.5,395.2417 L401,440.0527 L401,431.2983 L391,421.2983 L73,421.2983 A0,0 0 0 0 73,421.2983 " fill="#FEFFDD" style="stroke:#181818;stroke-width:0.5;"/><path d="M391,421.2983 L391,431.2983 L401,431.2983 L391,421.2983 " fill="#FEFFDD" style="stroke:#181818;stroke-width:0.5;"/><text fill="#000000" font-family="sans-serif" font-size="13" lengthAdjust="spacing" textLength="307" x="79" y="441.1963">返回clover::module对象，module对象保存着编译后的</text><text fill="#000000" font-family="sans-serif" font-size="13" lengthAdjust="spacing" textLength="65" x="79" y="458.9507">二进制信息</text><!--class ref_counter--><g id="elem_ref_counter"><rect codeLine="112" fill="#F1F1F1" height="105.3604" id="ref_counter" rx="2.5" ry="2.5" style="stroke:#181818;stroke-width:0.5;" width="244" x="476" y="1135"/><ellipse cx="557.25" cy="1151" fill="#ADD1B2" rx="11" ry="11" style="stroke:#181818;stroke-width:1.0;"/><path d="M555.8281,1156.3594 Q553.9688,1156.3594 552.875,1154.9688 Q551.7813,1153.5781 551.7813,1150.5938 Q551.7813,1148.0625 552.9453,1146.4063 Q554.1094,1144.75 556.0938,1144.75 Q557.5625,1144.75 558.0313,1144.875 Q558.5,1145.0781 558.5,1145.0781 Q558.5,1145.0781 558.5,1145.0078 Q558.5,1144.9375 559.1094,1144.0156 L560.1563,1147.6719 L558.8281,1148.0781 Q558.3594,1146.5313 557.6953,1145.8672 Q557.0313,1145.2031 555.9688,1145.2031 Q555.5781,1145.2031 554.8125,1146.7344 Q554.0469,1148.2656 554.0469,1150.5156 Q554.0469,1152.9844 554.7109,1154.375 Q555.375,1155.7656 555.9063,1155.7656 Q556.9688,1155.7656 557.7266,1155 Q558.4844,1154.2344 558.8281,1152.5781 L560.1563,1153.1719 Q559.8281,1154.5781 558.9297,1155.4688 Q558.0313,1156.3594 555.8281,1156.3594 Z " fill="#000000"/><text fill="#000000" font-family="sans-serif" font-size="14" lengthAdjust="spacing" textLength="73" x="577.75" y="1157.4839">ref_counter</text><line style="stroke:#181818;stroke-width:0.5;" x1="477" x2="719" y1="1167" y2="1167"/><rect fill="none" height="6" style="stroke:#C82930;stroke-width:1.0;" width="6" x="484" y="1179.0601"/><text fill="#000000" font-family="sans-serif" font-size="14" lengthAdjust="spacing" textLength="218" x="496" y="1187.0439">_ref_count: std::atomic&lt;unsigned&gt;</text><line style="stroke:#181818;stroke-width:0.5;" x1="477" x2="719" y1="1194.1201" y2="1194.1201"/><ellipse cx="487" cy="1209.1802" fill="#84BE84" rx="3" ry="3" style="stroke:#038048;stroke-width:1.0;"/><text fill="#000000" font-family="sans-serif" font-size="14" lengthAdjust="spacing" textLength="46" x="496" y="1214.1641">retain()</text><ellipse cx="487" cy="1228.3003" fill="#84BE84" rx="3" ry="3" style="stroke:#038048;stroke-width:1.0;"/><text fill="#000000" font-family="sans-serif" font-size="14" lengthAdjust="spacing" textLength="57" x="496" y="1233.2842">release()</text></g><!--class _cl_kernel--><g id="elem__cl_kernel"><rect codeLine="117" fill="#F1F1F1" height="48" id="_cl_kernel" rx="2.5" ry="2.5" style="stroke:#181818;stroke-width:0.5;" width="97" x="735.5" y="1057"/><ellipse cx="750.5" cy="1073" fill="#ADD1B2" rx="11" ry="11" style="stroke:#181818;stroke-width:1.0;"/><path d="M749.0781,1078.3594 Q747.2188,1078.3594 746.125,1076.9688 Q745.0313,1075.5781 745.0313,1072.5938 Q745.0313,1070.0625 746.1953,1068.4063 Q747.3594,1066.75 749.3438,1066.75 Q750.8125,1066.75 751.2813,1066.875 Q751.75,1067.0781 751.75,1067.0781 Q751.75,1067.0781 751.75,1067.0078 Q751.75,1066.9375 752.3594,1066.0156 L753.4063,1069.6719 L752.0781,1070.0781 Q751.6094,1068.5313 750.9453,1067.8672 Q750.2813,1067.2031 749.2188,1067.2031 Q748.8281,1067.2031 748.0625,1068.7344 Q747.2969,1070.2656 747.2969,1072.5156 Q747.2969,1074.9844 747.9609,1076.375 Q748.625,1077.7656 749.1563,1077.7656 Q750.2188,1077.7656 750.9766,1077 Q751.7344,1076.2344 752.0781,1074.5781 L753.4063,1075.1719 Q753.0781,1076.5781 752.1797,1077.4688 Q751.2813,1078.3594 749.0781,1078.3594 Z " fill="#000000"/><text fill="#000000" font-family="sans-serif" font-size="14" lengthAdjust="spacing" textLength="65" x="764.5" y="1079.4839">_cl_kernel</text><line style="stroke:#181818;stroke-width:0.5;" x1="736.5" x2="831.5" y1="1089" y2="1089"/><line style="stroke:#181818;stroke-width:0.5;" x1="736.5" x2="831.5" y1="1097" y2="1097"/></g><!--class descriptor--><g id="elem_descriptor"><rect codeLine="120" fill="#F1F1F1" height="67.1201" id="descriptor" rx="2.5" ry="2.5" style="stroke:#181818;stroke-width:0.5;" width="240" x="467" y="1319"/><ellipse cx="482" cy="1335" fill="#ADD1B2" rx="11" ry="11" style="stroke:#181818;stroke-width:1.0;"/><path d="M480.5781,1340.3594 Q478.7188,1340.3594 477.625,1338.9688 Q476.5313,1337.5781 476.5313,1334.5938 Q476.5313,1332.0625 477.6953,1330.4063 Q478.8594,1328.75 480.8438,1328.75 Q482.3125,1328.75 482.7813,1328.875 Q483.25,1329.0781 483.25,1329.0781 Q483.25,1329.0781 483.25,1329.0078 Q483.25,1328.9375 483.8594,1328.0156 L484.9063,1331.6719 L483.5781,1332.0781 Q483.1094,1330.5313 482.4453,1329.8672 Q481.7813,1329.2031 480.7188,1329.2031 Q480.3281,1329.2031 479.5625,1330.7344 Q478.7969,1332.2656 478.7969,1334.5156 Q478.7969,1336.9844 479.4609,1338.375 Q480.125,1339.7656 480.6563,1339.7656 Q481.7188,1339.7656 482.4766,1339 Q483.2344,1338.2344 483.5781,1336.5781 L484.9063,1337.1719 Q484.5781,1338.5781 483.6797,1339.4688 Q482.7813,1340.3594 480.5781,1340.3594 Z " fill="#000000"/><text fill="#000000" font-family="sans-serif" font-size="14" lengthAdjust="spacing" textLength="63" x="496" y="1341.4839">descriptor</text><rect fill="#FFFFFF" height="18.3887" style="stroke:#181818;stroke-width:1.0;stroke-dasharray:2.0,2.0;" width="143" x="567" y="1316"/><text fill="#000000" font-family="sans-serif" font-size="12" font-style="italic" lengthAdjust="spacing" textLength="141" x="568" y="1330.752">typename T, Typename S</text><line style="stroke:#181818;stroke-width:0.5;" x1="468" x2="706" y1="1351" y2="1351"/><rect fill="none" height="6" style="stroke:#C82930;stroke-width:1.0;" width="6" x="475" y="1363.0601"/><text fill="#000000" font-family="sans-serif" font-size="14" lengthAdjust="spacing" textLength="201" x="487" y="1371.0439">dispatch: const cl_icd_dispatch*</text><line style="stroke:#181818;stroke-width:0.5;" x1="468" x2="706" y1="1378.1201" y2="1378.1201"/></g><!--class _cl_program--><g id="elem__cl_program"><rect fill="#F1F1F1" height="48" id="_cl_program" rx="2.5" ry="2.5" style="stroke:#181818;stroke-width:0.5;" width="111" x="329.5" y="1163.5"/><ellipse cx="344.5" cy="1179.5" fill="#ADD1B2" rx="11" ry="11" style="stroke:#181818;stroke-width:1.0;"/><path d="M343.0781,1184.8594 Q341.2188,1184.8594 340.125,1183.4688 Q339.0313,1182.0781 339.0313,1179.0938 Q339.0313,1176.5625 340.1953,1174.9063 Q341.3594,1173.25 343.3438,1173.25 Q344.8125,1173.25 345.2813,1173.375 Q345.75,1173.5781 345.75,1173.5781 Q345.75,1173.5781 345.75,1173.5078 Q345.75,1173.4375 346.3594,1172.5156 L347.4063,1176.1719 L346.0781,1176.5781 Q345.6094,1175.0313 344.9453,1174.3672 Q344.2813,1173.7031 343.2188,1173.7031 Q342.8281,1173.7031 342.0625,1175.2344 Q341.2969,1176.7656 341.2969,1179.0156 Q341.2969,1181.4844 341.9609,1182.875 Q342.625,1184.2656 343.1563,1184.2656 Q344.2188,1184.2656 344.9766,1183.5 Q345.7344,1182.7344 346.0781,1181.0781 L347.4063,1181.6719 Q347.0781,1183.0781 346.1797,1183.9688 Q345.2813,1184.8594 343.0781,1184.8594 Z " fill="#000000"/><text fill="#000000" font-family="sans-serif" font-size="14" lengthAdjust="spacing" textLength="79" x="358.5" y="1185.9839">_cl_program</text><line style="stroke:#181818;stroke-width:0.5;" x1="330.5" x2="439.5" y1="1195.5" y2="1195.5"/><line style="stroke:#181818;stroke-width:0.5;" x1="330.5" x2="439.5" y1="1203.5" y2="1203.5"/></g><!--link kernel to program--><g id="link_kernel_program"><path codeLine="110" d="M597.97,409.15 C566.5,485.11 529.62,574.14 499.42,647.06 " fill="none" id="kernel-to-program" style="stroke:#181818;stroke-width:1.0;"/><polygon fill="#181818" points="497.65,651.33,504.7934,644.5498,499.566,646.7117,497.4041,641.4842,497.65,651.33" style="stroke:#181818;stroke-width:1.0;"/><text fill="#000000" font-family="sans-serif" font-size="13" lengthAdjust="spacing" textLength="66" x="554" y="522.8979">friend class</text></g><!--link kernel to _cl_kernel--><g id="link_kernel__cl_kernel"><path codeLine="123" d="M690.44,409.26 C697.09,456.68 704.34,508.37 711,556 C737.32,744.24 768.79,970.54 779.88,1050.37 " fill="none" id="kernel-to-_cl_kernel" style="stroke:#181818;stroke-width:1.0;"/><polygon fill="#181818" points="780.56,1055.26,783.2623,1045.7891,779.8609,1050.3091,775.3409,1046.9077,780.56,1055.26" style="stroke:#181818;stroke-width:1.0;"/><text fill="#000000" font-family="sans-serif" font-size="13" lengthAdjust="spacing" textLength="34" x="707" y="522.8979">public</text></g><!--link _cl_kernel to descriptor--><g id="link__cl_kernel_descriptor"><path codeLine="124" d="M781.89,1105.45 C777.97,1138.2 767.09,1198.29 738,1240 C716.59,1270.7 684,1296.29 654.57,1315.19 " fill="none" id="_cl_kernel-to-descriptor" style="stroke:#181818;stroke-width:1.0;"/><polygon fill="#181818" points="650.39,1317.83,660.133,1316.3899,654.613,1315.153,655.8499,1309.6331,650.39,1317.83" style="stroke:#181818;stroke-width:1.0;"/><text fill="#000000" font-family="sans-serif" font-size="13" lengthAdjust="spacing" textLength="34" x="778" y="1193.8979">public</text></g><!--link kernel to ref_counter--><g id="link_kernel_ref_counter"><path codeLine="125" d="M657.68,409.44 C648.4,568.35 632.96,814.14 615,1027 C612.16,1060.68 608.19,1098.27 604.8,1128.5 " fill="none" id="kernel-to-ref_counter" style="stroke:#181818;stroke-width:1.0;"/><polygon fill="#181818" points="604.26,1133.33,609.2375,1124.8315,604.8169,1128.3611,601.2872,1123.9405,604.26,1133.33" style="stroke:#181818;stroke-width:1.0;"/><text fill="#000000" font-family="sans-serif" font-size="13" lengthAdjust="spacing" textLength="34" x="649" y="797.8979">public</text></g><!--link program to ref_counter--><g id="link_program_ref_counter"><path codeLine="126" d="M495.26,930.3 C522.59,998.46 554.11,1077.05 574.95,1129.02 " fill="none" id="program-to-ref_counter" style="stroke:#181818;stroke-width:1.0;"/><polygon fill="#181818" points="576.75,1133.5,577.1214,1123.6581,574.893,1128.8576,569.6936,1126.6293,576.75,1133.5" style="stroke:#181818;stroke-width:1.0;"/><text fill="#000000" font-family="sans-serif" font-size="13" lengthAdjust="spacing" textLength="34" x="564" y="1087.3979">public</text></g><!--link program to _cl_program--><g id="link_program__cl_program"><path codeLine="127" d="M420.76,930.3 C409.34,1012.11 395.83,1108.94 389.15,1156.74 " fill="none" id="program-to-_cl_program" style="stroke:#181818;stroke-width:1.0;"/><polygon fill="#181818" points="388.47,1161.65,393.6688,1153.285,389.1571,1156.6974,385.7447,1152.1857,388.47,1161.65" style="stroke:#181818;stroke-width:1.0;"/><text fill="#000000" font-family="sans-serif" font-size="13" lengthAdjust="spacing" textLength="34" x="404" y="1087.3979">public</text></g><!--link _cl_program to descriptor--><g id="link__cl_program_descriptor"><path codeLine="128" d="M413.94,1211.85 C447.28,1238.75 502.47,1283.29 541.55,1314.82 " fill="none" id="_cl_program-to-descriptor" style="stroke:#181818;stroke-width:1.0;"/><polygon fill="#181818" points="545.05,1317.65,540.5679,1308.8801,541.1624,1314.5057,535.5369,1315.1002,545.05,1317.65" style="stroke:#181818;stroke-width:1.0;"/><text fill="#000000" font-family="sans-serif" font-size="13" lengthAdjust="spacing" textLength="34" x="505" y="1285.8979">public</text></g><!--SRC=[bLRTRjis5BxdK_1kRLU_W63u9TPxGPPeXuWagfHaj2iAkCEwf8qNPqkR1FqPwY730YoEsw5elDIfNyRwoTLUOQH8AfGTpsuk7FASyvr3VkJvHDkrmX06bBIfvS570BA_RstY1TX5jswBgOlzJJNUi48p936raG5jueSHR1BY2f-mtxej7CBce0wsKLWrDcFiEbNJ9g8-SasAMgPDOZ-gUjamGWyYLHBx4Or3t44ylcwxf8EeOSYWHW6fcRAo0SF8COmEiYD2wrMa26aeHB4i1V2ie2wgYIXuvovpqDXcE-Pn2gJ8A40i0FjjwPdV4biZr2RWCV19XA2BMX4aBNK6Xd5DSP4esJvE3uRfqUYg-ogVRgKNUzcx9_dqY5bcu-7LuSTyDCnFkldqTJxePPE3VFGBGBu3UV8b5IHJHVhP-Fbil9CURCscW_J9Q1LKqLfWyxCloV6wGC4ko3v_J9yVYtKcUxlPgn_5Za3wh9k-UIQI_Jlf9RsdwSxfxAB7DfPiVrgPNZ8cawsANZmRmVNe7-5XoqecBxCN9_dP87tvVZMXHSCKESJMrbi7xwm2TBN_9TtzOrLusM1GqBzxdlGFrgjKzg665CUt2YcRLSFfXvUTx2GN_VMkm6AFQqbbLFxxNo9CqC-lnsdr1C0tq2v4IyH1K9b91NEjsBStb6Xvo3DTObjkLLMuEQ2uOqLpekLRtfo5117sBDTiiZIRPeY_d_DJT3_653bB0opQLkGNOnFxBL9Q54N_gsyog24NJvpOhHQfySHLlIl6iO_lnyWC8bfd4R67_AZKl09j-H5hprOBKLtzTDshPg64A403gaoSj1ja43r0jW7vhwdBJatkXkzGRPjVZ0tYEelQA0wtf038_wnTym-39TTEOJWfW5trxF8iVJTEjYxPRUBjtVzXUMChx08z81cFhxRwsMG_-Udlf7Un0iyv0PMgUpydmyCLA4xMrwCqGi4QsgLWPMymZWRPsM4nXinAw4DU-lZFv7r_ZHooaMGMEVlAF8jT1gJY34vddp-rNT9aQ-FsvDTUcv8uA2PS9DvqUONkP4M56_eKCARIxNCXPEAUi8JBQcawjFIsYTwMIo_FKLmuJiNJyzdb_hnaBc6sw7AGJryahtzJGY2CulApBwK-dKtV9iEZx6rNrsXGVaNdYqhHhDKQfKh35iNSNwWgaEAgVIULmb8KMTXN0aQHYwnGlHXhrnel5S6AY8VjUko7kEqZzdXwB3ERjckMqbrQ7HJQ50TSmQA70U9j1E_TXVVK-Bk6N4RDmM5WHVQ6qX2M3jkEgSntM4fjazVLZ21kkjW6MdqUS5tOW392y-fFEUbLB-TvDxp1pskLD6lrzPZ51Vm7]--></g></svg>