<?xml version="1.0" encoding="UTF-8" standalone="no"?>
<!DOCTYPE svg PUBLIC "-//W3C//DTD SVG 1.1//EN" "http://www.w3.org/Graphics/SVG/1.1/DTD/svg11.dtd">
<!-- 由 Microsoft Visio, SVG Export 生成 连通图2.svg 页-1 -->
<svg xmlns="http://www.w3.org/2000/svg" xmlns:xlink="http://www.w3.org/1999/xlink" xmlns:ev="http://www.w3.org/2001/xml-events"
		xmlns:v="http://schemas.microsoft.com/visio/2003/SVGExtensions/" width="7.00273in" height="2.16858in"
		viewBox="0 0 504.197 156.137" xml:space="preserve" color-interpolation-filters="sRGB" class="st7">
	<v:documentProperties v:langID="2052" v:metric="true" v:viewMarkup="false"/>

	<style type="text/css">
	<![CDATA[
		.st1 {fill:#ffffff;stroke:#000000;stroke-linecap:round;stroke-linejoin:round;stroke-width:0.75}
		.st2 {fill:#000000;font-family:Calibri;font-size:0.833336em}
		.st3 {marker-end:url(#mrkr5-36);stroke:#000000;stroke-linecap:round;stroke-linejoin:round;stroke-width:0.75}
		.st4 {fill:#000000;fill-opacity:1;stroke:#000000;stroke-opacity:1;stroke-width:0.22935779816514}
		.st5 {fill:none;stroke:none;stroke-linecap:round;stroke-linejoin:round;stroke-width:0.75}
		.st6 {fill:#000000;font-family:Calibri;font-size:1.00001em}
		.st7 {fill:none;fill-rule:evenodd;font-size:12px;overflow:visible;stroke-linecap:square;stroke-miterlimit:3}
	]]>
	</style>

	<defs id="Markers">
		<g id="lend5">
			<path d="M 2 1 L 0 0 L 1.98117 -0.993387 C 1.67173 -0.364515 1.67301 0.372641 1.98465 1.00043 " style="stroke:none"/>
		</g>
		<marker id="mrkr5-36" class="st4" v:arrowType="5" v:arrowSize="2" v:setback="7.63" refX="-7.63" orient="auto"
				markerUnits="strokeWidth" overflow="visible">
			<use xlink:href="#lend5" transform="scale(-4.36,-4.36) "/>
		</marker>
	</defs>
	<g v:mID="0" v:index="1" v:groupContext="foregroundPage">
		<title>页-1</title>
		<v:pageProperties v:drawingScale="0.0393701" v:pageScale="0.0393701" v:drawingUnits="24" v:shadowOffsetX="8.50394"
				v:shadowOffsetY="-8.50394"/>
		<g id="shape39-1" v:mID="39" v:groupContext="shape" transform="translate(50.2791,-120.172)">
			<title>椭圆形</title>
			<desc>A</desc>
			<v:userDefs>
				<v:ud v:nameU="visVersion" v:val="VT0(15):26"/>
			</v:userDefs>
			<v:textBlock v:margins="rect(4,4,4,4)" v:tabSpace="42.5197"/>
			<v:textRect cx="26.6929" cy="138.342" width="46.72" height="31.1417"/>
			<path d="M0 138.34 A26.6929 17.7953 0 0 1 53.39 138.34 A26.6929 17.7953 0 1 1 0 138.34 Z" class="st1"/>
			<text x="23.8" y="141.34" class="st2" v:langID="2052"><v:paragraph v:horizAlign="1"/><v:tabList/>A</text>		</g>
		<g id="shape40-4" v:mID="40" v:groupContext="shape" transform="translate(0.375,-77.506)">
			<title>椭圆形.200</title>
			<desc>B</desc>
			<v:userDefs>
				<v:ud v:nameU="visVersion" v:val="VT0(15):26"/>
			</v:userDefs>
			<v:textBlock v:margins="rect(4,4,4,4)" v:tabSpace="42.5197"/>
			<v:textRect cx="26.6929" cy="138.342" width="46.72" height="31.1417"/>
			<path d="M0 138.34 A26.6929 17.7953 0 0 1 53.39 138.34 A26.6929 17.7953 0 1 1 0 138.34 Z" class="st1"/>
			<text x="23.97" y="141.34" class="st2" v:langID="2052"><v:paragraph v:horizAlign="1"/><v:tabList/>B</text>		</g>
		<g id="shape41-7" v:mID="41" v:groupContext="shape" transform="translate(50.2791,-32.6309)">
			<title>椭圆形.201</title>
			<desc>C</desc>
			<v:userDefs>
				<v:ud v:nameU="visVersion" v:val="VT0(15):26"/>
			</v:userDefs>
			<v:textBlock v:margins="rect(4,4,4,4)" v:tabSpace="42.5197"/>
			<v:textRect cx="26.6929" cy="138.342" width="46.72" height="31.1417"/>
			<path d="M0 138.34 A26.6929 17.7953 0 0 1 53.39 138.34 A26.6929 17.7953 0 1 1 0 138.34 Z" class="st1"/>
			<text x="24.03" y="141.34" class="st2" v:langID="2052"><v:paragraph v:horizAlign="1"/><v:tabList/>C</text>		</g>
		<g id="shape42-10" v:mID="42" v:groupContext="shape" transform="translate(107.147,-77.506)">
			<title>椭圆形.202</title>
			<desc>D</desc>
			<v:userDefs>
				<v:ud v:nameU="visVersion" v:val="VT0(15):26"/>
			</v:userDefs>
			<v:textBlock v:margins="rect(4,4,4,4)" v:tabSpace="42.5197"/>
			<v:textRect cx="26.6929" cy="138.342" width="46.72" height="31.1417"/>
			<path d="M0 138.34 A26.6929 17.7953 0 0 1 53.39 138.34 A26.6929 17.7953 0 1 1 0 138.34 Z" class="st1"/>
			<text x="23.62" y="141.34" class="st2" v:langID="2052"><v:paragraph v:horizAlign="1"/><v:tabList/>D</text>		</g>
		<g id="shape43-13" v:mID="43" v:groupContext="shape" transform="translate(234.531,-117.201)">
			<title>椭圆形.203</title>
			<desc>A</desc>
			<v:userDefs>
				<v:ud v:nameU="visVersion" v:val="VT0(15):26"/>
			</v:userDefs>
			<v:textBlock v:margins="rect(4,4,4,4)" v:tabSpace="42.5197"/>
			<v:textRect cx="26.6929" cy="138.342" width="46.72" height="31.1417"/>
			<path d="M0 138.34 A26.6929 17.7953 0 0 1 53.39 138.34 A26.6929 17.7953 0 1 1 0 138.34 Z" class="st1"/>
			<text x="23.8" y="141.34" class="st2" v:langID="2052"><v:paragraph v:horizAlign="1"/><v:tabList/>A</text>		</g>
		<g id="shape44-16" v:mID="44" v:groupContext="shape" transform="translate(184.627,-74.5346)">
			<title>椭圆形.204</title>
			<desc>B</desc>
			<v:userDefs>
				<v:ud v:nameU="visVersion" v:val="VT0(15):26"/>
			</v:userDefs>
			<v:textBlock v:margins="rect(4,4,4,4)" v:tabSpace="42.5197"/>
			<v:textRect cx="26.6929" cy="138.342" width="46.72" height="31.1417"/>
			<path d="M0 138.34 A26.6929 17.7953 0 0 1 53.39 138.34 A26.6929 17.7953 0 1 1 0 138.34 Z" class="st1"/>
			<text x="23.97" y="141.34" class="st2" v:langID="2052"><v:paragraph v:horizAlign="1"/><v:tabList/>B</text>		</g>
		<g id="shape45-19" v:mID="45" v:groupContext="shape" transform="translate(234.531,-29.6595)">
			<title>椭圆形.205</title>
			<desc>C</desc>
			<v:userDefs>
				<v:ud v:nameU="visVersion" v:val="VT0(15):26"/>
			</v:userDefs>
			<v:textBlock v:margins="rect(4,4,4,4)" v:tabSpace="42.5197"/>
			<v:textRect cx="26.6929" cy="138.342" width="46.72" height="31.1417"/>
			<path d="M0 138.34 A26.6929 17.7953 0 0 1 53.39 138.34 A26.6929 17.7953 0 1 1 0 138.34 Z" class="st1"/>
			<text x="24.03" y="141.34" class="st2" v:langID="2052"><v:paragraph v:horizAlign="1"/><v:tabList/>C</text>		</g>
		<g id="shape46-22" v:mID="46" v:groupContext="shape" transform="translate(291.399,-74.5346)">
			<title>椭圆形.206</title>
			<desc>D</desc>
			<v:userDefs>
				<v:ud v:nameU="visVersion" v:val="VT0(15):26"/>
			</v:userDefs>
			<v:textBlock v:margins="rect(4,4,4,4)" v:tabSpace="42.5197"/>
			<v:textRect cx="26.6929" cy="138.342" width="46.72" height="31.1417"/>
			<path d="M0 138.34 A26.6929 17.7953 0 0 1 53.39 138.34 A26.6929 17.7953 0 1 1 0 138.34 Z" class="st1"/>
			<text x="23.62" y="141.34" class="st2" v:langID="2052"><v:paragraph v:horizAlign="1"/><v:tabList/>D</text>		</g>
		<g id="shape47-25" v:mID="47" v:groupContext="shape" transform="translate(370.917,-74.5346)">
			<title>椭圆形.207</title>
			<desc>E</desc>
			<v:userDefs>
				<v:ud v:nameU="visVersion" v:val="VT0(15):26"/>
			</v:userDefs>
			<v:textBlock v:margins="rect(4,4,4,4)" v:tabSpace="42.5197"/>
			<v:textRect cx="26.6929" cy="138.342" width="46.72" height="31.1417"/>
			<path d="M0 138.34 A26.6929 17.7953 0 0 1 53.39 138.34 A26.6929 17.7953 0 1 1 0 138.34 Z" class="st1"/>
			<text x="24.25" y="141.34" class="st2" v:langID="2052"><v:paragraph v:horizAlign="1"/><v:tabList/>E</text>		</g>
		<g id="shape48-28" v:mID="48" v:groupContext="shape" transform="translate(450.436,-74.5346)">
			<title>椭圆形.208</title>
			<desc>D</desc>
			<v:userDefs>
				<v:ud v:nameU="visVersion" v:val="VT0(15):26"/>
			</v:userDefs>
			<v:textBlock v:margins="rect(4,4,4,4)" v:tabSpace="42.5197"/>
			<v:textRect cx="26.6929" cy="138.342" width="46.72" height="31.1417"/>
			<path d="M0 138.34 A26.6929 17.7953 0 0 1 53.39 138.34 A26.6929 17.7953 0 1 1 0 138.34 Z" class="st1"/>
			<text x="23.62" y="141.34" class="st2" v:langID="2052"><v:paragraph v:horizAlign="1"/><v:tabList/>D</text>		</g>
		<g id="shape49-31" v:mID="49" v:groupContext="shape" transform="translate(167.293,140.297) rotate(135)">
			<title>工作表.49</title>
			<path d="M0 156.14 L16.62 156.14" class="st3"/>
		</g>
		<g id="shape50-37" v:mID="50" v:groupContext="shape" transform="translate(-48.5912,201.469) rotate(-135)">
			<title>工作表.50</title>
			<path d="M0 156.14 L18.26 156.14" class="st3"/>
		</g>
		<g id="shape51-42" v:mID="51" v:groupContext="shape" transform="translate(-79.1654,87.916) rotate(-90)">
			<title>工作表.51</title>
			<path d="M0 156.14 L46.23 156.14" class="st3"/>
		</g>
		<g id="shape52-47" v:mID="52" v:groupContext="shape" transform="translate(209,-81.8005) rotate(45)">
			<title>工作表.52</title>
			<path d="M0 156.14 L20.32 156.14" class="st3"/>
		</g>
		<g id="shape53-52" v:mID="53" v:groupContext="shape" transform="translate(353.946,144.877) rotate(135)">
			<title>工作表.53</title>
			<path d="M0 156.14 L16.17 156.14" class="st3"/>
		</g>
		<g id="shape54-57" v:mID="54" v:groupContext="shape" transform="translate(105.087,90.8873) rotate(-90)">
			<title>工作表.54</title>
			<path d="M0 156.14 L46.23 156.14" class="st3"/>
		</g>
		<g id="shape55-62" v:mID="55" v:groupContext="shape" transform="translate(329.622,-29.5994) rotate(45)">
			<title>工作表.55</title>
			<path d="M0 156.14 L21.05 156.14" class="st3"/>
		</g>
		<g id="shape56-67" v:mID="56" v:groupContext="shape" transform="translate(424.303,-92.3299)">
			<title>工作表.56</title>
			<path d="M0 156.14 L20.41 156.14" class="st3"/>
		</g>
		<g id="shape57-72" v:mID="57" v:groupContext="shape" transform="translate(63.9319,-3.34636)">
			<title>工作表.57</title>
			<desc>A</desc>
			<v:textBlock v:margins="rect(4,4,4,4)" v:tabSpace="42.5197"/>
			<v:textRect cx="13.0402" cy="146.137" width="26.09" height="20"/>
			<rect x="0" y="136.137" width="26.0804" height="20" class="st5"/>
			<text x="9.57" y="149.74" class="st6" v:langID="2052"><v:paragraph v:horizAlign="1"/><v:tabList/>A</text>		</g>
		<g id="shape58-75" v:mID="58" v:groupContext="shape" transform="translate(248.184,-0.375)">
			<title>工作表.58</title>
			<desc>B</desc>
			<v:textBlock v:margins="rect(4,4,4,4)" v:tabSpace="42.5197"/>
			<v:textRect cx="13.0402" cy="146.137" width="26.09" height="20"/>
			<rect x="0" y="136.137" width="26.0804" height="20" class="st5"/>
			<text x="9.78" y="149.74" class="st6" v:langID="2052"><v:paragraph v:horizAlign="1"/><v:tabList/>B</text>		</g>
		<g id="shape59-78" v:mID="59" v:groupContext="shape" transform="translate(432.436,-5.23199)">
			<title>工作表.59</title>
			<desc>C</desc>
			<v:textBlock v:margins="rect(4,4,4,4)" v:tabSpace="42.5197"/>
			<v:textRect cx="13.0402" cy="146.137" width="26.09" height="20"/>
			<rect x="0" y="136.137" width="26.0804" height="20" class="st5"/>
			<text x="9.84" y="149.74" class="st6" v:langID="2052"><v:paragraph v:horizAlign="1"/><v:tabList/>C</text>		</g>
	</g>
</svg>
