<?xml version="1.0" encoding="UTF-8" standalone="no"?><svg xmlns="http://www.w3.org/2000/svg" xmlns:xlink="http://www.w3.org/1999/xlink" contentStyleType="text/css" height="743px" preserveAspectRatio="none" style="width:695px;height:743px;background:#FFFFFF;" version="1.1" viewBox="0 0 695 743" width="695px" zoomAndPan="magnify"><defs/><g><!--class CompilerInvocationBase--><g id="elem_CompilerInvocationBase"><rect codeLine="1" fill="#F1F1F1" height="239.2012" id="CompilerInvocationBase" rx="2.5" ry="2.5" style="stroke:#181818;stroke-width:0.5;" width="407" x="7" y="7"/><ellipse cx="130.25" cy="23" fill="#ADD1B2" rx="11" ry="11" style="stroke:#181818;stroke-width:1.0;"/><path d="M128.8281,28.3594 Q126.9688,28.3594 125.875,26.9688 Q124.7813,25.5781 124.7813,22.5938 Q124.7813,20.0625 125.9453,18.4063 Q127.1094,16.75 129.0938,16.75 Q130.5625,16.75 131.0313,16.875 Q131.5,17.0781 131.5,17.0781 Q131.5,17.0781 131.5,17.0078 Q131.5,16.9375 132.1094,16.0156 L133.1563,19.6719 L131.8281,20.0781 Q131.3594,18.5313 130.6953,17.8672 Q130.0313,17.2031 128.9688,17.2031 Q128.5781,17.2031 127.8125,18.7344 Q127.0469,20.2656 127.0469,22.5156 Q127.0469,24.9844 127.7109,26.375 Q128.375,27.7656 128.9063,27.7656 Q129.9688,27.7656 130.7266,27 Q131.4844,26.2344 131.8281,24.5781 L133.1563,25.1719 Q132.8281,26.5781 131.9297,27.4688 Q131.0313,28.3594 128.8281,28.3594 Z " fill="#000000"/><text fill="#000000" font-family="sans-serif" font-size="14" lengthAdjust="spacing" textLength="152" x="150.75" y="29.4839">CompilerInvocationBase</text><line style="stroke:#181818;stroke-width:0.5;" x1="8" x2="413" y1="39" y2="39"/><ellipse cx="18" cy="54.0601" fill="none" rx="3" ry="3" style="stroke:#038048;stroke-width:1.0;"/><text fill="#000000" font-family="sans-serif" font-size="14" lengthAdjust="spacing" textLength="263" x="27" y="59.0439">LangOpts: std::shared_ptr&lt;LangOptions&gt;</text><ellipse cx="18" cy="73.1802" fill="none" rx="3" ry="3" style="stroke:#038048;stroke-width:1.0;"/><text fill="#000000" font-family="sans-serif" font-size="14" lengthAdjust="spacing" textLength="283" x="27" y="78.1641">TargetOpts: std::shared_ptr&lt;TargetOptions&gt;</text><ellipse cx="18" cy="92.3003" fill="none" rx="3" ry="3" style="stroke:#038048;stroke-width:1.0;"/><text fill="#000000" font-family="sans-serif" font-size="14" lengthAdjust="spacing" textLength="350" x="27" y="97.2842">DiagnosticOpts: IntrusiveRefCntPtr&lt;DiagnosticOptions&gt;</text><ellipse cx="18" cy="111.4204" fill="none" rx="3" ry="3" style="stroke:#038048;stroke-width:1.0;"/><text fill="#000000" font-family="sans-serif" font-size="14" lengthAdjust="spacing" textLength="381" x="27" y="116.4043">HeaderSearchOpts: std::shared_ptr&lt;HeaderSearchOptions&gt;</text><ellipse cx="18" cy="130.5405" fill="none" rx="3" ry="3" style="stroke:#038048;stroke-width:1.0;"/><text fill="#000000" font-family="sans-serif" font-size="14" lengthAdjust="spacing" textLength="369" x="27" y="135.5244">PreprocessorOpts: std::shared_ptr&lt;PreprocessorOptions&gt;</text><line style="stroke:#181818;stroke-width:0.5;" x1="8" x2="413" y1="142.6006" y2="142.6006"/><ellipse cx="18" cy="157.6606" fill="#84BE84" rx="3" ry="3" style="stroke:#038048;stroke-width:1.0;"/><text fill="#000000" font-family="sans-serif" font-size="14" lengthAdjust="spacing" textLength="92" x="27" y="162.6445">getLangOpts()</text><ellipse cx="18" cy="176.7808" fill="#84BE84" rx="3" ry="3" style="stroke:#038048;stroke-width:1.0;"/><text fill="#000000" font-family="sans-serif" font-size="14" lengthAdjust="spacing" textLength="102" x="27" y="181.7646">getTargetOpts()</text><ellipse cx="18" cy="195.9009" fill="#84BE84" rx="3" ry="3" style="stroke:#038048;stroke-width:1.0;"/><text fill="#000000" font-family="sans-serif" font-size="14" lengthAdjust="spacing" textLength="126" x="27" y="200.8848">getDiagnosticOpts()</text><ellipse cx="18" cy="215.021" fill="#84BE84" rx="3" ry="3" style="stroke:#038048;stroke-width:1.0;"/><text fill="#000000" font-family="sans-serif" font-size="14" lengthAdjust="spacing" textLength="151" x="27" y="220.0049">getHeaderSearchOpts()</text><ellipse cx="18" cy="234.1411" fill="#84BE84" rx="3" ry="3" style="stroke:#038048;stroke-width:1.0;"/><text fill="#000000" font-family="sans-serif" font-size="14" lengthAdjust="spacing" textLength="145" x="27" y="239.125">getPreprocessorOpts()</text></g><!--class CompilerInvocation--><g id="elem_CompilerInvocation"><rect codeLine="14" fill="#F1F1F1" height="411.2822" id="CompilerInvocation" rx="2.5" ry="2.5" style="stroke:#181818;stroke-width:0.5;" width="369" x="26" y="325"/><ellipse cx="146.25" cy="341" fill="#ADD1B2" rx="11" ry="11" style="stroke:#181818;stroke-width:1.0;"/><path d="M144.8281,346.3594 Q142.9688,346.3594 141.875,344.9688 Q140.7813,343.5781 140.7813,340.5938 Q140.7813,338.0625 141.9453,336.4063 Q143.1094,334.75 145.0938,334.75 Q146.5625,334.75 147.0313,334.875 Q147.5,335.0781 147.5,335.0781 Q147.5,335.0781 147.5,335.0078 Q147.5,334.9375 148.1094,334.0156 L149.1563,337.6719 L147.8281,338.0781 Q147.3594,336.5313 146.6953,335.8672 Q146.0313,335.2031 144.9688,335.2031 Q144.5781,335.2031 143.8125,336.7344 Q143.0469,338.2656 143.0469,340.5156 Q143.0469,342.9844 143.7109,344.375 Q144.375,345.7656 144.9063,345.7656 Q145.9688,345.7656 146.7266,345 Q147.4844,344.2344 147.8281,342.5781 L149.1563,343.1719 Q148.8281,344.5781 147.9297,345.4688 Q147.0313,346.3594 144.8281,346.3594 Z " fill="#000000"/><text fill="#000000" font-family="sans-serif" font-size="14" lengthAdjust="spacing" textLength="120" x="166.75" y="347.4839">CompilerInvocation</text><line style="stroke:#181818;stroke-width:0.5;" x1="27" x2="394" y1="357" y2="357"/><rect fill="none" height="6" style="stroke:#C82930;stroke-width:1.0;" width="6" x="34" y="369.0601"/><text fill="#000000" font-family="sans-serif" font-size="14" lengthAdjust="spacing" textLength="217" x="46" y="377.0439">AnalyzerOpts: AnalyzerOptionsRef</text><rect fill="none" height="6" style="stroke:#C82930;stroke-width:1.0;" width="6" x="34" y="388.1802"/><text fill="#000000" font-family="sans-serif" font-size="14" lengthAdjust="spacing" textLength="191" x="46" y="396.1641">MigratorOpts: MigratorOptions</text><rect fill="none" height="6" style="stroke:#C82930;stroke-width:1.0;" width="6" x="34" y="407.3003"/><text fill="#000000" font-family="sans-serif" font-size="14" lengthAdjust="spacing" textLength="190" x="46" y="415.2842">CodeGenOpts: CodeGenOpts</text><rect fill="none" height="6" style="stroke:#C82930;stroke-width:1.0;" width="6" x="34" y="426.4204"/><text fill="#000000" font-family="sans-serif" font-size="14" lengthAdjust="spacing" textLength="333" x="46" y="434.4043">DependencyOutputOpts: DependencyOutputOptions</text><rect fill="none" height="6" style="stroke:#C82930;stroke-width:1.0;" width="6" x="34" y="445.5405"/><text fill="#000000" font-family="sans-serif" font-size="14" lengthAdjust="spacing" textLength="225" x="46" y="453.5244">FileSystemOpts: FileSystemOptions</text><rect fill="none" height="6" style="stroke:#C82930;stroke-width:1.0;" width="6" x="34" y="464.6606"/><text fill="#000000" font-family="sans-serif" font-size="14" lengthAdjust="spacing" textLength="203" x="46" y="472.6445">FrontendOpts: FrontendOptions</text><rect fill="none" height="6" style="stroke:#C82930;stroke-width:1.0;" width="6" x="34" y="483.7808"/><text fill="#000000" font-family="sans-serif" font-size="14" lengthAdjust="spacing" textLength="343" x="46" y="491.7646">PreprocessorOutputOpts: PreprocessorOutputOptions</text><line style="stroke:#181818;stroke-width:0.5;" x1="27" x2="394" y1="498.8408" y2="498.8408"/><ellipse cx="37" cy="513.9009" fill="#84BE84" rx="3" ry="3" style="stroke:#038048;stroke-width:1.0;"/><text fill="#000000" font-family="sans-serif" font-size="14" lengthAdjust="spacing" textLength="115" x="46" y="518.8848">CreateFromArgs()</text><ellipse cx="37" cy="533.021" fill="#84BE84" rx="3" ry="3" style="stroke:#038048;stroke-width:1.0;"/><text fill="#000000" font-family="sans-serif" font-size="14" lengthAdjust="spacing" textLength="130" x="46" y="538.0049">GetResourcesPath()</text><ellipse cx="37" cy="552.1411" fill="#84BE84" rx="3" ry="3" style="stroke:#038048;stroke-width:1.0;"/><text fill="#000000" font-family="sans-serif" font-size="14" lengthAdjust="spacing" textLength="113" x="46" y="557.125">setLangDefaults()</text><ellipse cx="37" cy="571.2612" fill="#84BE84" rx="3" ry="3" style="stroke:#038048;stroke-width:1.0;"/><text fill="#000000" font-family="sans-serif" font-size="14" lengthAdjust="spacing" textLength="108" x="46" y="576.2451">getModuleHash()</text><ellipse cx="37" cy="590.3813" fill="#84BE84" rx="3" ry="3" style="stroke:#038048;stroke-width:1.0;"/><text fill="#000000" font-family="sans-serif" font-size="14" lengthAdjust="spacing" textLength="114" x="46" y="595.3652">getAnalyzerOpts()</text><ellipse cx="37" cy="609.5015" fill="#84BE84" rx="3" ry="3" style="stroke:#038048;stroke-width:1.0;"/><text fill="#000000" font-family="sans-serif" font-size="14" lengthAdjust="spacing" textLength="112" x="46" y="614.4854">getMigratorOpts()</text><ellipse cx="37" cy="628.6216" fill="#84BE84" rx="3" ry="3" style="stroke:#038048;stroke-width:1.0;"/><text fill="#000000" font-family="sans-serif" font-size="14" lengthAdjust="spacing" textLength="121" x="46" y="633.6055">getCodeGenOpts()</text><ellipse cx="37" cy="647.7417" fill="#84BE84" rx="3" ry="3" style="stroke:#038048;stroke-width:1.0;"/><text fill="#000000" font-family="sans-serif" font-size="14" lengthAdjust="spacing" textLength="183" x="46" y="652.7256">getDependencyOutputOpts()</text><ellipse cx="37" cy="666.8618" fill="#84BE84" rx="3" ry="3" style="stroke:#038048;stroke-width:1.0;"/><text fill="#000000" font-family="sans-serif" font-size="14" lengthAdjust="spacing" textLength="129" x="46" y="671.8457">getFileSystemOpts()</text><ellipse cx="37" cy="685.9819" fill="#84BE84" rx="3" ry="3" style="stroke:#038048;stroke-width:1.0;"/><text fill="#000000" font-family="sans-serif" font-size="14" lengthAdjust="spacing" textLength="118" x="46" y="690.9658">getFrontendOpts()</text><ellipse cx="37" cy="705.1021" fill="#84BE84" rx="3" ry="3" style="stroke:#038048;stroke-width:1.0;"/><text fill="#000000" font-family="sans-serif" font-size="14" lengthAdjust="spacing" textLength="188" x="46" y="710.0859">getPreprocessorOutputOpts()</text><ellipse cx="37" cy="724.2222" fill="#84BE84" rx="3" ry="3" style="stroke:#038048;stroke-width:1.0;"/><text fill="#000000" font-family="sans-serif" font-size="14" lengthAdjust="spacing" textLength="230" x="46" y="729.2061">createVFSFromCompilerInvocation()</text></g><path d="M430.5,484 L430.5,493.8772 L161,512.4009 L430.5,501.8772 L430.5,511.7544 A0,0 0 0 0 430.5,511.7544 L573.5,511.7544 A0,0 0 0 0 573.5,511.7544 L573.5,494 L563.5,484 L430.5,484 A0,0 0 0 0 430.5,484 " fill="#FEFFDD" style="stroke:#181818;stroke-width:0.5;"/><path d="M563.5,484 L563.5,494 L573.5,494 L563.5,484 " fill="#FEFFDD" style="stroke:#181818;stroke-width:0.5;"/><text fill="#000000" font-family="sans-serif" font-size="13" lengthAdjust="spacing" textLength="122" x="436.5" y="503.8979">从参数创建invocation</text><path d="M430.5,521.7544 L430.5,540.5088 L159,550.6411 L430.5,548.5088 L430.5,567.2632 A0,0 0 0 0 430.5,567.2632 L688.5,567.2632 A0,0 0 0 0 688.5,567.2632 L688.5,531.7544 L678.5,521.7544 L430.5,521.7544 A0,0 0 0 0 430.5,521.7544 " fill="#FEFFDD" style="stroke:#181818;stroke-width:0.5;"/><path d="M678.5,521.7544 L678.5,531.7544 L688.5,531.7544 L678.5,521.7544 " fill="#FEFFDD" style="stroke:#181818;stroke-width:0.5;"/><text fill="#000000" font-family="sans-serif" font-size="13" lengthAdjust="spacing" textLength="187" x="436.5" y="541.6523">设置clang前端处理的语言类型，</text><text fill="#000000" font-family="sans-serif" font-size="13" lengthAdjust="spacing" textLength="237" x="436.5" y="559.4067">对于OpenCL语言这里需要设置成OpenCL</text><!--reverse link CompilerInvocationBase to CompilerInvocation--><g id="link_CompilerInvocationBase_CompilerInvocation"><path codeLine="43" d="M210.5,267.72 C210.5,286.13 210.5,305.3 210.5,324.52 " fill="none" id="CompilerInvocationBase-backto-CompilerInvocation" style="stroke:#181818;stroke-width:1.0;"/><polygon fill="none" points="203.5,268,210.5,248,217.5,268,203.5,268" style="stroke:#181818;stroke-width:1.0;"/><text fill="#000000" font-family="sans-serif" font-size="13" lengthAdjust="spacing" textLength="34" x="211.5" y="291.8979">public</text></g><!--SRC=[ZPJDQjj04CVlUWeT6u9VG8H2AfCFIB29IwzbAuqbWRmhTbS1jmsa9RGfJTDSUkW7FPLIA8dJO-9-l4mKAQU-GjTQMHefCbItcVdzHpF_NSa9YH2cpKPH40BVfBlC8J9Wz1uHO3unJFKiRn7gzI8fB5D8rxA4JpYu3oF9LugAuiLTKyFt2VT0jkDb3Gkw0V4e4p9mj6YJIXwBO1TsO6XJsLUw6f9hjNG3Y0jy08GxVliR6mJIzZb4d3aW1EFjsWQ1j6g9kITtbifKjJbArhT3XURigDGSJPMCFSDPS5B5ANLMAGd7Zw5O1aMpmPMNcjeEF4xaV6KKpIYDsCo5TQ2QG86kTY42wW9rnhrOHd5nqYtPgk6Q6dWm5X966gx52EECIjMbWAgeGchEeDUtvalPiis1I50THwlSAvrU1xa3WiLSwVf4-lEyqAVRXI69mzh1R3Ct3c6321ybiU-OHKQZDF8Jtv8MKr6vRY0k8CiMNQ1R3PtSZGThWvaXj- -JmlOCoYIOFF1yQR9XowMphBgdUUUhwN7ozldrk_Fay6ColGnAsb0ZchEM_z6tuNxUE3lxdVuwKny0zP9NRzBla-JBGNho8lrma4rEis_xwOzfyldrtvz7EPrCBgukZtlAKNjBrxC_xszU7jrysi- -FjEzhWzFD52DPYpu2QuyxNJQ9etYHs7W_0C0]--></g></svg>