<?xml version="1.0" encoding="UTF-8" standalone="no"?><svg xmlns="http://www.w3.org/2000/svg" xmlns:xlink="http://www.w3.org/1999/xlink" contentStyleType="text/css" height="1591px" preserveAspectRatio="none" style="width:1706px;height:1591px;background:#FFFFFF;" version="1.1" viewBox="0 0 1706 1591" width="1706px" zoomAndPan="magnify"><defs/><g><!--class FrontendAction--><g id="elem_FrontendAction"><rect codeLine="2" fill="#F1F1F1" height="678.9639" id="FrontendAction" rx="2.5" ry="2.5" style="stroke:#181818;stroke-width:0.5;" width="295" x="1059" y="7"/><ellipse cx="1153.75" cy="23" fill="#A9DCDF" rx="11" ry="11" style="stroke:#181818;stroke-width:1.0;"/><path d="M1154.125,22.9844 L1152.1406,22.9844 L1151.5469,25.5 Q1151.4844,25.8438 1151.4844,26.0313 Q1151.4844,26.2969 1151.5781,26.5625 Q1151.6719,26.8281 1151.6719,26.8281 L1152.3438,26.8281 L1152.3438,27.2344 L1148.8906,27.2344 L1148.8906,26.8281 L1149.0781,26.8281 Q1149.3438,26.8281 1149.5469,26.6641 Q1149.75,26.5 1149.8125,26.1094 L1152.4063,15.9375 L1154.2813,15.3281 L1156.9219,26.1094 Q1157.0625,26.5 1157.2578,26.6641 Q1157.4531,26.8281 1157.4531,26.8281 L1157.9219,26.8281 L1157.9219,27.2344 L1154.0625,27.2344 L1154.0625,26.8281 L1154.3281,26.8281 Q1154.7344,26.8281 1154.7969,26.6641 Q1154.8594,26.5 1154.8594,26.375 Q1154.8594,26.1094 1154.7969,25.9063 L1154.125,22.9844 Z M1152.7344,17.0781 L1152.7344,17.0781 L1152.2813,22.5781 L1154.0625,22.5781 L1152.7344,17.0781 Z " fill="#000000"/><text fill="#000000" font-family="sans-serif" font-size="14" font-style="italic" lengthAdjust="spacing" textLength="97" x="1174.25" y="29.4839">FrontendAction</text><line style="stroke:#181818;stroke-width:0.5;" x1="1060" x2="1353" y1="39" y2="39"/><rect fill="none" height="6" style="stroke:#C82930;stroke-width:1.0;" width="6" x="1067" y="51.0601"/><text fill="#000000" font-family="sans-serif" font-size="14" lengthAdjust="spacing" textLength="199" x="1079" y="59.0439">CurrentInput: FrontendInputFile</text><rect fill="none" height="6" style="stroke:#C82930;stroke-width:1.0;" width="6" x="1067" y="70.1802"/><text fill="#000000" font-family="sans-serif" font-size="14" lengthAdjust="spacing" textLength="269" x="1079" y="78.1641">CurrentASTUnit: std::unique_ptr&lt;ASTUnit&gt;</text><rect fill="none" height="6" style="stroke:#C82930;stroke-width:1.0;" width="6" x="1067" y="89.3003"/><text fill="#000000" font-family="sans-serif" font-size="14" lengthAdjust="spacing" textLength="175" x="1079" y="97.2842">Instance: CompilerInstance*</text><line style="stroke:#181818;stroke-width:0.5;" x1="1060" x2="1353" y1="104.3604" y2="104.3604"/><rect fill="#F24D5C" height="6" style="stroke:#C82930;stroke-width:1.0;" width="6" x="1067" y="116.4204"/><text fill="#000000" font-family="sans-serif" font-size="14" lengthAdjust="spacing" textLength="203" x="1079" y="124.4043">CreateWrappedASTConsumer()</text><polygon fill="#FFFF44" points="1070,133.5405,1074,137.5405,1070,141.5405,1066,137.5405" style="stroke:#B38D22;stroke-width:1.0;"/><text fill="#000000" font-family="sans-serif" font-size="14" lengthAdjust="spacing" textLength="209" x="1079" y="143.5244">virtual PrepareToExecuteAction()</text><polygon fill="#FFFF44" points="1070,152.6606,1074,156.6606,1070,160.6606,1066,156.6606" style="stroke:#B38D22;stroke-width:1.0;"/><text fill="#000000" font-family="sans-serif" font-size="14" lengthAdjust="spacing" textLength="211" x="1079" y="162.6445">virtual CreateASTConsumer() = 0</text><polygon fill="#FFFF44" points="1070,171.7808,1074,175.7808,1070,179.7808,1066,175.7808" style="stroke:#B38D22;stroke-width:1.0;"/><text fill="#000000" font-family="sans-serif" font-size="14" lengthAdjust="spacing" textLength="152" x="1079" y="181.7646">virtual BeginInvocation()</text><polygon fill="#FFFF44" points="1070,190.9009,1074,194.9009,1070,198.9009,1066,194.9009" style="stroke:#B38D22;stroke-width:1.0;"/><text fill="#000000" font-family="sans-serif" font-size="14" lengthAdjust="spacing" textLength="195" x="1079" y="200.8848">virtual BeginSourceFileAction()</text><polygon fill="#FFFF44" points="1070,210.021,1074,214.021,1070,218.021,1066,214.021" style="stroke:#B38D22;stroke-width:1.0;"/><text fill="#000000" font-family="sans-serif" font-size="14" lengthAdjust="spacing" textLength="165" x="1079" y="220.0049">virtual ExecuteAction() = 0</text><polygon fill="#FFFF44" points="1070,229.1411,1074,233.1411,1070,237.1411,1066,233.1411" style="stroke:#B38D22;stroke-width:1.0;"/><text fill="#000000" font-family="sans-serif" font-size="14" lengthAdjust="spacing" textLength="184" x="1079" y="239.125">virtual EndSourceFileAction()</text><polygon fill="#FFFF44" points="1070,248.2612,1074,252.2612,1070,256.2612,1066,252.2612" style="stroke:#B38D22;stroke-width:1.0;"/><text fill="#000000" font-family="sans-serif" font-size="14" lengthAdjust="spacing" textLength="204" x="1079" y="258.2451">virtual shouldEraseOutputFiles()</text><ellipse cx="1070" cy="272.3813" fill="#84BE84" rx="3" ry="3" style="stroke:#038048;stroke-width:1.0;"/><text fill="#000000" font-family="sans-serif" font-size="14" lengthAdjust="spacing" textLength="139" x="1079" y="277.3652">getCompilerInstance()</text><ellipse cx="1070" cy="291.5015" fill="#84BE84" rx="3" ry="3" style="stroke:#038048;stroke-width:1.0;"/><text fill="#000000" font-family="sans-serif" font-size="14" lengthAdjust="spacing" textLength="138" x="1079" y="296.4854">setCompilerInstance()</text><ellipse cx="1070" cy="310.6216" fill="#84BE84" rx="3" ry="3" style="stroke:#038048;stroke-width:1.0;"/><text fill="#000000" font-family="sans-serif" font-size="14" lengthAdjust="spacing" textLength="118" x="1079" y="315.6055">isCurrentFileAST()</text><ellipse cx="1070" cy="329.7417" fill="#84BE84" rx="3" ry="3" style="stroke:#038048;stroke-width:1.0;"/><text fill="#000000" font-family="sans-serif" font-size="14" lengthAdjust="spacing" textLength="109" x="1079" y="334.7256">getCurrentInput()</text><ellipse cx="1070" cy="348.8618" fill="#84BE84" rx="3" ry="3" style="stroke:#038048;stroke-width:1.0;"/><text fill="#000000" font-family="sans-serif" font-size="14" lengthAdjust="spacing" textLength="101" x="1079" y="353.8457">getCurrentFile()</text><ellipse cx="1070" cy="367.9819" fill="#84BE84" rx="3" ry="3" style="stroke:#038048;stroke-width:1.0;"/><text fill="#000000" font-family="sans-serif" font-size="14" lengthAdjust="spacing" textLength="191" x="1079" y="372.9658">getCurrentFileOrBufferName()</text><ellipse cx="1070" cy="387.1021" fill="#84BE84" rx="3" ry="3" style="stroke:#038048;stroke-width:1.0;"/><text fill="#000000" font-family="sans-serif" font-size="14" lengthAdjust="spacing" textLength="129" x="1079" y="392.0859">getCurrentFileKind()</text><ellipse cx="1070" cy="406.2222" fill="#84BE84" rx="3" ry="3" style="stroke:#038048;stroke-width:1.0;"/><text fill="#000000" font-family="sans-serif" font-size="14" lengthAdjust="spacing" textLength="129" x="1079" y="411.2061">getCurrentASTUnit()</text><ellipse cx="1070" cy="425.3423" fill="#84BE84" rx="3" ry="3" style="stroke:#038048;stroke-width:1.0;"/><text fill="#000000" font-family="sans-serif" font-size="14" lengthAdjust="spacing" textLength="124" x="1079" y="430.3262">getCurrentModule()</text><ellipse cx="1070" cy="444.4624" fill="#84BE84" rx="3" ry="3" style="stroke:#038048;stroke-width:1.0;"/><text fill="#000000" font-family="sans-serif" font-size="14" lengthAdjust="spacing" textLength="136" x="1079" y="449.4463">takeCurrentASTUnit()</text><ellipse cx="1070" cy="463.5825" fill="#84BE84" rx="3" ry="3" style="stroke:#038048;stroke-width:1.0;"/><text fill="#000000" font-family="sans-serif" font-size="14" lengthAdjust="spacing" textLength="108" x="1079" y="468.5664">setCurrentInput()</text><ellipse cx="1070" cy="482.7026" fill="#84BE84" rx="3" ry="3" style="stroke:#038048;stroke-width:1.0;"/><text fill="#000000" font-family="sans-serif" font-size="14" lengthAdjust="spacing" textLength="187" x="1079" y="487.6865">virtual isModelParsingAction()</text><ellipse cx="1070" cy="501.8228" fill="#84BE84" rx="3" ry="3" style="stroke:#038048;stroke-width:1.0;"/><text fill="#000000" font-family="sans-serif" font-size="14" lengthAdjust="spacing" textLength="220" x="1079" y="506.8066">virtual usesPreprocessorOnly() = 0</text><ellipse cx="1070" cy="520.9429" fill="#84BE84" rx="3" ry="3" style="stroke:#038048;stroke-width:1.0;"/><text fill="#000000" font-family="sans-serif" font-size="14" lengthAdjust="spacing" textLength="195" x="1079" y="525.9268">virtual getTranslationUnitKind()</text><ellipse cx="1070" cy="540.063" fill="#84BE84" rx="3" ry="3" style="stroke:#038048;stroke-width:1.0;"/><text fill="#000000" font-family="sans-serif" font-size="14" lengthAdjust="spacing" textLength="153" x="1079" y="545.0469">virtual hasPCHSupport()</text><ellipse cx="1070" cy="559.1831" fill="#84BE84" rx="3" ry="3" style="stroke:#038048;stroke-width:1.0;"/><text fill="#000000" font-family="sans-serif" font-size="14" lengthAdjust="spacing" textLength="175" x="1079" y="564.167">virtual hasASTFileSupport()</text><ellipse cx="1070" cy="578.3032" fill="#84BE84" rx="3" ry="3" style="stroke:#038048;stroke-width:1.0;"/><text fill="#000000" font-family="sans-serif" font-size="14" lengthAdjust="spacing" textLength="138" x="1079" y="583.2871">virtual hasIRSupport()</text><ellipse cx="1070" cy="597.4233" fill="#84BE84" rx="3" ry="3" style="stroke:#038048;stroke-width:1.0;"/><text fill="#000000" font-family="sans-serif" font-size="14" lengthAdjust="spacing" textLength="230" x="1079" y="602.4072">virtual hasCodeCompletionSupport()</text><ellipse cx="1070" cy="616.5435" fill="#84BE84" rx="3" ry="3" style="stroke:#038048;stroke-width:1.0;"/><text fill="#000000" font-family="sans-serif" font-size="14" lengthAdjust="spacing" textLength="128" x="1079" y="621.5273">PrepareToExecute()</text><ellipse cx="1070" cy="635.6636" fill="#84BE84" rx="3" ry="3" style="stroke:#038048;stroke-width:1.0;"/><text fill="#000000" font-family="sans-serif" font-size="14" lengthAdjust="spacing" textLength="114" x="1079" y="640.6475">BeginSourceFile()</text><ellipse cx="1070" cy="654.7837" fill="#84BE84" rx="3" ry="3" style="stroke:#038048;stroke-width:1.0;"/><text fill="#000000" font-family="sans-serif" font-size="14" lengthAdjust="spacing" textLength="60" x="1079" y="659.7676">Execute()</text><ellipse cx="1070" cy="673.9038" fill="#84BE84" rx="3" ry="3" style="stroke:#038048;stroke-width:1.0;"/><text fill="#000000" font-family="sans-serif" font-size="14" lengthAdjust="spacing" textLength="145" x="1079" y="678.8877">virtual EndSourceFile()</text></g><!--class ASTFrontendAction--><g id="elem_ASTFrontendAction"><rect codeLine="38" fill="#F1F1F1" height="86.2402" id="ASTFrontendAction" rx="2.5" ry="2.5" style="stroke:#181818;stroke-width:0.5;" width="226" x="827.5" y="870.5"/><ellipse cx="874.25" cy="886.5" fill="#A9DCDF" rx="11" ry="11" style="stroke:#181818;stroke-width:1.0;"/><path d="M874.625,886.4844 L872.6406,886.4844 L872.0469,889 Q871.9844,889.3438 871.9844,889.5313 Q871.9844,889.7969 872.0781,890.0625 Q872.1719,890.3281 872.1719,890.3281 L872.8438,890.3281 L872.8438,890.7344 L869.3906,890.7344 L869.3906,890.3281 L869.5781,890.3281 Q869.8438,890.3281 870.0469,890.1641 Q870.25,890 870.3125,889.6094 L872.9063,879.4375 L874.7813,878.8281 L877.4219,889.6094 Q877.5625,890 877.7578,890.1641 Q877.9531,890.3281 877.9531,890.3281 L878.4219,890.3281 L878.4219,890.7344 L874.5625,890.7344 L874.5625,890.3281 L874.8281,890.3281 Q875.2344,890.3281 875.2969,890.1641 Q875.3594,890 875.3594,889.875 Q875.3594,889.6094 875.2969,889.4063 L874.625,886.4844 Z M873.2344,880.5781 L873.2344,880.5781 L872.7813,886.0781 L874.5625,886.0781 L873.2344,880.5781 Z " fill="#000000"/><text fill="#000000" font-family="sans-serif" font-size="14" font-style="italic" lengthAdjust="spacing" textLength="124" x="894.75" y="892.9839">ASTFrontendAction</text><line style="stroke:#181818;stroke-width:0.5;" x1="828.5" x2="1052.5" y1="902.5" y2="902.5"/><polygon fill="none" points="838.5,912.5601,842.5,916.5601,838.5,920.5601,834.5,916.5601" style="stroke:#B38D22;stroke-width:1.0;"/><text fill="#000000" font-family="sans-serif" font-size="14" lengthAdjust="spacing" textLength="149" x="847.5" y="922.5439">ExecuteAction: override</text><ellipse cx="838.5" cy="936.6802" fill="none" rx="3" ry="3" style="stroke:#038048;stroke-width:1.0;"/><text fill="#000000" font-family="sans-serif" font-size="14" lengthAdjust="spacing" textLength="200" x="847.5" y="941.6641">usesPreprocessorOnly override</text><line style="stroke:#181818;stroke-width:0.5;" x1="828.5" x2="1052.5" y1="948.7402" y2="948.7402"/></g><!--class PluginASTAction--><g id="elem_PluginASTAction"><rect codeLine="43" fill="#F1F1F1" height="105.3604" id="PluginASTAction" rx="2.5" ry="2.5" style="stroke:#181818;stroke-width:0.5;" width="251" x="1002" y="1246.5"/><ellipse cx="1070.75" cy="1262.5" fill="#A9DCDF" rx="11" ry="11" style="stroke:#181818;stroke-width:1.0;"/><path d="M1071.125,1262.4844 L1069.1406,1262.4844 L1068.5469,1265 Q1068.4844,1265.3438 1068.4844,1265.5313 Q1068.4844,1265.7969 1068.5781,1266.0625 Q1068.6719,1266.3281 1068.6719,1266.3281 L1069.3438,1266.3281 L1069.3438,1266.7344 L1065.8906,1266.7344 L1065.8906,1266.3281 L1066.0781,1266.3281 Q1066.3438,1266.3281 1066.5469,1266.1641 Q1066.75,1266 1066.8125,1265.6094 L1069.4063,1255.4375 L1071.2813,1254.8281 L1073.9219,1265.6094 Q1074.0625,1266 1074.2578,1266.1641 Q1074.4531,1266.3281 1074.4531,1266.3281 L1074.9219,1266.3281 L1074.9219,1266.7344 L1071.0625,1266.7344 L1071.0625,1266.3281 L1071.3281,1266.3281 Q1071.7344,1266.3281 1071.7969,1266.1641 Q1071.8594,1266 1071.8594,1265.875 Q1071.8594,1265.6094 1071.7969,1265.4063 L1071.125,1262.4844 Z M1069.7344,1256.5781 L1069.7344,1256.5781 L1069.2813,1262.0781 L1071.0625,1262.0781 L1069.7344,1256.5781 Z " fill="#000000"/><text fill="#000000" font-family="sans-serif" font-size="14" font-style="italic" lengthAdjust="spacing" textLength="105" x="1091.25" y="1268.9839">PluginASTAction</text><line style="stroke:#181818;stroke-width:0.5;" x1="1003" x2="1252" y1="1278.5" y2="1278.5"/><line style="stroke:#181818;stroke-width:0.5;" x1="1003" x2="1252" y1="1286.5" y2="1286.5"/><rect fill="#F24D5C" height="6" style="stroke:#C82930;stroke-width:1.0;" width="6" x="1010" y="1298.5601"/><text fill="#000000" font-family="sans-serif" font-size="14" lengthAdjust="spacing" textLength="96" x="1022" y="1306.5439">virtual anchor()</text><ellipse cx="1013" cy="1320.6802" fill="#84BE84" rx="3" ry="3" style="stroke:#038048;stroke-width:1.0;"/><text fill="#000000" font-family="sans-serif" font-size="14" lengthAdjust="spacing" textLength="225" x="1022" y="1325.6641">CreateASTConsumer() override = 0</text><ellipse cx="1013" cy="1339.8003" fill="#84BE84" rx="3" ry="3" style="stroke:#038048;stroke-width:1.0;"/><text fill="#000000" font-family="sans-serif" font-size="14" lengthAdjust="spacing" textLength="143" x="1022" y="1344.7842">virtual getActionType()</text></g><!--class PreprocessorFrontendAction--><g id="elem_PreprocessorFrontendAction"><rect codeLine="49" fill="#F1F1F1" height="86.2402" id="PreprocessorFrontendAction" rx="2.5" ry="2.5" style="stroke:#181818;stroke-width:0.5;" width="236" x="1088.5" y="870.5"/><ellipse cx="1113.4" cy="886.5" fill="#A9DCDF" rx="11" ry="11" style="stroke:#181818;stroke-width:1.0;"/><path d="M1113.775,886.4844 L1111.7906,886.4844 L1111.1969,889 Q1111.1344,889.3438 1111.1344,889.5313 Q1111.1344,889.7969 1111.2281,890.0625 Q1111.3219,890.3281 1111.3219,890.3281 L1111.9938,890.3281 L1111.9938,890.7344 L1108.5406,890.7344 L1108.5406,890.3281 L1108.7281,890.3281 Q1108.9938,890.3281 1109.1969,890.1641 Q1109.4,890 1109.4625,889.6094 L1112.0563,879.4375 L1113.9313,878.8281 L1116.5719,889.6094 Q1116.7125,890 1116.9078,890.1641 Q1117.1031,890.3281 1117.1031,890.3281 L1117.5719,890.3281 L1117.5719,890.7344 L1113.7125,890.7344 L1113.7125,890.3281 L1113.9781,890.3281 Q1114.3844,890.3281 1114.4469,890.1641 Q1114.5094,890 1114.5094,889.875 Q1114.5094,889.6094 1114.4469,889.4063 L1113.775,886.4844 Z M1112.3844,880.5781 L1112.3844,880.5781 L1111.9313,886.0781 L1113.7125,886.0781 L1112.3844,880.5781 Z " fill="#000000"/><text fill="#000000" font-family="sans-serif" font-size="14" font-style="italic" lengthAdjust="spacing" textLength="182" x="1129.6" y="892.9839">PreprocessorFrontendAction</text><line style="stroke:#181818;stroke-width:0.5;" x1="1089.5" x2="1323.5" y1="902.5" y2="902.5"/><line style="stroke:#181818;stroke-width:0.5;" x1="1089.5" x2="1323.5" y1="910.5" y2="910.5"/><polygon fill="#FFFF44" points="1099.5,920.5601,1103.5,924.5601,1099.5,928.5601,1095.5,924.5601" style="stroke:#B38D22;stroke-width:1.0;"/><text fill="#000000" font-family="sans-serif" font-size="14" lengthAdjust="spacing" textLength="201" x="1108.5" y="930.5439">CreateASTConsumer() override</text><ellipse cx="1099.5" cy="944.6802" fill="#84BE84" rx="3" ry="3" style="stroke:#038048;stroke-width:1.0;"/><text fill="#000000" font-family="sans-serif" font-size="14" lengthAdjust="spacing" textLength="210" x="1108.5" y="949.6641">usesPreprocessorOnly() override</text></g><!--class WrapperFrontendAction--><g id="elem_WrapperFrontendAction"><rect codeLine="54" fill="#F1F1F1" height="334.8018" id="WrapperFrontendAction" rx="2.5" ry="2.5" style="stroke:#181818;stroke-width:0.5;" width="339" x="1360" y="746"/><ellipse cx="1448.75" cy="762" fill="#A9DCDF" rx="11" ry="11" style="stroke:#181818;stroke-width:1.0;"/><path d="M1449.125,761.9844 L1447.1406,761.9844 L1446.5469,764.5 Q1446.4844,764.8438 1446.4844,765.0313 Q1446.4844,765.2969 1446.5781,765.5625 Q1446.6719,765.8281 1446.6719,765.8281 L1447.3438,765.8281 L1447.3438,766.2344 L1443.8906,766.2344 L1443.8906,765.8281 L1444.0781,765.8281 Q1444.3438,765.8281 1444.5469,765.6641 Q1444.75,765.5 1444.8125,765.1094 L1447.4063,754.9375 L1449.2813,754.3281 L1451.9219,765.1094 Q1452.0625,765.5 1452.2578,765.6641 Q1452.4531,765.8281 1452.4531,765.8281 L1452.9219,765.8281 L1452.9219,766.2344 L1449.0625,766.2344 L1449.0625,765.8281 L1449.3281,765.8281 Q1449.7344,765.8281 1449.7969,765.6641 Q1449.8594,765.5 1449.8594,765.375 Q1449.8594,765.1094 1449.7969,764.9063 L1449.125,761.9844 Z M1447.7344,756.0781 L1447.7344,756.0781 L1447.2813,761.5781 L1449.0625,761.5781 L1447.7344,756.0781 Z " fill="#000000"/><text fill="#000000" font-family="sans-serif" font-size="14" font-style="italic" lengthAdjust="spacing" textLength="153" x="1469.25" y="768.4839">WrapperFrontendAction</text><line style="stroke:#181818;stroke-width:0.5;" x1="1361" x2="1698" y1="778" y2="778"/><polygon fill="none" points="1371,788.0601,1375,792.0601,1371,796.0601,1367,792.0601" style="stroke:#B38D22;stroke-width:1.0;"/><text fill="#000000" font-family="sans-serif" font-size="14" lengthAdjust="spacing" textLength="313" x="1380" y="798.0439">WrappedAction: std::unique_ptr&lt;FrontendAction&gt;</text><line style="stroke:#181818;stroke-width:0.5;" x1="1361" x2="1698" y1="805.1201" y2="805.1201"/><polygon fill="#FFFF44" points="1371,815.1802,1375,819.1802,1371,823.1802,1367,819.1802" style="stroke:#B38D22;stroke-width:1.0;"/><text fill="#000000" font-family="sans-serif" font-size="14" lengthAdjust="spacing" textLength="223" x="1380" y="825.1641">PrepareToExecuteAction() override</text><polygon fill="#FFFF44" points="1371,834.3003,1375,838.3003,1371,842.3003,1367,838.3003" style="stroke:#B38D22;stroke-width:1.0;"/><text fill="#000000" font-family="sans-serif" font-size="14" lengthAdjust="spacing" textLength="201" x="1380" y="844.2842">CreateASTConsumer() override</text><polygon fill="#FFFF44" points="1371,853.4204,1375,857.4204,1371,861.4204,1367,857.4204" style="stroke:#B38D22;stroke-width:1.0;"/><text fill="#000000" font-family="sans-serif" font-size="14" lengthAdjust="spacing" textLength="166" x="1380" y="863.4043">BeginInvocation() override</text><polygon fill="#FFFF44" points="1371,872.5405,1375,876.5405,1371,880.5405,1367,876.5405" style="stroke:#B38D22;stroke-width:1.0;"/><text fill="#000000" font-family="sans-serif" font-size="14" lengthAdjust="spacing" textLength="209" x="1380" y="882.5244">BeginSourceFileAction() override</text><polygon fill="#FFFF44" points="1371,891.6606,1375,895.6606,1371,899.6606,1367,895.6606" style="stroke:#B38D22;stroke-width:1.0;"/><text fill="#000000" font-family="sans-serif" font-size="14" lengthAdjust="spacing" textLength="155" x="1380" y="901.6445">ExecuteAction() override</text><polygon fill="#FFFF44" points="1371,910.7808,1375,914.7808,1371,918.7808,1367,914.7808" style="stroke:#B38D22;stroke-width:1.0;"/><text fill="#000000" font-family="sans-serif" font-size="14" lengthAdjust="spacing" textLength="159" x="1380" y="920.7646">EndSourceFile() override</text><polygon fill="#FFFF44" points="1371,929.9009,1375,933.9009,1371,937.9009,1367,933.9009" style="stroke:#B38D22;stroke-width:1.0;"/><text fill="#000000" font-family="sans-serif" font-size="14" lengthAdjust="spacing" textLength="198" x="1380" y="939.8848">EndSourceFileAction() override</text><polygon fill="#FFFF44" points="1371,949.021,1375,953.021,1371,957.021,1367,953.021" style="stroke:#B38D22;stroke-width:1.0;"/><text fill="#000000" font-family="sans-serif" font-size="14" lengthAdjust="spacing" textLength="218" x="1380" y="959.0049">shouldEraseOutputFiles() override</text><ellipse cx="1371" cy="973.1411" fill="#84BE84" rx="3" ry="3" style="stroke:#038048;stroke-width:1.0;"/><text fill="#000000" font-family="sans-serif" font-size="14" lengthAdjust="spacing" textLength="210" x="1380" y="978.125">usesPreprocessorOnly() override</text><ellipse cx="1371" cy="992.2612" fill="#84BE84" rx="3" ry="3" style="stroke:#038048;stroke-width:1.0;"/><text fill="#000000" font-family="sans-serif" font-size="14" lengthAdjust="spacing" textLength="209" x="1380" y="997.2451">getTranslationUnitKind() override</text><ellipse cx="1371" cy="1011.3813" fill="#84BE84" rx="3" ry="3" style="stroke:#038048;stroke-width:1.0;"/><text fill="#000000" font-family="sans-serif" font-size="14" lengthAdjust="spacing" textLength="167" x="1380" y="1016.3652">hasPCHSupport() override</text><ellipse cx="1371" cy="1030.5015" fill="#84BE84" rx="3" ry="3" style="stroke:#038048;stroke-width:1.0;"/><text fill="#000000" font-family="sans-serif" font-size="14" lengthAdjust="spacing" textLength="189" x="1380" y="1035.4854">hasASTFileSupport() override</text><ellipse cx="1371" cy="1049.6216" fill="#84BE84" rx="3" ry="3" style="stroke:#038048;stroke-width:1.0;"/><text fill="#000000" font-family="sans-serif" font-size="14" lengthAdjust="spacing" textLength="152" x="1380" y="1054.6055">hasIRSupport() override</text><ellipse cx="1371" cy="1068.7417" fill="#84BE84" rx="3" ry="3" style="stroke:#038048;stroke-width:1.0;"/><text fill="#000000" font-family="sans-serif" font-size="14" lengthAdjust="spacing" textLength="244" x="1380" y="1073.7256">hasCodeCompletionSupport() override</text></g><!--class CodeGenAction--><g id="elem_CodeGenAction"><rect codeLine="72" fill="#F1F1F1" height="315.6816" id="CodeGenAction" rx="2.5" ry="2.5" style="stroke:#181818;stroke-width:0.5;" width="424" x="542.5" y="1141"/><ellipse cx="700.25" cy="1157" fill="#ADD1B2" rx="11" ry="11" style="stroke:#181818;stroke-width:1.0;"/><path d="M698.8281,1162.3594 Q696.9688,1162.3594 695.875,1160.9688 Q694.7813,1159.5781 694.7813,1156.5938 Q694.7813,1154.0625 695.9453,1152.4063 Q697.1094,1150.75 699.0938,1150.75 Q700.5625,1150.75 701.0313,1150.875 Q701.5,1151.0781 701.5,1151.0781 Q701.5,1151.0781 701.5,1151.0078 Q701.5,1150.9375 702.1094,1150.0156 L703.1563,1153.6719 L701.8281,1154.0781 Q701.3594,1152.5313 700.6953,1151.8672 Q700.0313,1151.2031 698.9688,1151.2031 Q698.5781,1151.2031 697.8125,1152.7344 Q697.0469,1154.2656 697.0469,1156.5156 Q697.0469,1158.9844 697.7109,1160.375 Q698.375,1161.7656 698.9063,1161.7656 Q699.9688,1161.7656 700.7266,1161 Q701.4844,1160.2344 701.8281,1158.5781 L703.1563,1159.1719 Q702.8281,1160.5781 701.9297,1161.4688 Q701.0313,1162.3594 698.8281,1162.3594 Z " fill="#000000"/><text fill="#000000" font-family="sans-serif" font-size="14" lengthAdjust="spacing" textLength="100" x="720.75" y="1163.4839">CodeGenAction</text><line style="stroke:#181818;stroke-width:0.5;" x1="543.5" x2="965.5" y1="1173" y2="1173"/><rect fill="none" height="6" style="stroke:#C82930;stroke-width:1.0;" width="6" x="550.5" y="1185.0601"/><text fill="#000000" font-family="sans-serif" font-size="14" lengthAdjust="spacing" textLength="86" x="562.5" y="1193.0439">Act: unsigned</text><rect fill="none" height="6" style="stroke:#C82930;stroke-width:1.0;" width="6" x="550.5" y="1204.1802"/><text fill="#000000" font-family="sans-serif" font-size="14" lengthAdjust="spacing" textLength="268" x="562.5" y="1212.1641">TheModule: std::unique_ptr&lt;llvm::Module&gt;</text><rect fill="none" height="6" style="stroke:#C82930;stroke-width:1.0;" width="6" x="550.5" y="1223.3003"/><text fill="#000000" font-family="sans-serif" font-size="14" lengthAdjust="spacing" textLength="266" x="562.5" y="1231.2842">LinkModules: SmallVector&lt;LinkModule, 4&gt;</text><rect fill="none" height="6" style="stroke:#C82930;stroke-width:1.0;" width="6" x="550.5" y="1242.4204"/><text fill="#000000" font-family="sans-serif" font-size="14" lengthAdjust="spacing" textLength="197" x="562.5" y="1250.4043">VMContext: llvm::LLVMContext*</text><rect fill="none" height="6" style="stroke:#C82930;stroke-width:1.0;" width="6" x="550.5" y="1261.5405"/><text fill="#000000" font-family="sans-serif" font-size="14" lengthAdjust="spacing" textLength="138" x="562.5" y="1269.5244">OwnsVMContext: bool</text><polygon fill="none" points="553.5,1278.6606,557.5,1282.6606,553.5,1286.6606,549.5,1282.6606" style="stroke:#B38D22;stroke-width:1.0;"/><text fill="#000000" font-family="sans-serif" font-size="14" lengthAdjust="spacing" textLength="398" x="562.5" y="1288.6445">CreateASTConsumer std::unique_ptr&lt;ASTConsumer&gt; override</text><ellipse cx="553.5" cy="1302.7808" fill="none" rx="3" ry="3" style="stroke:#038048;stroke-width:1.0;"/><text fill="#000000" font-family="sans-serif" font-size="14" lengthAdjust="spacing" textLength="216" x="562.5" y="1307.7646">BEConsumer: BackendConsumer*</text><line style="stroke:#181818;stroke-width:0.5;" x1="543.5" x2="965.5" y1="1314.8408" y2="1314.8408"/><rect fill="#F24D5C" height="6" style="stroke:#C82930;stroke-width:1.0;" width="6" x="550.5" y="1326.9009"/><text fill="#000000" font-family="sans-serif" font-size="14" lengthAdjust="spacing" textLength="83" x="562.5" y="1334.8848">loadModule()</text><polygon fill="#FFFF44" points="553.5,1344.021,557.5,1348.021,553.5,1352.021,549.5,1348.021" style="stroke:#B38D22;stroke-width:1.0;"/><text fill="#000000" font-family="sans-serif" font-size="14" lengthAdjust="spacing" textLength="152" x="562.5" y="1354.0049">hasIRSupport() override</text><polygon fill="#FFFF44" points="553.5,1363.1411,557.5,1367.1411,553.5,1371.1411,549.5,1367.1411" style="stroke:#B38D22;stroke-width:1.0;"/><text fill="#000000" font-family="sans-serif" font-size="14" lengthAdjust="spacing" textLength="155" x="562.5" y="1373.125">ExecuteAction() override</text><polygon fill="#FFFF44" points="553.5,1382.2612,557.5,1386.2612,553.5,1390.2612,549.5,1386.2612" style="stroke:#B38D22;stroke-width:1.0;"/><text fill="#000000" font-family="sans-serif" font-size="14" lengthAdjust="spacing" textLength="198" x="562.5" y="1392.2451">EndSourceFileAction() override</text><ellipse cx="553.5" cy="1406.3813" fill="#84BE84" rx="3" ry="3" style="stroke:#038048;stroke-width:1.0;"/><text fill="#000000" font-family="sans-serif" font-size="14" lengthAdjust="spacing" textLength="83" x="562.5" y="1411.3652">takeModule()</text><ellipse cx="553.5" cy="1425.5015" fill="#84BE84" rx="3" ry="3" style="stroke:#038048;stroke-width:1.0;"/><text fill="#000000" font-family="sans-serif" font-size="14" lengthAdjust="spacing" textLength="121" x="562.5" y="1430.4854">takeLLVMContext()</text><ellipse cx="553.5" cy="1444.6216" fill="#84BE84" rx="3" ry="3" style="stroke:#038048;stroke-width:1.0;"/><text fill="#000000" font-family="sans-serif" font-size="14" lengthAdjust="spacing" textLength="129" x="562.5" y="1449.6055">getCodeGenerator()</text></g><path d="M6,1280 L6,1307.7544 A0,0 0 0 0 6,1307.7544 L507,1307.7544 A0,0 0 0 0 507,1307.7544 L507,1298 L546.5,1366.6411 L507,1290 L507,1290 L497,1280 L6,1280 A0,0 0 0 0 6,1280 " fill="#FEFFDD" style="stroke:#181818;stroke-width:0.5;"/><path d="M497,1280 L497,1290 L507,1290 L497,1280 " fill="#FEFFDD" style="stroke:#181818;stroke-width:0.5;"/><text fill="#000000" font-family="sans-serif" font-size="13" lengthAdjust="spacing" textLength="480" x="12" y="1299.8979">mesa通过调用CompilerInstance.ExecuteAction(EmitLLVMOnlyAction&amp;)来开始编译</text><!--class EmitLLVMAction--><g id="elem_EmitLLVMAction"><rect codeLine="92" fill="#F1F1F1" height="67.1201" id="EmitLLVMAction" rx="2.5" ry="2.5" style="stroke:#181818;stroke-width:0.5;" width="134" x="197.5" y="1517"/><ellipse cx="212.5" cy="1533" fill="#ADD1B2" rx="11" ry="11" style="stroke:#181818;stroke-width:1.0;"/><path d="M211.0781,1538.3594 Q209.2188,1538.3594 208.125,1536.9688 Q207.0313,1535.5781 207.0313,1532.5938 Q207.0313,1530.0625 208.1953,1528.4063 Q209.3594,1526.75 211.3438,1526.75 Q212.8125,1526.75 213.2813,1526.875 Q213.75,1527.0781 213.75,1527.0781 Q213.75,1527.0781 213.75,1527.0078 Q213.75,1526.9375 214.3594,1526.0156 L215.4063,1529.6719 L214.0781,1530.0781 Q213.6094,1528.5313 212.9453,1527.8672 Q212.2813,1527.2031 211.2188,1527.2031 Q210.8281,1527.2031 210.0625,1528.7344 Q209.2969,1530.2656 209.2969,1532.5156 Q209.2969,1534.9844 209.9609,1536.375 Q210.625,1537.7656 211.1563,1537.7656 Q212.2188,1537.7656 212.9766,1537 Q213.7344,1536.2344 214.0781,1534.5781 L215.4063,1535.1719 Q215.0781,1536.5781 214.1797,1537.4688 Q213.2813,1538.3594 211.0781,1538.3594 Z " fill="#000000"/><text fill="#000000" font-family="sans-serif" font-size="14" lengthAdjust="spacing" textLength="102" x="226.5" y="1539.4839">EmitLLVMAction</text><line style="stroke:#181818;stroke-width:0.5;" x1="198.5" x2="330.5" y1="1549" y2="1549"/><line style="stroke:#181818;stroke-width:0.5;" x1="198.5" x2="330.5" y1="1557" y2="1557"/><rect fill="#F24D5C" height="6" style="stroke:#C82930;stroke-width:1.0;" width="6" x="205.5" y="1569.0601"/><text fill="#000000" font-family="sans-serif" font-size="14" lengthAdjust="spacing" textLength="96" x="217.5" y="1577.0439">virtual anchor()</text></g><!--class EmitLLVMOnlyAction--><g id="elem_EmitLLVMOnlyAction"><rect codeLine="96" fill="#F1F1F1" height="67.1201" id="EmitLLVMOnlyAction" rx="2.5" ry="2.5" style="stroke:#181818;stroke-width:0.5;" width="163" x="367" y="1517"/><ellipse cx="382" cy="1533" fill="#ADD1B2" rx="11" ry="11" style="stroke:#181818;stroke-width:1.0;"/><path d="M380.5781,1538.3594 Q378.7188,1538.3594 377.625,1536.9688 Q376.5313,1535.5781 376.5313,1532.5938 Q376.5313,1530.0625 377.6953,1528.4063 Q378.8594,1526.75 380.8438,1526.75 Q382.3125,1526.75 382.7813,1526.875 Q383.25,1527.0781 383.25,1527.0781 Q383.25,1527.0781 383.25,1527.0078 Q383.25,1526.9375 383.8594,1526.0156 L384.9063,1529.6719 L383.5781,1530.0781 Q383.1094,1528.5313 382.4453,1527.8672 Q381.7813,1527.2031 380.7188,1527.2031 Q380.3281,1527.2031 379.5625,1528.7344 Q378.7969,1530.2656 378.7969,1532.5156 Q378.7969,1534.9844 379.4609,1536.375 Q380.125,1537.7656 380.6563,1537.7656 Q381.7188,1537.7656 382.4766,1537 Q383.2344,1536.2344 383.5781,1534.5781 L384.9063,1535.1719 Q384.5781,1536.5781 383.6797,1537.4688 Q382.7813,1538.3594 380.5781,1538.3594 Z " fill="#000000"/><text fill="#000000" font-family="sans-serif" font-size="14" lengthAdjust="spacing" textLength="131" x="396" y="1539.4839">EmitLLVMOnlyAction</text><line style="stroke:#181818;stroke-width:0.5;" x1="368" x2="529" y1="1549" y2="1549"/><line style="stroke:#181818;stroke-width:0.5;" x1="368" x2="529" y1="1557" y2="1557"/><rect fill="#F24D5C" height="6" style="stroke:#C82930;stroke-width:1.0;" width="6" x="375" y="1569.0601"/><text fill="#000000" font-family="sans-serif" font-size="14" lengthAdjust="spacing" textLength="96" x="387" y="1577.0439">virtual anchor()</text></g><!--class EmitCodeGenOnlyAction--><g id="elem_EmitCodeGenOnlyAction"><rect codeLine="100" fill="#F1F1F1" height="67.1201" id="EmitCodeGenOnlyAction" rx="2.5" ry="2.5" style="stroke:#181818;stroke-width:0.5;" width="188" x="565.5" y="1517"/><ellipse cx="580.5" cy="1533" fill="#ADD1B2" rx="11" ry="11" style="stroke:#181818;stroke-width:1.0;"/><path d="M579.0781,1538.3594 Q577.2188,1538.3594 576.125,1536.9688 Q575.0313,1535.5781 575.0313,1532.5938 Q575.0313,1530.0625 576.1953,1528.4063 Q577.3594,1526.75 579.3438,1526.75 Q580.8125,1526.75 581.2813,1526.875 Q581.75,1527.0781 581.75,1527.0781 Q581.75,1527.0781 581.75,1527.0078 Q581.75,1526.9375 582.3594,1526.0156 L583.4063,1529.6719 L582.0781,1530.0781 Q581.6094,1528.5313 580.9453,1527.8672 Q580.2813,1527.2031 579.2188,1527.2031 Q578.8281,1527.2031 578.0625,1528.7344 Q577.2969,1530.2656 577.2969,1532.5156 Q577.2969,1534.9844 577.9609,1536.375 Q578.625,1537.7656 579.1563,1537.7656 Q580.2188,1537.7656 580.9766,1537 Q581.7344,1536.2344 582.0781,1534.5781 L583.4063,1535.1719 Q583.0781,1536.5781 582.1797,1537.4688 Q581.2813,1538.3594 579.0781,1538.3594 Z " fill="#000000"/><text fill="#000000" font-family="sans-serif" font-size="14" lengthAdjust="spacing" textLength="156" x="594.5" y="1539.4839">EmitCodeGenOnlyAction</text><line style="stroke:#181818;stroke-width:0.5;" x1="566.5" x2="752.5" y1="1549" y2="1549"/><line style="stroke:#181818;stroke-width:0.5;" x1="566.5" x2="752.5" y1="1557" y2="1557"/><rect fill="#F24D5C" height="6" style="stroke:#C82930;stroke-width:1.0;" width="6" x="573.5" y="1569.0601"/><text fill="#000000" font-family="sans-serif" font-size="14" lengthAdjust="spacing" textLength="96" x="585.5" y="1577.0439">virtual anchor()</text></g><!--class EmitObjAction--><g id="elem_EmitObjAction"><rect codeLine="104" fill="#F1F1F1" height="67.1201" id="EmitObjAction" rx="2.5" ry="2.5" style="stroke:#181818;stroke-width:0.5;" width="122" x="788.5" y="1517"/><ellipse cx="804.4" cy="1533" fill="#ADD1B2" rx="11" ry="11" style="stroke:#181818;stroke-width:1.0;"/><path d="M802.9781,1538.3594 Q801.1188,1538.3594 800.025,1536.9688 Q798.9313,1535.5781 798.9313,1532.5938 Q798.9313,1530.0625 800.0953,1528.4063 Q801.2594,1526.75 803.2438,1526.75 Q804.7125,1526.75 805.1813,1526.875 Q805.65,1527.0781 805.65,1527.0781 Q805.65,1527.0781 805.65,1527.0078 Q805.65,1526.9375 806.2594,1526.0156 L807.3063,1529.6719 L805.9781,1530.0781 Q805.5094,1528.5313 804.8453,1527.8672 Q804.1813,1527.2031 803.1188,1527.2031 Q802.7281,1527.2031 801.9625,1528.7344 Q801.1969,1530.2656 801.1969,1532.5156 Q801.1969,1534.9844 801.8609,1536.375 Q802.525,1537.7656 803.0563,1537.7656 Q804.1188,1537.7656 804.8766,1537 Q805.6344,1536.2344 805.9781,1534.5781 L807.3063,1535.1719 Q806.9781,1536.5781 806.0797,1537.4688 Q805.1813,1538.3594 802.9781,1538.3594 Z " fill="#000000"/><text fill="#000000" font-family="sans-serif" font-size="14" lengthAdjust="spacing" textLength="88" x="818.6" y="1539.4839">EmitObjAction</text><line style="stroke:#181818;stroke-width:0.5;" x1="789.5" x2="909.5" y1="1549" y2="1549"/><line style="stroke:#181818;stroke-width:0.5;" x1="789.5" x2="909.5" y1="1557" y2="1557"/><rect fill="#F24D5C" height="6" style="stroke:#C82930;stroke-width:1.0;" width="6" x="796.5" y="1569.0601"/><text fill="#000000" font-family="sans-serif" font-size="14" lengthAdjust="spacing" textLength="96" x="808.5" y="1577.0439">virtual anchor()</text></g><!--class EmitBCAction--><g id="elem_EmitBCAction"><rect codeLine="108" fill="#F1F1F1" height="67.1201" id="EmitBCAction" rx="2.5" ry="2.5" style="stroke:#181818;stroke-width:0.5;" width="122" x="945.5" y="1517"/><ellipse cx="962.75" cy="1533" fill="#ADD1B2" rx="11" ry="11" style="stroke:#181818;stroke-width:1.0;"/><path d="M961.3281,1538.3594 Q959.4688,1538.3594 958.375,1536.9688 Q957.2813,1535.5781 957.2813,1532.5938 Q957.2813,1530.0625 958.4453,1528.4063 Q959.6094,1526.75 961.5938,1526.75 Q963.0625,1526.75 963.5313,1526.875 Q964,1527.0781 964,1527.0781 Q964,1527.0781 964,1527.0078 Q964,1526.9375 964.6094,1526.0156 L965.6563,1529.6719 L964.3281,1530.0781 Q963.8594,1528.5313 963.1953,1527.8672 Q962.5313,1527.2031 961.4688,1527.2031 Q961.0781,1527.2031 960.3125,1528.7344 Q959.5469,1530.2656 959.5469,1532.5156 Q959.5469,1534.9844 960.2109,1536.375 Q960.875,1537.7656 961.4063,1537.7656 Q962.4688,1537.7656 963.2266,1537 Q963.9844,1536.2344 964.3281,1534.5781 L965.6563,1535.1719 Q965.3281,1536.5781 964.4297,1537.4688 Q963.5313,1538.3594 961.3281,1538.3594 Z " fill="#000000"/><text fill="#000000" font-family="sans-serif" font-size="14" lengthAdjust="spacing" textLength="85" x="977.25" y="1539.4839">EmitBCAction</text><line style="stroke:#181818;stroke-width:0.5;" x1="946.5" x2="1066.5" y1="1549" y2="1549"/><line style="stroke:#181818;stroke-width:0.5;" x1="946.5" x2="1066.5" y1="1557" y2="1557"/><rect fill="#F24D5C" height="6" style="stroke:#C82930;stroke-width:1.0;" width="6" x="953.5" y="1569.0601"/><text fill="#000000" font-family="sans-serif" font-size="14" lengthAdjust="spacing" textLength="96" x="965.5" y="1577.0439">virtual anchor()</text></g><!--class EmitAssemblyAction--><g id="elem_EmitAssemblyAction"><rect codeLine="112" fill="#F1F1F1" height="67.1201" id="EmitAssemblyAction" rx="2.5" ry="2.5" style="stroke:#181818;stroke-width:0.5;" width="158" x="1102.5" y="1517"/><ellipse cx="1117.5" cy="1533" fill="#ADD1B2" rx="11" ry="11" style="stroke:#181818;stroke-width:1.0;"/><path d="M1116.0781,1538.3594 Q1114.2188,1538.3594 1113.125,1536.9688 Q1112.0313,1535.5781 1112.0313,1532.5938 Q1112.0313,1530.0625 1113.1953,1528.4063 Q1114.3594,1526.75 1116.3438,1526.75 Q1117.8125,1526.75 1118.2813,1526.875 Q1118.75,1527.0781 1118.75,1527.0781 Q1118.75,1527.0781 1118.75,1527.0078 Q1118.75,1526.9375 1119.3594,1526.0156 L1120.4063,1529.6719 L1119.0781,1530.0781 Q1118.6094,1528.5313 1117.9453,1527.8672 Q1117.2813,1527.2031 1116.2188,1527.2031 Q1115.8281,1527.2031 1115.0625,1528.7344 Q1114.2969,1530.2656 1114.2969,1532.5156 Q1114.2969,1534.9844 1114.9609,1536.375 Q1115.625,1537.7656 1116.1563,1537.7656 Q1117.2188,1537.7656 1117.9766,1537 Q1118.7344,1536.2344 1119.0781,1534.5781 L1120.4063,1535.1719 Q1120.0781,1536.5781 1119.1797,1537.4688 Q1118.2813,1538.3594 1116.0781,1538.3594 Z " fill="#000000"/><text fill="#000000" font-family="sans-serif" font-size="14" lengthAdjust="spacing" textLength="126" x="1131.5" y="1539.4839">EmitAssemblyAction</text><line style="stroke:#181818;stroke-width:0.5;" x1="1103.5" x2="1259.5" y1="1549" y2="1549"/><line style="stroke:#181818;stroke-width:0.5;" x1="1103.5" x2="1259.5" y1="1557" y2="1557"/><rect fill="#F24D5C" height="6" style="stroke:#C82930;stroke-width:1.0;" width="6" x="1110.5" y="1569.0601"/><text fill="#000000" font-family="sans-serif" font-size="14" lengthAdjust="spacing" textLength="96" x="1122.5" y="1577.0439">virtual anchor()</text></g><!--reverse link FrontendAction to ASTFrontendAction--><g id="link_FrontendAction_ASTFrontendAction"><path codeLine="115" d="M1049.44,681.11 C1013.87,756.66 980.68,827.16 960.5,870.03 " fill="none" id="FrontendAction-backto-ASTFrontendAction" style="stroke:#181818;stroke-width:1.0;"/><polygon fill="none" points="1043.03,678.29,1057.88,663.17,1055.7,684.25,1043.03,678.29" style="stroke:#181818;stroke-width:1.0;"/></g><!--reverse link FrontendAction to PreprocessorFrontendAction--><g id="link_FrontendAction_PreprocessorFrontendAction"><path codeLine="116" d="M1206.5,707.77 C1206.5,773.15 1206.5,832.5 1206.5,870.26 " fill="none" id="FrontendAction-backto-PreprocessorFrontendAction" style="stroke:#181818;stroke-width:1.0;"/><polygon fill="none" points="1199.5,707.87,1206.5,687.87,1213.5,707.87,1199.5,707.87" style="stroke:#181818;stroke-width:1.0;"/></g><!--reverse link FrontendAction to WrapperFrontendAction--><g id="link_FrontendAction_WrapperFrontendAction"><path codeLine="117" d="M1364.82,624.43 C1388.55,665.94 1412.37,707.61 1434.23,745.85 " fill="none" id="FrontendAction-backto-WrapperFrontendAction" style="stroke:#181818;stroke-width:1.0;"/><polygon fill="none" points="1358.89,628.18,1355.04,607.34,1371.05,621.23,1358.89,628.18" style="stroke:#181818;stroke-width:1.0;"/></g><!--reverse link ASTFrontendAction to CodeGenAction--><g id="link_ASTFrontendAction_CodeGenAction"><path codeLine="118" d="M910.78,975.77 C889.17,1020.32 858.89,1082.76 830.73,1140.82 " fill="none" id="ASTFrontendAction-backto-CodeGenAction" style="stroke:#181818;stroke-width:1.0;"/><polygon fill="none" points="904.38,972.94,919.4,958,916.97,979.05,904.38,972.94" style="stroke:#181818;stroke-width:1.0;"/></g><!--reverse link CodeGenAction to EmitLLVMAction--><g id="link_CodeGenAction_EmitLLVMAction"><path codeLine="119" d="M522.84,1457.3 C447.11,1493.3 421.06,1491.06 349.5,1517 C343.71,1519.1 337.71,1521.31 331.7,1523.56 " fill="none" id="CodeGenAction-backto-EmitLLVMAction" style="stroke:#181818;stroke-width:1.0;"/><polygon fill="none" points="519.66,1451.06,540.7,1448.53,525.83,1463.63,519.66,1451.06" style="stroke:#181818;stroke-width:1.0;"/></g><!--reverse link CodeGenAction to EmitLLVMOnlyAction--><g id="link_CodeGenAction_EmitLLVMOnlyAction"><path codeLine="120" d="M545.18,1470.67 C524.12,1487.85 504.71,1503.67 488.9,1516.56 " fill="none" id="CodeGenAction-backto-EmitLLVMOnlyAction" style="stroke:#181818;stroke-width:1.0;"/><polygon fill="none" points="540.48,1465.47,560.4,1458.26,549.32,1476.32,540.48,1465.47" style="stroke:#181818;stroke-width:1.0;"/></g><!--reverse link CodeGenAction to EmitCodeGenOnlyAction--><g id="link_CodeGenAction_EmitCodeGenOnlyAction"><path codeLine="121" d="M687.01,1477.25 C681.4,1491.97 676.25,1505.5 671.96,1516.77 " fill="none" id="CodeGenAction-backto-EmitCodeGenOnlyAction" style="stroke:#181818;stroke-width:1.0;"/><polygon fill="none" points="680.41,1474.92,694.07,1458.72,693.49,1479.9,680.41,1474.92" style="stroke:#181818;stroke-width:1.0;"/></g><!--reverse link CodeGenAction to EmitObjAction--><g id="link_CodeGenAction_EmitObjAction"><path codeLine="122" d="M821.99,1477.25 C827.6,1491.97 832.75,1505.5 837.04,1516.77 " fill="none" id="CodeGenAction-backto-EmitObjAction" style="stroke:#181818;stroke-width:1.0;"/><polygon fill="none" points="815.51,1479.9,814.93,1458.72,828.59,1474.92,815.51,1479.9" style="stroke:#181818;stroke-width:1.0;"/></g><!--reverse link CodeGenAction to EmitBCAction--><g id="link_CodeGenAction_EmitBCAction"><path codeLine="123" d="M928.47,1472.25 C945.3,1488.91 960.78,1504.24 973.44,1516.77 " fill="none" id="CodeGenAction-backto-EmitBCAction" style="stroke:#181818;stroke-width:1.0;"/><polygon fill="none" points="923.74,1477.42,914.46,1458.37,933.59,1467.47,923.74,1477.42" style="stroke:#181818;stroke-width:1.0;"/></g><!--reverse link CodeGenAction to EmitAssemblyAction--><g id="link_CodeGenAction_EmitAssemblyAction"><path codeLine="124" d="M985.39,1457.2 C1032.86,1483.67 1071.52,1502.01 1104.28,1516.7 " fill="none" id="CodeGenAction-backto-EmitAssemblyAction" style="stroke:#181818;stroke-width:1.0;"/><polygon fill="none" points="982.02,1463.34,968.07,1447.39,988.92,1451.16,982.02,1463.34" style="stroke:#181818;stroke-width:1.0;"/></g><!--reverse link ASTFrontendAction to PluginASTAction--><g id="link_ASTFrontendAction_PluginASTAction"><path codeLine="125" d="M970.42,975.86 C1006.9,1050.67 1067.9,1175.78 1102.16,1246.04 " fill="none" id="ASTFrontendAction-backto-PluginASTAction" style="stroke:#181818;stroke-width:1.0;"/><polygon fill="none" points="964.18,979.04,961.71,958,976.77,972.91,964.18,979.04" style="stroke:#181818;stroke-width:1.0;"/></g><!--SRC=[dLRBRXCn5DtdAon5GhIbY0MhKQdKH2b4jAGYeIoHCtEJ3FNOWnzj4I1LOi625H9YWSGImGu-e19VKrh-0iyh6Jyc9MINUu_lm_VutC64i9CaFetfj8N7Gd8SIhJB6PL0evrGneoYLosaVvjTnJbGsQUfai4Sa__TZGaOe9tXw0cDDKp8A0WKZLyeU9PAlbKwjWjqdmg9QGW1wh8arK5uPLalmt704fvodAOGwRDTHeLAWDzSo_tjuvXBXGawu91Y3YFMEuLGIIWgjr55D2CCkeVkcA0EJ6FQfySinBuOkNl850yXwzgVoAh2JTAZqNKnn8mf4lKu5Z1GihnaKQ8sfY3jAwjSejaLYt8-UThXg1wjDbtNdE7zrW7lgCa4-2ESD20UnZHoFIKHNCS-YzGYcSH7u3yX_3LNrnSB7GZ80UP2SzkuuZb62H0PSpWBGGZ61vIyh4rhZjF5ZJYcWkICo8gezrIXPbWST1yCLPeoBZrENNzs7Ss0_kDcNrStaqsLG5Q2XRFPNzajhbPc2-Nbf7Q-QIqK8QlT9mfjW-a1OiV0UHmLOh3Xkzy5f1x_W2XTgivYIavLckRmZ5MFViFtZAketk4LGKSlKxkjUd7-_fRbQcwo3ghdAuIi8LMbSkLLsiff7Ye4jDsaUsQDrtVHTbJFvtSboq8jhy8Ys39lGuGcJLnn99NYU1-r1RDUjUkrdxMBgBrhrzdmi0t-X0GBWJBaVQ3c2z7_0gIeYASKei8qca6XeIw723bEWg3mbYjuBwP7XK44Q9XWGWuXb8nlBHotqDqIVBZVpKXugdCMeVRsvgPoOmzEgAZ1neoHma4OZWnjRo-x6fUola-9ohVz_ppqO_AzuswYMhl68iu70npBXKXrUbLn0UhWy4Y_tCgmdisKCWc8m4GYDZ576mI-ZvW41FvpzldgrxkhdsylFtwtL_njyr0lYMLMRKRzmdHZxVUNhnVdPnVVtb-UVxhwyQ6bIq9P6IM_gYDrWhaAFAUZc-6VZfIjhdXgC7w-0hhJNG6y8mGau-khiKHxw_NcfhiMlQZcBUE5UvT4ozt0ETXWJikKY1nWJdKPOZ6I9fGpkoRWV5nDW6f2JNvpA4tDMryDhRy0]--></g></svg>