<?xml version="1.0" encoding="UTF-8" standalone="no"?><svg xmlns="http://www.w3.org/2000/svg" xmlns:xlink="http://www.w3.org/1999/xlink" contentStyleType="text/css" height="387px" preserveAspectRatio="none" style="width:911px;height:387px;background:#FFFFFF;" version="1.1" viewBox="0 0 911 387" width="911px" zoomAndPan="magnify"><defs/><g><!--class Sema--><g id="elem_Sema"><rect codeLine="1" fill="#F1F1F1" height="373.042" id="Sema" rx="2.5" ry="2.5" style="stroke:#181818;stroke-width:0.5;" width="246" x="361" y="7"/><ellipse cx="461.75" cy="23" fill="#ADD1B2" rx="11" ry="11" style="stroke:#181818;stroke-width:1.0;"/><path d="M460.3281,28.3594 Q458.4688,28.3594 457.375,26.9688 Q456.2813,25.5781 456.2813,22.5938 Q456.2813,20.0625 457.4453,18.4063 Q458.6094,16.75 460.5938,16.75 Q462.0625,16.75 462.5313,16.875 Q463,17.0781 463,17.0781 Q463,17.0781 463,17.0078 Q463,16.9375 463.6094,16.0156 L464.6563,19.6719 L463.3281,20.0781 Q462.8594,18.5313 462.1953,17.8672 Q461.5313,17.2031 460.4688,17.2031 Q460.0781,17.2031 459.3125,18.7344 Q458.5469,20.2656 458.5469,22.5156 Q458.5469,24.9844 459.2109,26.375 Q459.875,27.7656 460.4063,27.7656 Q461.4688,27.7656 462.2266,27 Q462.9844,26.2344 463.3281,24.5781 L464.6563,25.1719 Q464.3281,26.5781 463.4297,27.4688 Q462.5313,28.3594 460.3281,28.3594 Z " fill="#000000"/><text fill="#000000" font-family="sans-serif" font-size="14" lengthAdjust="spacing" textLength="36" x="482.25" y="29.4839">Sema</text><line style="stroke:#181818;stroke-width:0.5;" x1="362" x2="606" y1="39" y2="39"/><ellipse cx="372" cy="54.0601" fill="none" rx="3" ry="3" style="stroke:#038048;stroke-width:1.0;"/><text fill="#000000" font-family="sans-serif" font-size="14" lengthAdjust="spacing" textLength="220" x="381" y="59.0439">OpenCLFeatures: OpenCLOptions</text><ellipse cx="372" cy="73.1802" fill="none" rx="3" ry="3" style="stroke:#038048;stroke-width:1.0;"/><text fill="#000000" font-family="sans-serif" font-size="14" lengthAdjust="spacing" textLength="160" x="381" y="78.1641">LangOpts: LangOptions&amp;</text><ellipse cx="372" cy="92.3003" fill="none" rx="3" ry="3" style="stroke:#038048;stroke-width:1.0;"/><text fill="#000000" font-family="sans-serif" font-size="14" lengthAdjust="spacing" textLength="131" x="381" y="97.2842">Context: ASTContext</text><ellipse cx="372" cy="111.4204" fill="none" rx="3" ry="3" style="stroke:#038048;stroke-width:1.0;"/><text fill="#000000" font-family="sans-serif" font-size="14" lengthAdjust="spacing" textLength="174" x="381" y="116.4043">Consumer: ASTConsumer&amp;</text><ellipse cx="372" cy="130.5405" fill="none" rx="3" ry="3" style="stroke:#038048;stroke-width:1.0;"/><text fill="#000000" font-family="sans-serif" font-size="14" lengthAdjust="spacing" textLength="170" x="381" y="135.5244">Diags: DiagnosticsEngine&amp;</text><ellipse cx="372" cy="149.6606" fill="none" rx="3" ry="3" style="stroke:#038048;stroke-width:1.0;"/><text fill="#000000" font-family="sans-serif" font-size="14" lengthAdjust="spacing" textLength="187" x="381" y="154.6445">SourceMgr: SourceManager&amp;</text><rect fill="none" height="6" style="stroke:#C82930;stroke-width:1.0;" width="6" x="369" y="165.7808"/><text fill="#000000" font-family="sans-serif" font-size="14" lengthAdjust="spacing" textLength="155" x="381" y="173.7646">CurContext: DeclContext</text><line style="stroke:#181818;stroke-width:0.5;" x1="362" x2="606" y1="180.8408" y2="180.8408"/><ellipse cx="372" cy="195.9009" fill="#84BE84" rx="3" ry="3" style="stroke:#038048;stroke-width:1.0;"/><text fill="#000000" font-family="sans-serif" font-size="14" lengthAdjust="spacing" textLength="59" x="381" y="200.8848">Initialize()</text><ellipse cx="372" cy="215.021" fill="#84BE84" rx="3" ry="3" style="stroke:#038048;stroke-width:1.0;"/><text fill="#000000" font-family="sans-serif" font-size="14" lengthAdjust="spacing" textLength="189" x="381" y="220.0049">ActOnStartOfTranslationUnit()</text><ellipse cx="372" cy="234.1411" fill="#84BE84" rx="3" ry="3" style="stroke:#038048;stroke-width:1.0;"/><text fill="#000000" font-family="sans-serif" font-size="14" lengthAdjust="spacing" textLength="184" x="381" y="239.125">ActOnEndOfTranslationUnit()</text><ellipse cx="372" cy="253.2612" fill="#84BE84" rx="3" ry="3" style="stroke:#038048;stroke-width:1.0;"/><text fill="#000000" font-family="sans-serif" font-size="14" lengthAdjust="spacing" textLength="71" x="381" y="258.2451">PrintStats()</text><ellipse cx="372" cy="272.3813" fill="#84BE84" rx="3" ry="3" style="stroke:#038048;stroke-width:1.0;"/><text fill="#000000" font-family="sans-serif" font-size="14" lengthAdjust="spacing" textLength="151" x="381" y="277.3652">EmitCurrentDiagnostic()</text><ellipse cx="372" cy="291.5015" fill="#84BE84" rx="3" ry="3" style="stroke:#038048;stroke-width:1.0;"/><text fill="#000000" font-family="sans-serif" font-size="14" lengthAdjust="spacing" textLength="140" x="381" y="296.4854">getScopeForContext()</text><ellipse cx="372" cy="310.6216" fill="#84BE84" rx="3" ry="3" style="stroke:#038048;stroke-width:1.0;"/><text fill="#000000" font-family="sans-serif" font-size="14" lengthAdjust="spacing" textLength="137" x="381" y="315.6055">PushFunctionScope()</text><ellipse cx="372" cy="329.7417" fill="#84BE84" rx="3" ry="3" style="stroke:#038048;stroke-width:1.0;"/><text fill="#000000" font-family="sans-serif" font-size="14" lengthAdjust="spacing" textLength="133" x="381" y="334.7256">PushLambdaScope()</text><ellipse cx="372" cy="348.8618" fill="#84BE84" rx="3" ry="3" style="stroke:#038048;stroke-width:1.0;"/><text fill="#000000" font-family="sans-serif" font-size="14" lengthAdjust="spacing" textLength="109" x="381" y="353.8457">ActOnComment()</text><ellipse cx="372" cy="367.9819" fill="#84BE84" rx="3" ry="3" style="stroke:#038048;stroke-width:1.0;"/><text fill="#000000" font-family="sans-serif" font-size="14" lengthAdjust="spacing" textLength="193" x="381" y="372.9658">setOpenCLExtensionForDecl()</text></g><path d="M6,23.5 L6,51.2544 A0,0 0 0 0 6,51.2544 L139,51.2544 A0,0 0 0 0 139,51.2544 L139,41.5 L365,52.5601 L139,33.5 L139,33.5 L129,23.5 L6,23.5 A0,0 0 0 0 6,23.5 " fill="#FEFFDD" style="stroke:#181818;stroke-width:0.5;"/><path d="M129,23.5 L129,33.5 L139,33.5 L129,23.5 " fill="#FEFFDD" style="stroke:#181818;stroke-width:0.5;"/><text fill="#000000" font-family="sans-serif" font-size="13" lengthAdjust="spacing" textLength="112" x="12" y="43.3979">OpenCL支持的特性</text><path d="M6,61.2544 L6,89.0088 A0,0 0 0 0 6,89.0088 L300,89.0088 A0,0 0 0 0 300,89.0088 L300,79.2544 L365,90.8003 L300,71.2544 L300,71.2544 L290,61.2544 L6,61.2544 A0,0 0 0 0 6,61.2544 " fill="#FEFFDD" style="stroke:#181818;stroke-width:0.5;"/><path d="M290,61.2544 L290,71.2544 L300,71.2544 L290,61.2544 " fill="#FEFFDD" style="stroke:#181818;stroke-width:0.5;"/><text fill="#000000" font-family="sans-serif" font-size="13" lengthAdjust="spacing" textLength="273" x="12" y="81.1523">语法树上下文，包含着所有和语法树相关的信息</text><path d="M6,99.0088 L6,126.7632 A0,0 0 0 0 6,126.7632 L79,126.7632 A0,0 0 0 0 79,126.7632 L79,117.0088 L365,129.0405 L79,109.0088 L79,109.0088 L69,99.0088 L6,99.0088 A0,0 0 0 0 6,99.0088 " fill="#FEFFDD" style="stroke:#181818;stroke-width:0.5;"/><path d="M69,99.0088 L69,109.0088 L79,109.0088 L69,99.0088 " fill="#FEFFDD" style="stroke:#181818;stroke-width:0.5;"/><text fill="#000000" font-family="sans-serif" font-size="13" lengthAdjust="spacing" textLength="52" x="12" y="118.9067">调试引擎</text><path d="M6,136.7632 L6,164.5176 A0,0 0 0 0 6,164.5176 L131,164.5176 A0,0 0 0 0 131,164.5176 L131,154.7632 L365,167.2808 L131,146.7632 L131,146.7632 L121,136.7632 L6,136.7632 A0,0 0 0 0 6,136.7632 " fill="#FEFFDD" style="stroke:#181818;stroke-width:0.5;"/><path d="M121,136.7632 L121,146.7632 L131,146.7632 L121,136.7632 " fill="#FEFFDD" style="stroke:#181818;stroke-width:0.5;"/><text fill="#000000" font-family="sans-serif" font-size="13" lengthAdjust="spacing" textLength="104" x="12" y="156.6611">当前声明的上下午</text><path d="M6,174.5176 L6,202.272 A0,0 0 0 0 6,202.272 L313,202.272 A0,0 0 0 0 313,202.272 L313,192.5176 L365,213.521 L313,184.5176 L313,184.5176 L303,174.5176 L6,174.5176 A0,0 0 0 0 6,174.5176 " fill="#FEFFDD" style="stroke:#181818;stroke-width:0.5;"/><path d="M303,174.5176 L303,184.5176 L313,184.5176 L303,174.5176 " fill="#FEFFDD" style="stroke:#181818;stroke-width:0.5;"/><text fill="#000000" font-family="sans-serif" font-size="13" lengthAdjust="spacing" textLength="286" x="12" y="194.4155">在开始翻译单元解析之前被调用，初始化一些成员</text><path d="M6,212.272 L6,240.0264 A0,0 0 0 0 6,240.0264 L326,240.0264 A0,0 0 0 0 326,240.0264 L326,230.272 L365,251.7612 L326,222.272 L326,222.272 L316,212.272 L6,212.272 A0,0 0 0 0 6,212.272 " fill="#FEFFDD" style="stroke:#181818;stroke-width:0.5;"/><path d="M316,212.272 L316,222.272 L326,222.272 L316,212.272 " fill="#FEFFDD" style="stroke:#181818;stroke-width:0.5;"/><text fill="#000000" font-family="sans-serif" font-size="13" lengthAdjust="spacing" textLength="299" x="12" y="232.1699">打印编译时的详细信息，如多少函数、文件被解析等</text><path d="M6,250.0264 L6,277.7808 A0,0 0 0 0 6,277.7808 L170,277.7808 A0,0 0 0 0 170,277.7808 L170,268.0264 L365,290.0015 L170,260.0264 L170,260.0264 L160,250.0264 L6,250.0264 A0,0 0 0 0 6,250.0264 " fill="#FEFFDD" style="stroke:#181818;stroke-width:0.5;"/><path d="M160,250.0264 L160,260.0264 L170,260.0264 L160,250.0264 " fill="#FEFFDD" style="stroke:#181818;stroke-width:0.5;"/><text fill="#000000" font-family="sans-serif" font-size="13" lengthAdjust="spacing" textLength="143" x="12" y="269.9243">获取当前上下文所在的域</text><path d="M6,287.7808 L6,315.5352 A0,0 0 0 0 6,315.5352 L170,315.5352 A0,0 0 0 0 170,315.5352 L170,305.7808 L365,328.2417 L170,297.7808 L170,297.7808 L160,287.7808 L6,287.7808 A0,0 0 0 0 6,287.7808 " fill="#FEFFDD" style="stroke:#181818;stroke-width:0.5;"/><path d="M160,287.7808 L160,297.7808 L170,297.7808 L160,287.7808 " fill="#FEFFDD" style="stroke:#181818;stroke-width:0.5;"/><text fill="#000000" font-family="sans-serif" font-size="13" lengthAdjust="spacing" textLength="143" x="12" y="307.6787">将拉姆达表达式推送进栈</text><path d="M6,325.5352 L6,353.2896 A0,0 0 0 0 6,353.2896 L152,353.2896 A0,0 0 0 0 152,353.2896 L152,343.5352 L365,366.4819 L152,335.5352 L152,335.5352 L142,325.5352 L6,325.5352 A0,0 0 0 0 6,325.5352 " fill="#FEFFDD" style="stroke:#181818;stroke-width:0.5;"/><path d="M142,325.5352 L142,335.5352 L152,335.5352 L142,325.5352 " fill="#FEFFDD" style="stroke:#181818;stroke-width:0.5;"/><text fill="#000000" font-family="sans-serif" font-size="13" lengthAdjust="spacing" textLength="125" x="12" y="345.4331">设置OpenCL相关扩展</text><path d="M642,42.5 L642,52.3772 L541,71.6802 L642,60.3772 L642,70.2544 A0,0 0 0 0 642,70.2544 L780,70.2544 A0,0 0 0 0 780,70.2544 L780,52.5 L770,42.5 L642,42.5 A0,0 0 0 0 642,42.5 " fill="#FEFFDD" style="stroke:#181818;stroke-width:0.5;"/><path d="M770,42.5 L770,52.5 L780,52.5 L770,42.5 " fill="#FEFFDD" style="stroke:#181818;stroke-width:0.5;"/><text fill="#000000" font-family="sans-serif" font-size="13" lengthAdjust="spacing" textLength="117" x="648" y="62.3979">编译语言的编译选项</text><path d="M642,80.2544 L642,90.1316 L555,109.9204 L642,98.1316 L642,108.0088 A0,0 0 0 0 642,108.0088 L904,108.0088 A0,0 0 0 0 904,108.0088 L904,90.2544 L894,80.2544 L642,80.2544 A0,0 0 0 0 642,80.2544 " fill="#FEFFDD" style="stroke:#181818;stroke-width:0.5;"/><path d="M894,80.2544 L894,90.2544 L904,90.2544 L894,80.2544 " fill="#FEFFDD" style="stroke:#181818;stroke-width:0.5;"/><text fill="#000000" font-family="sans-serif" font-size="13" lengthAdjust="spacing" textLength="241" x="648" y="100.1523">语法树的Consumer，用来遍历分析语法树</text><path d="M642,118.0088 L642,127.886 L568,148.1606 L642,135.886 L642,145.7632 A0,0 0 0 0 642,145.7632 L728,145.7632 A0,0 0 0 0 728,145.7632 L728,128.0088 L718,118.0088 L642,118.0088 A0,0 0 0 0 642,118.0088 " fill="#FEFFDD" style="stroke:#181818;stroke-width:0.5;"/><path d="M718,118.0088 L718,128.0088 L728,128.0088 L718,118.0088 " fill="#FEFFDD" style="stroke:#181818;stroke-width:0.5;"/><text fill="#000000" font-family="sans-serif" font-size="13" lengthAdjust="spacing" textLength="65" x="648" y="137.9067">文件管理器</text><path d="M642,155.7632 L642,165.6404 L440,194.4009 L642,173.6404 L642,183.5176 A0,0 0 0 0 642,183.5176 L762,183.5176 A0,0 0 0 0 762,183.5176 L762,165.7632 L752,155.7632 L642,155.7632 A0,0 0 0 0 642,155.7632 " fill="#FEFFDD" style="stroke:#181818;stroke-width:0.5;"/><path d="M752,155.7632 L752,165.7632 L762,165.7632 L752,155.7632 " fill="#FEFFDD" style="stroke:#181818;stroke-width:0.5;"/><text fill="#000000" font-family="sans-serif" font-size="13" lengthAdjust="spacing" textLength="99" x="648" y="175.6611">初始化Sema对象</text><path d="M642,193.5176 L642,203.3948 L565,232.6411 L642,211.3948 L642,221.272 A0,0 0 0 0 642,221.272 L832,221.272 A0,0 0 0 0 832,221.272 L832,203.5176 L822,193.5176 L642,193.5176 A0,0 0 0 0 642,193.5176 " fill="#FEFFDD" style="stroke:#181818;stroke-width:0.5;"/><path d="M822,193.5176 L822,203.5176 L832,203.5176 L822,193.5176 " fill="#FEFFDD" style="stroke:#181818;stroke-width:0.5;"/><text fill="#000000" font-family="sans-serif" font-size="13" lengthAdjust="spacing" textLength="169" x="648" y="213.4155">在翻译单元解析完之后被调用</text><path d="M642,231.272 L642,241.1492 L532,270.8813 L642,249.1492 L642,259.0264 A0,0 0 0 0 642,259.0264 L845,259.0264 A0,0 0 0 0 845,259.0264 L845,241.272 L835,231.272 L642,231.272 A0,0 0 0 0 642,231.272 " fill="#FEFFDD" style="stroke:#181818;stroke-width:0.5;"/><path d="M835,231.272 L835,241.272 L845,241.272 L835,231.272 " fill="#FEFFDD" style="stroke:#181818;stroke-width:0.5;"/><text fill="#000000" font-family="sans-serif" font-size="13" lengthAdjust="spacing" textLength="182" x="648" y="251.1699">输出当前诊断引擎中保存的信息</text><path d="M642,269.0264 L642,278.9036 L518,309.1216 L642,286.9036 L642,296.7808 A0,0 0 0 0 642,296.7808 L793,296.7808 A0,0 0 0 0 793,296.7808 L793,279.0264 L783,269.0264 L642,269.0264 A0,0 0 0 0 642,269.0264 " fill="#FEFFDD" style="stroke:#181818;stroke-width:0.5;"/><path d="M783,269.0264 L783,279.0264 L793,279.0264 L783,269.0264 " fill="#FEFFDD" style="stroke:#181818;stroke-width:0.5;"/><text fill="#000000" font-family="sans-serif" font-size="13" lengthAdjust="spacing" textLength="130" x="648" y="288.9243">将函数作用域推送进栈</text><path d="M642,306.7808 L642,316.658 L490,347.3618 L642,324.658 L642,334.5352 A0,0 0 0 0 642,334.5352 L767,334.5352 A0,0 0 0 0 767,334.5352 L767,316.7808 L757,306.7808 L642,306.7808 A0,0 0 0 0 642,306.7808 " fill="#FEFFDD" style="stroke:#181818;stroke-width:0.5;"/><path d="M757,306.7808 L757,316.7808 L767,316.7808 L757,306.7808 " fill="#FEFFDD" style="stroke:#181818;stroke-width:0.5;"/><text fill="#000000" font-family="sans-serif" font-size="13" lengthAdjust="spacing" textLength="104" x="648" y="326.6787">处理注释相关信息</text><!--SRC=[ZLJTJXf15BxVf-2gQTFq1RWpg4aJ6vjW7s2B8su2isPtI4oR9ajLP1KGgb2hKgLQeJ7y61CBYl0mtJCxNFKLEikmgzIoAHVBp9nplk_yHsAohWV2A2w_bmByztn-1U7Gt2oIIK93UZ0WxlChH56nBbJcP1pb3rmuEZcY9q8MKZ51goGOc0elZCwUG4_4aUPAXfUHqRGYHpcQyuTLdIWHVGP75On6uh2Qq2BeLPJRZeuobgEkzOjGGlDOfr4aDaRx4Yj4aMFAE_JqcNYPYf1v72QoHkQN5ZGPwp7P2U0DLnnJcS6B4nLUQmec78FexijCN27S4GrXSX-6AumY4eweAsXMTJtrW1Bwycm2Hno2eSf3mPmSVxieZpqFFGkfyJZdSTzqH4IHPbO9mZf7uZnE8hZ21mch10LYQ8a4rALXdOF1yH9BuahtcZIJj0_MRRD3ZQg4y6B0iHK0cX9TVe3WTe1aTqkiMM3DEgiPZktmEZ3CGQNp5yAu2swDk2MzAjAJWjNUijhRjBJvkvk1p0RaB-ooGKs37fdmAUEfsOTjsBZYJ5Q_GfDDVo_TBhjduORk8-Unzsgq_7sGp48k1UaK_Pht57sT7xQhn5fhh5c4Rf7kvlpzyFfNul5PjzTsesBdK_2bvfyYhwqbkDi5CmkdBRgVSs8VvWgoQN_Q-zQN85s6wZPaIeu4cXrsMV7bzfaH2Ovgq3KudDs_vSM6R14srbZrbAVFwcnpFzct2vuRdbodb2wnrJQicqEQpaDXtz_jYSFdC3_cX4R6eStdF5hVoEudLwBcBcHRecNfvskUMDOyjszJehKSvyy_mja1j0gmUKUBhLz6KjJFOHfostNJFvP_RWM9zNPXyqOKbJMtQAakkiXgrwr-6Uhxa_fxF9J7MqLYkP-mKnB8taJnAN8oTx0EnyV-xZxQHXAqKY9uw-w8fvOZq5njO2HP_v2UfFqpFRx172YwRK8rnNezLgdnBtHtVD3-rHQZpIV1sJgV87fL6snkYPNm7_cQk2SbrkZPTmqX573K_06NHG_k3m00]--></g></svg>