<?xml version="1.0" encoding="UTF-8" standalone="no"?>
<!DOCTYPE svg PUBLIC "-//W3C//DTD SVG 1.1//EN" "http://www.w3.org/Graphics/SVG/1.1/DTD/svg11.dtd">
<!-- 由 Microsoft Visio, SVG Export 生成 连通图1.svg 页-1 -->
<svg xmlns="http://www.w3.org/2000/svg" xmlns:xlink="http://www.w3.org/1999/xlink" xmlns:ev="http://www.w3.org/2001/xml-events"
		xmlns:v="http://schemas.microsoft.com/visio/2003/SVGExtensions/" width="6.86245in" height="4.94261in"
		viewBox="0 0 494.096 355.868" xml:space="preserve" color-interpolation-filters="sRGB" class="st6">
	<v:documentProperties v:langID="2052" v:metric="true" v:viewMarkup="false"/>

	<style type="text/css">
	<![CDATA[
		.st1 {fill:#ffffff;stroke:#000000;stroke-linecap:round;stroke-linejoin:round;stroke-width:0.75}
		.st2 {fill:#000000;font-family:Calibri;font-size:0.833336em}
		.st3 {stroke:#000000;stroke-linecap:round;stroke-linejoin:round;stroke-width:0.75}
		.st4 {fill:none;stroke:none;stroke-linecap:round;stroke-linejoin:round;stroke-width:0.75}
		.st5 {fill:#000000;font-family:Calibri;font-size:1.00001em}
		.st6 {fill:none;fill-rule:evenodd;font-size:12px;overflow:visible;stroke-linecap:square;stroke-miterlimit:3}
	]]>
	</style>

	<g v:mID="0" v:index="1" v:groupContext="foregroundPage">
		<title>页-1</title>
		<v:pageProperties v:drawingScale="0.0393701" v:pageScale="0.0393701" v:drawingUnits="24" v:shadowOffsetX="8.50394"
				v:shadowOffsetY="-8.50394"/>
		<g id="shape1-1" v:mID="1" v:groupContext="shape" transform="translate(99.5876,-297.442)">
			<title>椭圆形.224</title>
			<desc>A</desc>
			<v:userDefs>
				<v:ud v:nameU="visVersion" v:val="VT0(15):26"/>
			</v:userDefs>
			<v:textBlock v:margins="rect(4,4,4,4)" v:tabSpace="42.5197"/>
			<v:textRect cx="26.6929" cy="338.073" width="46.72" height="31.1417"/>
			<path d="M0 338.07 A26.6929 17.7953 0 0 1 53.39 338.07 A26.6929 17.7953 0 1 1 0 338.07 Z" class="st1"/>
			<text x="23.8" y="341.07" class="st2" v:langID="2052"><v:paragraph v:horizAlign="1"/><v:tabList/>A</text>		</g>
		<g id="shape2-4" v:mID="2" v:groupContext="shape" transform="translate(0.375,-254.135)">
			<title>椭圆形.225</title>
			<desc>B</desc>
			<v:userDefs>
				<v:ud v:nameU="visVersion" v:val="VT0(15):26"/>
			</v:userDefs>
			<v:textBlock v:margins="rect(4,4,4,4)" v:tabSpace="42.5197"/>
			<v:textRect cx="26.6929" cy="338.073" width="46.72" height="31.1417"/>
			<path d="M0 338.07 A26.6929 17.7953 0 0 1 53.39 338.07 A26.6929 17.7953 0 1 1 0 338.07 Z" class="st1"/>
			<text x="23.97" y="341.07" class="st2" v:langID="2052"><v:paragraph v:horizAlign="1"/><v:tabList/>B</text>		</g>
		<g id="shape3-7" v:mID="3" v:groupContext="shape" transform="translate(99.5876,-206.3)">
			<title>椭圆形.226</title>
			<desc>C</desc>
			<v:userDefs>
				<v:ud v:nameU="visVersion" v:val="VT0(15):26"/>
			</v:userDefs>
			<v:textBlock v:margins="rect(4,4,4,4)" v:tabSpace="42.5197"/>
			<v:textRect cx="26.6929" cy="338.073" width="46.72" height="31.1417"/>
			<path d="M0 338.07 A26.6929 17.7953 0 0 1 53.39 338.07 A26.6929 17.7953 0 1 1 0 338.07 Z" class="st1"/>
			<text x="24.03" y="341.07" class="st2" v:langID="2052"><v:paragraph v:horizAlign="1"/><v:tabList/>C</text>		</g>
		<g id="shape4-10" v:mID="4" v:groupContext="shape" transform="translate(211.32,-254.135)">
			<title>椭圆形.227</title>
			<desc>D</desc>
			<v:userDefs>
				<v:ud v:nameU="visVersion" v:val="VT0(15):26"/>
			</v:userDefs>
			<v:textBlock v:margins="rect(4,4,4,4)" v:tabSpace="42.5197"/>
			<v:textRect cx="26.6929" cy="338.073" width="46.72" height="31.1417"/>
			<path d="M0 338.07 A26.6929 17.7953 0 0 1 53.39 338.07 A26.6929 17.7953 0 1 1 0 338.07 Z" class="st1"/>
			<text x="23.62" y="341.07" class="st2" v:langID="2052"><v:paragraph v:horizAlign="1"/><v:tabList/>D</text>		</g>
		<g id="shape5-13" v:mID="5" v:groupContext="shape" transform="translate(67.9341,-254.135)">
			<title>椭圆形.228</title>
			<desc>E</desc>
			<v:userDefs>
				<v:ud v:nameU="visVersion" v:val="VT0(15):26"/>
			</v:userDefs>
			<v:textBlock v:margins="rect(4,4,4,4)" v:tabSpace="42.5197"/>
			<v:textRect cx="26.6929" cy="338.073" width="46.72" height="31.1417"/>
			<path d="M0 338.07 A26.6929 17.7953 0 0 1 53.39 338.07 A26.6929 17.7953 0 1 1 0 338.07 Z" class="st1"/>
			<text x="24.25" y="341.07" class="st2" v:langID="2052"><v:paragraph v:horizAlign="1"/><v:tabList/>E</text>		</g>
		<g id="shape6-16" v:mID="6" v:groupContext="shape" transform="translate(135.493,-254.135)">
			<title>椭圆形.229</title>
			<desc>F</desc>
			<v:userDefs>
				<v:ud v:nameU="visVersion" v:val="VT0(15):26"/>
			</v:userDefs>
			<v:textBlock v:margins="rect(4,4,4,4)" v:tabSpace="42.5197"/>
			<v:textRect cx="26.6929" cy="338.073" width="46.72" height="31.1417"/>
			<path d="M0 338.07 A26.6929 17.7953 0 0 1 53.39 338.07 A26.6929 17.7953 0 1 1 0 338.07 Z" class="st1"/>
			<text x="24.4" y="341.07" class="st2" v:langID="2052"><v:paragraph v:horizAlign="1"/><v:tabList/>F</text>		</g>
		<g id="shape7-19" v:mID="7" v:groupContext="shape" transform="translate(381.399,-319.903)">
			<title>椭圆形.230</title>
			<desc>A</desc>
			<v:userDefs>
				<v:ud v:nameU="visVersion" v:val="VT0(15):26"/>
			</v:userDefs>
			<v:textBlock v:margins="rect(4,4,4,4)" v:tabSpace="42.5197"/>
			<v:textRect cx="26.6929" cy="338.073" width="46.72" height="31.1417"/>
			<path d="M0 338.07 A26.6929 17.7953 0 0 1 53.39 338.07 A26.6929 17.7953 0 1 1 0 338.07 Z" class="st1"/>
			<text x="23.8" y="341.07" class="st2" v:langID="2052"><v:paragraph v:horizAlign="1"/><v:tabList/>A</text>		</g>
		<g id="shape8-22" v:mID="8" v:groupContext="shape" transform="translate(323.052,-276.595)">
			<title>椭圆形.231</title>
			<desc>B</desc>
			<v:userDefs>
				<v:ud v:nameU="visVersion" v:val="VT0(15):26"/>
			</v:userDefs>
			<v:textBlock v:margins="rect(4,4,4,4)" v:tabSpace="42.5197"/>
			<v:textRect cx="26.6929" cy="338.073" width="46.72" height="31.1417"/>
			<path d="M0 338.07 A26.6929 17.7953 0 0 1 53.39 338.07 A26.6929 17.7953 0 1 1 0 338.07 Z" class="st1"/>
			<text x="23.97" y="341.07" class="st2" v:langID="2052"><v:paragraph v:horizAlign="1"/><v:tabList/>B</text>		</g>
		<g id="shape9-25" v:mID="9" v:groupContext="shape" transform="translate(381.399,-248.249)">
			<title>椭圆形.232</title>
			<desc>C</desc>
			<v:userDefs>
				<v:ud v:nameU="visVersion" v:val="VT0(15):26"/>
			</v:userDefs>
			<v:textBlock v:margins="rect(4,4,4,4)" v:tabSpace="42.5197"/>
			<v:textRect cx="26.6929" cy="338.073" width="46.72" height="31.1417"/>
			<path d="M0 338.07 A26.6929 17.7953 0 0 1 53.39 338.07 A26.6929 17.7953 0 1 1 0 338.07 Z" class="st1"/>
			<text x="24.03" y="341.07" class="st2" v:langID="2052"><v:paragraph v:horizAlign="1"/><v:tabList/>C</text>		</g>
		<g id="shape10-28" v:mID="10" v:groupContext="shape" transform="translate(439.745,-280.218)">
			<title>椭圆形.233</title>
			<desc>D</desc>
			<v:userDefs>
				<v:ud v:nameU="visVersion" v:val="VT0(15):26"/>
			</v:userDefs>
			<v:textBlock v:margins="rect(4,4,4,4)" v:tabSpace="42.5197"/>
			<v:textRect cx="26.6929" cy="338.073" width="46.72" height="31.1417"/>
			<path d="M0 338.07 A26.6929 17.7953 0 0 1 53.39 338.07 A26.6929 17.7953 0 1 1 0 338.07 Z" class="st1"/>
			<text x="23.62" y="341.07" class="st2" v:langID="2052"><v:paragraph v:horizAlign="1"/><v:tabList/>D</text>		</g>
		<g id="shape11-31" v:mID="11" v:groupContext="shape" transform="translate(336.635,-205.414)">
			<title>椭圆形.234</title>
			<desc>E</desc>
			<v:userDefs>
				<v:ud v:nameU="visVersion" v:val="VT0(15):26"/>
			</v:userDefs>
			<v:textBlock v:margins="rect(4,4,4,4)" v:tabSpace="42.5197"/>
			<v:textRect cx="26.6929" cy="338.073" width="46.72" height="31.1417"/>
			<path d="M0 338.07 A26.6929 17.7953 0 0 1 53.39 338.07 A26.6929 17.7953 0 1 1 0 338.07 Z" class="st1"/>
			<text x="24.25" y="341.07" class="st2" v:langID="2052"><v:paragraph v:horizAlign="1"/><v:tabList/>E</text>		</g>
		<g id="shape12-34" v:mID="12" v:groupContext="shape" transform="translate(439.745,-205.414)">
			<title>椭圆形.235</title>
			<desc>F</desc>
			<v:userDefs>
				<v:ud v:nameU="visVersion" v:val="VT0(15):26"/>
			</v:userDefs>
			<v:textBlock v:margins="rect(4,4,4,4)" v:tabSpace="42.5197"/>
			<v:textRect cx="26.6929" cy="338.073" width="46.72" height="31.1417"/>
			<path d="M0 338.07 A26.6929 17.7953 0 0 1 53.39 338.07 A26.6929 17.7953 0 1 1 0 338.07 Z" class="st1"/>
			<text x="24.4" y="341.07" class="st2" v:langID="2052"><v:paragraph v:horizAlign="1"/><v:tabList/>F</text>		</g>
		<g id="shape13-37" v:mID="13" v:groupContext="shape" transform="translate(93.3277,-116.517)">
			<title>椭圆形.236</title>
			<desc>A</desc>
			<v:userDefs>
				<v:ud v:nameU="visVersion" v:val="VT0(15):26"/>
			</v:userDefs>
			<v:textBlock v:margins="rect(4,4,4,4)" v:tabSpace="42.5197"/>
			<v:textRect cx="26.6929" cy="338.073" width="46.72" height="31.1417"/>
			<path d="M0 338.07 A26.6929 17.7953 0 0 1 53.39 338.07 A26.6929 17.7953 0 1 1 0 338.07 Z" class="st1"/>
			<text x="23.8" y="341.07" class="st2" v:langID="2052"><v:paragraph v:horizAlign="1"/><v:tabList/>A</text>		</g>
		<g id="shape14-40" v:mID="14" v:groupContext="shape" transform="translate(33.3277,-70.272)">
			<title>椭圆形.237</title>
			<desc>B</desc>
			<v:userDefs>
				<v:ud v:nameU="visVersion" v:val="VT0(15):26"/>
			</v:userDefs>
			<v:textBlock v:margins="rect(4,4,4,4)" v:tabSpace="42.5197"/>
			<v:textRect cx="26.6929" cy="338.073" width="46.72" height="31.1417"/>
			<path d="M0 338.07 A26.6929 17.7953 0 0 1 53.39 338.07 A26.6929 17.7953 0 1 1 0 338.07 Z" class="st1"/>
			<text x="23.97" y="341.07" class="st2" v:langID="2052"><v:paragraph v:horizAlign="1"/><v:tabList/>B</text>		</g>
		<g id="shape15-43" v:mID="15" v:groupContext="shape" transform="translate(93.3277,-31.4774)">
			<title>椭圆形.238</title>
			<desc>C</desc>
			<v:userDefs>
				<v:ud v:nameU="visVersion" v:val="VT0(15):26"/>
			</v:userDefs>
			<v:textBlock v:margins="rect(4,4,4,4)" v:tabSpace="42.5197"/>
			<v:textRect cx="26.6929" cy="338.073" width="46.72" height="31.1417"/>
			<path d="M0 338.07 A26.6929 17.7953 0 0 1 53.39 338.07 A26.6929 17.7953 0 1 1 0 338.07 Z" class="st1"/>
			<text x="24.03" y="341.07" class="st2" v:langID="2052"><v:paragraph v:horizAlign="1"/><v:tabList/>C</text>		</g>
		<g id="shape16-46" v:mID="16" v:groupContext="shape" transform="translate(162.54,-70.272)">
			<title>椭圆形.239</title>
			<desc>D</desc>
			<v:userDefs>
				<v:ud v:nameU="visVersion" v:val="VT0(15):26"/>
			</v:userDefs>
			<v:textBlock v:margins="rect(4,4,4,4)" v:tabSpace="42.5197"/>
			<v:textRect cx="26.6929" cy="338.073" width="46.72" height="31.1417"/>
			<path d="M0 338.07 A26.6929 17.7953 0 0 1 53.39 338.07 A26.6929 17.7953 0 1 1 0 338.07 Z" class="st1"/>
			<text x="23.62" y="341.07" class="st2" v:langID="2052"><v:paragraph v:horizAlign="1"/><v:tabList/>D</text>		</g>
		<g id="shape17-49" v:mID="17" v:groupContext="shape" transform="translate(308.879,-106.517)">
			<title>椭圆形.240</title>
			<desc>B</desc>
			<v:userDefs>
				<v:ud v:nameU="visVersion" v:val="VT0(15):26"/>
			</v:userDefs>
			<v:textBlock v:margins="rect(4,4,4,4)" v:tabSpace="42.5197"/>
			<v:textRect cx="26.6929" cy="338.073" width="46.72" height="31.1417"/>
			<path d="M0 338.07 A26.6929 17.7953 0 0 1 53.39 338.07 A26.6929 17.7953 0 1 1 0 338.07 Z" class="st1"/>
			<text x="23.97" y="341.07" class="st2" v:langID="2052"><v:paragraph v:horizAlign="1"/><v:tabList/>B</text>		</g>
		<g id="shape18-52" v:mID="18" v:groupContext="shape" transform="translate(380.336,-60.375)">
			<title>椭圆形.241</title>
			<desc>C</desc>
			<v:userDefs>
				<v:ud v:nameU="visVersion" v:val="VT0(15):26"/>
			</v:userDefs>
			<v:textBlock v:margins="rect(4,4,4,4)" v:tabSpace="42.5197"/>
			<v:textRect cx="26.6929" cy="338.073" width="46.72" height="31.1417"/>
			<path d="M0 338.07 A26.6929 17.7953 0 0 1 53.39 338.07 A26.6929 17.7953 0 1 1 0 338.07 Z" class="st1"/>
			<text x="24.03" y="341.07" class="st2" v:langID="2052"><v:paragraph v:horizAlign="1"/><v:tabList/>C</text>		</g>
		<g id="shape19-55" v:mID="19" v:groupContext="shape" transform="translate(440.336,-106.517)">
			<title>椭圆形.242</title>
			<desc>D</desc>
			<v:userDefs>
				<v:ud v:nameU="visVersion" v:val="VT0(15):26"/>
			</v:userDefs>
			<v:textBlock v:margins="rect(4,4,4,4)" v:tabSpace="42.5197"/>
			<v:textRect cx="26.6929" cy="338.073" width="46.72" height="31.1417"/>
			<path d="M0 338.07 A26.6929 17.7953 0 0 1 53.39 338.07 A26.6929 17.7953 0 1 1 0 338.07 Z" class="st1"/>
			<text x="23.62" y="341.07" class="st2" v:langID="2052"><v:paragraph v:horizAlign="1"/><v:tabList/>D</text>		</g>
		<g id="shape20-58" v:mID="20" v:groupContext="shape" transform="translate(217.684,376.332) rotate(160.619)">
			<title>工作表.20</title>
			<path d="M0 355.87 L76.88 355.87" class="st3"/>
		</g>
		<g id="shape21-61" v:mID="21" v:groupContext="shape" transform="translate(163.256,-227.045) rotate(22.5005)">
			<title>工作表.21</title>
			<path d="M0 355.87 L78.5 355.87" class="st3"/>
		</g>
		<g id="shape22-64" v:mID="22" v:groupContext="shape" transform="translate(34.444,-203.776) rotate(-19.4553)">
			<title>工作表.22</title>
			<path d="M0 355.87 L90.19 355.87" class="st3"/>
		</g>
		<g id="shape23-67" v:mID="23" v:groupContext="shape" transform="translate(255.231,-300.229) rotate(16.6992)">
			<title>工作表.23</title>
			<path d="M0 355.87 L88.78 355.87" class="st3"/>
		</g>
		<g id="shape24-70" v:mID="24" v:groupContext="shape" transform="translate(121.32,-271.93)">
			<title>工作表.24</title>
			<path d="M0 355.87 L14.17 355.87" class="st3"/>
		</g>
		<g id="shape25-73" v:mID="25" v:groupContext="shape" transform="translate(604.715,295.248) rotate(141.132)">
			<title>工作表.25</title>
			<path d="M0 355.87 L40.65 355.87" class="st3"/>
		</g>
		<g id="shape26-76" v:mID="26" v:groupContext="shape" transform="translate(462.28,-258.334) rotate(18.4349)">
			<title>工作表.26</title>
			<path d="M0 355.87 L33.37 355.87" class="st3"/>
		</g>
		<g id="shape27-79" v:mID="27" v:groupContext="shape" transform="translate(289.354,-234.972) rotate(-24.121)">
			<title>工作表.27</title>
			<path d="M0 355.87 L34.68 355.87" class="st3"/>
		</g>
		<g id="shape28-82" v:mID="28" v:groupContext="shape" transform="translate(264.026,332.757) rotate(-145.335)">
			<title>工作表.28</title>
			<path d="M0 355.87 L38.49 355.87" class="st3"/>
		</g>
		<g id="shape29-85" v:mID="29" v:groupContext="shape" transform="translate(390.021,-223.21)">
			<title>工作表.29</title>
			<path d="M0 355.87 L49.72 355.87" class="st3"/>
		</g>
		<g id="shape30-88" v:mID="30" v:groupContext="shape" transform="translate(324.457,492.15) rotate(139.498)">
			<title>工作表.30</title>
			<path d="M0 355.87 L43.8 355.87" class="st3"/>
		</g>
		<g id="shape31-91" v:mID="31" v:groupContext="shape" transform="translate(344.609,-74.213) rotate(33.786)">
			<title>工作表.31</title>
			<path d="M0 355.87 L51.16 355.87" class="st3"/>
		</g>
		<g id="shape32-94" v:mID="32" v:groupContext="shape" transform="translate(-10.8699,-12.4807) rotate(-26.2836)">
			<title>工作表.32</title>
			<path d="M0 355.87 L47.42 355.87" class="st3"/>
		</g>
		<g id="shape33-97" v:mID="33" v:groupContext="shape" transform="translate(525.961,-51.3047) rotate(32.3439)">
			<title>工作表.33</title>
			<path d="M0 355.87 L52.98 355.87" class="st3"/>
		</g>
		<g id="shape34-100" v:mID="34" v:groupContext="shape" transform="translate(203.077,6.69023) rotate(-40.3999)">
			<title>工作表.34</title>
			<path d="M0 355.87 L43.74 355.87" class="st3"/>
		</g>
		<g id="shape35-103" v:mID="35" v:groupContext="shape" transform="translate(397.462,-178.17)">
			<title>工作表.35</title>
			<desc>B</desc>
			<v:textBlock v:margins="rect(4,4,4,4)" v:tabSpace="42.5197"/>
			<v:textRect cx="10.6299" cy="345.868" width="21.26" height="20"/>
			<rect x="0" y="335.868" width="21.2598" height="20" class="st4"/>
			<text x="7.37" y="349.47" class="st5" v:langID="3081"><v:paragraph v:horizAlign="1"/><v:tabList/>B</text>		</g>
		<g id="shape36-106" v:mID="36" v:groupContext="shape" transform="translate(117.54,-177.383)">
			<title>工作表.36</title>
			<desc>A</desc>
			<v:textBlock v:margins="rect(4,4,4,4)" v:tabSpace="42.5197"/>
			<v:textRect cx="10.6299" cy="345.868" width="21.26" height="20"/>
			<rect x="0" y="335.868" width="21.2598" height="20" class="st4"/>
			<text x="7.16" y="349.47" class="st5" v:langID="2052"><v:paragraph v:horizAlign="1"/><v:tabList/>A</text>		</g>
		<g id="shape37-109" v:mID="37" v:groupContext="shape" transform="translate(125.454,-0.375)">
			<title>工作表.37</title>
			<desc>C</desc>
			<v:textBlock v:margins="rect(4,4,4,4)" v:tabSpace="42.5197"/>
			<v:textRect cx="10.6299" cy="345.868" width="21.26" height="20"/>
			<rect x="0" y="335.868" width="21.2598" height="20" class="st4"/>
			<text x="7.43" y="349.47" class="st5" v:langID="2052"><v:paragraph v:horizAlign="1"/><v:tabList/>C</text>		</g>
		<g id="shape38-112" v:mID="38" v:groupContext="shape" transform="translate(396.399,-11.4774)">
			<title>工作表.38</title>
			<desc>D</desc>
			<v:textBlock v:margins="rect(4,4,4,4)" v:tabSpace="42.5197"/>
			<v:textRect cx="10.6299" cy="345.868" width="21.26" height="20"/>
			<rect x="0" y="335.868" width="21.2598" height="20" class="st4"/>
			<text x="6.94" y="349.47" class="st5" v:langID="2052"><v:paragraph v:horizAlign="1"/><v:tabList/>D</text>		</g>
	</g>
</svg>
