<?xml version="1.0" encoding="UTF-8" standalone="no"?><svg xmlns="http://www.w3.org/2000/svg" xmlns:xlink="http://www.w3.org/1999/xlink" contentStyleType="text/css" height="1382px" preserveAspectRatio="none" style="width:1146px;height:1382px;background:#FFFFFF;" version="1.1" viewBox="0 0 1146 1382" width="1146px" zoomAndPan="magnify"><defs/><g><rect fill="none" height="1149.4551" style="stroke:#000000;stroke-width:1.5;" width="954.5" x="185" y="132.8745"/><rect fill="none" height="1037.1689" style="stroke:#000000;stroke-width:1.5;" width="821.5" x="308" y="191.4063"/><line style="stroke:#181818;stroke-width:0.5;stroke-dasharray:5.0,5.0;" x1="53" x2="53" y1="84.1201" y2="1299.3296"/><line style="stroke:#181818;stroke-width:0.5;stroke-dasharray:5.0,5.0;" x1="251" x2="251" y1="84.1201" y2="1299.3296"/><line style="stroke:#181818;stroke-width:0.5;stroke-dasharray:5.0,5.0;" x1="374" x2="374" y1="84.1201" y2="1299.3296"/><line style="stroke:#181818;stroke-width:0.5;stroke-dasharray:5.0,5.0;" x1="554.5" x2="554.5" y1="84.1201" y2="1299.3296"/><line style="stroke:#181818;stroke-width:0.5;stroke-dasharray:5.0,5.0;" x1="659.5" x2="659.5" y1="84.1201" y2="1299.3296"/><line style="stroke:#181818;stroke-width:0.5;stroke-dasharray:5.0,5.0;" x1="824.5" x2="824.5" y1="84.1201" y2="1299.3296"/><line style="stroke:#181818;stroke-width:0.5;stroke-dasharray:5.0,5.0;" x1="972.5" x2="972.5" y1="84.1201" y2="1299.3296"/><text fill="#000000" font-family="sans-serif" font-size="14" lengthAdjust="spacing" textLength="91" x="5" y="81.0439">OpenCLDriver</text><ellipse cx="53.5" cy="13.5" fill="#E2E2F0" rx="8" ry="8" style="stroke:#181818;stroke-width:0.5;"/><path d="M53.5,21.5 L53.5,48.5 M40.5,29.5 L66.5,29.5 M53.5,48.5 L40.5,63.5 M53.5,48.5 L66.5,63.5 " fill="none" style="stroke:#181818;stroke-width:0.5;"/><text fill="#000000" font-family="sans-serif" font-size="14" lengthAdjust="spacing" textLength="91" x="5" y="1314.3735">OpenCLDriver</text><ellipse cx="53.5" cy="1325.9497" fill="#E2E2F0" rx="8" ry="8" style="stroke:#181818;stroke-width:0.5;"/><path d="M53.5,1333.9497 L53.5,1360.9497 M40.5,1341.9497 L66.5,1341.9497 M53.5,1360.9497 L40.5,1375.9497 M53.5,1360.9497 L66.5,1375.9497 " fill="none" style="stroke:#181818;stroke-width:0.5;"/><rect fill="#E2E2F0" height="33.1201" rx="2.5" ry="2.5" style="stroke:#181818;stroke-width:0.5;" width="113" x="195" y="50"/><text fill="#000000" font-family="sans-serif" font-size="14" lengthAdjust="spacing" textLength="99" x="202" y="73.0439">clover::program</text><rect fill="#E2E2F0" height="33.1201" rx="2.5" ry="2.5" style="stroke:#181818;stroke-width:0.5;" width="113" x="195" y="1298.3296"/><text fill="#000000" font-family="sans-serif" font-size="14" lengthAdjust="spacing" textLength="99" x="202" y="1321.3735">clover::program</text><rect fill="#E2E2F0" height="33.1201" rx="2.5" ry="2.5" style="stroke:#181818;stroke-width:0.5;" width="113" x="318" y="50"/><text fill="#000000" font-family="sans-serif" font-size="14" lengthAdjust="spacing" textLength="99" x="325" y="73.0439">clover::compiler</text><rect fill="#E2E2F0" height="33.1201" rx="2.5" ry="2.5" style="stroke:#181818;stroke-width:0.5;" width="113" x="318" y="1298.3296"/><text fill="#000000" font-family="sans-serif" font-size="14" lengthAdjust="spacing" textLength="99" x="325" y="1321.3735">clover::compiler</text><rect fill="#E2E2F0" height="33.1201" rx="2.5" ry="2.5" style="stroke:#181818;stroke-width:0.5;" width="84" x="512.5" y="50"/><text fill="#000000" font-family="sans-serif" font-size="14" lengthAdjust="spacing" textLength="70" x="519.5" y="73.0439">clover::llvm</text><rect fill="#E2E2F0" height="33.1201" rx="2.5" ry="2.5" style="stroke:#181818;stroke-width:0.5;" width="84" x="512.5" y="1298.3296"/><text fill="#000000" font-family="sans-serif" font-size="14" lengthAdjust="spacing" textLength="70" x="519.5" y="1321.3735">clover::llvm</text><rect fill="#E2E2F0" height="33.1201" rx="2.5" ry="2.5" style="stroke:#181818;stroke-width:0.5;" width="106" x="606.5" y="50"/><text fill="#000000" font-family="sans-serif" font-size="14" lengthAdjust="spacing" textLength="92" x="613.5" y="73.0439">clover::module</text><rect fill="#E2E2F0" height="33.1201" rx="2.5" ry="2.5" style="stroke:#181818;stroke-width:0.5;" width="106" x="606.5" y="1298.3296"/><text fill="#000000" font-family="sans-serif" font-size="14" lengthAdjust="spacing" textLength="92" x="613.5" y="1321.3735">clover::module</text><rect fill="#E2E2F0" height="33.1201" rx="2.5" ry="2.5" style="stroke:#181818;stroke-width:0.5;" width="50" x="799.5" y="50"/><text fill="#000000" font-family="sans-serif" font-size="14" lengthAdjust="spacing" textLength="36" x="806.5" y="73.0439">LLVM</text><rect fill="#E2E2F0" height="33.1201" rx="2.5" ry="2.5" style="stroke:#181818;stroke-width:0.5;" width="50" x="799.5" y="1298.3296"/><text fill="#000000" font-family="sans-serif" font-size="14" lengthAdjust="spacing" textLength="36" x="806.5" y="1321.3735">LLVM</text><rect fill="#E2E2F0" height="33.1201" rx="2.5" ry="2.5" style="stroke:#181818;stroke-width:0.5;" width="48" x="948.5" y="50"/><text fill="#000000" font-family="sans-serif" font-size="14" lengthAdjust="spacing" textLength="34" x="955.5" y="73.0439">clang</text><rect fill="#E2E2F0" height="33.1201" rx="2.5" ry="2.5" style="stroke:#181818;stroke-width:0.5;" width="48" x="948.5" y="1298.3296"/><text fill="#000000" font-family="sans-serif" font-size="14" lengthAdjust="spacing" textLength="34" x="955.5" y="1321.3735">clang</text><polygon fill="#181818" points="239.5,113.8745,249.5,117.8745,239.5,121.8745,243.5,117.8745" style="stroke:#181818;stroke-width:1.0;"/><line style="stroke:#181818;stroke-width:1.0;" x1="53.5" x2="245.5" y1="117.8745" y2="117.8745"/><text fill="#000000" font-family="sans-serif" font-size="13" lengthAdjust="spacing" textLength="174" x="60.5" y="113.0181">clCompileProgramWithSource</text><path d="M185,132.8745 L246,132.8745 L246,142.6289 L236,152.6289 L185,152.6289 L185,132.8745 " fill="#EEEEEE" style="stroke:#000000;stroke-width:1.5;"/><rect fill="none" height="1149.4551" style="stroke:#000000;stroke-width:1.5;" width="954.5" x="185" y="132.8745"/><text fill="#000000" font-family="sans-serif" font-size="13" font-weight="bold" lengthAdjust="spacing" textLength="16" x="200" y="148.7725">alt</text><text fill="#000000" font-family="sans-serif" font-size="11" font-weight="bold" lengthAdjust="spacing" textLength="124" x="261" y="147.4805">[porgram.has_source]</text><polygon fill="#181818" points="362.5,172.4063,372.5,176.4063,362.5,180.4063,366.5,176.4063" style="stroke:#181818;stroke-width:1.0;"/><line style="stroke:#181818;stroke-width:1.0;" x1="251.5" x2="368.5" y1="176.4063" y2="176.4063"/><text fill="#000000" font-family="sans-serif" font-size="13" lengthAdjust="spacing" textLength="96" x="258.5" y="171.5498">program.compile</text><path d="M308,191.4063 L369,191.4063 L369,201.1606 L359,211.1606 L308,211.1606 L308,191.4063 " fill="#EEEEEE" style="stroke:#000000;stroke-width:1.5;"/><rect fill="none" height="1037.1689" style="stroke:#000000;stroke-width:1.5;" width="821.5" x="308" y="191.4063"/><text fill="#000000" font-family="sans-serif" font-size="13" font-weight="bold" lengthAdjust="spacing" textLength="16" x="323" y="207.3042">alt</text><text fill="#000000" font-family="sans-serif" font-size="11" font-weight="bold" lengthAdjust="spacing" textLength="237" x="384" y="206.0122">[dev.ir_format()== PIPE_SHADER_IR_NATIVE]</text><polygon fill="#181818" points="542.5,230.938,552.5,234.938,542.5,238.938,546.5,234.938" style="stroke:#181818;stroke-width:1.0;"/><line style="stroke:#181818;stroke-width:1.0;" x1="374.5" x2="548.5" y1="234.938" y2="234.938"/><text fill="#000000" font-family="sans-serif" font-size="13" lengthAdjust="spacing" textLength="156" x="381.5" y="230.0815">compiler::compile_program</text><polygon fill="#181818" points="812.5,262.6924,822.5,266.6924,812.5,270.6924,816.5,266.6924" style="stroke:#181818;stroke-width:1.0;"/><line style="stroke:#181818;stroke-width:1.0;" x1="554.5" x2="818.5" y1="266.6924" y2="266.6924"/><text fill="#000000" font-family="sans-serif" font-size="13" lengthAdjust="spacing" textLength="86" x="561.5" y="261.8359">create_context</text><line style="stroke:#181818;stroke-width:1.0;" x1="824.5" x2="866.5" y1="298.4468" y2="298.4468"/><line style="stroke:#181818;stroke-width:1.0;" x1="866.5" x2="866.5" y1="298.4468" y2="311.4468"/><line style="stroke:#181818;stroke-width:1.0;" x1="825.5" x2="866.5" y1="311.4468" y2="311.4468"/><polygon fill="#181818" points="835.5,307.4468,825.5,311.4468,835.5,315.4468,831.5,311.4468" style="stroke:#181818;stroke-width:1.0;"/><text fill="#000000" font-family="sans-serif" font-size="13" lengthAdjust="spacing" textLength="17" x="831.5" y="293.5903">init</text><polygon fill="#181818" points="565.5,339.2012,555.5,343.2012,565.5,347.2012,561.5,343.2012" style="stroke:#181818;stroke-width:1.0;"/><line style="stroke:#181818;stroke-width:1.0;" x1="559.5" x2="823.5" y1="343.2012" y2="343.2012"/><text fill="#000000" font-family="sans-serif" font-size="13" lengthAdjust="spacing" textLength="246" x="571.5" y="338.3447">返回std::unique_ptr&lt;LLVMCONTEXT&gt;对象</text><polygon fill="#181818" points="960.5,370.9556,970.5,374.9556,960.5,378.9556,964.5,374.9556" style="stroke:#181818;stroke-width:1.0;"/><line style="stroke:#181818;stroke-width:1.0;" x1="554.5" x2="966.5" y1="374.9556" y2="374.9556"/><text fill="#000000" font-family="sans-serif" font-size="13" lengthAdjust="spacing" textLength="144" x="561.5" y="370.0991">create_conpiler_instance</text><polygon fill="#181818" points="565.5,402.71,555.5,406.71,565.5,410.71,561.5,406.71" style="stroke:#181818;stroke-width:1.0;"/><line style="stroke:#181818;stroke-width:1.0;" x1="559.5" x2="971.5" y1="406.71" y2="406.71"/><text fill="#000000" font-family="sans-serif" font-size="13" lengthAdjust="spacing" textLength="293" x="571.5" y="401.8535">返回std::unique_ptr&lt;clang::CompilerInstance&gt;对象</text><polygon fill="#181818" points="960.5,434.4644,970.5,438.4644,960.5,442.4644,964.5,438.4644" style="stroke:#181818;stroke-width:1.0;"/><line style="stroke:#181818;stroke-width:1.0;" x1="554.5" x2="966.5" y1="438.4644" y2="438.4644"/><text fill="#000000" font-family="sans-serif" font-size="13" lengthAdjust="spacing" textLength="45" x="561.5" y="433.6079">compile</text><line style="stroke:#181818;stroke-width:1.0;" x1="972.5" x2="1014.5" y1="470.2188" y2="470.2188"/><line style="stroke:#181818;stroke-width:1.0;" x1="1014.5" x2="1014.5" y1="470.2188" y2="483.2188"/><line style="stroke:#181818;stroke-width:1.0;" x1="973.5" x2="1014.5" y1="483.2188" y2="483.2188"/><polygon fill="#181818" points="983.5,479.2188,973.5,483.2188,983.5,487.2188,979.5,483.2188" style="stroke:#181818;stroke-width:1.0;"/><text fill="#000000" font-family="sans-serif" font-size="13" lengthAdjust="spacing" textLength="64" x="979.5" y="465.3623">preprocess</text><line style="stroke:#181818;stroke-width:1.0;" x1="972.5" x2="1014.5" y1="514.9731" y2="514.9731"/><line style="stroke:#181818;stroke-width:1.0;" x1="1014.5" x2="1014.5" y1="514.9731" y2="527.9731"/><line style="stroke:#181818;stroke-width:1.0;" x1="973.5" x2="1014.5" y1="527.9731" y2="527.9731"/><polygon fill="#181818" points="983.5,523.9731,973.5,527.9731,983.5,531.9731,979.5,527.9731" style="stroke:#181818;stroke-width:1.0;"/><text fill="#000000" font-family="sans-serif" font-size="13" lengthAdjust="spacing" textLength="138" x="979.5" y="510.1167">include Opencl Headers</text><line style="stroke:#181818;stroke-width:1.0;" x1="972.5" x2="1014.5" y1="559.7275" y2="559.7275"/><line style="stroke:#181818;stroke-width:1.0;" x1="1014.5" x2="1014.5" y1="559.7275" y2="572.7275"/><line style="stroke:#181818;stroke-width:1.0;" x1="973.5" x2="1014.5" y1="572.7275" y2="572.7275"/><polygon fill="#181818" points="983.5,568.7275,973.5,572.7275,983.5,576.7275,979.5,572.7275" style="stroke:#181818;stroke-width:1.0;"/><text fill="#000000" font-family="sans-serif" font-size="13" lengthAdjust="spacing" textLength="114" x="979.5" y="554.8711">link libc bit code file</text><line style="stroke:#181818;stroke-width:1.0;" x1="972.5" x2="1014.5" y1="604.4819" y2="604.4819"/><line style="stroke:#181818;stroke-width:1.0;" x1="1014.5" x2="1014.5" y1="604.4819" y2="617.4819"/><line style="stroke:#181818;stroke-width:1.0;" x1="973.5" x2="1014.5" y1="617.4819" y2="617.4819"/><polygon fill="#181818" points="983.5,613.4819,973.5,617.4819,983.5,621.4819,979.5,617.4819" style="stroke:#181818;stroke-width:1.0;"/><text fill="#000000" font-family="sans-serif" font-size="13" lengthAdjust="spacing" textLength="79" x="979.5" y="599.6255">emit LLVM IR</text><polygon fill="#181818" points="835.5,645.2363,825.5,649.2363,835.5,653.2363,831.5,649.2363" style="stroke:#181818;stroke-width:1.0;"/><line style="stroke:#181818;stroke-width:1.0;" x1="829.5" x2="971.5" y1="649.2363" y2="649.2363"/><text fill="#000000" font-family="sans-serif" font-size="13" lengthAdjust="spacing" textLength="124" x="841.5" y="644.3799">返回llvm::module对象</text><polygon fill="#181818" points="670.5,676.9907,660.5,680.9907,670.5,684.9907,666.5,680.9907" style="stroke:#181818;stroke-width:1.0;"/><line style="stroke:#181818;stroke-width:1.0;" x1="664.5" x2="823.5" y1="680.9907" y2="680.9907"/><text fill="#000000" font-family="sans-serif" font-size="13" lengthAdjust="spacing" textLength="122" x="676.5" y="676.1343">封装成clover::module</text><line style="stroke:#000000;stroke-width:1.0;stroke-dasharray:2.0,2.0;" x1="308" x2="1129.5" y1="689.9907" y2="689.9907"/><text fill="#000000" font-family="sans-serif" font-size="11" font-weight="bold" lengthAdjust="spacing" textLength="279" x="313" y="702.5967">[dev.ir_format()==PIPE_SHADER_IR_NIR_SERIALIZED]</text><polygon fill="#181818" points="542.5,725.7681,552.5,729.7681,542.5,733.7681,546.5,729.7681" style="stroke:#181818;stroke-width:1.0;"/><line style="stroke:#181818;stroke-width:1.0;" x1="374.5" x2="548.5" y1="729.7681" y2="729.7681"/><text fill="#000000" font-family="sans-serif" font-size="13" lengthAdjust="spacing" textLength="153" x="381.5" y="724.9116">compiler::compile_to_spirv</text><polygon fill="#181818" points="812.5,757.5225,822.5,761.5225,812.5,765.5225,816.5,761.5225" style="stroke:#181818;stroke-width:1.0;"/><line style="stroke:#181818;stroke-width:1.0;" x1="554.5" x2="818.5" y1="761.5225" y2="761.5225"/><text fill="#000000" font-family="sans-serif" font-size="13" lengthAdjust="spacing" textLength="96" x="561.5" y="756.666">compile_to_spirv</text><line style="stroke:#181818;stroke-width:1.0;" x1="824.5" x2="866.5" y1="793.2769" y2="793.2769"/><line style="stroke:#181818;stroke-width:1.0;" x1="866.5" x2="866.5" y1="793.2769" y2="806.2769"/><line style="stroke:#181818;stroke-width:1.0;" x1="825.5" x2="866.5" y1="806.2769" y2="806.2769"/><polygon fill="#181818" points="835.5,802.2769,825.5,806.2769,835.5,810.2769,831.5,806.2769" style="stroke:#181818;stroke-width:1.0;"/><text fill="#000000" font-family="sans-serif" font-size="13" lengthAdjust="spacing" textLength="17" x="831.5" y="788.4204">init</text><polygon fill="#181818" points="565.5,834.0313,555.5,838.0313,565.5,842.0313,561.5,838.0313" style="stroke:#181818;stroke-width:1.0;"/><line style="stroke:#181818;stroke-width:1.0;" x1="559.5" x2="823.5" y1="838.0313" y2="838.0313"/><text fill="#000000" font-family="sans-serif" font-size="13" lengthAdjust="spacing" textLength="246" x="571.5" y="833.1748">返回std::unique_ptr&lt;LLVMCONTEXT&gt;对象</text><polygon fill="#181818" points="960.5,865.7856,970.5,869.7856,960.5,873.7856,964.5,869.7856" style="stroke:#181818;stroke-width:1.0;"/><line style="stroke:#181818;stroke-width:1.0;" x1="554.5" x2="966.5" y1="869.7856" y2="869.7856"/><text fill="#000000" font-family="sans-serif" font-size="13" lengthAdjust="spacing" textLength="144" x="561.5" y="864.9292">create_conpiler_instance</text><polygon fill="#181818" points="565.5,897.54,555.5,901.54,565.5,905.54,561.5,901.54" style="stroke:#181818;stroke-width:1.0;"/><line style="stroke:#181818;stroke-width:1.0;" x1="559.5" x2="971.5" y1="901.54" y2="901.54"/><text fill="#000000" font-family="sans-serif" font-size="13" lengthAdjust="spacing" textLength="293" x="571.5" y="896.6836">返回std::unique_ptr&lt;clang::CompilerInstance&gt;对象</text><polygon fill="#181818" points="960.5,929.2944,970.5,933.2944,960.5,937.2944,964.5,933.2944" style="stroke:#181818;stroke-width:1.0;"/><line style="stroke:#181818;stroke-width:1.0;" x1="554.5" x2="966.5" y1="933.2944" y2="933.2944"/><text fill="#000000" font-family="sans-serif" font-size="13" lengthAdjust="spacing" textLength="45" x="561.5" y="928.438">compile</text><line style="stroke:#181818;stroke-width:1.0;" x1="972.5" x2="1014.5" y1="965.0488" y2="965.0488"/><line style="stroke:#181818;stroke-width:1.0;" x1="1014.5" x2="1014.5" y1="965.0488" y2="978.0488"/><line style="stroke:#181818;stroke-width:1.0;" x1="973.5" x2="1014.5" y1="978.0488" y2="978.0488"/><polygon fill="#181818" points="983.5,974.0488,973.5,978.0488,983.5,982.0488,979.5,978.0488" style="stroke:#181818;stroke-width:1.0;"/><text fill="#000000" font-family="sans-serif" font-size="13" lengthAdjust="spacing" textLength="64" x="979.5" y="960.1924">preprocess</text><line style="stroke:#181818;stroke-width:1.0;" x1="972.5" x2="1014.5" y1="1009.8032" y2="1009.8032"/><line style="stroke:#181818;stroke-width:1.0;" x1="1014.5" x2="1014.5" y1="1009.8032" y2="1022.8032"/><line style="stroke:#181818;stroke-width:1.0;" x1="973.5" x2="1014.5" y1="1022.8032" y2="1022.8032"/><polygon fill="#181818" points="983.5,1018.8032,973.5,1022.8032,983.5,1026.8032,979.5,1022.8032" style="stroke:#181818;stroke-width:1.0;"/><text fill="#000000" font-family="sans-serif" font-size="13" lengthAdjust="spacing" textLength="138" x="979.5" y="1004.9468">include Opencl Headers</text><line style="stroke:#181818;stroke-width:1.0;" x1="972.5" x2="1014.5" y1="1054.5576" y2="1054.5576"/><line style="stroke:#181818;stroke-width:1.0;" x1="1014.5" x2="1014.5" y1="1054.5576" y2="1067.5576"/><line style="stroke:#181818;stroke-width:1.0;" x1="973.5" x2="1014.5" y1="1067.5576" y2="1067.5576"/><polygon fill="#181818" points="983.5,1063.5576,973.5,1067.5576,983.5,1071.5576,979.5,1067.5576" style="stroke:#181818;stroke-width:1.0;"/><text fill="#000000" font-family="sans-serif" font-size="13" lengthAdjust="spacing" textLength="114" x="979.5" y="1049.7012">link libc bit code file</text><line style="stroke:#181818;stroke-width:1.0;" x1="972.5" x2="1014.5" y1="1099.312" y2="1099.312"/><line style="stroke:#181818;stroke-width:1.0;" x1="1014.5" x2="1014.5" y1="1099.312" y2="1112.312"/><line style="stroke:#181818;stroke-width:1.0;" x1="973.5" x2="1014.5" y1="1112.312" y2="1112.312"/><polygon fill="#181818" points="983.5,1108.312,973.5,1112.312,983.5,1116.312,979.5,1112.312" style="stroke:#181818;stroke-width:1.0;"/><text fill="#000000" font-family="sans-serif" font-size="13" lengthAdjust="spacing" textLength="79" x="979.5" y="1094.4556">emit LLVM IR</text><polygon fill="#181818" points="835.5,1140.0664,825.5,1144.0664,835.5,1148.0664,831.5,1144.0664" style="stroke:#181818;stroke-width:1.0;"/><line style="stroke:#181818;stroke-width:1.0;" x1="829.5" x2="971.5" y1="1144.0664" y2="1144.0664"/><text fill="#000000" font-family="sans-serif" font-size="13" lengthAdjust="spacing" textLength="124" x="841.5" y="1139.21">返回llvm::Module对象</text><line style="stroke:#181818;stroke-width:1.0;" x1="824.5" x2="866.5" y1="1175.8208" y2="1175.8208"/><line style="stroke:#181818;stroke-width:1.0;" x1="866.5" x2="866.5" y1="1175.8208" y2="1188.8208"/><line style="stroke:#181818;stroke-width:1.0;" x1="825.5" x2="866.5" y1="1188.8208" y2="1188.8208"/><polygon fill="#181818" points="835.5,1184.8208,825.5,1188.8208,835.5,1192.8208,831.5,1188.8208" style="stroke:#181818;stroke-width:1.0;"/><text fill="#000000" font-family="sans-serif" font-size="13" lengthAdjust="spacing" textLength="85" x="831.5" y="1170.9644">llvm::writeSpirv</text><polygon fill="#181818" points="670.5,1216.5752,660.5,1220.5752,670.5,1224.5752,666.5,1220.5752" style="stroke:#181818;stroke-width:1.0;"/><line style="stroke:#181818;stroke-width:1.0;" x1="664.5" x2="823.5" y1="1220.5752" y2="1220.5752"/><text fill="#000000" font-family="sans-serif" font-size="13" lengthAdjust="spacing" textLength="122" x="676.5" y="1215.7188">封装成clover::module</text><line style="stroke:#000000;stroke-width:1.0;stroke-dasharray:2.0,2.0;" x1="185" x2="1139.5" y1="1236.5752" y2="1236.5752"/><line style="stroke:#181818;stroke-width:1.0;" x1="251.5" x2="293.5" y1="1261.3296" y2="1261.3296"/><line style="stroke:#181818;stroke-width:1.0;" x1="293.5" x2="293.5" y1="1261.3296" y2="1274.3296"/><line style="stroke:#181818;stroke-width:1.0;" x1="252.5" x2="293.5" y1="1274.3296" y2="1274.3296"/><polygon fill="#181818" points="262.5,1270.3296,252.5,1274.3296,262.5,1278.3296,258.5,1274.3296" style="stroke:#181818;stroke-width:1.0;"/><text fill="#000000" font-family="sans-serif" font-size="13" lengthAdjust="spacing" textLength="60" x="258.5" y="1256.4731">do nothing</text><!--SRC=[xLInRjim4Dtr5OIdPB0_G4WC6BQ0270ImpQIeWl1K1URA4Mg9ELqxH0WOuPk1G84-O2qOwT-ZGj_HabHiYpBHRPC7QJXtRjtTqyF8jH8XIup4CFnIB4LA1HaH1b6MKQ4GPcI2qLIH3JgK2vjFGnBhDCWKfbcZDlsNMO5xb4vNpKL7T3af3B9EJH87ke4ZMMx_Mh5qEeE_Ro9HwwPMSvahYW4XDjJf79eRqaqrXwkhhCgrQhLTRqIA5eJMFMOmhTIfSGS7P-UeaayYV3iR32AfZYUuel1FBwAWgq9Jj0TjNLWwmKkzGFlWYMEnrVdTda5n02cKXZuOW87raKcM0rvuStlR-llJzeaOPWBzZctmaQTECxmyc8UVPZtrw-_DZ-VwpcK4x7O7LGiXfdGXWXhHb6l1w334xnAM3gjuhBxdzDA5tV42pnJO8sWe7Mhn0JbUG95A2b7Pq0IK6qQP-AJVTrGTCDS_6p7xQ59aDfouLqyhOlULtzYSMuPh_8CL-xsFHIYzO-lcvVxFm-FpIW6m3Mqix4V3VlCecay6CSVez61YA1sHep4EcDgrGh9Vlr_JDux9kVxCQbfdd2dc87PzkkydQ80H594gVeTTVlLBosHI4YpP6BXI7y1]--></g></svg>