<?xml version="1.0" encoding="UTF-8" standalone="no"?><svg xmlns="http://www.w3.org/2000/svg" xmlns:xlink="http://www.w3.org/1999/xlink" contentStyleType="text/css" height="896px" preserveAspectRatio="none" style="width:949px;height:896px;background:#FFFFFF;" version="1.1" viewBox="0 0 949 896" width="949px" zoomAndPan="magnify"><defs/><g><!--class Lexer--><g id="elem_Lexer"><rect codeLine="1" fill="#F1F1F1" height="392.1621" id="Lexer" rx="2.5" ry="2.5" style="stroke:#181818;stroke-width:0.5;" width="258" x="304" y="7"/><ellipse cx="411.25" cy="23" fill="#ADD1B2" rx="11" ry="11" style="stroke:#181818;stroke-width:1.0;"/><path d="M409.8281,28.3594 Q407.9688,28.3594 406.875,26.9688 Q405.7813,25.5781 405.7813,22.5938 Q405.7813,20.0625 406.9453,18.4063 Q408.1094,16.75 410.0938,16.75 Q411.5625,16.75 412.0313,16.875 Q412.5,17.0781 412.5,17.0781 Q412.5,17.0781 412.5,17.0078 Q412.5,16.9375 413.1094,16.0156 L414.1563,19.6719 L412.8281,20.0781 Q412.3594,18.5313 411.6953,17.8672 Q411.0313,17.2031 409.9688,17.2031 Q409.5781,17.2031 408.8125,18.7344 Q408.0469,20.2656 408.0469,22.5156 Q408.0469,24.9844 408.7109,26.375 Q409.375,27.7656 409.9063,27.7656 Q410.9688,27.7656 411.7266,27 Q412.4844,26.2344 412.8281,24.5781 L414.1563,25.1719 Q413.8281,26.5781 412.9297,27.4688 Q412.0313,28.3594 409.8281,28.3594 Z " fill="#000000"/><text fill="#000000" font-family="sans-serif" font-size="14" lengthAdjust="spacing" textLength="35" x="431.75" y="29.4839">Lexer</text><line style="stroke:#181818;stroke-width:0.5;" x1="305" x2="561" y1="39" y2="39"/><rect fill="none" height="6" style="stroke:#C82930;stroke-width:1.0;" width="6" x="312" y="51.0601"/><text fill="#000000" font-family="sans-serif" font-size="14" lengthAdjust="spacing" textLength="143" x="324" y="59.0439">BufferStart:const char*</text><rect fill="none" height="6" style="stroke:#C82930;stroke-width:1.0;" width="6" x="312" y="70.1802"/><text fill="#000000" font-family="sans-serif" font-size="14" lengthAdjust="spacing" textLength="153" x="324" y="78.1641">FileLoc: SourceLocation</text><rect fill="none" height="6" style="stroke:#C82930;stroke-width:1.0;" width="6" x="312" y="89.3003"/><text fill="#000000" font-family="sans-serif" font-size="14" lengthAdjust="spacing" textLength="151" x="324" y="97.2842">LangOpts: LangOptions</text><rect fill="none" height="6" style="stroke:#C82930;stroke-width:1.0;" width="6" x="312" y="108.4204"/><text fill="#000000" font-family="sans-serif" font-size="14" lengthAdjust="spacing" textLength="232" x="324" y="116.4043">ExtendedTokenMode: unsigned char</text><rect fill="none" height="6" style="stroke:#C82930;stroke-width:1.0;" width="6" x="312" y="127.5405"/><text fill="#000000" font-family="sans-serif" font-size="14" lengthAdjust="spacing" textLength="135" x="324" y="135.5244">BufferPtr: const char*</text><rect fill="none" height="6" style="stroke:#C82930;stroke-width:1.0;" width="6" x="312" y="146.6606"/><text fill="#000000" font-family="sans-serif" font-size="14" lengthAdjust="spacing" textLength="142" x="324" y="154.6445">BufferEnd: const char*</text><rect fill="none" height="6" style="stroke:#C82930;stroke-width:1.0;" width="6" x="312" y="165.7808"/><text fill="#000000" font-family="sans-serif" font-size="14" lengthAdjust="spacing" textLength="182" x="324" y="173.7646">IsAtPhysicalStartOfLine: bool</text><rect fill="none" height="6" style="stroke:#C82930;stroke-width:1.0;" width="6" x="312" y="184.9009"/><text fill="#000000" font-family="sans-serif" font-size="14" lengthAdjust="spacing" textLength="150" x="324" y="192.8848">HasLeadingSpace: bool</text><rect fill="none" height="6" style="stroke:#C82930;stroke-width:1.0;" width="6" x="312" y="204.021"/><text fill="#000000" font-family="sans-serif" font-size="14" lengthAdjust="spacing" textLength="184" x="324" y="212.0049">HasLeadingEmptyMacro:bool</text><line style="stroke:#181818;stroke-width:0.5;" x1="305" x2="561" y1="219.0811" y2="219.0811"/><rect fill="#F24D5C" height="6" style="stroke:#C82930;stroke-width:1.0;" width="6" x="312" y="231.1411"/><text fill="#000000" font-family="sans-serif" font-size="14" lengthAdjust="spacing" textLength="54" x="324" y="239.125">anchor()</text><rect fill="#F24D5C" height="6" style="stroke:#C82930;stroke-width:1.0;" width="6" x="312" y="250.2612"/><text fill="#000000" font-family="sans-serif" font-size="14" lengthAdjust="spacing" textLength="63" x="324" y="258.2451">InitLexer()</text><ellipse cx="315" cy="272.3813" fill="#84BE84" rx="3" ry="3" style="stroke:#038048;stroke-width:1.0;"/><text fill="#000000" font-family="sans-serif" font-size="14" lengthAdjust="spacing" textLength="32" x="324" y="277.3652">Lex()</text><ellipse cx="315" cy="291.5015" fill="#84BE84" rx="3" ry="3" style="stroke:#038048;stroke-width:1.0;"/><text fill="#000000" font-family="sans-serif" font-size="14" lengthAdjust="spacing" textLength="92" x="324" y="296.4854">getLangOpts()</text><ellipse cx="315" cy="310.6216" fill="#84BE84" rx="3" ry="3" style="stroke:#038048;stroke-width:1.0;"/><text fill="#000000" font-family="sans-serif" font-size="14" lengthAdjust="spacing" textLength="76" x="324" y="315.6055">getFileLoc()</text><ellipse cx="315" cy="329.7417" fill="#84BE84" rx="3" ry="3" style="stroke:#038048;stroke-width:1.0;"/><text fill="#000000" font-family="sans-serif" font-size="14" lengthAdjust="spacing" textLength="162" x="324" y="334.7256">isKeepWhitespaceMode()</text><ellipse cx="315" cy="348.8618" fill="#84BE84" rx="3" ry="3" style="stroke:#038048;stroke-width:1.0;"/><text fill="#000000" font-family="sans-serif" font-size="14" lengthAdjust="spacing" textLength="100" x="324" y="353.8457">findNextToken()</text><ellipse cx="315" cy="367.9819" fill="#84BE84" rx="3" ry="3" style="stroke:#038048;stroke-width:1.0;"/><text fill="#000000" font-family="sans-serif" font-size="14" lengthAdjust="spacing" textLength="68" x="324" y="372.9658">getBuffer()</text><ellipse cx="315" cy="387.1021" fill="#84BE84" rx="3" ry="3" style="stroke:#038048;stroke-width:1.0;"/><text fill="#000000" font-family="sans-serif" font-size="14" lengthAdjust="spacing" textLength="102" x="324" y="392.0859">getSourceText()</text></g><!--class PreprocessorLexer--><g id="elem_PreprocessorLexer"><rect codeLine="22" fill="#F1F1F1" height="411.2822" id="PreprocessorLexer" rx="2.5" ry="2.5" style="stroke:#181818;stroke-width:0.5;" width="359" x="253.5" y="478"/><ellipse cx="368.75" cy="494" fill="#ADD1B2" rx="11" ry="11" style="stroke:#181818;stroke-width:1.0;"/><path d="M367.3281,499.3594 Q365.4688,499.3594 364.375,497.9688 Q363.2813,496.5781 363.2813,493.5938 Q363.2813,491.0625 364.4453,489.4063 Q365.6094,487.75 367.5938,487.75 Q369.0625,487.75 369.5313,487.875 Q370,488.0781 370,488.0781 Q370,488.0781 370,488.0078 Q370,487.9375 370.6094,487.0156 L371.6563,490.6719 L370.3281,491.0781 Q369.8594,489.5313 369.1953,488.8672 Q368.5313,488.2031 367.4688,488.2031 Q367.0781,488.2031 366.3125,489.7344 Q365.5469,491.2656 365.5469,493.5156 Q365.5469,495.9844 366.2109,497.375 Q366.875,498.7656 367.4063,498.7656 Q368.4688,498.7656 369.2266,498 Q369.9844,497.2344 370.3281,495.5781 L371.6563,496.1719 Q371.3281,497.5781 370.4297,498.4688 Q369.5313,499.3594 367.3281,499.3594 Z " fill="#000000"/><text fill="#000000" font-family="sans-serif" font-size="14" lengthAdjust="spacing" textLength="120" x="389.25" y="500.4839">PreprocessorLexer</text><line style="stroke:#181818;stroke-width:0.5;" x1="254.5" x2="611.5" y1="510" y2="510"/><polygon fill="none" points="264.5,520.0601,268.5,524.0601,264.5,528.0601,260.5,524.0601" style="stroke:#B38D22;stroke-width:1.0;"/><text fill="#000000" font-family="sans-serif" font-size="14" lengthAdjust="spacing" textLength="116" x="273.5" y="530.0439">PP: Preprocessor*</text><polygon fill="none" points="264.5,539.1802,268.5,543.1802,264.5,547.1802,260.5,543.1802" style="stroke:#B38D22;stroke-width:1.0;"/><text fill="#000000" font-family="sans-serif" font-size="14" lengthAdjust="spacing" textLength="104" x="273.5" y="549.1641">FID: const FileID</text><polygon fill="none" points="264.5,558.3003,268.5,562.3003,264.5,566.3003,260.5,562.3003" style="stroke:#B38D22;stroke-width:1.0;"/><text fill="#000000" font-family="sans-serif" font-size="14" lengthAdjust="spacing" textLength="202" x="273.5" y="568.2842">InitialNumSLocEntries: unsigned</text><polygon fill="none" points="264.5,577.4204,268.5,581.4204,264.5,585.4204,260.5,581.4204" style="stroke:#B38D22;stroke-width:1.0;"/><text fill="#000000" font-family="sans-serif" font-size="14" lengthAdjust="spacing" textLength="223" x="273.5" y="587.4043">ParsingPreprocessorDirective: bool</text><polygon fill="none" points="264.5,596.5405,268.5,600.5405,264.5,604.5405,260.5,600.5405" style="stroke:#B38D22;stroke-width:1.0;"/><text fill="#000000" font-family="sans-serif" font-size="14" lengthAdjust="spacing" textLength="141" x="273.5" y="606.5244">ParsingFilename: bool</text><polygon fill="none" points="264.5,615.6606,268.5,619.6606,264.5,623.6606,260.5,619.6606" style="stroke:#B38D22;stroke-width:1.0;"/><text fill="#000000" font-family="sans-serif" font-size="14" lengthAdjust="spacing" textLength="138" x="273.5" y="625.6445">LexingRawMode: bool</text><polygon fill="none" points="264.5,634.7808,268.5,638.7808,264.5,642.7808,260.5,638.7808" style="stroke:#B38D22;stroke-width:1.0;"/><text fill="#000000" font-family="sans-serif" font-size="14" lengthAdjust="spacing" textLength="161" x="273.5" y="644.7646">MIOpt: MultipleIncludeOpt</text><polygon fill="none" points="264.5,653.9009,268.5,657.9009,264.5,661.9009,260.5,657.9009" style="stroke:#B38D22;stroke-width:1.0;"/><text fill="#000000" font-family="sans-serif" font-size="14" lengthAdjust="spacing" textLength="333" x="273.5" y="663.8848">ConditionalStack: SmallVector&lt;PPConditionalInfo, 4&gt;</text><line style="stroke:#181818;stroke-width:0.5;" x1="254.5" x2="611.5" y1="670.9609" y2="670.9609"/><rect fill="#F24D5C" height="6" style="stroke:#C82930;stroke-width:1.0;" width="6" x="261.5" y="683.021"/><text fill="#000000" font-family="sans-serif" font-size="14" lengthAdjust="spacing" textLength="54" x="273.5" y="691.0049">anchor()</text><polygon fill="#FFFF44" points="264.5,700.1411,268.5,704.1411,264.5,708.1411,260.5,704.1411" style="stroke:#B38D22;stroke-width:1.0;"/><text fill="#000000" font-family="sans-serif" font-size="14" lengthAdjust="spacing" textLength="195" x="273.5" y="710.125">virtual getSourceLocation() = 0</text><polygon fill="#FFFF44" points="264.5,719.2612,268.5,723.2612,264.5,727.2612,260.5,723.2612" style="stroke:#B38D22;stroke-width:1.0;"/><text fill="#000000" font-family="sans-serif" font-size="14" lengthAdjust="spacing" textLength="146" x="273.5" y="729.2451">pushConditionalLevel()</text><ellipse cx="264.5" cy="743.3813" fill="#84BE84" rx="3" ry="3" style="stroke:#038048;stroke-width:1.0;"/><text fill="#000000" font-family="sans-serif" font-size="14" lengthAdjust="spacing" textLength="135" x="273.5" y="748.3652">LexIncludeFilename()</text><ellipse cx="264.5" cy="762.5015" fill="#84BE84" rx="3" ry="3" style="stroke:#038048;stroke-width:1.0;"/><text fill="#000000" font-family="sans-serif" font-size="14" lengthAdjust="spacing" textLength="123" x="273.5" y="767.4854">isLexingRawMode()</text><ellipse cx="264.5" cy="781.6216" fill="#84BE84" rx="3" ry="3" style="stroke:#038048;stroke-width:1.0;"/><text fill="#000000" font-family="sans-serif" font-size="14" lengthAdjust="spacing" textLength="48" x="273.5" y="786.6055">getPP()</text><ellipse cx="264.5" cy="800.7417" fill="#84BE84" rx="3" ry="3" style="stroke:#038048;stroke-width:1.0;"/><text fill="#000000" font-family="sans-serif" font-size="14" lengthAdjust="spacing" textLength="66" x="273.5" y="805.7256">getFileID()</text><ellipse cx="264.5" cy="819.8618" fill="#84BE84" rx="3" ry="3" style="stroke:#038048;stroke-width:1.0;"/><text fill="#000000" font-family="sans-serif" font-size="14" lengthAdjust="spacing" textLength="86" x="273.5" y="824.8457">getFileEntry()</text><ellipse cx="264.5" cy="838.9819" fill="#84BE84" rx="3" ry="3" style="stroke:#038048;stroke-width:1.0;"/><text fill="#000000" font-family="sans-serif" font-size="14" lengthAdjust="spacing" textLength="121" x="273.5" y="843.9658">conditional_begin()</text><ellipse cx="264.5" cy="858.1021" fill="#84BE84" rx="3" ry="3" style="stroke:#038048;stroke-width:1.0;"/><text fill="#000000" font-family="sans-serif" font-size="14" lengthAdjust="spacing" textLength="110" x="273.5" y="863.0859">conditional_end()</text><ellipse cx="264.5" cy="877.2222" fill="#84BE84" rx="3" ry="3" style="stroke:#038048;stroke-width:1.0;"/><text fill="#000000" font-family="sans-serif" font-size="14" lengthAdjust="spacing" textLength="141" x="273.5" y="882.2061">setConditionalLevels()</text></g><path d="M79,33 L79,60.7544 A0,0 0 0 0 79,60.7544 L230,60.7544 A0,0 0 0 0 230,60.7544 L230,51 L308,52.5601 L230,43 L230,43 L220,33 L79,33 A0,0 0 0 0 79,33 " fill="#FEFFDD" style="stroke:#181818;stroke-width:0.5;"/><path d="M220,33 L220,43 L230,43 L220,33 " fill="#FEFFDD" style="stroke:#181818;stroke-width:0.5;"/><text fill="#000000" font-family="sans-serif" font-size="13" lengthAdjust="spacing" textLength="130" x="85" y="52.8979">标识源文件的起始位置</text><path d="M79,70.7544 L79,98.5088 A0,0 0 0 0 79,98.5088 L204,98.5088 A0,0 0 0 0 204,98.5088 L204,88.7544 L308,90.8003 L204,80.7544 L204,80.7544 L194,70.7544 L79,70.7544 A0,0 0 0 0 79,70.7544 " fill="#FEFFDD" style="stroke:#181818;stroke-width:0.5;"/><path d="M194,70.7544 L194,80.7544 L204,80.7544 L194,70.7544 " fill="#FEFFDD" style="stroke:#181818;stroke-width:0.5;"/><text fill="#000000" font-family="sans-serif" font-size="13" lengthAdjust="spacing" textLength="104" x="85" y="90.6523">要编译语言的选项</text><path d="M79,108.5088 L79,136.2632 A0,0 0 0 0 79,136.2632 L269,136.2632 A0,0 0 0 0 269,136.2632 L269,126.5088 L308,129.0405 L269,118.5088 L269,118.5088 L259,108.5088 L79,108.5088 A0,0 0 0 0 79,108.5088 " fill="#FEFFDD" style="stroke:#181818;stroke-width:0.5;"/><path d="M259,108.5088 L259,118.5088 L269,118.5088 L259,108.5088 " fill="#FEFFDD" style="stroke:#181818;stroke-width:0.5;"/><text fill="#000000" font-family="sans-serif" font-size="13" lengthAdjust="spacing" textLength="169" x="85" y="128.4067">下一个要进行词法分析的字符</text><path d="M79,146.2632 L79,174.0176 A0,0 0 0 0 79,174.0176 L191,174.0176 A0,0 0 0 0 191,174.0176 L191,164.2632 L308,148.1606 L191,156.2632 L191,156.2632 L181,146.2632 L79,146.2632 A0,0 0 0 0 79,146.2632 " fill="#FEFFDD" style="stroke:#181818;stroke-width:0.5;"/><path d="M181,146.2632 L181,156.2632 L191,156.2632 L181,146.2632 " fill="#FEFFDD" style="stroke:#181818;stroke-width:0.5;"/><text fill="#000000" font-family="sans-serif" font-size="13" lengthAdjust="spacing" textLength="91" x="85" y="166.1611">文件的结束位置</text><path d="M79,184.0176 L79,211.772 A0,0 0 0 0 79,211.772 L204,211.772 A0,0 0 0 0 204,211.772 L204,202.0176 L308,186.4009 L204,194.0176 L204,194.0176 L194,184.0176 L79,184.0176 A0,0 0 0 0 79,184.0176 " fill="#FEFFDD" style="stroke:#181818;stroke-width:0.5;"/><path d="M194,184.0176 L194,194.0176 L204,194.0176 L194,184.0176 " fill="#FEFFDD" style="stroke:#181818;stroke-width:0.5;"/><text fill="#000000" font-family="sans-serif" font-size="13" lengthAdjust="spacing" textLength="104" x="85" y="203.9155">源文件的起始位置</text><path d="M79,221.772 L79,249.5264 A0,0 0 0 0 79,249.5264 L204,249.5264 A0,0 0 0 0 204,249.5264 L204,239.772 L308,251.7612 L204,231.772 L204,231.772 L194,221.772 L79,221.772 A0,0 0 0 0 79,221.772 " fill="#FEFFDD" style="stroke:#181818;stroke-width:0.5;"/><path d="M194,221.772 L194,231.772 L204,231.772 L194,221.772 " fill="#FEFFDD" style="stroke:#181818;stroke-width:0.5;"/><text fill="#000000" font-family="sans-serif" font-size="13" lengthAdjust="spacing" textLength="104" x="85" y="241.6699">初始化词法分析器</text><path d="M79,259.5264 L79,287.2808 A0,0 0 0 0 79,287.2808 L243,287.2808 A0,0 0 0 0 243,287.2808 L243,277.5264 L308,290.0015 L243,269.5264 L243,269.5264 L233,259.5264 L79,259.5264 A0,0 0 0 0 79,259.5264 " fill="#FEFFDD" style="stroke:#181818;stroke-width:0.5;"/><path d="M233,259.5264 L233,269.5264 L243,269.5264 L233,259.5264 " fill="#FEFFDD" style="stroke:#181818;stroke-width:0.5;"/><text fill="#000000" font-family="sans-serif" font-size="13" lengthAdjust="spacing" textLength="143" x="85" y="279.4243">获取当前语言的编译选项</text><path d="M79,297.2808 L79,325.0352 A0,0 0 0 0 79,325.0352 L230,325.0352 A0,0 0 0 0 230,325.0352 L230,315.2808 L308,328.2417 L230,307.2808 L230,307.2808 L220,297.2808 L79,297.2808 A0,0 0 0 0 79,297.2808 " fill="#FEFFDD" style="stroke:#181818;stroke-width:0.5;"/><path d="M220,297.2808 L220,307.2808 L230,307.2808 L220,297.2808 " fill="#FEFFDD" style="stroke:#181818;stroke-width:0.5;"/><text fill="#000000" font-family="sans-serif" font-size="13" lengthAdjust="spacing" textLength="130" x="85" y="317.1787">是否保持空格，不删除</text><path d="M79,335.0352 L79,362.7896 A0,0 0 0 0 79,362.7896 L165,362.7896 A0,0 0 0 0 165,362.7896 L165,353.0352 L308,366.4819 L165,345.0352 L165,345.0352 L155,335.0352 L79,335.0352 A0,0 0 0 0 79,335.0352 " fill="#FEFFDD" style="stroke:#181818;stroke-width:0.5;"/><path d="M155,335.0352 L155,345.0352 L165,345.0352 L155,335.0352 " fill="#FEFFDD" style="stroke:#181818;stroke-width:0.5;"/><text fill="#000000" font-family="sans-serif" font-size="13" lengthAdjust="spacing" textLength="65" x="85" y="354.9331">获取缓冲区</text><path d="M597.5,52 L597.5,61.8772 L477,71.6802 L597.5,69.8772 L597.5,79.7544 A0,0 0 0 0 597.5,79.7544 L735.5,79.7544 A0,0 0 0 0 735.5,79.7544 L735.5,62 L725.5,52 L597.5,52 A0,0 0 0 0 597.5,52 " fill="#FEFFDD" style="stroke:#181818;stroke-width:0.5;"/><path d="M725.5,52 L725.5,62 L735.5,62 L725.5,52 " fill="#FEFFDD" style="stroke:#181818;stroke-width:0.5;"/><text fill="#000000" font-family="sans-serif" font-size="13" lengthAdjust="spacing" textLength="117" x="603.5" y="71.8979">标识当前分析的位置</text><path d="M597.5,89.7544 L597.5,99.6316 L556,109.9204 L597.5,107.6316 L597.5,117.5088 A0,0 0 0 0 597.5,117.5088 L696.5,117.5088 A0,0 0 0 0 696.5,117.5088 L696.5,99.7544 L686.5,89.7544 L597.5,89.7544 A0,0 0 0 0 597.5,89.7544 " fill="#FEFFDD" style="stroke:#181818;stroke-width:0.5;"/><path d="M686.5,89.7544 L686.5,99.7544 L696.5,99.7544 L686.5,89.7544 " fill="#FEFFDD" style="stroke:#181818;stroke-width:0.5;"/><text fill="#000000" font-family="sans-serif" font-size="13" lengthAdjust="spacing" textLength="78" x="603.5" y="109.6523">扩展宏的模式</text><path d="M597.5,127.5088 L597.5,137.386 L506,167.2808 L597.5,145.386 L597.5,155.2632 A0,0 0 0 0 597.5,155.2632 L709.5,155.2632 A0,0 0 0 0 709.5,155.2632 L709.5,137.5088 L699.5,127.5088 L597.5,127.5088 A0,0 0 0 0 597.5,127.5088 " fill="#FEFFDD" style="stroke:#181818;stroke-width:0.5;"/><path d="M699.5,127.5088 L699.5,137.5088 L709.5,137.5088 L699.5,127.5088 " fill="#FEFFDD" style="stroke:#181818;stroke-width:0.5;"/><text fill="#000000" font-family="sans-serif" font-size="13" lengthAdjust="spacing" textLength="91" x="603.5" y="147.4067">判断是否在行首</text><path d="M597.5,165.2632 L597.5,175.1404 L508,205.521 L597.5,183.1404 L597.5,193.0176 A0,0 0 0 0 597.5,193.0176 L748.5,193.0176 A0,0 0 0 0 748.5,193.0176 L748.5,175.2632 L738.5,165.2632 L597.5,165.2632 A0,0 0 0 0 597.5,165.2632 " fill="#FEFFDD" style="stroke:#181818;stroke-width:0.5;"/><path d="M738.5,165.2632 L738.5,175.2632 L748.5,175.2632 L738.5,165.2632 " fill="#FEFFDD" style="stroke:#181818;stroke-width:0.5;"/><text fill="#000000" font-family="sans-serif" font-size="13" lengthAdjust="spacing" textLength="130" x="603.5" y="185.1611">判断是否为空定义的宏</text><path d="M597.5,203.0176 L597.5,212.8948 L356,270.8813 L597.5,220.8948 L597.5,230.772 A0,0 0 0 0 597.5,230.772 L780.5,230.772 A0,0 0 0 0 780.5,230.772 L780.5,213.0176 L770.5,203.0176 L597.5,203.0176 A0,0 0 0 0 597.5,203.0176 " fill="#FEFFDD" style="stroke:#181818;stroke-width:0.5;"/><path d="M770.5,203.0176 L770.5,213.0176 L780.5,213.0176 L770.5,203.0176 " fill="#FEFFDD" style="stroke:#181818;stroke-width:0.5;"/><text fill="#000000" font-family="sans-serif" font-size="13" lengthAdjust="spacing" textLength="162" x="603.5" y="222.9155">对下一个token进行词法分析</text><path d="M597.5,240.772 L597.5,250.6492 L400,309.1216 L597.5,258.6492 L597.5,268.5264 A0,0 0 0 0 597.5,268.5264 L728.5,268.5264 A0,0 0 0 0 728.5,268.5264 L728.5,250.772 L718.5,240.772 L597.5,240.772 A0,0 0 0 0 597.5,240.772 " fill="#FEFFDD" style="stroke:#181818;stroke-width:0.5;"/><path d="M718.5,240.772 L718.5,250.772 L728.5,250.772 L718.5,240.772 " fill="#FEFFDD" style="stroke:#181818;stroke-width:0.5;"/><text fill="#000000" font-family="sans-serif" font-size="13" lengthAdjust="spacing" textLength="110" x="603.5" y="260.6699">获取文件的location</text><path d="M597.5,278.5264 L597.5,288.4036 L424,347.3618 L597.5,296.4036 L597.5,306.2808 A0,0 0 0 0 597.5,306.2808 L722.5,306.2808 A0,0 0 0 0 722.5,306.2808 L722.5,288.5264 L712.5,278.5264 L597.5,278.5264 A0,0 0 0 0 597.5,278.5264 " fill="#FEFFDD" style="stroke:#181818;stroke-width:0.5;"/><path d="M712.5,278.5264 L712.5,288.5264 L722.5,288.5264 L712.5,278.5264 " fill="#FEFFDD" style="stroke:#181818;stroke-width:0.5;"/><text fill="#000000" font-family="sans-serif" font-size="13" lengthAdjust="spacing" textLength="104" x="603.5" y="298.4243">查找下一个标记符</text><path d="M597.5,316.2808 L597.5,326.158 L426,385.6021 L597.5,334.158 L597.5,344.0352 A0,0 0 0 0 597.5,344.0352 L722.5,344.0352 A0,0 0 0 0 722.5,344.0352 L722.5,326.2808 L712.5,316.2808 L597.5,316.2808 A0,0 0 0 0 597.5,316.2808 " fill="#FEFFDD" style="stroke:#181818;stroke-width:0.5;"/><path d="M712.5,316.2808 L712.5,326.2808 L722.5,326.2808 L712.5,316.2808 " fill="#FEFFDD" style="stroke:#181818;stroke-width:0.5;"/><text fill="#000000" font-family="sans-serif" font-size="13" lengthAdjust="spacing" textLength="104" x="603.5" y="336.1787">获取源文件的文本</text><path d="M6,532.5 L6,560.2544 A0,0 0 0 0 6,560.2544 L105,560.2544 A0,0 0 0 0 105,560.2544 L105,550.5 L257.5,523.5601 L105,542.5 L105,542.5 L95,532.5 L6,532.5 A0,0 0 0 0 6,532.5 " fill="#FEFFDD" style="stroke:#181818;stroke-width:0.5;"/><path d="M95,532.5 L95,542.5 L105,542.5 L95,532.5 " fill="#FEFFDD" style="stroke:#181818;stroke-width:0.5;"/><text fill="#000000" font-family="sans-serif" font-size="13" lengthAdjust="spacing" textLength="78" x="12" y="552.3979">预处理器对象</text><path d="M6,570.2544 L6,598.0088 A0,0 0 0 0 6,598.0088 L137,598.0088 A0,0 0 0 0 137,598.0088 L137,588.2544 L257.5,561.8003 L137,580.2544 L137,580.2544 L127,570.2544 L6,570.2544 A0,0 0 0 0 6,570.2544 " fill="#FEFFDD" style="stroke:#181818;stroke-width:0.5;"/><path d="M127,570.2544 L127,580.2544 L137,580.2544 L127,570.2544 " fill="#FEFFDD" style="stroke:#181818;stroke-width:0.5;"/><text fill="#000000" font-family="sans-serif" font-size="13" lengthAdjust="spacing" textLength="110" x="12" y="590.1523">初始化location信息</text><path d="M6,608.0088 L6,635.7632 A0,0 0 0 0 6,635.7632 L118,635.7632 A0,0 0 0 0 118,635.7632 L118,626.0088 L257.5,600.0405 L118,618.0088 L118,618.0088 L108,608.0088 L6,608.0088 A0,0 0 0 0 6,608.0088 " fill="#FEFFDD" style="stroke:#181818;stroke-width:0.5;"/><path d="M108,608.0088 L108,618.0088 L118,618.0088 L108,608.0088 " fill="#FEFFDD" style="stroke:#181818;stroke-width:0.5;"/><text fill="#000000" font-family="sans-serif" font-size="13" lengthAdjust="spacing" textLength="91" x="12" y="627.9067">解析文件的名字</text><path d="M6,645.7632 L6,673.5176 A0,0 0 0 0 6,673.5176 L194,673.5176 A0,0 0 0 0 194,673.5176 L194,663.7632 L257.5,638.2808 L194,655.7632 L194,655.7632 L184,645.7632 L6,645.7632 A0,0 0 0 0 6,645.7632 " fill="#FEFFDD" style="stroke:#181818;stroke-width:0.5;"/><path d="M184,645.7632 L184,655.7632 L194,655.7632 L184,645.7632 " fill="#FEFFDD" style="stroke:#181818;stroke-width:0.5;"/><text fill="#000000" font-family="sans-serif" font-size="13" lengthAdjust="spacing" textLength="167" x="12" y="665.6611">处理多重#ifndef类似的宏语句</text><path d="M6,683.5176 L6,711.272 A0,0 0 0 0 6,711.272 L105,711.272 A0,0 0 0 0 105,711.272 L105,701.5176 L257.5,703.6411 L105,693.5176 L105,693.5176 L95,683.5176 L6,683.5176 A0,0 0 0 0 6,683.5176 " fill="#FEFFDD" style="stroke:#181818;stroke-width:0.5;"/><path d="M95,683.5176 L95,693.5176 L105,693.5176 L95,683.5176 " fill="#FEFFDD" style="stroke:#181818;stroke-width:0.5;"/><text fill="#000000" font-family="sans-serif" font-size="13" lengthAdjust="spacing" textLength="78" x="12" y="703.4155">获取源码位置</text><path d="M6,721.272 L6,749.0264 A0,0 0 0 0 6,749.0264 L218,749.0264 A0,0 0 0 0 218,749.0264 L218,739.272 L257.5,741.8813 L218,731.272 L218,731.272 L208,721.272 L6,721.272 A0,0 0 0 0 6,721.272 " fill="#FEFFDD" style="stroke:#181818;stroke-width:0.5;"/><path d="M208,721.272 L208,731.272 L218,731.272 L208,721.272 " fill="#FEFFDD" style="stroke:#181818;stroke-width:0.5;"/><text fill="#000000" font-family="sans-serif" font-size="13" lengthAdjust="spacing" textLength="191" x="12" y="741.1699">对#include的头文件进行词法分析</text><path d="M6,759.0264 L6,786.7808 A0,0 0 0 0 6,786.7808 L118,786.7808 A0,0 0 0 0 118,786.7808 L118,777.0264 L257.5,780.1216 L118,769.0264 L118,769.0264 L108,759.0264 L6,759.0264 A0,0 0 0 0 6,759.0264 " fill="#FEFFDD" style="stroke:#181818;stroke-width:0.5;"/><path d="M108,759.0264 L108,769.0264 L118,769.0264 L108,759.0264 " fill="#FEFFDD" style="stroke:#181818;stroke-width:0.5;"/><text fill="#000000" font-family="sans-serif" font-size="13" lengthAdjust="spacing" textLength="91" x="12" y="778.9243">获取预处理对象</text><path d="M6,796.7808 L6,824.5352 A0,0 0 0 0 6,824.5352 L183,824.5352 A0,0 0 0 0 183,824.5352 L183,814.7808 L257.5,856.6021 L183,806.7808 L183,806.7808 L173,796.7808 L6,796.7808 A0,0 0 0 0 6,796.7808 " fill="#FEFFDD" style="stroke:#181818;stroke-width:0.5;"/><path d="M173,796.7808 L173,806.7808 L183,806.7808 L173,796.7808 " fill="#FEFFDD" style="stroke:#181818;stroke-width:0.5;"/><text fill="#000000" font-family="sans-serif" font-size="13" lengthAdjust="spacing" textLength="156" x="12" y="816.6787">记录条件判断宏的结束位置</text><path d="M648,523.5 L648,533.3772 L377.5,542.6802 L648,541.3772 L648,551.2544 A0,0 0 0 0 648,551.2544 L734,551.2544 A0,0 0 0 0 734,551.2544 L734,533.5 L724,523.5 L648,523.5 A0,0 0 0 0 648,523.5 " fill="#FEFFDD" style="stroke:#181818;stroke-width:0.5;"/><path d="M724,523.5 L724,533.5 L734,533.5 L724,523.5 " fill="#FEFFDD" style="stroke:#181818;stroke-width:0.5;"/><text fill="#000000" font-family="sans-serif" font-size="13" lengthAdjust="spacing" textLength="65" x="654" y="543.3979">文件标识符</text><path d="M648,561.2544 L648,571.1316 L496.5,580.9204 L648,579.1316 L648,589.0088 A0,0 0 0 0 648,589.0088 L780,589.0088 A0,0 0 0 0 780,589.0088 L780,571.2544 L770,561.2544 L648,561.2544 A0,0 0 0 0 648,561.2544 " fill="#FEFFDD" style="stroke:#181818;stroke-width:0.5;"/><path d="M770,561.2544 L770,571.2544 L780,571.2544 L770,561.2544 " fill="#FEFFDD" style="stroke:#181818;stroke-width:0.5;"/><text fill="#000000" font-family="sans-serif" font-size="13" lengthAdjust="spacing" textLength="111" x="654" y="581.1523">解析以#开头的语句</text><path d="M648,599.0088 L648,617.7632 L411.5,619.1606 L648,625.7632 L648,644.5176 A0,0 0 0 0 648,644.5176 L942,644.5176 A0,0 0 0 0 942,644.5176 L942,609.0088 L932,599.0088 L648,599.0088 A0,0 0 0 0 648,599.0088 " fill="#FEFFDD" style="stroke:#181818;stroke-width:0.5;"/><path d="M932,599.0088 L932,609.0088 L942,609.0088 L932,599.0088 " fill="#FEFFDD" style="stroke:#181818;stroke-width:0.5;"/><text fill="#000000" font-family="sans-serif" font-size="13" lengthAdjust="spacing" textLength="241" x="654" y="618.9067">以raw模式进行词法分析，该模式下会输出</text><text fill="#000000" font-family="sans-serif" font-size="13" lengthAdjust="spacing" textLength="273" x="654" y="636.6611">包括空格、注释和正常的tokens在内的所有字符</text><path d="M648,654.5176 L648,664.3948 L606.5,657.4009 L648,672.3948 L648,682.272 A0,0 0 0 0 648,682.272 L872,682.272 A0,0 0 0 0 872,682.272 L872,664.5176 L862,654.5176 L648,654.5176 A0,0 0 0 0 648,654.5176 " fill="#FEFFDD" style="stroke:#181818;stroke-width:0.5;"/><path d="M862,654.5176 L862,664.5176 L872,664.5176 L862,654.5176 " fill="#FEFFDD" style="stroke:#181818;stroke-width:0.5;"/><text fill="#000000" font-family="sans-serif" font-size="13" lengthAdjust="spacing" textLength="203" x="654" y="674.4155">记录条件判断宏#if #ifdef的堆栈信息</text><path d="M648,692.272 L648,702.1492 L396.5,761.0015 L648,710.1492 L648,720.0264 A0,0 0 0 0 648,720.0264 L780,720.0264 A0,0 0 0 0 780,720.0264 L780,702.272 L770,692.272 L648,692.272 A0,0 0 0 0 648,692.272 " fill="#FEFFDD" style="stroke:#181818;stroke-width:0.5;"/><path d="M770,692.272 L770,702.272 L780,702.272 L770,692.272 " fill="#FEFFDD" style="stroke:#181818;stroke-width:0.5;"/><text fill="#000000" font-family="sans-serif" font-size="13" lengthAdjust="spacing" textLength="111" x="654" y="712.1699">判断是否为raw模式</text><path d="M648,730.0264 L648,739.9036 L339.5,799.2417 L648,747.9036 L648,757.7808 A0,0 0 0 0 648,757.7808 L733,757.7808 A0,0 0 0 0 733,757.7808 L733,740.0264 L723,730.0264 L648,730.0264 A0,0 0 0 0 648,730.0264 " fill="#FEFFDD" style="stroke:#181818;stroke-width:0.5;"/><path d="M723,730.0264 L723,740.0264 L733,740.0264 L723,730.0264 " fill="#FEFFDD" style="stroke:#181818;stroke-width:0.5;"/><text fill="#000000" font-family="sans-serif" font-size="13" lengthAdjust="spacing" textLength="64" x="654" y="749.9243">获取文件ID</text><path d="M648,767.7808 L648,777.658 L394.5,837.4819 L648,785.658 L648,795.5352 A0,0 0 0 0 648,795.5352 L825,795.5352 A0,0 0 0 0 825,795.5352 L825,777.7808 L815,767.7808 L648,767.7808 A0,0 0 0 0 648,767.7808 " fill="#FEFFDD" style="stroke:#181818;stroke-width:0.5;"/><path d="M815,767.7808 L815,777.7808 L825,777.7808 L815,767.7808 " fill="#FEFFDD" style="stroke:#181818;stroke-width:0.5;"/><text fill="#000000" font-family="sans-serif" font-size="13" lengthAdjust="spacing" textLength="156" x="654" y="787.6787">记录条件判断宏的开始位置</text><path d="M648,805.5352 L648,815.4124 L414.5,875.7222 L648,823.4124 L648,833.2896 A0,0 0 0 0 648,833.2896 L850,833.2896 A0,0 0 0 0 850,833.2896 L850,815.5352 L840,805.5352 L648,805.5352 A0,0 0 0 0 648,805.5352 " fill="#FEFFDD" style="stroke:#181818;stroke-width:0.5;"/><path d="M840,805.5352 L840,815.5352 L850,815.5352 L840,805.5352 " fill="#FEFFDD" style="stroke:#181818;stroke-width:0.5;"/><text fill="#000000" font-family="sans-serif" font-size="13" lengthAdjust="spacing" textLength="181" x="654" y="825.4331">设置条件判断宏所在堆栈的level</text><!--link Lexer to PreprocessorLexer--><g id="link_Lexer_PreprocessorLexer"><path codeLine="43" d="M433,399.31 C433,418.09 433,437.24 433,456.28 " fill="none" id="Lexer-to-PreprocessorLexer" style="stroke:#181818;stroke-width:1.0;"/><polygon fill="none" points="440,456.19,433,476.19,426,456.19,440,456.19" style="stroke:#181818;stroke-width:1.0;"/><text fill="#000000" font-family="sans-serif" font-size="13" lengthAdjust="spacing" textLength="34" x="434" y="444.8979">public</text></g><!--SRC=[dLPHJzjM57w_ly8IBsstI7lOaxLLsWRLeeKs6jNsE1dd9hcgiIFReQ1kKf1e82CCDaIsCbYJDL0w0HbhjuOGuCVCrt6U-XTsRgxj98v9mf1GVC-rp_tETxvppfKLoJ2465x0kl04HIHLJclwhTieycascSJwZ2dffYXhgc4ASbhIxw38FQBWc2QBmeoMrMNsA9b4Kr4a9gcf1ndJ40Nt2Qm6Yamjc5XDuCH3xH5MfxK45eMiQf2KYXCTbzvHSLCNXRwJk7rAJGJiKUCJCvvUD8WiAHs03v8neeBVMKrJKEHpoOXXAK7Kr4n6aaFCKtCPSt5QadLDv5jHbPWT2Y3mz-21_QImwGNaBjt0sOeONs2S-JfDJ6omCrXOp9uaQk8-NZ0xiRgVyIZS1UVi8Rm2XkyGaZlqntMSqJKP6uQcTt0yGGByTRF1LXFnkDZtvXrklXUTzFXX2AEJtCnY8f9oFpit0w2dL5CdsEXIxxgKT0C8wVKwINGicsJUuwttFUPVbURwjW0lx7mfFUQfxMvCHu4xKPZEAYR902vLLh8933Q-_Pcc9WYJI2U7yYFGqvoaA5_1uPh-KJpUinzLazhxmeTt-OVpH3UpaYBuR7eAl7LR-5ZuWB-KoHhf7WynF8yLbqUMO1UC5u-tGuo-Q3mpd1IFzomupG43OtZHiydTex-PnIcYXcr0LNXc0vj1j4P78Bmm8v5lxmwAH125J7PM8J92gcPYGS59Kz2Il9X5iQU0aLrUSMfvkx5fbrQiytzQEylEts_fopNhOhrrSO80YS1SS3ywIQLx7RcwTvtGYorQMAUhUVktJV0JwY60nAiZv1mijPebf_QZKpjs3dFmUJjNQ5VEHW0Ow238BhoYfzlqP0DSs8SLsjmOZi3lCCYghrdrd5N_0x0uLxywbQ9JMxTVR_i1qUEVMqS7uxY3neHyFbldM_RUyx7ulAPz8RfQjKl7zYyrkdb0Tmy1MlkWD1n8eDMX_vdXiDRO1yUgDrgl6lHanpehC8vEHl3jDrJmiWSeQB7KIpDzTZW24VmWMZlpisMor0_cQpYAdXQEd1_UqeqI5w-lFYx6iJJOxV-kAvzdnHk0Gx64JGpaadkrPnUNW5-xt7pNB5frgAvo-rbr1AA-MOFiv_jsuTBdYzNgoPyZXUoF9pUeLdEBvl-YnSPeDhgJp2EaHtlmOEyUTPq4EjH0AnF5U1orVr-crUNMPXxa0RbtJYlNeGZv7gQWMuoyJLqVUiZ7eREoArqlmzPLnLwgtG3KiF6Ad9SlGC7M-Vu4RUPezGqhsTentTWV7tTWBBik_IpGpNNePZV0spVz443JfSUylGwM7YZLgUtpNIQxvevpkKLN6eWMdzfhHrpE_-QMxDU7xPNlwKz5-_W5hTS1LgUM3UXmDF-KQQMGitSBGzjk2DJExGAvUgdkj5VM9qWIXaIoTNfkDPkyIONoEOo0uAK4GH7HYsrxhmACyeO8Rk4a0VxPON1CEM-NLqEbCGJ-mEMbMqIjyjBGeHgUjy2DXZNF2S9j36Jr3LV5o1OwZ9t0zIWu8Nont8W6A7mUUhVyRrhx_fMihpN3SdmN0nUsyCmpAg5OhnchGm8DtFkkzJxEDIB4VTZz4Swu12-1Cw3QMELrHCk65tkrjq-Z_m00]--></g></svg>