<?xml version="1.0" encoding="UTF-8" standalone="no"?><svg xmlns="http://www.w3.org/2000/svg" xmlns:xlink="http://www.w3.org/1999/xlink" contentStyleType="text/css" height="776px" preserveAspectRatio="none" style="width:1294px;height:776px;background:#FFFFFF;" version="1.1" viewBox="0 0 1294 776" width="1294px" zoomAndPan="magnify"><defs/><g><!--class SourceManager--><g id="elem_SourceManager"><rect codeLine="1" fill="#F1F1F1" height="373.042" id="SourceManager" rx="2.5" ry="2.5" style="stroke:#181818;stroke-width:0.5;" width="459" x="376.5" y="165"/><ellipse cx="551.25" cy="181" fill="#ADD1B2" rx="11" ry="11" style="stroke:#181818;stroke-width:1.0;"/><path d="M549.8281,186.3594 Q547.9688,186.3594 546.875,184.9688 Q545.7813,183.5781 545.7813,180.5938 Q545.7813,178.0625 546.9453,176.4063 Q548.1094,174.75 550.0938,174.75 Q551.5625,174.75 552.0313,174.875 Q552.5,175.0781 552.5,175.0781 Q552.5,175.0781 552.5,175.0078 Q552.5,174.9375 553.1094,174.0156 L554.1563,177.6719 L552.8281,178.0781 Q552.3594,176.5313 551.6953,175.8672 Q551.0313,175.2031 549.9688,175.2031 Q549.5781,175.2031 548.8125,176.7344 Q548.0469,178.2656 548.0469,180.5156 Q548.0469,182.9844 548.7109,184.375 Q549.375,185.7656 549.9063,185.7656 Q550.9688,185.7656 551.7266,185 Q552.4844,184.2344 552.8281,182.5781 L554.1563,183.1719 Q553.8281,184.5781 552.9297,185.4688 Q552.0313,186.3594 549.8281,186.3594 Z " fill="#000000"/><text fill="#000000" font-family="sans-serif" font-size="14" lengthAdjust="spacing" textLength="101" x="571.75" y="187.4839">SourceManager</text><line style="stroke:#181818;stroke-width:0.5;" x1="377.5" x2="834.5" y1="197" y2="197"/><rect fill="none" height="6" style="stroke:#C82930;stroke-width:1.0;" width="6" x="384.5" y="209.0601"/><text fill="#000000" font-family="sans-serif" font-size="14" lengthAdjust="spacing" textLength="163" x="396.5" y="217.0439">Diag: DiagnosticsEngine&amp;</text><rect fill="none" height="6" style="stroke:#C82930;stroke-width:1.0;" width="6" x="384.5" y="228.1802"/><text fill="#000000" font-family="sans-serif" font-size="14" lengthAdjust="spacing" textLength="143" x="396.5" y="236.1641">FileMgr: FileManager&amp;</text><rect fill="none" height="6" style="stroke:#C82930;stroke-width:1.0;" width="6" x="384.5" y="247.3003"/><text fill="#000000" font-family="sans-serif" font-size="14" lengthAdjust="spacing" textLength="433" x="396.5" y="255.2842">FileInfos: llvm::DenseMap&lt;const FileEntry*, SrcMgr::ContentCache*&gt;</text><rect fill="none" height="6" style="stroke:#C82930;stroke-width:1.0;" width="6" x="384.5" y="266.4204"/><text fill="#000000" font-family="sans-serif" font-size="14" lengthAdjust="spacing" textLength="333" x="396.5" y="274.4043">MemBufferInfos:std::vector&lt;SrcMgr::ContentCache*&gt;</text><rect fill="none" height="6" style="stroke:#C82930;stroke-width:1.0;" width="6" x="384.5" y="285.5405"/><text fill="#000000" font-family="sans-serif" font-size="14" lengthAdjust="spacing" textLength="368" x="396.5" y="293.5244">LocalSLocEntryTable: SmallVector&lt;SrcMgr::SLocEntry, 0&gt;</text><rect fill="none" height="6" style="stroke:#C82930;stroke-width:1.0;" width="6" x="384.5" y="304.6606"/><text fill="#000000" font-family="sans-serif" font-size="14" lengthAdjust="spacing" textLength="305" x="396.5" y="312.6445">ExternalSLocEntries : ExternalSLocEntrySource*</text><rect fill="none" height="6" style="stroke:#C82930;stroke-width:1.0;" width="6" x="384.5" y="323.7808"/><text fill="#000000" font-family="sans-serif" font-size="14" lengthAdjust="spacing" textLength="110" x="396.5" y="331.7646">MainFileID: FileID</text><line style="stroke:#181818;stroke-width:0.5;" x1="377.5" x2="834.5" y1="338.8408" y2="338.8408"/><ellipse cx="387.5" cy="353.9009" fill="#84BE84" rx="3" ry="3" style="stroke:#038048;stroke-width:1.0;"/><text fill="#000000" font-family="sans-serif" font-size="14" lengthAdjust="spacing" textLength="103" x="396.5" y="358.8848">getDiagnostics()</text><ellipse cx="387.5" cy="373.021" fill="#84BE84" rx="3" ry="3" style="stroke:#038048;stroke-width:1.0;"/><text fill="#000000" font-family="sans-serif" font-size="14" lengthAdjust="spacing" textLength="109" x="396.5" y="378.0049">getFileManager()</text><ellipse cx="387.5" cy="392.1411" fill="#84BE84" rx="3" ry="3" style="stroke:#038048;stroke-width:1.0;"/><text fill="#000000" font-family="sans-serif" font-size="14" lengthAdjust="spacing" textLength="96" x="396.5" y="397.125">getMainFileID()</text><ellipse cx="387.5" cy="411.2612" fill="#84BE84" rx="3" ry="3" style="stroke:#038048;stroke-width:1.0;"/><text fill="#000000" font-family="sans-serif" font-size="14" lengthAdjust="spacing" textLength="86" x="396.5" y="416.2451">createFileID()</text><ellipse cx="387.5" cy="430.3813" fill="#84BE84" rx="3" ry="3" style="stroke:#038048;stroke-width:1.0;"/><text fill="#000000" font-family="sans-serif" font-size="14" lengthAdjust="spacing" textLength="68" x="396.5" y="435.3652">getBuffer()</text><ellipse cx="387.5" cy="449.5015" fill="#84BE84" rx="3" ry="3" style="stroke:#038048;stroke-width:1.0;"/><text fill="#000000" font-family="sans-serif" font-size="14" lengthAdjust="spacing" textLength="98" x="396.5" y="454.4854">getBufferData()</text><ellipse cx="387.5" cy="468.6216" fill="#84BE84" rx="3" ry="3" style="stroke:#038048;stroke-width:1.0;"/><text fill="#000000" font-family="sans-serif" font-size="14" lengthAdjust="spacing" textLength="88" x="396.5" y="473.6055">getFilename()</text><ellipse cx="387.5" cy="487.7417" fill="#84BE84" rx="3" ry="3" style="stroke:#038048;stroke-width:1.0;"/><text fill="#000000" font-family="sans-serif" font-size="14" lengthAdjust="spacing" textLength="71" x="396.5" y="492.7256">PrintStats()</text><ellipse cx="387.5" cy="506.8618" fill="#84BE84" rx="3" ry="3" style="stroke:#038048;stroke-width:1.0;"/><text fill="#000000" font-family="sans-serif" font-size="14" lengthAdjust="spacing" textLength="138" x="396.5" y="511.8457">createExpansionLoc()</text><ellipse cx="387.5" cy="525.9819" fill="#84BE84" rx="3" ry="3" style="stroke:#038048;stroke-width:1.0;"/><text fill="#000000" font-family="sans-serif" font-size="14" lengthAdjust="spacing" textLength="140" x="396.5" y="530.9658">createTokenSplitLoc()</text></g><!--class SourceLocation--><g id="elem_SourceLocation"><rect codeLine="21" fill="#F1F1F1" height="48" id="SourceLocation" rx="2.5" ry="2.5" style="stroke:#181818;stroke-width:0.5;" width="131" x="263.5" y="598"/><ellipse cx="278.5" cy="614" fill="#ADD1B2" rx="11" ry="11" style="stroke:#181818;stroke-width:1.0;"/><path d="M277.0781,619.3594 Q275.2188,619.3594 274.125,617.9688 Q273.0313,616.5781 273.0313,613.5938 Q273.0313,611.0625 274.1953,609.4063 Q275.3594,607.75 277.3438,607.75 Q278.8125,607.75 279.2813,607.875 Q279.75,608.0781 279.75,608.0781 Q279.75,608.0781 279.75,608.0078 Q279.75,607.9375 280.3594,607.0156 L281.4063,610.6719 L280.0781,611.0781 Q279.6094,609.5313 278.9453,608.8672 Q278.2813,608.2031 277.2188,608.2031 Q276.8281,608.2031 276.0625,609.7344 Q275.2969,611.2656 275.2969,613.5156 Q275.2969,615.9844 275.9609,617.375 Q276.625,618.7656 277.1563,618.7656 Q278.2188,618.7656 278.9766,618 Q279.7344,617.2344 280.0781,615.5781 L281.4063,616.1719 Q281.0781,617.5781 280.1797,618.4688 Q279.2813,619.3594 277.0781,619.3594 Z " fill="#000000"/><text fill="#000000" font-family="sans-serif" font-size="14" lengthAdjust="spacing" textLength="99" x="292.5" y="620.4839">SourceLocation</text><line style="stroke:#181818;stroke-width:0.5;" x1="264.5" x2="393.5" y1="630" y2="630"/><line style="stroke:#181818;stroke-width:0.5;" x1="264.5" x2="393.5" y1="638" y2="638"/></g><!--class FileMgr--><g id="elem_FileMgr"><rect codeLine="22" fill="#F1F1F1" height="48" id="FileMgr" rx="2.5" ry="2.5" style="stroke:#181818;stroke-width:0.5;" width="79" x="566.5" y="598"/><ellipse cx="581.5" cy="614" fill="#ADD1B2" rx="11" ry="11" style="stroke:#181818;stroke-width:1.0;"/><path d="M580.0781,619.3594 Q578.2188,619.3594 577.125,617.9688 Q576.0313,616.5781 576.0313,613.5938 Q576.0313,611.0625 577.1953,609.4063 Q578.3594,607.75 580.3438,607.75 Q581.8125,607.75 582.2813,607.875 Q582.75,608.0781 582.75,608.0781 Q582.75,608.0781 582.75,608.0078 Q582.75,607.9375 583.3594,607.0156 L584.4063,610.6719 L583.0781,611.0781 Q582.6094,609.5313 581.9453,608.8672 Q581.2813,608.2031 580.2188,608.2031 Q579.8281,608.2031 579.0625,609.7344 Q578.2969,611.2656 578.2969,613.5156 Q578.2969,615.9844 578.9609,617.375 Q579.625,618.7656 580.1563,618.7656 Q581.2188,618.7656 581.9766,618 Q582.7344,617.2344 583.0781,615.5781 L584.4063,616.1719 Q584.0781,617.5781 583.1797,618.4688 Q582.2813,619.3594 580.0781,619.3594 Z " fill="#000000"/><text fill="#000000" font-family="sans-serif" font-size="14" lengthAdjust="spacing" textLength="47" x="595.5" y="620.4839">FileMgr</text><line style="stroke:#181818;stroke-width:0.5;" x1="567.5" x2="644.5" y1="630" y2="630"/><line style="stroke:#181818;stroke-width:0.5;" x1="567.5" x2="644.5" y1="638" y2="638"/></g><!--class MemoryBuffer--><g id="elem_MemoryBuffer"><rect codeLine="23" fill="#F1F1F1" height="48" id="MemoryBuffer" rx="2.5" ry="2.5" style="stroke:#181818;stroke-width:0.5;" width="120" x="827" y="598"/><ellipse cx="842" cy="614" fill="#ADD1B2" rx="11" ry="11" style="stroke:#181818;stroke-width:1.0;"/><path d="M840.5781,619.3594 Q838.7188,619.3594 837.625,617.9688 Q836.5313,616.5781 836.5313,613.5938 Q836.5313,611.0625 837.6953,609.4063 Q838.8594,607.75 840.8438,607.75 Q842.3125,607.75 842.7813,607.875 Q843.25,608.0781 843.25,608.0781 Q843.25,608.0781 843.25,608.0078 Q843.25,607.9375 843.8594,607.0156 L844.9063,610.6719 L843.5781,611.0781 Q843.1094,609.5313 842.4453,608.8672 Q841.7813,608.2031 840.7188,608.2031 Q840.3281,608.2031 839.5625,609.7344 Q838.7969,611.2656 838.7969,613.5156 Q838.7969,615.9844 839.4609,617.375 Q840.125,618.7656 840.6563,618.7656 Q841.7188,618.7656 842.4766,618 Q843.2344,617.2344 843.5781,615.5781 L844.9063,616.1719 Q844.5781,617.5781 843.6797,618.4688 Q842.7813,619.3594 840.5781,619.3594 Z " fill="#000000"/><text fill="#000000" font-family="sans-serif" font-size="14" lengthAdjust="spacing" textLength="88" x="856" y="620.4839">MemoryBuffer</text><line style="stroke:#181818;stroke-width:0.5;" x1="828" x2="946" y1="630" y2="630"/><line style="stroke:#181818;stroke-width:0.5;" x1="828" x2="946" y1="638" y2="638"/></g><g id="elem_GMN6"><path d="M413.5,6 L413.5,104.772 A0,0 0 0 0 413.5,104.772 L602,104.772 L606,164.58 L610,104.772 L798.5,104.772 A0,0 0 0 0 798.5,104.772 L798.5,16 L788.5,6 L413.5,6 A0,0 0 0 0 413.5,6 " fill="#FEFFDD" style="stroke:#181818;stroke-width:0.5;"/><path d="M788.5,6 L788.5,16 L798.5,16 L788.5,6 " fill="#FEFFDD" style="stroke:#181818;stroke-width:0.5;"/><text fill="#000000" font-family="sans-serif" font-size="13" lengthAdjust="spacing" textLength="299" x="419.5" y="25.8979">是编译器对文件管理的最上层结构，其功能一方面对</text><text fill="#000000" font-family="sans-serif" font-size="13" lengthAdjust="spacing" textLength="340" x="419.5" y="43.6523">SouceLoacation对象进行译码，并将其中的位置信息提供给</text><text fill="#000000" font-family="sans-serif" font-size="13" lengthAdjust="spacing" textLength="351" x="419.5" y="61.4067">诊断引擎和其他分析用对象，另外还管理所有编译过程中涉及</text><text fill="#000000" font-family="sans-serif" font-size="13" lengthAdjust="spacing" textLength="364" x="419.5" y="79.1611">到的文件信息，包括文件和缓冲区的映射，文件序列的管理，以</text><text fill="#000000" font-family="sans-serif" font-size="13" lengthAdjust="spacing" textLength="169" x="419.5" y="96.9155">及一些通用的文件管理操作。</text></g><g id="elem_GMN9"><path d="M6,706 L6,769.2632 A0,0 0 0 0 6,769.2632 L378,769.2632 A0,0 0 0 0 378,769.2632 L378,716 L368,706 L233.37,706 L300.95,646.24 L225.37,706 L6,706 A0,0 0 0 0 6,706 " fill="#FEFFDD" style="stroke:#181818;stroke-width:0.5;"/><path d="M368,706 L368,716 L378,716 L368,706 " fill="#FEFFDD" style="stroke:#181818;stroke-width:0.5;"/><text fill="#000000" font-family="sans-serif" font-size="13" lengthAdjust="spacing" textLength="344" x="12" y="725.8979">对源码中的每个token的位置进行记录，包括行，列信息以及</text><text fill="#000000" font-family="sans-serif" font-size="13" lengthAdjust="spacing" textLength="351" x="12" y="743.6523">一些需要扩展的宏或者内联的扩展前后位置信息，并按照一定</text><text fill="#000000" font-family="sans-serif" font-size="13" lengthAdjust="spacing" textLength="91" x="12" y="761.4067">的格式进行编码</text></g><g id="elem_GMN12"><path d="M413.5,714.5 L413.5,760.0088 A0,0 0 0 0 413.5,760.0088 L798.5,760.0088 A0,0 0 0 0 798.5,760.0088 L798.5,724.5 L788.5,714.5 L610,714.5 L606,646.24 L602,714.5 L413.5,714.5 A0,0 0 0 0 413.5,714.5 " fill="#FEFFDD" style="stroke:#181818;stroke-width:0.5;"/><path d="M788.5,714.5 L788.5,724.5 L798.5,724.5 L788.5,714.5 " fill="#FEFFDD" style="stroke:#181818;stroke-width:0.5;"/><text fill="#000000" font-family="sans-serif" font-size="13" lengthAdjust="spacing" textLength="364" x="419.5" y="734.3979">管理具体文件的相关信息，并提供一些操作文件的方法，如获取</text><text fill="#000000" font-family="sans-serif" font-size="13" lengthAdjust="spacing" textLength="312" x="419.5" y="752.1523">文件内容，读写文件，管理文件序列，操作文件目录等</text></g><g id="elem_GMN15"><path d="M834,714.5 L834,760.0088 A0,0 0 0 0 834,760.0088 L1232,760.0088 A0,0 0 0 0 1232,760.0088 L1232,724.5 L1222,714.5 L1008.14,714.5 L916.9,646.24 L1000.14,714.5 L834,714.5 A0,0 0 0 0 834,714.5 " fill="#FEFFDD" style="stroke:#181818;stroke-width:0.5;"/><path d="M1222,714.5 L1222,724.5 L1232,724.5 L1222,714.5 " fill="#FEFFDD" style="stroke:#181818;stroke-width:0.5;"/><text fill="#000000" font-family="sans-serif" font-size="13" lengthAdjust="spacing" textLength="377" x="840" y="734.3979">提供对文件内容读写的具体操作，其成员包含指向文件起始和结束</text><text fill="#000000" font-family="sans-serif" font-size="13" lengthAdjust="spacing" textLength="260" x="840" y="752.1523">位置的指针，并提供操作其中任一字符的方法</text></g><path d="M55,181.5 L55,209.2544 A0,0 0 0 0 55,209.2544 L154,209.2544 A0,0 0 0 0 154,209.2544 L154,199.5 L380.5,210.5601 L154,191.5 L154,191.5 L144,181.5 L55,181.5 A0,0 0 0 0 55,181.5 " fill="#FEFFDD" style="stroke:#181818;stroke-width:0.5;"/><path d="M144,181.5 L144,191.5 L154,191.5 L144,181.5 " fill="#FEFFDD" style="stroke:#181818;stroke-width:0.5;"/><text fill="#000000" font-family="sans-serif" font-size="13" lengthAdjust="spacing" textLength="78" x="61" y="201.3979">诊断引擎对象</text><path d="M55,219.2544 L55,247.0088 A0,0 0 0 0 55,247.0088 L258,247.0088 A0,0 0 0 0 258,247.0088 L258,237.2544 L380.5,248.8003 L258,229.2544 L258,229.2544 L248,219.2544 L55,219.2544 A0,0 0 0 0 55,219.2544 " fill="#FEFFDD" style="stroke:#181818;stroke-width:0.5;"/><path d="M248,219.2544 L248,229.2544 L258,229.2544 L248,219.2544 " fill="#FEFFDD" style="stroke:#181818;stroke-width:0.5;"/><text fill="#000000" font-family="sans-serif" font-size="13" lengthAdjust="spacing" textLength="182" x="61" y="239.1523">管理文件句柄和其内容的键值对</text><path d="M55,257.0088 L55,284.7632 A0,0 0 0 0 55,284.7632 L219,284.7632 A0,0 0 0 0 219,284.7632 L219,275.0088 L380.5,267.9204 L219,267.0088 L219,267.0088 L209,257.0088 L55,257.0088 A0,0 0 0 0 55,257.0088 " fill="#FEFFDD" style="stroke:#181818;stroke-width:0.5;"/><path d="M209,257.0088 L209,267.0088 L219,267.0088 L209,257.0088 " fill="#FEFFDD" style="stroke:#181818;stroke-width:0.5;"/><text fill="#000000" font-family="sans-serif" font-size="13" lengthAdjust="spacing" textLength="143" x="61" y="276.9067">存储已经读入的文件内容</text><path d="M55,294.7632 L55,322.5176 A0,0 0 0 0 55,322.5176 L264,322.5176 A0,0 0 0 0 264,322.5176 L264,312.7632 L380.5,306.1606 L264,304.7632 L264,304.7632 L254,294.7632 L55,294.7632 A0,0 0 0 0 55,294.7632 " fill="#FEFFDD" style="stroke:#181818;stroke-width:0.5;"/><path d="M254,294.7632 L254,304.7632 L264,304.7632 L254,294.7632 " fill="#FEFFDD" style="stroke:#181818;stroke-width:0.5;"/><text fill="#000000" font-family="sans-serif" font-size="13" lengthAdjust="spacing" textLength="188" x="61" y="314.6611">管理外部输入的SLocEntries的表</text><path d="M55,332.5176 L55,360.272 A0,0 0 0 0 55,360.272 L180,360.272 A0,0 0 0 0 180,360.272 L180,350.5176 L380.5,352.4009 L180,342.5176 L180,342.5176 L170,332.5176 L55,332.5176 A0,0 0 0 0 55,332.5176 " fill="#FEFFDD" style="stroke:#181818;stroke-width:0.5;"/><path d="M170,332.5176 L170,342.5176 L180,342.5176 L170,332.5176 " fill="#FEFFDD" style="stroke:#181818;stroke-width:0.5;"/><text fill="#000000" font-family="sans-serif" font-size="13" lengthAdjust="spacing" textLength="104" x="61" y="352.4155">获取诊断引擎对象</text><path d="M55,370.272 L55,398.0264 A0,0 0 0 0 55,398.0264 L169,398.0264 A0,0 0 0 0 169,398.0264 L169,388.272 L380.5,390.6411 L169,380.272 L169,380.272 L159,370.272 L55,370.272 A0,0 0 0 0 55,370.272 " fill="#FEFFDD" style="stroke:#181818;stroke-width:0.5;"/><path d="M159,370.272 L159,380.272 L169,380.272 L159,370.272 " fill="#FEFFDD" style="stroke:#181818;stroke-width:0.5;"/><text fill="#000000" font-family="sans-serif" font-size="13" lengthAdjust="spacing" textLength="93" x="61" y="390.1699">获取main文件号</text><path d="M55,408.0264 L55,435.7808 A0,0 0 0 0 55,435.7808 L341,435.7808 A0,0 0 0 0 341,435.7808 L341,426.0264 L380.5,428.8813 L341,418.0264 L341,418.0264 L331,408.0264 L55,408.0264 A0,0 0 0 0 55,408.0264 " fill="#FEFFDD" style="stroke:#181818;stroke-width:0.5;"/><path d="M331,408.0264 L331,418.0264 L341,418.0264 L331,408.0264 " fill="#FEFFDD" style="stroke:#181818;stroke-width:0.5;"/><text fill="#000000" font-family="sans-serif" font-size="13" lengthAdjust="spacing" textLength="265" x="61" y="427.9243">根据文件号获取其内容，内容用buffer对象管理</text><path d="M55,445.7808 L55,473.5352 A0,0 0 0 0 55,473.5352 L154,473.5352 A0,0 0 0 0 154,473.5352 L154,463.7808 L380.5,467.1216 L154,455.7808 L154,455.7808 L144,445.7808 L55,445.7808 A0,0 0 0 0 55,445.7808 " fill="#FEFFDD" style="stroke:#181818;stroke-width:0.5;"/><path d="M144,445.7808 L144,455.7808 L154,455.7808 L144,445.7808 " fill="#FEFFDD" style="stroke:#181818;stroke-width:0.5;"/><text fill="#000000" font-family="sans-serif" font-size="13" lengthAdjust="spacing" textLength="78" x="61" y="465.6787">获取文件名字</text><path d="M55,483.5352 L55,511.2896 A0,0 0 0 0 55,511.2896 L322,511.2896 A0,0 0 0 0 322,511.2896 L322,501.5352 L380.5,505.3618 L322,493.5352 L322,493.5352 L312,483.5352 L55,483.5352 A0,0 0 0 0 55,483.5352 " fill="#FEFFDD" style="stroke:#181818;stroke-width:0.5;"/><path d="M312,483.5352 L312,493.5352 L322,493.5352 L312,483.5352 " fill="#FEFFDD" style="stroke:#181818;stroke-width:0.5;"/><text fill="#000000" font-family="sans-serif" font-size="13" lengthAdjust="spacing" textLength="246" x="61" y="503.4331">创建代码展开后文件的SourceLocation对象</text><path d="M870.5,191.5 L870.5,201.3772 L539.5,229.6802 L870.5,209.3772 L870.5,219.2544 A0,0 0 0 0 870.5,219.2544 L1177.5,219.2544 A0,0 0 0 0 1177.5,219.2544 L1177.5,201.5 L1167.5,191.5 L870.5,191.5 A0,0 0 0 0 870.5,191.5 " fill="#FEFFDD" style="stroke:#181818;stroke-width:0.5;"/><path d="M1167.5,191.5 L1167.5,201.5 L1177.5,201.5 L1167.5,191.5 " fill="#FEFFDD" style="stroke:#181818;stroke-width:0.5;"/><text fill="#000000" font-family="sans-serif" font-size="13" lengthAdjust="spacing" textLength="286" x="876.5" y="211.3979">文件管理器，提供一些通用的文件和目录操作方法</text><path d="M870.5,229.2544 L870.5,239.1316 L764.5,287.0405 L870.5,247.1316 L870.5,257.0088 A0,0 0 0 0 870.5,257.0088 L1287.5,257.0088 A0,0 0 0 0 1287.5,257.0088 L1287.5,239.2544 L1277.5,229.2544 L870.5,229.2544 A0,0 0 0 0 870.5,229.2544 " fill="#FEFFDD" style="stroke:#181818;stroke-width:0.5;"/><path d="M1277.5,229.2544 L1277.5,239.2544 L1287.5,239.2544 L1277.5,229.2544 " fill="#FEFFDD" style="stroke:#181818;stroke-width:0.5;"/><text fill="#000000" font-family="sans-serif" font-size="13" lengthAdjust="spacing" textLength="396" x="876.5" y="249.1523">管理SLocEntries的表，SLocEntries管理代码expansion后的位置信息</text><path d="M870.5,267.0088 L870.5,276.886 L506.5,325.2808 L870.5,284.886 L870.5,294.7632 A0,0 0 0 0 870.5,294.7632 L997.5,294.7632 A0,0 0 0 0 997.5,294.7632 L997.5,277.0088 L987.5,267.0088 L870.5,267.0088 A0,0 0 0 0 870.5,267.0088 " fill="#FEFFDD" style="stroke:#181818;stroke-width:0.5;"/><path d="M987.5,267.0088 L987.5,277.0088 L997.5,277.0088 L987.5,267.0088 " fill="#FEFFDD" style="stroke:#181818;stroke-width:0.5;"/><text fill="#000000" font-family="sans-serif" font-size="13" lengthAdjust="spacing" textLength="106" x="876.5" y="286.9067">main文件的文件号</text><path d="M870.5,304.7632 L870.5,314.6404 L505.5,371.521 L870.5,322.6404 L870.5,332.5176 A0,0 0 0 0 870.5,332.5176 L982.5,332.5176 A0,0 0 0 0 982.5,332.5176 L982.5,314.7632 L972.5,304.7632 L870.5,304.7632 A0,0 0 0 0 870.5,304.7632 " fill="#FEFFDD" style="stroke:#181818;stroke-width:0.5;"/><path d="M972.5,304.7632 L972.5,314.7632 L982.5,314.7632 L972.5,304.7632 " fill="#FEFFDD" style="stroke:#181818;stroke-width:0.5;"/><text fill="#000000" font-family="sans-serif" font-size="13" lengthAdjust="spacing" textLength="91" x="876.5" y="324.6611">获取文件管理器</text><path d="M870.5,342.5176 L870.5,352.3948 L482.5,409.7612 L870.5,360.3948 L870.5,370.272 A0,0 0 0 0 870.5,370.272 L1008.5,370.272 A0,0 0 0 0 1008.5,370.272 L1008.5,352.5176 L998.5,342.5176 L870.5,342.5176 A0,0 0 0 0 870.5,342.5176 " fill="#FEFFDD" style="stroke:#181818;stroke-width:0.5;"/><path d="M998.5,342.5176 L998.5,352.5176 L1008.5,352.5176 L998.5,342.5176 " fill="#FEFFDD" style="stroke:#181818;stroke-width:0.5;"/><text fill="#000000" font-family="sans-serif" font-size="13" lengthAdjust="spacing" textLength="117" x="876.5" y="362.4155">创建一个新的文件号</text><path d="M870.5,380.272 L870.5,390.1492 L494.5,448.0015 L870.5,398.1492 L870.5,408.0264 A0,0 0 0 0 870.5,408.0264 L1058.5,408.0264 A0,0 0 0 0 1058.5,408.0264 L1058.5,390.272 L1048.5,380.272 L870.5,380.272 A0,0 0 0 0 870.5,380.272 " fill="#FEFFDD" style="stroke:#181818;stroke-width:0.5;"/><path d="M1048.5,380.272 L1048.5,390.272 L1058.5,390.272 L1048.5,380.272 " fill="#FEFFDD" style="stroke:#181818;stroke-width:0.5;"/><text fill="#000000" font-family="sans-serif" font-size="13" lengthAdjust="spacing" textLength="167" x="876.5" y="400.1699">获取文件buffer中的具体string</text><path d="M870.5,418.0264 L870.5,436.7808 L467.5,486.2417 L870.5,444.7808 L870.5,463.5352 A0,0 0 0 0 870.5,463.5352 L1203.5,463.5352 A0,0 0 0 0 1203.5,463.5352 L1203.5,428.0264 L1193.5,418.0264 L870.5,418.0264 A0,0 0 0 0 870.5,418.0264 " fill="#FEFFDD" style="stroke:#181818;stroke-width:0.5;"/><path d="M1193.5,418.0264 L1193.5,428.0264 L1203.5,428.0264 L1193.5,418.0264 " fill="#FEFFDD" style="stroke:#181818;stroke-width:0.5;"/><text fill="#000000" font-family="sans-serif" font-size="13" lengthAdjust="spacing" textLength="312" x="876.5" y="437.9243">打印在编译过程中读写了哪些文件，映射了哪些文件，</text><text fill="#000000" font-family="sans-serif" font-size="13" lengthAdjust="spacing" textLength="39" x="876.5" y="455.6787">调试用</text><path d="M870.5,473.5352 L870.5,483.4124 L536.5,524.4819 L870.5,491.4124 L870.5,501.2896 A0,0 0 0 0 870.5,501.2896 L1133.5,501.2896 A0,0 0 0 0 1133.5,501.2896 L1133.5,483.5352 L1123.5,473.5352 L870.5,473.5352 A0,0 0 0 0 870.5,473.5352 " fill="#FEFFDD" style="stroke:#181818;stroke-width:0.5;"/><path d="M1123.5,473.5352 L1123.5,483.5352 L1133.5,483.5352 L1123.5,473.5352 " fill="#FEFFDD" style="stroke:#181818;stroke-width:0.5;"/><text fill="#000000" font-family="sans-serif" font-size="13" lengthAdjust="spacing" textLength="242" x="876.5" y="493.4331">创建代码展开前文件的SouceLocation对象</text><!--link SourceManager to FileMgr--><g id="link_SourceManager_FileMgr"><path codeLine="99" d="M606,538.25 C606,558.58 606,577.05 606,591.36 " fill="none" id="SourceManager-to-FileMgr" style="stroke:#181818;stroke-width:1.0;"/><polygon fill="#181818" points="606,596.12,610,587.12,606,591.12,602,587.12,606,596.12" style="stroke:#181818;stroke-width:1.0;"/></g><!--link SourceManager to SourceLocation--><g id="link_SourceManager_SourceLocation"><path codeLine="100" d="M414.37,538.25 C392.45,559.49 372.63,578.71 357.61,593.27 " fill="none" id="SourceManager-to-SourceLocation" style="stroke:#181818;stroke-width:1.0;"/><polygon fill="#181818" points="354.2,596.58,363.4484,593.1938,357.7923,593.1022,357.8839,587.4461,354.2,596.58" style="stroke:#181818;stroke-width:1.0;"/></g><!--link SourceManager to MemoryBuffer--><g id="link_SourceManager_MemoryBuffer"><path codeLine="101" d="M800.4,538.25 C822.63,559.49 842.74,578.71 857.98,593.27 " fill="none" id="SourceManager-to-MemoryBuffer" style="stroke:#181818;stroke-width:1.0;"/><polygon fill="#181818" points="861.45,596.59,857.7111,587.4784,857.8368,593.1339,852.1813,593.2596,861.45,596.59" style="stroke:#181818;stroke-width:1.0;"/></g><!--SRC=[dLVTJnfP57-_VyKyRNRTckmpQNpOwYPDQh89pRwFTAIaC6DcfarDqmG_G50GB8eVsAhTQbct0hPPHGRg7xDpxunF-o_ikNE6OGRGqFf0uDnxplcTt_cwHkAYfWbXvRaQaQP5MOnAgl2A2F0tFXaJeo61VygAfiSYsfGSZSdI3tZwMomkJKVLaE1yGKtVqKDvLj52GZp-8X4AJKgo1dVcxaSKMTCTZIbPL-V7xWbXDSAjX1ueiYx9-WCnybGQcq0xqrBYr-UpivAAnZJzIIZqGeheYdh_BhL7IaICX-7JyV5Od8bB8I6S4EFnFuBAtfrxmYyJ0YfFlTGbLUxfnoHD20dzqdaaRCp5ASPa9-P9PEFXf2F_EIhfFlP-_CcJ-YZpINjckiA8Aecw59J1HIHbG30fwcAV4rbCI5tHxsfCriEwg6j1yrClvqHPYoaon1OyUQmya-JmN3ocuz5hGYA-Sk4yww3twhKhTal2-mtvKzHv10T2MT4bGLVc16KsM724xTIjTjckRz3TAgrViVAAQLnOjIEhcBRsbjb-qcokqlD5ooYnTyl_jNCqTK5N3-obZjbCilBLpTlte4N09WSb8YgGsET7zdN5Fig1PUjmWIjUNT166jJDvXbODZjvgrCphu_OGfqLYkRNYcNi4hk-oifdjBt5Iklq3NTc6cMQIRDtHMkpYdQvhS89_L2shtSGACicsNuMmx2lLwpg6lXW5rbQM2Kqq-1nE66XDwwVIx6rJoW4DrQxHDEVQQx5R-uSqWOFr3rj5MXc6-Je2UIcSKp0C8HljYetoJt0vJbmuPJoPcV_t-GYaUGd0gSU-PzHT5r9z5BGJIBXlBUAG1DIm-e5itcgymhmY7B9h3LePyiB02JyUsOR0mDaF68NsNxIFbbWsR_e-HPOeRK2ovJjP8gcK_R29lVY7D5idXRN_Sd0LB5Srafz15EqjaVuxSCsRHSG1H0DM6yDpYr5WcJGrANPARdq08sL9arz2NXoae-WaJdlCjGN- -A4Ux9ehr_IGfcuMKcdQEqA3kowGTExA8IVBl- -pF54-erMQa2WTPQz5Rs_SGXYyze2tQ9FpYc6vfZ7pc2P8jtOWUJGujyijqAB6wXe_tD9FwxnIeCsUdj0a6yUOMxbvat6JmIQmpOn3ODdu6pR-dJYqT53JX1xN9hL1_eQ1Z-Cls0_ETtZgGkehSQYJuUfTxFeBsmO4PnFNyBwwfz7w33SvJm0MBWJhxUvI22BXMDsi8oZ0Ea7PpURDPfiyxapckdWCYFqR8SkLkdbPyiey6IcZdi1E2v6vMZ8jdF1-rOOsBQFE6z-cNF9DFw4FfAwEm3wi6ykZXZUaBtPRRuFvPkbglsrX34Ee1erqDvw90duwcjGpD7bY4Y3MvbWJtz_ZGRNkMkkhs17H-OB4YtrGXqIuMsO_Ey6M3uLQhHugpHFMRdnVOnrPz7X5SlNF7s4w7K57o7O7flL6KS1gKGUle7Gtdicm2VQnFs4Sq-3EfAZeuVHVHC5pD9Y7iRRgF1wpoZ2iYMQRz3zQj_Mn-5ijjAqTCeNIdSpu5eVb1ExiMJNju2r4ICPVBXri-nqCr-fxIIqijSZmLt_RGK-v2qup5isx_TsXpCI_6TZV7p2szQ39tsFbC4B_bNvFm00]--></g></svg>