<?xml version="1.0" encoding="UTF-8" standalone="no"?><svg xmlns="http://www.w3.org/2000/svg" xmlns:xlink="http://www.w3.org/1999/xlink" contentStyleType="text/css" height="953px" preserveAspectRatio="none" style="width:1938px;height:953px;background:#FFFFFF;" version="1.1" viewBox="0 0 1938 953" width="1938px" zoomAndPan="magnify"><defs/><g><!--class DiagnosticConsumer--><g id="elem_DiagnosticConsumer"><rect codeLine="1" fill="#ADFF2F" height="239.2012" id="DiagnosticConsumer" rx="2.5" ry="2.5" style="stroke:#181818;stroke-width:0.5;" width="245" x="1500.5" y="598"/><ellipse cx="1553.25" cy="614" fill="#A9DCDF" rx="11" ry="11" style="stroke:#181818;stroke-width:1.0;"/><path d="M1553.625,613.9844 L1551.6406,613.9844 L1551.0469,616.5 Q1550.9844,616.8438 1550.9844,617.0313 Q1550.9844,617.2969 1551.0781,617.5625 Q1551.1719,617.8281 1551.1719,617.8281 L1551.8438,617.8281 L1551.8438,618.2344 L1548.3906,618.2344 L1548.3906,617.8281 L1548.5781,617.8281 Q1548.8438,617.8281 1549.0469,617.6641 Q1549.25,617.5 1549.3125,617.1094 L1551.9063,606.9375 L1553.7813,606.3281 L1556.4219,617.1094 Q1556.5625,617.5 1556.7578,617.6641 Q1556.9531,617.8281 1556.9531,617.8281 L1557.4219,617.8281 L1557.4219,618.2344 L1553.5625,618.2344 L1553.5625,617.8281 L1553.8281,617.8281 Q1554.2344,617.8281 1554.2969,617.6641 Q1554.3594,617.5 1554.3594,617.375 Q1554.3594,617.1094 1554.2969,616.9063 L1553.625,613.9844 Z M1552.2344,608.0781 L1552.2344,608.0781 L1551.7813,613.5781 L1553.5625,613.5781 L1552.2344,608.0781 Z " fill="#000000"/><text fill="#000000" font-family="sans-serif" font-size="14" font-style="italic" lengthAdjust="spacing" textLength="131" x="1573.75" y="620.4839">DiagnosticConsumer</text><line style="stroke:#181818;stroke-width:0.5;" x1="1501.5" x2="1744.5" y1="630" y2="630"/><polygon fill="none" points="1511.5,640.0601,1515.5,644.0601,1511.5,648.0601,1507.5,644.0601" style="stroke:#B38D22;stroke-width:1.0;"/><text fill="#000000" font-family="sans-serif" font-size="14" lengthAdjust="spacing" textLength="154" x="1520.5" y="650.0439">NumWarnings: unsigned</text><polygon fill="none" points="1511.5,659.1802,1515.5,663.1802,1511.5,667.1802,1507.5,663.1802" style="stroke:#B38D22;stroke-width:1.0;"/><text fill="#000000" font-family="sans-serif" font-size="14" lengthAdjust="spacing" textLength="133" x="1520.5" y="669.1641">NumErrors: unsigned</text><line style="stroke:#181818;stroke-width:0.5;" x1="1501.5" x2="1744.5" y1="676.2402" y2="676.2402"/><ellipse cx="1511.5" cy="691.3003" fill="#84BE84" rx="3" ry="3" style="stroke:#038048;stroke-width:1.0;"/><text fill="#000000" font-family="sans-serif" font-size="14" lengthAdjust="spacing" textLength="97" x="1520.5" y="696.2842">getNumErrors()</text><ellipse cx="1511.5" cy="710.4204" fill="#84BE84" rx="3" ry="3" style="stroke:#038048;stroke-width:1.0;"/><text fill="#000000" font-family="sans-serif" font-size="14" lengthAdjust="spacing" textLength="118" x="1520.5" y="715.4043">getNumWarnings()</text><ellipse cx="1511.5" cy="729.5405" fill="#84BE84" rx="3" ry="3" style="stroke:#038048;stroke-width:1.0;"/><text fill="#000000" font-family="sans-serif" font-size="14" lengthAdjust="spacing" textLength="83" x="1520.5" y="734.5244">virtual clear()</text><ellipse cx="1511.5" cy="748.6606" fill="#84BE84" rx="3" ry="3" style="stroke:#038048;stroke-width:1.0;"/><text fill="#000000" font-family="sans-serif" font-size="14" lengthAdjust="spacing" textLength="156" x="1520.5" y="753.6445">virtual BeginSourceFile()</text><ellipse cx="1511.5" cy="767.7808" fill="#84BE84" rx="3" ry="3" style="stroke:#038048;stroke-width:1.0;"/><text fill="#000000" font-family="sans-serif" font-size="14" lengthAdjust="spacing" textLength="145" x="1520.5" y="772.7646">virtual EndSourceFile()</text><ellipse cx="1511.5" cy="786.9009" fill="#84BE84" rx="3" ry="3" style="stroke:#038048;stroke-width:1.0;"/><text fill="#000000" font-family="sans-serif" font-size="14" lengthAdjust="spacing" textLength="85" x="1520.5" y="791.8848">virtual finish()</text><ellipse cx="1511.5" cy="806.021" fill="#84BE84" rx="3" ry="3" style="stroke:#038048;stroke-width:1.0;"/><text fill="#000000" font-family="sans-serif" font-size="14" lengthAdjust="spacing" textLength="219" x="1520.5" y="811.0049">virtual IncludeInDiagnosticCounts()</text><ellipse cx="1511.5" cy="825.1411" fill="#84BE84" rx="3" ry="3" style="stroke:#038048;stroke-width:1.0;"/><text fill="#000000" font-family="sans-serif" font-size="14" lengthAdjust="spacing" textLength="162" x="1520.5" y="830.125">virtual HandleDiagnostic()</text></g><g id="elem_GMN3"><path d="M1451,424 L1451,469.5088 A0,0 0 0 0 1451,469.5088 L1548.43,469.5088 L1588.91,597.64 L1556.43,469.5088 L1641,469.5088 A0,0 0 0 0 1641,469.5088 L1641,434 L1631,424 L1451,424 A0,0 0 0 0 1451,424 " fill="#FEFFDD" style="stroke:#181818;stroke-width:0.5;"/><path d="M1631,424 L1631,434 L1641,434 L1631,424 " fill="#FEFFDD" style="stroke:#181818;stroke-width:0.5;"/><text fill="#000000" font-family="sans-serif" font-size="13" lengthAdjust="spacing" textLength="169" x="1457" y="443.8979">用来解析诊断引擎里的信息，</text><text fill="#000000" font-family="sans-serif" font-size="13" lengthAdjust="spacing" textLength="117" x="1457" y="461.6523">并以合适的格式输出</text></g><!--class UserConsumer--><g id="elem_UserConsumer"><rect codeLine="17" fill="#F1F1F1" height="48" id="UserConsumer" rx="2.5" ry="2.5" style="stroke:#181818;stroke-width:0.5;" width="126" x="1560" y="898"/><ellipse cx="1575" cy="914" fill="#ADD1B2" rx="11" ry="11" style="stroke:#181818;stroke-width:1.0;"/><path d="M1573.5781,919.3594 Q1571.7188,919.3594 1570.625,917.9688 Q1569.5313,916.5781 1569.5313,913.5938 Q1569.5313,911.0625 1570.6953,909.4063 Q1571.8594,907.75 1573.8438,907.75 Q1575.3125,907.75 1575.7813,907.875 Q1576.25,908.0781 1576.25,908.0781 Q1576.25,908.0781 1576.25,908.0078 Q1576.25,907.9375 1576.8594,907.0156 L1577.9063,910.6719 L1576.5781,911.0781 Q1576.1094,909.5313 1575.4453,908.8672 Q1574.7813,908.2031 1573.7188,908.2031 Q1573.3281,908.2031 1572.5625,909.7344 Q1571.7969,911.2656 1571.7969,913.5156 Q1571.7969,915.9844 1572.4609,917.375 Q1573.125,918.7656 1573.6563,918.7656 Q1574.7188,918.7656 1575.4766,918 Q1576.2344,917.2344 1576.5781,915.5781 L1577.9063,916.1719 Q1577.5781,917.5781 1576.6797,918.4688 Q1575.7813,919.3594 1573.5781,919.3594 Z " fill="#000000"/><text fill="#000000" font-family="sans-serif" font-size="14" lengthAdjust="spacing" textLength="94" x="1589" y="920.4839">UserConsumer</text><line style="stroke:#181818;stroke-width:0.5;" x1="1561" x2="1685" y1="930" y2="930"/><line style="stroke:#181818;stroke-width:0.5;" x1="1561" x2="1685" y1="938" y2="938"/></g><g id="elem_GMN8"><path d="M1721,908 L1721,918 L1686.25,922 L1721,926 L1721,935.7544 A0,0 0 0 0 1721,935.7544 L1877,935.7544 A0,0 0 0 0 1877,935.7544 L1877,918 L1867,908 L1721,908 A0,0 0 0 0 1721,908 " fill="#FEFFDD" style="stroke:#181818;stroke-width:0.5;"/><path d="M1867,908 L1867,918 L1877,918 L1867,908 " fill="#FEFFDD" style="stroke:#181818;stroke-width:0.5;"/><text fill="#000000" font-family="sans-serif" font-size="13" lengthAdjust="spacing" textLength="135" x="1727" y="927.8979">用户自定义的consumer</text></g><!--class DiagnosticsEngine--><g id="elem_DiagnosticsEngine"><rect codeLine="22" fill="#00FFFF" height="143.6006" id="DiagnosticsEngine" rx="2.5" ry="2.5" style="stroke:#181818;stroke-width:0.5;" width="211" x="642.5" y="375"/><ellipse cx="685.4" cy="391" fill="#ADD1B2" rx="11" ry="11" style="stroke:#181818;stroke-width:1.0;"/><path d="M683.9781,396.3594 Q682.1188,396.3594 681.025,394.9688 Q679.9313,393.5781 679.9313,390.5938 Q679.9313,388.0625 681.0953,386.4063 Q682.2594,384.75 684.2438,384.75 Q685.7125,384.75 686.1813,384.875 Q686.65,385.0781 686.65,385.0781 Q686.65,385.0781 686.65,385.0078 Q686.65,384.9375 687.2594,384.0156 L688.3063,387.6719 L686.9781,388.0781 Q686.5094,386.5313 685.8453,385.8672 Q685.1813,385.2031 684.1188,385.2031 Q683.7281,385.2031 682.9625,386.7344 Q682.1969,388.2656 682.1969,390.5156 Q682.1969,392.9844 682.8609,394.375 Q683.525,395.7656 684.0563,395.7656 Q685.1188,395.7656 685.8766,395 Q686.6344,394.2344 686.9781,392.5781 L688.3063,393.1719 Q687.9781,394.5781 687.0797,395.4688 Q686.1813,396.3594 683.9781,396.3594 Z " fill="#000000"/><text fill="#000000" font-family="sans-serif" font-size="14" lengthAdjust="spacing" textLength="117" x="705.6" y="397.4839">DiagnosticsEngine</text><line style="stroke:#181818;stroke-width:0.5;" x1="643.5" x2="852.5" y1="407" y2="407"/><rect fill="none" height="6" style="stroke:#C82930;stroke-width:1.0;" width="6" x="650.5" y="419.0601"/><text fill="#000000" font-family="sans-serif" font-size="14" lengthAdjust="spacing" textLength="130" x="662.5" y="427.0439">Diags: DiagnosticIDs</text><rect fill="none" height="6" style="stroke:#C82930;stroke-width:1.0;" width="6" x="650.5" y="438.1802"/><text fill="#000000" font-family="sans-serif" font-size="14" lengthAdjust="spacing" textLength="182" x="662.5" y="446.1641">DiagOpts: DiagnosticOptions</text><rect fill="none" height="6" style="stroke:#C82930;stroke-width:1.0;" width="6" x="650.5" y="457.3003"/><text fill="#000000" font-family="sans-serif" font-size="14" lengthAdjust="spacing" textLength="180" x="662.5" y="465.2842">Client: DiagnosticConsumer*</text><rect fill="none" height="6" style="stroke:#C82930;stroke-width:1.0;" width="6" x="650.5" y="476.4204"/><text fill="#000000" font-family="sans-serif" font-size="14" lengthAdjust="spacing" textLength="185" x="662.5" y="484.4043">Owner: DiagnosticConsumer*</text><rect fill="none" height="6" style="stroke:#C82930;stroke-width:1.0;" width="6" x="650.5" y="495.5405"/><text fill="#000000" font-family="sans-serif" font-size="14" lengthAdjust="spacing" textLength="178" x="662.5" y="503.5244">SourceMgr: SourceManager</text><line style="stroke:#181818;stroke-width:0.5;" x1="643.5" x2="852.5" y1="510.6006" y2="510.6006"/></g><g id="elem_GMN12"><path d="M430.5,424 L430.5,469.5088 A0,0 0 0 0 430.5,469.5088 L607.5,469.5088 A0,0 0 0 0 607.5,469.5088 L607.5,451 L642.12,447 L607.5,443 L607.5,434 L597.5,424 L430.5,424 A0,0 0 0 0 430.5,424 " fill="#FEFFDD" style="stroke:#181818;stroke-width:0.5;"/><path d="M597.5,424 L597.5,434 L607.5,434 L597.5,424 " fill="#FEFFDD" style="stroke:#181818;stroke-width:0.5;"/><text fill="#000000" font-family="sans-serif" font-size="13" lengthAdjust="spacing" textLength="156" x="436.5" y="443.8979">诊断引擎实例对象，包含了</text><text fill="#000000" font-family="sans-serif" font-size="13" lengthAdjust="spacing" textLength="143" x="436.5" y="461.6523">所有诊断需要的必要信息</text></g><!--class DiagnosticOptions--><g id="elem_DiagnosticOptions"><rect codeLine="33" fill="#F1F1F1" height="105.3604" id="DiagnosticOptions" rx="2.5" ry="2.5" style="stroke:#181818;stroke-width:0.5;" width="180" x="1285" y="665"/><ellipse cx="1314.85" cy="681" fill="#ADD1B2" rx="11" ry="11" style="stroke:#181818;stroke-width:1.0;"/><path d="M1313.4281,686.3594 Q1311.5688,686.3594 1310.475,684.9688 Q1309.3813,683.5781 1309.3813,680.5938 Q1309.3813,678.0625 1310.5453,676.4063 Q1311.7094,674.75 1313.6938,674.75 Q1315.1625,674.75 1315.6313,674.875 Q1316.1,675.0781 1316.1,675.0781 Q1316.1,675.0781 1316.1,675.0078 Q1316.1,674.9375 1316.7094,674.0156 L1317.7563,677.6719 L1316.4281,678.0781 Q1315.9594,676.5313 1315.2953,675.8672 Q1314.6313,675.2031 1313.5688,675.2031 Q1313.1781,675.2031 1312.4125,676.7344 Q1311.6469,678.2656 1311.6469,680.5156 Q1311.6469,682.9844 1312.3109,684.375 Q1312.975,685.7656 1313.5063,685.7656 Q1314.5688,685.7656 1315.3266,685 Q1316.0844,684.2344 1316.4281,682.5781 L1317.7563,683.1719 Q1317.4281,684.5781 1316.5297,685.4688 Q1315.6313,686.3594 1313.4281,686.3594 Z " fill="#000000"/><text fill="#000000" font-family="sans-serif" font-size="14" lengthAdjust="spacing" textLength="115" x="1332.15" y="687.4839">DiagnosticOptions</text><line style="stroke:#181818;stroke-width:0.5;" x1="1286" x2="1464" y1="697" y2="697"/><rect fill="none" height="6" style="stroke:#C82930;stroke-width:1.0;" width="6" x="1293" y="709.0601"/><text fill="#000000" font-family="sans-serif" font-size="14" lengthAdjust="spacing" textLength="121" x="1305" y="717.0439">showLocation: bool</text><rect fill="none" height="6" style="stroke:#C82930;stroke-width:1.0;" width="6" x="1293" y="728.1802"/><text fill="#000000" font-family="sans-serif" font-size="14" lengthAdjust="spacing" textLength="154" x="1305" y="736.1641">ShowOptionNames: bool</text><rect fill="none" height="6" style="stroke:#C82930;stroke-width:1.0;" width="6" x="1293" y="747.3003"/><text fill="#000000" font-family="sans-serif" font-size="14" lengthAdjust="spacing" textLength="117" x="1305" y="755.2842">ShowColumn: bool</text><line style="stroke:#181818;stroke-width:0.5;" x1="1286" x2="1464" y1="762.3604" y2="762.3604"/></g><g id="elem_GMN16"><path d="M1072.5,686 L1072.5,749.2632 A0,0 0 0 0 1072.5,749.2632 L1249.5,749.2632 A0,0 0 0 0 1249.5,749.2632 L1249.5,721.5 L1284.88,717.5 L1249.5,713.5 L1249.5,696 L1239.5,686 L1072.5,686 A0,0 0 0 0 1072.5,686 " fill="#FEFFDD" style="stroke:#181818;stroke-width:0.5;"/><path d="M1239.5,686 L1239.5,696 L1249.5,696 L1239.5,686 " fill="#FEFFDD" style="stroke:#181818;stroke-width:0.5;"/><text fill="#000000" font-family="sans-serif" font-size="13" lengthAdjust="spacing" textLength="156" x="1078.5" y="705.8979">控制诊断引擎的一些选项，</text><text fill="#000000" font-family="sans-serif" font-size="13" lengthAdjust="spacing" textLength="143" x="1078.5" y="723.6523">包括诊断信息的，输出格</text><text fill="#000000" font-family="sans-serif" font-size="13" lengthAdjust="spacing" textLength="143" x="1078.5" y="741.4067">式诊断输出的内容等信息</text></g><!--class DiagState--><g id="elem_DiagState"><rect codeLine="43" fill="#F1F1F1" height="48" id="DiagState" rx="2.5" ry="2.5" style="stroke:#181818;stroke-width:0.5;" width="94" x="7" y="693.5"/><ellipse cx="22" cy="709.5" fill="#ADD1B2" rx="11" ry="11" style="stroke:#181818;stroke-width:1.0;"/><path d="M20.5781,714.8594 Q18.7188,714.8594 17.625,713.4688 Q16.5313,712.0781 16.5313,709.0938 Q16.5313,706.5625 17.6953,704.9063 Q18.8594,703.25 20.8438,703.25 Q22.3125,703.25 22.7813,703.375 Q23.25,703.5781 23.25,703.5781 Q23.25,703.5781 23.25,703.5078 Q23.25,703.4375 23.8594,702.5156 L24.9063,706.1719 L23.5781,706.5781 Q23.1094,705.0313 22.4453,704.3672 Q21.7813,703.7031 20.7188,703.7031 Q20.3281,703.7031 19.5625,705.2344 Q18.7969,706.7656 18.7969,709.0156 Q18.7969,711.4844 19.4609,712.875 Q20.125,714.2656 20.6563,714.2656 Q21.7188,714.2656 22.4766,713.5 Q23.2344,712.7344 23.5781,711.0781 L24.9063,711.6719 Q24.5781,713.0781 23.6797,713.9688 Q22.7813,714.8594 20.5781,714.8594 Z " fill="#000000"/><text fill="#000000" font-family="sans-serif" font-size="14" lengthAdjust="spacing" textLength="62" x="36" y="715.9839">DiagState</text><line style="stroke:#181818;stroke-width:0.5;" x1="8" x2="100" y1="725.5" y2="725.5"/><line style="stroke:#181818;stroke-width:0.5;" x1="8" x2="100" y1="733.5" y2="733.5"/></g><!--class DiagStateMap--><g id="elem_DiagStateMap"><rect codeLine="44" fill="#F1F1F1" height="48" id="DiagStateMap" rx="2.5" ry="2.5" style="stroke:#181818;stroke-width:0.5;" width="121" x="136.5" y="693.5"/><ellipse cx="151.5" cy="709.5" fill="#ADD1B2" rx="11" ry="11" style="stroke:#181818;stroke-width:1.0;"/><path d="M150.0781,714.8594 Q148.2188,714.8594 147.125,713.4688 Q146.0313,712.0781 146.0313,709.0938 Q146.0313,706.5625 147.1953,704.9063 Q148.3594,703.25 150.3438,703.25 Q151.8125,703.25 152.2813,703.375 Q152.75,703.5781 152.75,703.5781 Q152.75,703.5781 152.75,703.5078 Q152.75,703.4375 153.3594,702.5156 L154.4063,706.1719 L153.0781,706.5781 Q152.6094,705.0313 151.9453,704.3672 Q151.2813,703.7031 150.2188,703.7031 Q149.8281,703.7031 149.0625,705.2344 Q148.2969,706.7656 148.2969,709.0156 Q148.2969,711.4844 148.9609,712.875 Q149.625,714.2656 150.1563,714.2656 Q151.2188,714.2656 151.9766,713.5 Q152.7344,712.7344 153.0781,711.0781 L154.4063,711.6719 Q154.0781,713.0781 153.1797,713.9688 Q152.2813,714.8594 150.0781,714.8594 Z " fill="#000000"/><text fill="#000000" font-family="sans-serif" font-size="14" lengthAdjust="spacing" textLength="89" x="165.5" y="715.9839">DiagStateMap</text><line style="stroke:#181818;stroke-width:0.5;" x1="137.5" x2="256.5" y1="725.5" y2="725.5"/><line style="stroke:#181818;stroke-width:0.5;" x1="137.5" x2="256.5" y1="733.5" y2="733.5"/></g><!--class FixItHint--><g id="elem_FixItHint"><rect codeLine="45" fill="#F1F1F1" height="48" id="FixItHint" rx="2.5" ry="2.5" style="stroke:#181818;stroke-width:0.5;" width="81" x="292.5" y="693.5"/><ellipse cx="307.5" cy="709.5" fill="#ADD1B2" rx="11" ry="11" style="stroke:#181818;stroke-width:1.0;"/><path d="M306.0781,714.8594 Q304.2188,714.8594 303.125,713.4688 Q302.0313,712.0781 302.0313,709.0938 Q302.0313,706.5625 303.1953,704.9063 Q304.3594,703.25 306.3438,703.25 Q307.8125,703.25 308.2813,703.375 Q308.75,703.5781 308.75,703.5781 Q308.75,703.5781 308.75,703.5078 Q308.75,703.4375 309.3594,702.5156 L310.4063,706.1719 L309.0781,706.5781 Q308.6094,705.0313 307.9453,704.3672 Q307.2813,703.7031 306.2188,703.7031 Q305.8281,703.7031 305.0625,705.2344 Q304.2969,706.7656 304.2969,709.0156 Q304.2969,711.4844 304.9609,712.875 Q305.625,714.2656 306.1563,714.2656 Q307.2188,714.2656 307.9766,713.5 Q308.7344,712.7344 309.0781,711.0781 L310.4063,711.6719 Q310.0781,713.0781 309.1797,713.9688 Q308.2813,714.8594 306.0781,714.8594 Z " fill="#000000"/><text fill="#000000" font-family="sans-serif" font-size="14" lengthAdjust="spacing" textLength="49" x="321.5" y="715.9839">FixItHint</text><line style="stroke:#181818;stroke-width:0.5;" x1="293.5" x2="372.5" y1="725.5" y2="725.5"/><line style="stroke:#181818;stroke-width:0.5;" x1="293.5" x2="372.5" y1="733.5" y2="733.5"/></g><!--class Diagnostic--><g id="elem_Diagnostic"><rect codeLine="47" fill="#F1F1F1" height="48" id="Diagnostic" rx="2.5" ry="2.5" style="stroke:#181818;stroke-width:0.5;" width="98" x="409" y="693.5"/><ellipse cx="424" cy="709.5" fill="#ADD1B2" rx="11" ry="11" style="stroke:#181818;stroke-width:1.0;"/><path d="M422.5781,714.8594 Q420.7188,714.8594 419.625,713.4688 Q418.5313,712.0781 418.5313,709.0938 Q418.5313,706.5625 419.6953,704.9063 Q420.8594,703.25 422.8438,703.25 Q424.3125,703.25 424.7813,703.375 Q425.25,703.5781 425.25,703.5781 Q425.25,703.5781 425.25,703.5078 Q425.25,703.4375 425.8594,702.5156 L426.9063,706.1719 L425.5781,706.5781 Q425.1094,705.0313 424.4453,704.3672 Q423.7813,703.7031 422.7188,703.7031 Q422.3281,703.7031 421.5625,705.2344 Q420.7969,706.7656 420.7969,709.0156 Q420.7969,711.4844 421.4609,712.875 Q422.125,714.2656 422.6563,714.2656 Q423.7188,714.2656 424.4766,713.5 Q425.2344,712.7344 425.5781,711.0781 L426.9063,711.6719 Q426.5781,713.0781 425.6797,713.9688 Q424.7813,714.8594 422.5781,714.8594 Z " fill="#000000"/><text fill="#000000" font-family="sans-serif" font-size="14" lengthAdjust="spacing" textLength="66" x="438" y="715.9839">Diagnostic</text><line style="stroke:#181818;stroke-width:0.5;" x1="410" x2="506" y1="725.5" y2="725.5"/><line style="stroke:#181818;stroke-width:0.5;" x1="410" x2="506" y1="733.5" y2="733.5"/></g><!--class DiagnosticBuilder--><g id="elem_DiagnosticBuilder"><rect codeLine="50" fill="#F1F1F1" height="200.9609" id="DiagnosticBuilder" rx="2.5" ry="2.5" style="stroke:#181818;stroke-width:0.5;" width="207" x="773.5" y="95"/><ellipse cx="817.75" cy="111" fill="#ADD1B2" rx="11" ry="11" style="stroke:#181818;stroke-width:1.0;"/><path d="M816.3281,116.3594 Q814.4688,116.3594 813.375,114.9688 Q812.2813,113.5781 812.2813,110.5938 Q812.2813,108.0625 813.4453,106.4063 Q814.6094,104.75 816.5938,104.75 Q818.0625,104.75 818.5313,104.875 Q819,105.0781 819,105.0781 Q819,105.0781 819,105.0078 Q819,104.9375 819.6094,104.0156 L820.6563,107.6719 L819.3281,108.0781 Q818.8594,106.5313 818.1953,105.8672 Q817.5313,105.2031 816.4688,105.2031 Q816.0781,105.2031 815.3125,106.7344 Q814.5469,108.2656 814.5469,110.5156 Q814.5469,112.9844 815.2109,114.375 Q815.875,115.7656 816.4063,115.7656 Q817.4688,115.7656 818.2266,115 Q818.9844,114.2344 819.3281,112.5781 L820.6563,113.1719 Q820.3281,114.5781 819.4297,115.4688 Q818.5313,116.3594 816.3281,116.3594 Z " fill="#000000"/><text fill="#000000" font-family="sans-serif" font-size="14" lengthAdjust="spacing" textLength="110" x="838.25" y="117.4839">DiagnosticBuilder</text><line style="stroke:#181818;stroke-width:0.5;" x1="774.5" x2="979.5" y1="127" y2="127"/><rect fill="none" height="6" style="stroke:#C82930;stroke-width:1.0;" width="6" x="781.5" y="139.0601"/><text fill="#000000" font-family="sans-serif" font-size="14" lengthAdjust="spacing" textLength="181" x="793.5" y="147.0439">DiagObj: DiagnosticsEngine*</text><rect fill="none" height="6" style="stroke:#C82930;stroke-width:1.0;" width="6" x="781.5" y="158.1802"/><text fill="#000000" font-family="sans-serif" font-size="14" lengthAdjust="spacing" textLength="123" x="793.5" y="166.1641">NumArgs: unsigned</text><rect fill="none" height="6" style="stroke:#C82930;stroke-width:1.0;" width="6" x="781.5" y="177.3003"/><text fill="#000000" font-family="sans-serif" font-size="14" lengthAdjust="spacing" textLength="83" x="793.5" y="185.2842">IsActive: bool</text><rect fill="none" height="6" style="stroke:#C82930;stroke-width:1.0;" width="6" x="781.5" y="196.4204"/><text fill="#000000" font-family="sans-serif" font-size="14" lengthAdjust="spacing" textLength="109" x="793.5" y="204.4043">IsForceEmit: bool</text><line style="stroke:#181818;stroke-width:0.5;" x1="774.5" x2="979.5" y1="211.4805" y2="211.4805"/><polygon fill="#FFFF44" points="784.5,221.5405,788.5,225.5405,784.5,229.5405,780.5,225.5405" style="stroke:#B38D22;stroke-width:1.0;"/><text fill="#000000" font-family="sans-serif" font-size="14" lengthAdjust="spacing" textLength="90" x="793.5" y="231.5244">FlushCounts()</text><polygon fill="#FFFF44" points="784.5,240.6606,788.5,244.6606,784.5,248.6606,780.5,244.6606" style="stroke:#B38D22;stroke-width:1.0;"/><text fill="#000000" font-family="sans-serif" font-size="14" lengthAdjust="spacing" textLength="44" x="793.5" y="250.6445">Clear()</text><polygon fill="#FFFF44" points="784.5,259.7808,788.5,263.7808,784.5,267.7808,780.5,263.7808" style="stroke:#B38D22;stroke-width:1.0;"/><text fill="#000000" font-family="sans-serif" font-size="14" lengthAdjust="spacing" textLength="58" x="793.5" y="269.7646">isActive()</text><polygon fill="#FFFF44" points="784.5,278.9009,788.5,282.9009,784.5,286.9009,780.5,282.9009" style="stroke:#B38D22;stroke-width:1.0;"/><text fill="#000000" font-family="sans-serif" font-size="14" lengthAdjust="spacing" textLength="37" x="793.5" y="288.8848">Emit()</text></g><g id="elem_GMN24"><path d="M653,6 L653,33.7544 A0,0 0 0 0 653,33.7544 L873,33.7544 L877,94.88 L881,33.7544 L1101,33.7544 A0,0 0 0 0 1101,33.7544 L1101,16 L1091,6 L653,6 A0,0 0 0 0 653,6 " fill="#FEFFDD" style="stroke:#181818;stroke-width:0.5;"/><path d="M1091,6 L1091,16 L1101,16 L1091,6 " fill="#FEFFDD" style="stroke:#181818;stroke-width:0.5;"/><text fill="#000000" font-family="sans-serif" font-size="13" lengthAdjust="spacing" textLength="427" x="659" y="25.8979">用来生成诊断信息的帮助类，通过DiagnosticsEngine::Report方法创建实例</text></g><path d="M613.5,176.5 L613.5,204.2544 A0,0 0 0 0 613.5,204.2544 L738.5,204.2544 A0,0 0 0 0 738.5,204.2544 L738.5,194.5 L777.5,282.4009 L738.5,186.5 L738.5,186.5 L728.5,176.5 L613.5,176.5 A0,0 0 0 0 613.5,176.5 " fill="#FEFFDD" style="stroke:#181818;stroke-width:0.5;"/><path d="M728.5,176.5 L728.5,186.5 L738.5,186.5 L728.5,176.5 " fill="#FEFFDD" style="stroke:#181818;stroke-width:0.5;"/><text fill="#000000" font-family="sans-serif" font-size="13" lengthAdjust="spacing" textLength="104" x="619.5" y="196.3979">强制输出诊断信息</text><!--class DiagnosticIDs--><g id="elem_DiagnosticIDs"><rect codeLine="66" fill="#F1F1F1" height="48" id="DiagnosticIDs" rx="2.5" ry="2.5" style="stroke:#181818;stroke-width:0.5;" width="118" x="542" y="693.5"/><ellipse cx="557" cy="709.5" fill="#ADD1B2" rx="11" ry="11" style="stroke:#181818;stroke-width:1.0;"/><path d="M555.5781,714.8594 Q553.7188,714.8594 552.625,713.4688 Q551.5313,712.0781 551.5313,709.0938 Q551.5313,706.5625 552.6953,704.9063 Q553.8594,703.25 555.8438,703.25 Q557.3125,703.25 557.7813,703.375 Q558.25,703.5781 558.25,703.5781 Q558.25,703.5781 558.25,703.5078 Q558.25,703.4375 558.8594,702.5156 L559.9063,706.1719 L558.5781,706.5781 Q558.1094,705.0313 557.4453,704.3672 Q556.7813,703.7031 555.7188,703.7031 Q555.3281,703.7031 554.5625,705.2344 Q553.7969,706.7656 553.7969,709.0156 Q553.7969,711.4844 554.4609,712.875 Q555.125,714.2656 555.6563,714.2656 Q556.7188,714.2656 557.4766,713.5 Q558.2344,712.7344 558.5781,711.0781 L559.9063,711.6719 Q559.5781,713.0781 558.6797,713.9688 Q557.7813,714.8594 555.5781,714.8594 Z " fill="#000000"/><text fill="#000000" font-family="sans-serif" font-size="14" lengthAdjust="spacing" textLength="86" x="571" y="715.9839">DiagnosticIDs</text><line style="stroke:#181818;stroke-width:0.5;" x1="543" x2="659" y1="725.5" y2="725.5"/><line style="stroke:#181818;stroke-width:0.5;" x1="543" x2="659" y1="733.5" y2="733.5"/></g><!--class PartialDiagnostic--><g id="elem_PartialDiagnostic"><rect codeLine="67" fill="#F1F1F1" height="48" id="PartialDiagnostic" rx="2.5" ry="2.5" style="stroke:#181818;stroke-width:0.5;" width="138" x="1084" y="423"/><ellipse cx="1099" cy="439" fill="#ADD1B2" rx="11" ry="11" style="stroke:#181818;stroke-width:1.0;"/><path d="M1097.5781,444.3594 Q1095.7188,444.3594 1094.625,442.9688 Q1093.5313,441.5781 1093.5313,438.5938 Q1093.5313,436.0625 1094.6953,434.4063 Q1095.8594,432.75 1097.8438,432.75 Q1099.3125,432.75 1099.7813,432.875 Q1100.25,433.0781 1100.25,433.0781 Q1100.25,433.0781 1100.25,433.0078 Q1100.25,432.9375 1100.8594,432.0156 L1101.9063,435.6719 L1100.5781,436.0781 Q1100.1094,434.5313 1099.4453,433.8672 Q1098.7813,433.2031 1097.7188,433.2031 Q1097.3281,433.2031 1096.5625,434.7344 Q1095.7969,436.2656 1095.7969,438.5156 Q1095.7969,440.9844 1096.4609,442.375 Q1097.125,443.7656 1097.6563,443.7656 Q1098.7188,443.7656 1099.4766,443 Q1100.2344,442.2344 1100.5781,440.5781 L1101.9063,441.1719 Q1101.5781,442.5781 1100.6797,443.4688 Q1099.7813,444.3594 1097.5781,444.3594 Z " fill="#000000"/><text fill="#000000" font-family="sans-serif" font-size="14" lengthAdjust="spacing" textLength="106" x="1113" y="445.4839">PartialDiagnostic</text><line style="stroke:#181818;stroke-width:0.5;" x1="1085" x2="1221" y1="455" y2="455"/><line style="stroke:#181818;stroke-width:0.5;" x1="1085" x2="1221" y1="463" y2="463"/></g><g id="elem_GMN31"><path d="M1676.5,433 L1676.5,460.7544 L1931.5,460.7544 L1931.5,443 L1921.5,433 L1676.5,433 " fill="#FEFFDD" style="stroke:#181818;stroke-width:0.5;"/><path d="M1921.5,433 L1921.5,443 L1931.5,443 L1921.5,433 " fill="#FEFFDD" style="stroke:#181818;stroke-width:1.0;"/><text fill="#000000" font-family="sans-serif" font-size="13" lengthAdjust="spacing" textLength="234" x="1682.5" y="452.8979">精简版的诊断引擎，很多信息不包含在内</text></g><!--class ASTReader--><g id="elem_ASTReader"><rect codeLine="69" fill="#F1F1F1" height="48" id="ASTReader" rx="2.5" ry="2.5" style="stroke:#181818;stroke-width:0.5;" width="106" x="695" y="693.5"/><ellipse cx="710" cy="709.5" fill="#ADD1B2" rx="11" ry="11" style="stroke:#181818;stroke-width:1.0;"/><path d="M708.5781,714.8594 Q706.7188,714.8594 705.625,713.4688 Q704.5313,712.0781 704.5313,709.0938 Q704.5313,706.5625 705.6953,704.9063 Q706.8594,703.25 708.8438,703.25 Q710.3125,703.25 710.7813,703.375 Q711.25,703.5781 711.25,703.5781 Q711.25,703.5781 711.25,703.5078 Q711.25,703.4375 711.8594,702.5156 L712.9063,706.1719 L711.5781,706.5781 Q711.1094,705.0313 710.4453,704.3672 Q709.7813,703.7031 708.7188,703.7031 Q708.3281,703.7031 707.5625,705.2344 Q706.7969,706.7656 706.7969,709.0156 Q706.7969,711.4844 707.4609,712.875 Q708.125,714.2656 708.6563,714.2656 Q709.7188,714.2656 710.4766,713.5 Q711.2344,712.7344 711.5781,711.0781 L712.9063,711.6719 Q712.5781,713.0781 711.6797,713.9688 Q710.7813,714.8594 708.5781,714.8594 Z " fill="#000000"/><text fill="#000000" font-family="sans-serif" font-size="14" lengthAdjust="spacing" textLength="74" x="724" y="715.9839">ASTReader</text><line style="stroke:#181818;stroke-width:0.5;" x1="696" x2="800" y1="725.5" y2="725.5"/><line style="stroke:#181818;stroke-width:0.5;" x1="696" x2="800" y1="733.5" y2="733.5"/></g><!--class ASTWriter--><g id="elem_ASTWriter"><rect codeLine="70" fill="#F1F1F1" height="48" id="ASTWriter" rx="2.5" ry="2.5" style="stroke:#181818;stroke-width:0.5;" width="97" x="836.5" y="693.5"/><ellipse cx="851.5" cy="709.5" fill="#ADD1B2" rx="11" ry="11" style="stroke:#181818;stroke-width:1.0;"/><path d="M850.0781,714.8594 Q848.2188,714.8594 847.125,713.4688 Q846.0313,712.0781 846.0313,709.0938 Q846.0313,706.5625 847.1953,704.9063 Q848.3594,703.25 850.3438,703.25 Q851.8125,703.25 852.2813,703.375 Q852.75,703.5781 852.75,703.5781 Q852.75,703.5781 852.75,703.5078 Q852.75,703.4375 853.3594,702.5156 L854.4063,706.1719 L853.0781,706.5781 Q852.6094,705.0313 851.9453,704.3672 Q851.2813,703.7031 850.2188,703.7031 Q849.8281,703.7031 849.0625,705.2344 Q848.2969,706.7656 848.2969,709.0156 Q848.2969,711.4844 848.9609,712.875 Q849.625,714.2656 850.1563,714.2656 Q851.2188,714.2656 851.9766,713.5 Q852.7344,712.7344 853.0781,711.0781 L854.4063,711.6719 Q854.0781,713.0781 853.1797,713.9688 Q852.2813,714.8594 850.0781,714.8594 Z " fill="#000000"/><text fill="#000000" font-family="sans-serif" font-size="14" lengthAdjust="spacing" textLength="65" x="865.5" y="715.9839">ASTWriter</text><line style="stroke:#181818;stroke-width:0.5;" x1="837.5" x2="932.5" y1="725.5" y2="725.5"/><line style="stroke:#181818;stroke-width:0.5;" x1="837.5" x2="932.5" y1="733.5" y2="733.5"/></g><!--class Sema--><g id="elem_Sema"><rect codeLine="71" fill="#F1F1F1" height="48" id="Sema" rx="2.5" ry="2.5" style="stroke:#181818;stroke-width:0.5;" width="68" x="969" y="693.5"/><ellipse cx="984" cy="709.5" fill="#ADD1B2" rx="11" ry="11" style="stroke:#181818;stroke-width:1.0;"/><path d="M982.5781,714.8594 Q980.7188,714.8594 979.625,713.4688 Q978.5313,712.0781 978.5313,709.0938 Q978.5313,706.5625 979.6953,704.9063 Q980.8594,703.25 982.8438,703.25 Q984.3125,703.25 984.7813,703.375 Q985.25,703.5781 985.25,703.5781 Q985.25,703.5781 985.25,703.5078 Q985.25,703.4375 985.8594,702.5156 L986.9063,706.1719 L985.5781,706.5781 Q985.1094,705.0313 984.4453,704.3672 Q983.7813,703.7031 982.7188,703.7031 Q982.3281,703.7031 981.5625,705.2344 Q980.7969,706.7656 980.7969,709.0156 Q980.7969,711.4844 981.4609,712.875 Q982.125,714.2656 982.6563,714.2656 Q983.7188,714.2656 984.4766,713.5 Q985.2344,712.7344 985.5781,711.0781 L986.9063,711.6719 Q986.5781,713.0781 985.6797,713.9688 Q984.7813,714.8594 982.5781,714.8594 Z " fill="#000000"/><text fill="#000000" font-family="sans-serif" font-size="14" lengthAdjust="spacing" textLength="36" x="998" y="715.9839">Sema</text><line style="stroke:#181818;stroke-width:0.5;" x1="970" x2="1036" y1="725.5" y2="725.5"/><line style="stroke:#181818;stroke-width:0.5;" x1="970" x2="1036" y1="733.5" y2="733.5"/></g><g id="elem_GMN49"><path d="M696.5,908 L696.5,935.7544 A0,0 0 0 0 696.5,935.7544 L795.5,935.7544 A0,0 0 0 0 795.5,935.7544 L795.5,918 L785.5,908 L750.13,908 L747.77,741.73 L742.13,908 L696.5,908 A0,0 0 0 0 696.5,908 " fill="#FEFFDD" style="stroke:#181818;stroke-width:0.5;"/><path d="M785.5,908 L785.5,918 L795.5,918 L785.5,908 " fill="#FEFFDD" style="stroke:#181818;stroke-width:0.5;"/><text fill="#000000" font-family="sans-serif" font-size="13" lengthAdjust="spacing" textLength="78" x="702.5" y="927.8979">读语法树操作</text></g><g id="elem_GMN52"><path d="M831,908 L831,935.7544 A0,0 0 0 0 831,935.7544 L943,935.7544 A0,0 0 0 0 943,935.7544 L943,918 L933,908 L890.87,908 L885.23,741.73 L882.87,908 L831,908 A0,0 0 0 0 831,908 " fill="#FEFFDD" style="stroke:#181818;stroke-width:0.5;"/><path d="M933,908 L933,918 L943,918 L933,908 " fill="#FEFFDD" style="stroke:#181818;stroke-width:0.5;"/><text fill="#000000" font-family="sans-serif" font-size="13" lengthAdjust="spacing" textLength="91" x="837" y="927.8979">改写语法树操作</text></g><!--link DiagnosticConsumer to UserConsumer--><g id="link_DiagnosticConsumer_UserConsumer"><path codeLine="18" d="M1623,837.47 C1623,857.33 1623,876.25 1623,891.04 " fill="none" id="DiagnosticConsumer-to-UserConsumer" style="stroke:#181818;stroke-width:1.0;"/><polygon fill="#181818" points="1623,896.03,1627,887.03,1623,891.03,1619,887.03,1623,896.03" style="stroke:#181818;stroke-width:1.0;"/></g><!--link PartialDiagnostic to GMN31--><g id="link_PartialDiagnostic_GMN31"><path d="M1195.06,422.64 C1280.34,376.48 1479.27,285.2 1641.5,335.5 C1703.92,354.85 1763.65,407.4 1789.96,432.83 " fill="none" id="PartialDiagnostic-GMN31" style="stroke:#181818;stroke-width:1.0;stroke-dasharray:7.0,7.0;"/></g><!--reverse link DiagnosticsEngine to DiagState--><g id="link_DiagnosticsEngine_DiagState"><path codeLine="72" d="M628.78,517.75 C627.52,518.18 626.26,518.6 625,519 C408.27,588.54 299.47,459.3 119,598 C87.56,622.16 69.3,666.07 60.52,693.12 " fill="none" id="DiagnosticsEngine-backto-DiagState" style="stroke:#181818;stroke-width:1.0;"/><polygon fill="none" points="640.86,513.18,633.8327,511.5622,629.6366,517.4267,636.6639,519.0445,640.86,513.18" style="stroke:#181818;stroke-width:1.0;"/></g><!--reverse link DiagnosticsEngine to DiagStateMap--><g id="link_DiagnosticsEngine_DiagStateMap"><path codeLine="73" d="M628.74,517.65 C627.49,518.11 626.25,518.56 625,519 C474.56,571.89 402.2,501.82 275,598 C241.8,623.1 218.44,666.71 206.4,693.44 " fill="none" id="DiagnosticsEngine-backto-DiagStateMap" style="stroke:#181818;stroke-width:1.0;"/><polygon fill="none" points="640.74,512.82,633.6806,511.3488,629.6074,517.2994,636.6668,518.7706,640.74,512.82" style="stroke:#181818;stroke-width:1.0;"/></g><!--reverse link DiagnosticsEngine to FixItHint--><g id="link_DiagnosticsEngine_FixItHint"><path codeLine="74" d="M628.96,517.19 C627.64,517.8 626.32,518.4 625,519 C524.98,564.21 473.48,525.57 391,598 C362.09,623.39 346.14,666.49 338.6,693.12 " fill="none" id="DiagnosticsEngine-backto-FixItHint" style="stroke:#181818;stroke-width:1.0;"/><polygon fill="none" points="640.65,511.56,633.5085,510.5602,629.8389,516.7678,636.9804,517.7676,640.65,511.56" style="stroke:#181818;stroke-width:1.0;"/></g><!--link DiagnosticBuilder to DiagnosticsEngine--><g id="link_DiagnosticBuilder_DiagnosticsEngine"><path codeLine="75" d="M825.46,296.18 C811.92,322.38 797.58,350.12 784.96,374.51 " fill="none" id="DiagnosticBuilder-DiagnosticsEngine" style="stroke:#181818;stroke-width:1.0;stroke-dasharray:7.0,7.0;"/><text fill="#000000" font-family="sans-serif" font-size="13" lengthAdjust="spacing" textLength="66" x="810" y="341.8979">friend class</text></g><!--link DiagnosticBuilder to PartialDiagnostic--><g id="link_DiagnosticBuilder_PartialDiagnostic"><path codeLine="76" d="M980.95,290.47 C1031.55,336.21 1088.66,387.84 1122.7,418.61 " fill="none" id="DiagnosticBuilder-to-PartialDiagnostic" style="stroke:#181818;stroke-width:1.0;stroke-dasharray:7.0,7.0;"/><polygon fill="#181818" points="1126.02,421.61,1122.0253,412.6076,1122.3106,418.2573,1116.661,418.5426,1126.02,421.61" style="stroke:#181818;stroke-width:1.0;"/><text fill="#000000" font-family="sans-serif" font-size="13" lengthAdjust="spacing" textLength="66" x="1041" y="341.8979">friend class</text></g><!--link DiagnosticsEngine to DiagnosticConsumer--><g id="link_DiagnosticsEngine_DiagnosticConsumer"><path codeLine="77" d="M853.82,472.52 C915.59,486.6 995.09,504.35 1066,519 C1250.3,557.06 1312,517.28 1482,598 C1488.07,600.88 1494.09,604.09 1500.03,607.54 " fill="none" id="DiagnosticsEngine-DiagnosticConsumer" style="stroke:#181818;stroke-width:1.0;stroke-dasharray:7.0,7.0;"/></g><!--link DiagnosticsEngine to DiagnosticOptions--><g id="link_DiagnosticsEngine_DiagnosticOptions"><path codeLine="78" d="M853.72,471.37 C984.39,501.48 1197.96,555.05 1267,598 C1294.53,615.13 1319.37,641.21 1338.27,664.55 " fill="none" id="DiagnosticsEngine-DiagnosticOptions" style="stroke:#181818;stroke-width:1.0;stroke-dasharray:7.0,7.0;"/></g><!--link DiagnosticsEngine to ASTReader--><g id="link_DiagnosticsEngine_ASTReader"><path codeLine="79" d="M748,519.25 C748,574.11 748,647.12 748,687.15 " fill="none" id="DiagnosticsEngine-to-ASTReader" style="stroke:#181818;stroke-width:1.0;stroke-dasharray:7.0,7.0;"/><polygon fill="#181818" points="748,691.77,752,682.77,748,686.77,744,682.77,748,691.77" style="stroke:#181818;stroke-width:1.0;"/><text fill="#000000" font-family="sans-serif" font-size="13" lengthAdjust="spacing" textLength="66" x="749" y="564.8979">friend class</text></g><!--link DiagnosticsEngine to ASTWriter--><g id="link_DiagnosticsEngine_ASTWriter"><path codeLine="80" d="M805.69,519.37 C812.31,529.04 818.61,539.07 824,549 C848.8,594.71 867.33,652.58 877.13,686.95 " fill="none" id="DiagnosticsEngine-to-ASTWriter" style="stroke:#181818;stroke-width:1.0;stroke-dasharray:7.0,7.0;"/><polygon fill="#181818" points="878.45,691.63,879.858,681.8823,877.0934,686.8176,872.1581,684.0529,878.45,691.63" style="stroke:#181818;stroke-width:1.0;"/><text fill="#000000" font-family="sans-serif" font-size="13" lengthAdjust="spacing" textLength="66" x="834" y="564.8979">friend class</text></g><!--link DiagnosticsEngine to Sema--><g id="link_DiagnosticsEngine_Sema"><path codeLine="81" d="M853.92,504.27 C889.98,528.5 927.16,560.06 951,598 C968.96,626.58 983.75,662.44 992.91,687.18 " fill="none" id="DiagnosticsEngine-to-Sema" style="stroke:#181818;stroke-width:1.0;stroke-dasharray:7.0,7.0;"/><polygon fill="#181818" points="994.59,691.8,995.2543,681.9736,992.8721,687.1044,987.7413,684.7222,994.59,691.8" style="stroke:#181818;stroke-width:1.0;"/><text fill="#000000" font-family="sans-serif" font-size="13" lengthAdjust="spacing" textLength="66" x="928" y="564.8979">friend class</text></g><!--link DiagnosticsEngine to DiagnosticIDs--><g id="link_DiagnosticsEngine_DiagnosticIDs"><path codeLine="82" d="M690.99,519.36 C684.22,529.08 677.7,539.11 672,549 C645.49,594.98 623.19,652.77 611,687.05 " fill="none" id="DiagnosticsEngine-to-DiagnosticIDs" style="stroke:#181818;stroke-width:1.0;stroke-dasharray:7.0,7.0;"/><polygon fill="#181818" points="609.34,691.74,616.0915,684.5694,610.9937,687.0214,608.5417,681.9236,609.34,691.74" style="stroke:#181818;stroke-width:1.0;"/><text fill="#000000" font-family="sans-serif" font-size="13" lengthAdjust="spacing" textLength="66" x="673" y="564.8979">friend class</text></g><!--link DiagnosticsEngine to Diagnostic--><g id="link_DiagnosticsEngine_Diagnostic"><path codeLine="83" d="M642.2,511.22 C593.49,541.82 542.43,576.51 524,598 C500.58,625.3 481.61,662.21 470.12,687.55 " fill="none" id="DiagnosticsEngine-to-Diagnostic" style="stroke:#181818;stroke-width:1.0;stroke-dasharray:7.0,7.0;"/><polygon fill="#181818" points="468.12,692.02,475.4439,685.4351,470.16,687.4551,468.14,682.1712,468.12,692.02" style="stroke:#181818;stroke-width:1.0;"/><text fill="#000000" font-family="sans-serif" font-size="13" lengthAdjust="spacing" textLength="66" x="585" y="564.8979">friend class</text></g><!--SRC=[bLHRJnD167tVNp59Nxoa_e1z844ksaJ0Y8RuE6o7CcOxGsPdHKD8gX5e4HK3cWY84Y_WXJPeehHK-3ETxVR9l-0iixlTRhkeVTf-vypETxvpzeEJ5cVGu60GmnoX5iV602MMdKSCfAumXCXjP9fqTau3yfSQjVCJa15CSfOER6BX747P41fYZB8uS367U8YTEn-j1QyAgdSnupOqWM4YoEB5ooY7oJYrcO66iOdYy1399eDJc61hEbxD4CEqioX3ejfjmhlwkGf9raHjbiJdDK8v0fpE03hLOtXQSttFUVt1tNtdRA-wbMNdvRwelt3MdhQMLfeRZnedEyw3ok_wYYQgFnf77yHgiLLuA07dRLtKdxd7QsAffY6I1Turcc52omAtBCH2S-RcjHwMfTDz7JJL9SEvQUxrsG5v7HP_kakVHNcZKIt9ouq0YbtSliWQ8j8515B6VKY02aNQWwNhRLPcq6eZOpEy0vJ_iRn74GPCZ0ZNUmpmWYACpHB4pi2LvoCvoV4V8O4vAS4to4HJlDCXNu8MDKMKjnl7ZqMbwXxiI5F4oe9O_TAeBMfEgU1ibHIrjLLmFpwGOn8d2_91MPWyAbzdC2HhcivUemRqYZgOfDJq1SYweex2FBBYq00rxNnm855JC5FdwQue_eWgyx9sM6ZKDbk5KckdUfgubGNdyLT5KY8aIG8gT3A0cfV0KrYLFCcB2w9SRUwNabMFSyYHJ6MiCW9dmk8mlfVXLp7Xij8rhpbDc-ygNhQncVNI7idJv1szsqu_3dAfzBEktPJEMFq6ntTHTBePQvZAl0pbCO-KKyEcRKrth87KG6GTfR3_gk2_T_wCVU0ByDT1S_sDKroDZLuSbiNof-R1aVIWLTXmJvQwrEdw3JH36NTULftlBqHnKnpLL6RRJYH4msz0r_r6HRtcHUJKs6WZoK6MNtFeu7N8E8PcnBNvs8hfOW0TDByTDyk5PgaerKR3wNrgnqNnVaErq3XyehuyiRKd0-TVsJz-ymQ2KaBOXAnCCCmZbN6KXnqBCTXJD9rkH_5lk8ng0YKChjOTpKkNUkn77Kmnx4rKzTVpM5_FMIMT2zxSSLsuo__22_P3BrfVUyAnwvFfQlp_HlUy-JTcH-J-zqYSVvhAISevpNkn33NgmAqSkPLz-HqvRvyxQqyQlxPwa9L27JZhLR7uAixN_W00]--></g></svg>