<?xml version="1.0" encoding="UTF-8" standalone="no"?>
<!DOCTYPE svg PUBLIC "-//W3C//DTD SVG 1.1//EN" "http://www.w3.org/Graphics/SVG/1.1/DTD/svg11.dtd">
<!-- 由 Microsoft Visio, SVG Export 生成 连通图3.svg 页-1 -->
<svg xmlns="http://www.w3.org/2000/svg" xmlns:xlink="http://www.w3.org/1999/xlink" xmlns:ev="http://www.w3.org/2001/xml-events"
		xmlns:v="http://schemas.microsoft.com/visio/2003/SVGExtensions/" width="2.89573in" height="1.72058in"
		viewBox="0 0 208.493 123.882" xml:space="preserve" color-interpolation-filters="sRGB" class="st5">
	<v:documentProperties v:langID="2052" v:metric="true" v:viewMarkup="false"/>

	<style type="text/css">
	<![CDATA[
		.st1 {fill:#ffffff;stroke:#000000;stroke-linecap:round;stroke-linejoin:round;stroke-width:0.75}
		.st2 {fill:#000000;font-family:Calibri;font-size:0.833336em}
		.st3 {marker-end:url(#mrkr5-18);stroke:#000000;stroke-linecap:round;stroke-linejoin:round;stroke-width:0.75}
		.st4 {fill:#000000;fill-opacity:1;stroke:#000000;stroke-opacity:1;stroke-width:0.22935779816514}
		.st5 {fill:none;fill-rule:evenodd;font-size:12px;overflow:visible;stroke-linecap:square;stroke-miterlimit:3}
	]]>
	</style>

	<defs id="Markers">
		<g id="lend5">
			<path d="M 2 1 L 0 0 L 1.98117 -0.993387 C 1.67173 -0.364515 1.67301 0.372641 1.98465 1.00043 " style="stroke:none"/>
		</g>
		<marker id="mrkr5-18" class="st4" v:arrowType="5" v:arrowSize="2" v:setback="7.63" refX="-7.63" orient="auto"
				markerUnits="strokeWidth" overflow="visible">
			<use xlink:href="#lend5" transform="scale(-4.36,-4.36) "/>
		</marker>
	</defs>
	<g v:mID="0" v:index="1" v:groupContext="foregroundPage">
		<title>页-1</title>
		<v:pageProperties v:drawingScale="0.0393701" v:pageScale="0.0393701" v:drawingUnits="24" v:shadowOffsetX="8.50394"
				v:shadowOffsetY="-8.50394"/>
		<g id="shape60-1" v:mID="60" v:groupContext="shape" transform="translate(76.7266,-87.916)">
			<title>椭圆形.262</title>
			<desc>SCC</desc>
			<v:userDefs>
				<v:ud v:nameU="visVersion" v:val="VT0(15):26"/>
			</v:userDefs>
			<v:textBlock v:margins="rect(4,4,4,4)" v:tabSpace="42.5197"/>
			<v:textRect cx="26.6929" cy="106.086" width="46.72" height="31.1417"/>
			<path d="M0 106.09 A26.6929 17.7953 0 0 1 53.39 106.09 A26.6929 17.7953 0 1 1 0 106.09 Z" class="st1"/>
			<text x="19.06" y="109.09" class="st2" v:langID="2052"><v:paragraph v:horizAlign="1"/><v:tabList/>SCC</text>		</g>
		<g id="shape61-4" v:mID="61" v:groupContext="shape" transform="translate(0.375,-45.2501)">
			<title>椭圆形.263</title>
			<desc>B</desc>
			<v:userDefs>
				<v:ud v:nameU="visVersion" v:val="VT0(15):26"/>
			</v:userDefs>
			<v:textBlock v:margins="rect(4,4,4,4)" v:tabSpace="42.5197"/>
			<v:textRect cx="26.6929" cy="106.086" width="46.72" height="31.1417"/>
			<path d="M0 106.09 A26.6929 17.7953 0 0 1 53.39 106.09 A26.6929 17.7953 0 1 1 0 106.09 Z" class="st1"/>
			<text x="23.97" y="109.09" class="st2" v:langID="2052"><v:paragraph v:horizAlign="1"/><v:tabList/>B</text>		</g>
		<g id="shape62-7" v:mID="62" v:groupContext="shape" transform="translate(76.7266,-0.375)">
			<title>椭圆形.264</title>
			<desc>C</desc>
			<v:userDefs>
				<v:ud v:nameU="visVersion" v:val="VT0(15):26"/>
			</v:userDefs>
			<v:textBlock v:margins="rect(4,4,4,4)" v:tabSpace="42.5197"/>
			<v:textRect cx="26.6929" cy="106.086" width="46.72" height="31.1417"/>
			<path d="M0 106.09 A26.6929 17.7953 0 0 1 53.39 106.09 A26.6929 17.7953 0 1 1 0 106.09 Z" class="st1"/>
			<text x="24.03" y="109.09" class="st2" v:langID="2052"><v:paragraph v:horizAlign="1"/><v:tabList/>C</text>		</g>
		<g id="shape63-10" v:mID="63" v:groupContext="shape" transform="translate(154.732,-45.2501)">
			<title>椭圆形.265</title>
			<desc>D</desc>
			<v:userDefs>
				<v:ud v:nameU="visVersion" v:val="VT0(15):26"/>
			</v:userDefs>
			<v:textBlock v:margins="rect(4,4,4,4)" v:tabSpace="42.5197"/>
			<v:textRect cx="26.6929" cy="106.086" width="46.72" height="31.1417"/>
			<path d="M0 106.09 A26.6929 17.7953 0 0 1 53.39 106.09 A26.6929 17.7953 0 1 1 0 106.09 Z" class="st1"/>
			<text x="23.62" y="109.09" class="st2" v:langID="2052"><v:paragraph v:horizAlign="1"/><v:tabList/>D</text>		</g>
		<g id="shape64-13" v:mID="64" v:groupContext="shape" transform="translate(-20.462,87.916) rotate(-90)">
			<title>工作表.64</title>
			<path d="M0 123.88 L46.23 123.88" class="st3"/>
		</g>
		<g id="shape65-19" v:mID="65" v:groupContext="shape" transform="translate(184.145,-93.3069) rotate(25.8591)">
			<title>工作表.65</title>
			<path d="M0 123.88 L51.3 123.88" class="st3"/>
		</g>
		<g id="shape66-24" v:mID="66" v:groupContext="shape" transform="translate(17.4171,214.473) rotate(-151.396)">
			<title>工作表.66</title>
			<path d="M0 123.88 L50.84 123.88" class="st3"/>
		</g>
	</g>
</svg>
